<svg xmlns="http://www.w3.org/2000/svg" width="103" height="21" fill="none"><path d="M34.882 3.416h.91v2.642h1.136l1.046-4.19V.181h-3.092v3.234zm-13.826 3.6c.683 0 1 .546 1 4.828h-2.228c.091-4.282.455-4.829 1.228-4.829zm4.139 8.609h-1.456v.5c0 2.096-.59 3.099-1.819 3.099-1.41 0-2.092-.912-2.092-5.695v-.364h5.549c0-5.603-1.228-7.79-4.32-7.79-3.093 0-5.094 3.189-5.094 8.109 0 4.874 1.91 7.516 5.184 7.516 2.82 0 4.048-1.594 4.048-4.965v-.41zm38.622-8.61c.682 0 1 .547 1 4.829h-2.103c.091-4.282.33-4.829 1.103-4.829zm4.138 8.61H66.5v.5c0 2.096-.591 3.099-1.82 3.099-1.41 0-1.966-.912-1.966-5.695v-.364h5.423c0-5.603-1.228-7.79-4.32-7.79-3.093 0-5.094 3.189-5.094 8.109 0 4.874 1.91 7.516 5.185 7.516 2.82 0 4.047-1.594 4.047-4.965v-.41zM88.056 21c2.047 0 2.911-1.276 2.911-3.098v-2.277h-1.364v2.277c0 .957-.137 1.276-.591 1.276-.41 0-.546-.274-.546-1.14V7.107h2.501V5.694h-2.456V1.458h-1.41L85.01 5.876h-1.228v1.185h1.092v10.112c0 2.643.455 3.827 3.183 3.827zM77.506 9.43c0-2.825-1.274-4.01-4.002-4.01-2.73 0-4.594 1.96-4.594 4.283v.911h3.138V8.473c0-1.23.273-1.686.955-1.686.683 0 .955.41.955 1.686v2.505c-4.138 1.412-5.411 2.46-5.411 5.968 0 2.733 1.09 4.054 2.956 4.054 1.591 0 2.32-1.093 2.728-1.776v1.503h4.048v-1.23h-.773V9.429zM101.2 19.496V8.7c0-2.232-1.001-3.28-2.775-3.28-2.137 0-3.001 1.595-3.001 1.595V0L90.92.501v1.184h1.046v17.812h-.727v1.23h5.003v-1.23h-.728v-9.43c0-1.64.455-2.323 1.273-2.323.591 0 .819.364.819 1.275v10.478h-.819v1.23h5.412v-1.23h-1zm-27.242-7.243V16.9c0 1.367-.272 1.914-1.046 1.914-.59 0-.864-.502-.864-2.141 0-2.78.228-3.463 1.91-4.42zM58.03 19.497V1.412h1.046V.228h-6.23v1.184h1.273v8.473h-4.002V1.412h1.319V.228h-6.322v1.184h1.092v18.084h-1.092v1.23h6.322v-1.23h-1.32v-8.199h4.003v8.2h-1.274v1.23h6.231v-1.23H58.03zm25.024 0V0L78.37.501v1.184h1.137v17.812h-.728v1.23h5.366v-1.23h-1.091zm-38.167-2.825c0-4.828-5.185-5.147-5.185-8.336 0-1.093.546-1.64 1.41-1.64 1.319 0 2.001 1.321 2.092 4.1h1.182V6.24s-1.318-.82-3.32-.82c-2.41 0-4.365 1.366-4.365 4.145 0 4.555 5.048 5.193 5.048 8.29 0 1.23-.592 1.823-1.547 1.823-1.455 0-2.183-1.275-2.274-4.419h-1.182v4.92s1.456.82 3.593.82c2.638 0 4.548-1.503 4.548-4.328zM15.28 19.497V1.412h.955V.228h-5.321L8.277 11.753 5.457.228H0v1.184h1.137v18.084H0v1.23h4.184v-1.23H2.865V6.787l3.32 13.94h1.91l3.274-14.03v12.8h-1.227v1.23h6.094v-1.23h-.955zm20.146 0V8.7c0-2.232-1-3.28-2.728-3.28-2.138 0-3.002 1.595-3.002 1.595V5.421l-4.548.5v1.23h1.046v12.346h-1.091v1.23h5.412v-1.23h-.728v-9.43c0-1.64.455-2.323 1.273-2.323.592 0 .819.364.819 1.275v10.478h-.819v1.23h5.094v-1.23h-.728z" fill="#fff"/></svg>