<svg xmlns="http://www.w3.org/2000/svg" viewBox="0 0 128 40" fill-rule="evenodd" clip-rule="evenodd" stroke-linejoin="round" stroke-miterlimit="2"><path d="M21.992 30.948c-.068-.62.32-3.674.32-3.674s.782.127 1.536.207a48.7 48.7 0 001.966.145s-.654 2.29-.274 2.814c.877 1.209 5.675 4.194 6.775 5.392.553.533 1.114 1.05 1.801 1.516.485.4 2.052.445 2.464.845.276.289.613 1.13.444 1.282-.116.104-2.49.155-2.908.082-.453 0-.996-.423-.996-.423s-.337.34-.805.1c-.825-.398-.702-1.22-1.184-1.886-.275-.267-4.307-2.835-6.905-4.255-2.229-1.218-2.13-1.2-2.234-2.145zM5.96 23.043c-.483-.416-2.267 1.064-2.778.957-.51-.107-.01-1.33-.463-1.255-.613.1-.776 1.49-1.327 1.599C.505 24.667 0 23.379 0 21.84c0-1.538.564-3.212 2.487-4.284 1.922-1.073 4.769-1.346 6.978-.628 2.096-1.087 4.854-4.242 10.996-4.39 6.142-.147 8.441 2.826 9.747 2.115 1.305-.712 1.747-2.317 1.463-3.516-.544-2.297-1.599-3.546-2.444-5.591-.53-1.283-.559-2.978.11-4.221C29.635.775 30.363.13 31.46.01c1.098-.12 1.387.775 2.155 1.018.768.244 2.41.394 2.538.96.128.568-1.842 1.014-2.288.967-1.046-.108-1.706.574-1.65 1.778.068 1.532.44 2.078 1.897 4.259 1.457 2.18 1.444 5.805-.417 8.334-.587.74-1.212 1.367-1.626 2.212-.334.677 0-.687 0 2.014 0 2.702-1.406 4.002-3.243 4.573-2.473.769-4.609.48-6.793.232-3.023-.345-5.388-.305-6.622 0-1.07.265-4.418 2.095-4.83 2.947-.218.46-1.4 5.245-1.617 6.296-.088.432-.038 1.293-.245 1.677-.226.426-2.981 2.109-3.917 2.454-.43.16-1.3.364-1.404.218-.61-.68-.608-.837 1.164-2.076-.619-1.243 1.166-1.547 1.691-2.16.573-.667 1.612-7.928 1.968-8.874.357-.946 1.747-1.271 2.311-2.112-.267-.3-.636-.14-1.613.126-.838.228-2.588.832-2.96.53-.371-.302.484-1.926 0-2.342h.001zm48.174-4.287h-5.678V4.709h5.657c4.495 0 7.614 2.8 7.614 7.013 0 4.254-3.119 7.034-7.593 7.034zm-.021-2.632c2.84 0 4.495-2.001 4.495-4.402 0-2.464-1.548-4.38-4.474-4.38H51.51v8.782h2.603zm14.605 2.885c-3.162 0-5.55-2.085-5.55-5.35 0-2.948 2.238-5.328 5.378-5.328 3.119 0 5.205 2.275 5.205 5.58v.633H66.03c.194 1.243 1.226 2.275 2.99 2.275.882 0 2.087-.358 2.754-.99L73 17.598c-1.033.927-2.668 1.41-4.28 1.41h-.002zm2.41-6.318c-.087-.97-.775-2.17-2.582-2.17-1.7 0-2.43 1.159-2.538 2.17h5.12zm7.528 6.318c-1.915 0-2.926-.97-2.926-2.801v-11.5h2.732v10.784c0 .653.344 1.137.947 1.137.408 0 .796-.147.946-.316l.58 2.043c-.408.358-1.16.653-2.28.653h.001zm4.84-11.52a1.62 1.62 0 01-1.614-1.6c0-.885.732-1.58 1.614-1.58.903 0 1.634.695 1.634 1.58 0 .884-.731 1.6-1.634 1.6zm1.376 11.267H82.14V8.584h2.732v10.172zm8.346 0h-2.947L86.098 8.584h2.926l2.71 7.076 2.732-7.076h2.925l-4.173 10.172zm10.282.253c-3.162 0-5.55-2.085-5.55-5.35 0-2.948 2.237-5.328 5.378-5.328 3.119 0 5.205 2.275 5.205 5.58v.633h-7.722c.194 1.243 1.226 2.275 2.99 2.275.882 0 2.087-.358 2.753-.99l1.226 1.769c-1.032.927-2.667 1.41-4.28 1.41zm2.41-6.318c-.087-.97-.775-2.17-2.582-2.17-1.7 0-2.43 1.159-2.538 2.17h5.12zm7.334 6.065h-2.732V8.584h2.732v1.369c.753-.885 2.022-1.622 3.313-1.622v2.612a3.52 3.52 0 00-.753-.063c-.904 0-2.108.505-2.56 1.158v6.718zm9.228 4.128c-1.742 0-3.14-.484-4.345-1.516l1.226-1.917c.753.885 2.022 1.243 3.119 1.243 1.764 0 2.796-1.18 2.796-2.612v-1.053c-.71.758-1.957 1.538-3.657 1.538-2.28 0-3.355-1.222-3.355-3.202V8.584h2.732v5.728c0 1.41.753 1.875 1.914 1.875 1.054 0 1.893-.57 2.366-1.16V8.585H128v9.498c0 3.054-2.216 4.802-5.528 4.802zm-67.29 15.27c-4.323 0-7.657-2.948-7.657-7.265 0-4.338 3.334-7.266 7.657-7.266 3.14 0 4.97 1.664 5.98 3.433l-2.624 1.264c-.602-1.138-1.893-2.043-3.356-2.043-2.624 0-4.517 1.958-4.517 4.612s1.893 4.612 4.517 4.612c1.463 0 2.754-.905 3.356-2.043l2.624 1.243c-1.01 1.748-2.84 3.454-5.98 3.454v-.001zm10.912 0c-1.915 0-2.926-.968-2.926-2.8v-11.5H65.9v10.784c0 .653.344 1.137.947 1.137.408 0 .796-.147.946-.316l.58 2.043c-.408.358-1.16.653-2.28.653l.001-.001zm13.229-.252H76.59v-1.285c-.71.759-1.958 1.538-3.657 1.538-2.28 0-3.356-1.222-3.356-3.201V27.73h2.732v6.17c0 1.412.753 1.875 1.915 1.875 1.054 0 1.893-.57 2.366-1.158V27.73h2.732V37.9l.001.002zm5.442-3.264c.473.653 1.462 1.137 2.366 1.137 1.57 0 2.624-1.2 2.624-2.97 0-1.748-1.054-2.948-2.624-2.948-.904 0-1.893.505-2.366 1.18v3.6zm0 3.264h-2.732V23.855h2.732v5.18c.817-1.052 1.979-1.558 3.205-1.558 2.645 0 4.603 2.022 4.603 5.328 0 3.412-1.98 5.35-4.603 5.35-1.248 0-2.388-.548-3.205-1.56v1.307z" fill="#2e2f33" fill-rule="nonzero"/></svg>