<svg xmlns="http://www.w3.org/2000/svg" width="168" height="56" fill="none"><rect width="168" height="56" rx="28" fill="#000"/><path fill-rule="evenodd" clip-rule="evenodd" d="M139.675 14c-7.722 0-14.326 6.267-14.326 14s6.626 14 14.326 14S154 35.733 154 28s-6.604-14-14.325-14zm0 22.221a8.174 8.174 0 01-4.561-1.387 8.133 8.133 0 01-3.019-3.697 8.222 8.222 0 015.989-11.21 8.204 8.204 0 018.428 3.498 8.27 8.27 0 011.379 4.568 8.077 8.077 0 01-.594 3.165 8.035 8.035 0 01-1.775 2.684 8.063 8.063 0 01-2.68 1.778 7.977 7.977 0 01-3.167.602zM28.332 14.002C20.612 14.001 14 20.268 14 27.994c0 7.733 6.625 14 14.325 14 7.7 0 14.325-6.267 14.325-14 .008-7.726-6.604-13.993-14.318-13.993zm0 22.222a8.223 8.223 0 01-4.56-1.381 8.219 8.219 0 01-3.493-8.441 8.241 8.241 0 012.248-4.214 8.166 8.166 0 014.207-2.252 8.204 8.204 0 018.428 3.498 8.214 8.214 0 011.38 4.568 8.097 8.097 0 01-.595 3.165 8.04 8.04 0 01-1.774 2.684 7.99 7.99 0 01-2.68 1.778 8.193 8.193 0 01-3.16.595zm41.173-8.23C69.505 20.267 76.115 14 83.83 14c7.721 0 14.325 6.267 14.325 13.993 0 7.733-6.625 14-14.325 14-7.7 0-14.325-6.267-14.325-14zm9.764 6.84a8.173 8.173 0 004.56 1.389 7.897 7.897 0 003.162-.602 8.018 8.018 0 002.686-1.778 8.04 8.04 0 001.775-2.684c.41-.998.615-2.082.594-3.165a8.27 8.27 0 00-1.379-4.568 8.203 8.203 0 00-8.428-3.498 8.218 8.218 0 00-4.207 2.252 8.193 8.193 0 00-2.249 4.206 8.219 8.219 0 00.467 4.752 8.131 8.131 0 003.02 3.697zm-19.536-8.93a14.825 14.825 0 004.172-5.176 14.845 14.845 0 001.485-6.486h-6.124c0 5.162-2.863 9.977-7.48 10.509V14.24h-6.032v27.498h6.003V31.187h8.697v10.558h6.039V25.904h-6.76zm43.987 6.955c.212-2.981.573-18.617.573-18.617l17.931-.021v27.51h-5.883V19.999h-6.512s-.382 10.785-.523 13.2c-.326 5.545-3.755 8.802-7.905 8.802h-2.935v-5.29s1.011-.014 1.35-.021c2.553-.057 3.755-1.77 3.904-3.831z" fill="#fff"/></svg>