<svg xmlns="http://www.w3.org/2000/svg" width="6566" height="1041" fill="none"><path fill-rule="evenodd" clip-rule="evenodd" d="M1345.8 685.214c7 4.699 8.42 14.362 3.18 20.986-51.72 65.259-124.83 107.184-230.5 107.184-172.74 0-295.627-122.887-295.627-297.947 0-170.42 124.042-297.946 288.657-297.946 165.79 0 282.87 128.694 282.87 297.946 0 5.721-.24 16.831-.47 25.984-.2 8.13-6.85 14.594-14.98 14.594H956.167c5.8 82.316 78.843 143.753 163.463 143.753 62.62 0 97.05-22.777 126.59-60.72 4.85-6.238 13.59-7.771 20.18-3.398 19.42 12.929 58.75 35.713 79.4 49.564zm-84.73-226.581c-8.12-75.355-70.72-131.004-151.86-131.004-78.85 0-143.765 66.076-151.875 131.004h303.735zm2549.29 226.581c7 4.699 8.42 14.362 3.17 20.986-51.72 65.259-124.82 107.184-230.51 107.184-172.73 0-295.62-122.887-295.62-297.947 0-170.42 124.05-297.946 288.66-297.946 165.8 0 282.88 128.694 282.88 297.946 0 5.721-.25 16.831-.48 25.984-.2 8.13-6.85 14.594-14.98 14.594h-422.76c5.81 82.316 78.84 143.753 163.47 143.753 62.61 0 97.05-22.777 126.57-60.72 4.87-6.238 13.61-7.771 20.19-3.398 19.44 12.929 58.76 35.713 79.41 49.564zm-84.74-226.581c-8.12-75.355-70.73-131.004-151.86-131.004-78.85 0-143.76 66.076-151.87 131.004h303.73zm1793.41 226.581c7 4.699 8.42 14.362 3.18 20.986-51.72 65.259-124.82 107.184-230.52 107.184-172.72 0-295.61-122.887-295.61-297.947 0-170.42 124.05-297.946 288.66-297.946 165.79 0 282.87 128.694 282.87 297.946 0 5.721-.25 16.831-.47 25.984-.2 8.13-6.85 14.594-14.98 14.594H5129.4c5.8 82.316 78.84 143.753 163.46 143.753 62.61 0 97.06-22.777 126.58-60.72 4.86-6.238 13.61-7.771 20.18-3.398 19.44 12.929 58.76 35.713 79.41 49.564zm-84.74-226.581c-8.11-75.355-70.72-131.004-151.85-131.004-78.85 0-143.77 66.076-151.87 131.004h303.72zM1728.45 685.427c-62.77 0-91.73-28.963-91.73-94.15V352.889h65.52c8.28 0 14.99-6.71 14.99-14.986v-88.329c0-8.276-6.71-14.98-14.99-14.98h-65.52V92.666c0-8.283-6.71-14.986-14.99-14.986h-100.21c-8.28 0-14.99 6.703-14.99 14.986v141.928h-62.45c-8.27 0-14.98 6.704-14.98 14.98v88.329c0 8.276 6.71 14.986 14.98 14.986h62.45V616.63c0 123.119 71.22 196.742 189.51 196.742 20.5 0 35-2.29 51.13-8.164 10.28-3.736 16.95-13.731 16.9-24.675l-.31-82.012c-.15-8.986-8.1-15.782-17.01-14.607-6.74.896-13.52 1.513-18.3 1.513zm356.42 0c-62.77 0-91.74-28.963-91.74-94.15V352.889h65.53c8.27 0 14.98-6.71 14.98-14.986v-88.329c0-8.276-6.71-14.98-14.98-14.98h-65.53V92.666c0-8.283-6.71-14.986-14.98-14.986h-100.22c-8.28 0-14.99 6.703-14.99 14.986v141.928h-62.44c-8.28 0-14.98 6.704-14.98 14.98v88.329c0 8.276 6.7 14.986 14.98 14.986h62.44V616.63c0 123.119 71.22 196.742 189.51 196.742 20.5 0 35-2.29 51.14-8.164 10.28-3.736 16.94-13.731 16.9-24.675l-.32-82.012c-.14-8.986-8.09-15.782-17.01-14.607-6.74.896-13.51 1.513-18.29 1.513zm1862.78-357.352v470.312c0 8.276 6.71 14.993 14.98 14.993h100.21c8.29 0 14.99-6.717 14.99-14.993V21.799c0-8.276-6.7-14.986-14.99-14.986h-100.21c-8.27 0-14.98 6.71-14.98 14.986v306.276z" fill="#263238"/><mask id="a" maskUnits="userSpaceOnUse" x="0" y="29" width="753" height="785"><path d="M0 29.297h752.395V813.37H0V29.297z" fill="#fff"/></mask><g mask="url(#a)"><path fill-rule="evenodd" clip-rule="evenodd" d="M372.033 403.932v85.15c0 8.277 6.709 14.986 14.985 14.986H618.61c-17.302 109.229-107.065 187.099-227.112 187.099-146.003 0-259.552-121.129-259.552-269.296 0-149.248 114.631-269.295 258.471-269.295 80.61 0 149.056 32.64 193.954 91.522 4.619 6.052 13.061 7.639 19.579 3.703l86.909-52.57c6.756-4.095 8.482-13.075 3.849-19.473-63.707-87.95-173.387-146.461-303.21-146.461C176.286 29.297-.001 205.57-.001 421.87c0 216.294 173.042 391.5 390.418 391.5 215.218 0 361.978-163.306 361.978-374.191v-33.682c0-8.276-6.71-14.979-14.986-14.979h-351.95c-7.413 0-13.426 6.006-13.426 13.413z" fill="#263238"/></g><path fill-rule="evenodd" clip-rule="evenodd" d="M2572.28 367.553V799.61c0 7.606 6.71 13.765 14.99 13.765h100.22c8.27 0 14.98-6.159 14.98-13.765V86.184c0-7.592-6.71-13.757-14.98-13.757h-100.22c-8.28 0-14.99 6.165-14.99 13.758v281.368z" fill="#263238"/><path fill-rule="evenodd" clip-rule="evenodd" d="M2830.37 813.373c215.22 0 391.5-166.584 391.5-370.978 0-204.401-173.04-369.976-390.41-369.976h-143.97l1.53 115.494h141.35c146.01 0 259.56 114.458 259.56 254.482 0 141.039-114.64 254.469-258.47 254.469h-154.5v116.509h153.41z" fill="#263238"/><path fill-rule="evenodd" clip-rule="evenodd" d="M2340.78 654.901c-62.13 0-79.57 17.441-79.57 79.575s17.44 79.576 79.57 79.576c62.14 0 79.58-17.442 79.58-79.576 0-62.134-17.44-79.575-79.58-79.575z" fill="#FF9D00"/><path fill-rule="evenodd" clip-rule="evenodd" d="M4219.68 568.032V798.39c0 8.276 6.71 14.986 14.99 14.986h100.2c8.28 0 14.98-6.71 14.98-14.986V261.756c0-8.276-6.7-14.985-14.98-14.985h-100.2c-8.28 0-14.99 6.709-14.99 14.985v306.276zM4284.77 0c-62.13 0-79.57 17.442-79.57 79.576 0 62.14 17.44 79.575 79.57 79.575 62.13 0 79.57-17.435 79.57-79.576C4364.34 17.443 4346.9 0 4284.77 0zm687.81 247.534h-113.24s-11.18-1.162-18.01 16.578l-144.8 375.804-144.78-375.804c-6.84-17.74-18.02-16.578-18.02-16.578H4420.5s-16.34 1.002-9.05 19.718l214.24 519.722s8.85 26.402 39.28 26.402h63.13c30.44 0 39.28-26.402 39.28-26.402l214.24-519.722c7.3-18.716-9.04-19.718-9.04-19.718z" fill="#263238"/><mask id="b" maskUnits="userSpaceOnUse" x="5991" y="247" width="575" height="570"><path d="M5991.65 247.518h573.92v569.037h-573.92V247.518z" fill="#fff"/></mask><g mask="url(#b)"><path fill-rule="evenodd" clip-rule="evenodd" d="M6554.65 247.534h-113.24s-11.18-1.162-18.01 16.578l-144.79 375.804-144.79-375.804c-6.84-17.74-18.02-16.578-18.02-16.578h-113.23s-16.34 1.002-9.05 19.718l227.71 549.303s-4.62-3.179 25.82-3.179h63.12c30.44 0 39.28-26.402 39.28-26.402l214.25-519.722c7.29-18.716-9.05-19.718-9.05-19.718z" fill="#1C2E36"/></g><mask id="c" maskUnits="userSpaceOnUse" x="6033" y="247" width="533" height="795"><path d="M6033.56 247.52h532.01V1041h-532.01V247.52z" fill="#fff"/></mask><g mask="url(#c)"><path fill-rule="evenodd" clip-rule="evenodd" d="M6201.81 825.125c-28.44 70.907-70.27 87.718-133.04 88.156-4.78.034-11.56-.537-18.31-1.38-8.91-1.128-16.82 5.727-16.9 14.72l.26 82.009c.03 10.94 6.77 20.9 17.07 24.57 16.18 5.75 30.7 7.94 51.2 7.8 118.28-.84 177.47-89.915 220.86-191.445l240.75-582.302c7.29-18.715-9.05-19.718-9.05-19.718h-113.23s-11.19-1.154-18.02 16.579l-144.79 375.803-76.8 185.208z" fill="#263238"/></g><path fill-rule="evenodd" clip-rule="evenodd" d="M5769.21 291.139v-29.387c0-8.276-6.71-14.986-14.99-14.986h-100.21c-8.27 0-14.98 6.71-14.98 14.979v536.647c0 8.276 6.71 14.986 14.99 14.986h100.2c8.28 0 14.99-6.71 14.99-14.986V502.927c0-120.823 100.04-134.834 161.96-134.966 7.39-.014 13.32-6.027 13.32-13.413v-94.542c0-7.174-5.64-12.995-12.81-13.439-58.32-3.551-116.56.199-162.47 44.572z" fill="#263238"/></svg>