<svg xmlns="http://www.w3.org/2000/svg" viewBox="0 0 512 470" fill-rule="evenodd" clip-rule="evenodd" stroke-linejoin="round" stroke-miterlimit="2"><path d="M90.24 274.08s-31.46 13.88-38.02 15.8c-6.55 1.93-39.33-55.21-39.33-55.21S2.4 188.24 109.91 148.9C217.41 109.58 320.98 9.94 351.13 7.97c30.16-1.97 33.43 23.6 43.27 34.74 9.83 11.15-.66 19.67-1.97 33.43-1.31 13.77-20.32 29.5-20.32 43.92 0 14.42 6.56 39.33 6.56 39.33l-264.83 5.9s-29.5-2.62-36.71 15.08c-7.21 17.7-5.24 54.3-5.24 54.3l19.66 9.94 17.7 11.8s5.9.65 11.8 7.86c5.9 7.22 7.87 3.23 8.52 9.81.66 6.58 1.31 24.28 1.31 24.28l1.97 8.52s-28.84-21.03-42.61-32.8z" fill="#fcee21"/><g fill="#2f3640" fill-rule="nonzero"><path d="M501.317 256.009a10.66 10.66 0 0010.667-10.667v-53.333c0-23.531-19.135-42.667-42.667-42.667h-80.288c-3.063-6.785-5.046-13.863-5.046-21.333 0-19.313 10.719-37.167 27.979-46.594a10.66 10.66 0 005.146-6.469c.781-2.75.417-5.708-1-8.198l-25.99-45.396c-5.677-9.896-14.844-16.969-25.813-19.906-10.917-2.917-22.333-1.385-32.104 4.302L21.14 186.842c-20.188 11.75-27.135 37.854-15.5 58.167l26.875 46.979a10.644 10.644 0 006.583 5.031 10.69 10.69 0 008.188-1.188c8.604-5.188 17.813-7.823 27.365-7.823 23.284 0 43.624 15.34 50.548 37.53-6.905 21.46-26.824 37.137-50.548 37.137a10.66 10.66 0 00-10.667 10.667v53.333c0 23.531 19.135 42.667 42.667 42.667h362.667c23.531 0 42.667-19.135 42.667-42.667v-53.333a10.66 10.66 0 00-10.667-10.667c-29.406 0-53.333-23.927-53.333-53.333-.001-29.406 23.926-53.333 53.332-53.333zM342.942 24.186c4.823-2.813 10.49-3.594 15.844-2.135 5.448 1.458 9.99 4.979 12.813 9.906l20.969 36.625c-18.677 14.01-29.917 35.938-29.917 59.427 0 7.234 1.191 14.406 3.298 21.333H127.955L342.942 24.186zM74.65 266.676c-9.76 0-19.5 2.021-28.656 5.917l-21.833-38.177c-5.844-10.188-2.375-23.26 7.708-29.135l32.698-19.035c-.26 1.904-.583 3.79-.583 5.764v53.333a10.66 10.66 0 0010.667 10.667c19.626 0 36.622 10.777 45.883 26.609-12.773-10.05-28.774-15.943-45.884-15.943zm352 42.666c0 37.552 27.865 68.719 64 73.906v43.427c0 11.76-9.573 21.333-21.333 21.333h-256v-18.667a10.66 10.66 0 00-10.667-10.667 10.66 10.66 0 00-10.667 10.667v18.667H106.65c-11.76 0-21.333-9.573-21.333-21.333v-43.427c36.135-5.188 64-36.354 64-73.906 0-37.552-27.865-68.719-64-73.906v-43.427c0-11.76 9.573-21.333 21.333-21.333h85.333v24a10.66 10.66 0 0010.667 10.667 10.66 10.66 0 0010.667-10.667v-24h256c11.76 0 21.333 9.573 21.333 21.333v43.427c-36.135 5.187-64 36.354-64 73.906z"/><path d="M202.65 248.009a10.66 10.66 0 00-10.667 10.667v21.333a10.66 10.66 0 0010.667 10.667 10.66 10.66 0 0010.667-10.667v-21.333a10.66 10.66 0 00-10.667-10.667zm0 85.333a10.66 10.66 0 00-10.667 10.667v21.333a10.66 10.66 0 0010.667 10.667 10.66 10.66 0 0010.667-10.667v-21.333a10.66 10.66 0 00-10.667-10.667zm198.396-117.864c-4.698-3.51-11.396-2.573-14.927 2.135l-128 170.667c-3.542 4.708-2.583 11.396 2.135 14.927a10.6 10.6 0 006.385 2.135c3.25 0 6.448-1.469 8.542-4.271l128-170.667c3.542-4.708 2.584-11.395-2.135-14.926zm-113.062 83.198c17.948 0 32-18.74 32-42.667 0-23.927-14.052-42.667-32-42.667s-32 18.74-32 42.667c0 23.927 14.052 42.667 32 42.667zm0-64c4.354 0 10.667 8.313 10.667 21.333 0 13.021-6.313 21.333-10.667 21.333s-10.667-8.313-10.667-21.333c0-13.021 6.313-21.333 10.667-21.333zm85.333 85.333c-17.948 0-32 18.74-32 42.667 0 23.927 14.052 42.667 32 42.667s32-18.74 32-42.667c0-23.927-14.052-42.667-32-42.667zm0 64c-4.354 0-10.667-8.313-10.667-21.333 0-13.02 6.313-21.333 10.667-21.333s10.667 8.313 10.667 21.333c0 13.02-6.313 21.333-10.667 21.333z"/></g></svg>