<svg xmlns="http://www.w3.org/2000/svg" id="Слой_1" x="0" y="0" viewBox="0 0 383 174.3" xml:space="preserve"><style>.st0{fill:#f9e70d}</style><path class="st0" d="M123.6 110.3H96.2c-1.4 0-2.5-1.1-2.5-2.5s1.1-2.5 2.5-2.5h27.4c1.4 0 2.5 1.1 2.5 2.5s-1.1 2.5-2.5 2.5zM58.3 96.1c-1.4 0-2.5-1.1-2.5-2.5V41.7c0-1.4 1.1-2.5 2.5-2.5s2.5 1.1 2.5 2.5v51.9c0 1.4-1.1 2.5-2.5 2.5z"/><path class="st0" d="M84.2 70.1H32.3c-1.4 0-2.5-1.1-2.5-2.5s1.1-2.5 2.5-2.5h51.9c1.4 0 2.5 1.1 2.5 2.5s-1.1 2.5-2.5 2.5z"/><path class="st0" d="M189.9 174.3c-14.5 0-27.5-9.7-33-24.6l-6.1-16.6H73.5c-1.9 5.1-4.8 13.2-6.1 16.6-5.7 15.2-18.3 24.6-32.9 24.6-19 0-34.5-15.5-34.5-34.5 0-1.4.1-2.9.3-4.8l13.8-99.4C17 15.3 34.6 0 55.1 0 69 0 81.8 6.8 89.5 18.3h45.7C142.8 6.8 155.6 0 169.5 0c20.5 0 38.1 15.3 41 35.6l13.8 99.3c.2 1.9.3 3.4.3 4.8-.1 19.1-15.7 34.6-34.7 34.6zM70.1 128.1h84.2l7.3 19.8c4.8 13 15.9 21.4 28.4 21.4 16.3 0 29.6-13.2 29.7-29.5 0-1.2-.1-2.5-.3-4.2l-13.8-99.2C203 18.5 187.5 5 169.5 5c-12.7 0-24.2 6.4-30.9 17.1l-.7 1.2H86.7l-.7-1.2C79.3 11.4 67.8 5 55.1 5c-18 0-33.5 13.5-36 31.4L5.3 135.6c-.2 1.6-.3 2.9-.3 4.2 0 16.3 13.2 29.5 29.5 29.5 12.5 0 23.3-8.2 28.3-21.4 1.4-3.8 4.9-13.3 6.7-18.2l.6-1.6z"/><path class="st0" d="M145 74.5c-9 0-16.4-7.4-16.4-16.4S136 41.7 145 41.7s16.4 7.4 16.4 16.4S154 74.5 145 74.5zm0-27.8c-6.3 0-11.4 5.1-11.4 11.4s5.1 11.4 11.4 11.4 11.4-5.1 11.4-11.4c0-6.2-5.2-11.4-11.4-11.4zm32.7 55.5c-9 0-16.4-7.4-16.4-16.4s7.4-16.4 16.4-16.4 16.4 7.4 16.4 16.4-7.4 16.4-16.4 16.4zm0-27.8c-6.3 0-11.4 5.1-11.4 11.4s5.1 11.4 11.4 11.4 11.4-5.1 11.4-11.4-5.1-11.4-11.4-11.4zm79 95.1l22.6-29.3-20.7-26.6h6.7l17.7 23 17.4-23h6.7l-20.3 26.6 22.5 29.3h-6.7L283 143.7l-19.6 25.8h-6.7zm118.3 0h-56.4l35.1-38.7c4.8-5.5 8.2-9.6 10-12.3 3.6-5.5 5.3-10.7 5.3-15.6 0-5.9-2-10.7-6-14.7-4-3.9-9.1-5.9-15.3-5.9-6.6 0-11.8 2.2-15.8 6.7-3.6 3.9-5.3 8.9-5.3 14.9h-6c0-7.8 2.4-14.2 7.3-19.2 5.1-5.3 11.9-8 20.3-8 7.9 0 14.4 2.5 19.5 7.5s7.7 11.2 7.7 18.6c0 6.5-2.2 12.8-6.6 18.8-2.1 2.9-4.8 6.2-8.1 9.9L331.4 164H375v5.5z"/></svg>