<svg data-name="Layer 1" xmlns="http://www.w3.org/2000/svg" viewBox="0 0 100 100"><path d="M84.84 75.49L56.25 45.87l17.49-17.49 3.18 3.18A1.5 1.5 0 0078 32h.17a1.5 1.5 0 001.1-.7l6.52-10.43a1.5 1.5 0 00-.23-1.87L81 14.44a1.5 1.5 0 00-1.86-.21l-10.43 6.52a1.5 1.5 0 00-.27 2.33l3.18 3.18-17.45 17.45-13.32-13.79A15.33 15.33 0 0022.75 9a1.5 1.5 0 00-.68 2.49L28.31 18l-1.63 5.74-5.76 1.45-6.23-6.45a1.5 1.5 0 00-2.51.6 15.4 15.4 0 003.63 15.21 15.24 15.24 0 0016.59 3.6l12.94 13.39-8 8-2.14-2.14a1.5 1.5 0 00-2.12 0L12.44 78a1.5 1.5 0 000 2.12l6.4 6.4a1.5 1.5 0 002.12 0L41.56 66a1.5 1.5 0 000-2.12l-2.14-2.18 8-8 29 30a5.84 5.84 0 004.14 1.8h.1a5.84 5.84 0 004.1-1.67 5.92 5.92 0 00.08-8.34zM79.72 17.4l2.88 2.88-4.89 7.82-5.81-5.81zm-59.82 66l-4.28-4.3L34.1 60.62l4.28 4.28zm62.72-1.7a2.9 2.9 0 01-2.05.82 2.86 2.86 0 01-2-.88L33.83 35.3a1.5 1.5 0 00-1.73-.3A12.25 12.25 0 0118 32.45a12.39 12.39 0 01-3.43-9.56l4.83 5a1.5 1.5 0 001.45.41l7.44-1.87a1.5 1.5 0 001.08-1l2.1-7.4a1.5 1.5 0 00-.36-1.45l-4.84-5a12.34 12.34 0 0111.5 18 1.5 1.5 0 00.23 1.68l44.68 46.31a2.92 2.92 0 01-.06 4.11z"/></svg>