<svg data-name="Слой 2" xmlns="http://www.w3.org/2000/svg" viewBox="0 0 101 101"><path d="M73.74 74A13.27 13.27 0 0087 60.74V16.5a1.5 1.5 0 00-1.5-1.5H73v-4.5a1.5 1.5 0 00-3 0V15H35v-4.5a1.5 1.5 0 00-3 0V15H18.5a1.5 1.5 0 00-1.5 1.5v44.3A10.27 10.27 0 016.7 71a1.5 1.5 0 000 3H17v9.5a1.5 1.5 0 001.5 1.5h67a1.5 1.5 0 001.5-1.5v-8a1.5 1.5 0 00-3 0V82H20v-8zM20 60.8V18h12v4.5a1.5 1.5 0 003 0V18h35v4.5a1.5 1.5 0 003 0V18h11v42.74A10.27 10.27 0 0173.74 71H15.13A13.15 13.15 0 0020 60.8z"/><path d="M49 46.38a7.84 7.84 0 00-2-1.26 6.36 6.36 0 002.2-5.05 6.22 6.22 0 00-11.86-2.93 1.5 1.5 0 002.68 1.34 3.34 3.34 0 013.77-1.87 3.24 3.24 0 012.41 3.45c0 3.18-3 3.92-4.5 4.09-.55 0-.9.06-1 .06a1.5 1.5 0 00.19 3 9.4 9.4 0 001-.05c1.2 0 3.57.15 5.08 1.47a4.82 4.82 0 011.47 3.85 4.47 4.47 0 01-3.89 4.61c-2.49.48-5.78-.5-6.75-2.92a1.5 1.5 0 00-2.79 1.11c1.35 3.38 4.93 4.92 8.22 4.92a10 10 0 001.98-.2 7.39 7.39 0 006.32-7.56A7.74 7.74 0 0049 46.38zm15.07-12.77a1.5 1.5 0 00-1.63.33L57.37 39a1.5 1.5 0 002.12 2.12l2.51-2.5V59.5a1.5 1.5 0 003 0V35a1.5 1.5 0 00-.93-1.39z"/></svg>