<svg xmlns="http://www.w3.org/2000/svg" width="34" height="34" fill="none"><path fill-rule="evenodd" clip-rule="evenodd" d="M0 17c0 9.387 7.613 17 17 17s17-7.613 17-17S26.387 0 17 0 0 7.613 0 17zm21.689-9.445c-1.224-.058-1.591-.068-4.689-.068-3.097 0-3.464.01-4.688.068-1.133.054-1.748.241-2.156.401a3.6 3.6 0 00-1.333.867 3.606 3.606 0 00-.867 1.333c-.16.408-.35 1.023-.401 2.155-.058 1.225-.068 1.592-.068 4.69 0 3.096.014 3.464.068 4.688.054 1.132.241 1.747.401 2.155.211.54.463.928.867 1.333.405.405.792.656 1.333.867.408.16 1.023.35 2.156.401 1.224.058 1.59.068 4.688.068s3.465-.013 4.689-.068c1.132-.054 1.747-.241 2.155-.4a3.61 3.61 0 001.333-.868c.405-.404.656-.792.867-1.333.16-.408.35-1.023.401-2.155.058-1.224.068-1.591.068-4.689 0-3.097-.013-3.464-.068-4.688-.054-1.133-.241-1.748-.4-2.156a3.606 3.606 0 00-.868-1.333 3.606 3.606 0 00-1.333-.867c-.408-.16-1.023-.35-2.155-.401zm-9.473-2.088c1.238-.058 1.632-.071 4.784-.071s3.546.013 4.78.068c1.238.058 2.081.255 2.82.54.764.3 1.41.694 2.056 1.34a5.672 5.672 0 011.34 2.05c.289.742.483 1.585.54 2.819.058 1.238.072 1.632.072 4.784 0 3.151-.014 3.546-.072 4.784-.057 1.237-.255 2.08-.54 2.818a5.712 5.712 0 01-1.34 2.057 5.672 5.672 0 01-2.05 1.34c-.741.289-1.584.483-2.819.54-1.237.058-1.632.072-4.783.072-3.152 0-3.547-.014-4.784-.072-1.238-.058-2.081-.255-2.819-.54a5.712 5.712 0 01-2.057-1.34 5.672 5.672 0 01-1.34-2.05c-.288-.741-.482-1.585-.54-2.819-.058-1.237-.071-1.632-.071-4.784 0-3.151.013-3.546.071-4.783.058-1.238.255-2.081.54-2.819.3-.765.694-1.41 1.34-2.057a5.602 5.602 0 012.054-1.336c.741-.29 1.584-.483 2.818-.54zM17 11.04a5.96 5.96 0 10.002 11.922A5.96 5.96 0 0017 11.04zm0 9.83a3.87 3.87 0 110-7.74 3.87 3.87 0 010 7.74zm7.59-10.065a1.394 1.394 0 11-2.789 0 1.394 1.394 0 012.788 0z" fill="#5D5D5D"/></svg>