<svg xmlns="http://www.w3.org/2000/svg" width="55" height="81" fill="none"><path d="M21 2.688c10.148 0 18.375 8.422 18.375 18.812S31.148 40.313 21 40.313 2.625 31.89 2.625 21.5C2.625 11.11 10.852 2.687 21 2.687zm10.5 16.125h-1.75l-.003.258c-.134 5.323-4.39 9.596-9.622 9.596-.167 0-.332-.005-.498-.013l1.992-2.041-1.238-1.267-4.118 4.216 4.118 4.217 1.238-1.267-2.02-2.066c.175.008.35.012.526.012 6.192 0 11.23-5.066 11.372-11.37l.003-.276zM21.619 9.22l-1.238 1.267 2.02 2.066c-.175-.008-.35-.012-.526-.012-6.193 0-11.23 5.066-11.372 11.37l-.003.276h1.75l.003-.259c.134-5.323 4.39-9.596 9.622-9.596.167 0 .333.005.498.013l-1.992 2.041 1.238 1.267 4.118-4.216L21.62 9.22z" fill="#2EAFF0"/><g clip-path="url(#clip0)"><path d="M13.998 76.769c-.137-2.814 8.93-5.522 20.252-6.048 11.321-.526 20.61 1.329 20.747 4.143.137 2.814-8.93 5.521-20.252 6.048-11.321.526-20.61-1.329-20.747-4.143z" fill="#E3E3E3"/><path d="M5.793 46.681l.19-.245.344.196.096-.517.322.138.098-.542.315.12.358.261.185-.28.272-.008.148-.419.196-.26.285.035.45.618.07-.712.286.047.313.15.203-.25.37.359.283.044.095-.649.21-.225.402.48.237-.125.12-.553.394.45.132-.504.27-.009.235-.12.335.223.242-.107.377.359.034-.812.395.413.322.153.059-.689.256-.051.246-.085.267-.02.415.408.263-.047.192-.247.26-.051.253-.074.007-.714.523.62v-.707l.276-.006.134-.35.395.267.459.386.07-.482.151-.294.114-.364.614.663.144-.302.007-.56.54.471.172-.24.169-.237.367.118.069-.41.14-.277.21-.154.396.147.345.056.091-.348h.315l-.183-.74.455.207.086-.332.416.136.052-.373.407.03-.105-.326.415-.185.009-.255-.146-.29.146-.227.064-.248-.518-.405.69-.074.093-.236-.087-.295-.237-.357.086-.247.103-.241.799.042-.605-.53.324-.144.525-.04-.326-.439-.185-.386.276-.154.34-.111-.208-.422.347-.1-.025-.324.233-.167.119-.236.43-.02.072-.27.445.013-.044-.359.443.027-.24-.535.555.138-.096-.43-.11-.46.402.02.507.138.235-.12-.276-.676.573.245-.044-.444.468.157-.17-.627.177-.205.436.145-.018-.48.315-.011.406.136.41.17-.107-.67.41.177.095-.357.452.292-.08-.723.2-.194.42.27.08-.468.213-.183.513.562.153-.321.208-.192.228-.154.397.381.146-.405.153-.435.44.635.142-.52.34.32.272.053.246-.087.16-.613.347.544.253-.045.194-.627.288.212.272.11.28.421.228-.86.277.758.258-.42.253.41.287-.771.226.734.295-.482.205.638.322-.58.242.196.285-.136.224.266.322-.306.134.676.295-.15.235.139.344-.3.133.503.365-.326.16.37.45-.526-.033.888.42-.39.055.57.365-.216.427-.323.016.602.365-.159.295-.002.022.526.425-.238.005.522.37-.12.02.461.351-.073.534-.342.155.25.233.13.217.153-.203.7.5-.22.308.038.27.093.154.226.142.236.036.344.069.3.383-.017.313.06-.164.51.652-.242-.477.767.831-.368-.497.743.741-.261.007.325-.24.495.658-.153-.347.55.055.266.427.024.034.282.472.013-.36.504.867-.19.023.288-.044.315.222.18.33.13.101.24-.132.342-.388.437.287.154.539.069.036.26.16.22-.538.443.586.085-.383.375.702.071.105.243-.56.397.629.123-.347.33-.215.294.555.166.194.234-.333.3-.285.286.527.203-.313.279.447.23-.693.28.87.235-.884.257.178.25.534.271-.01.257-.565.216.56.303.052.268-.774.16.335.302.076.27-.674.203.327.285-.028.257.514.212-.11.265-.11.265.366.237-.329.272.18.25.042.256-.557.263.207.252.498.257-.372.252.173.261-.25.248-.217.243.634.292-.643.212-.16.238.385.29-.216.235.271.287-.05.252-.16.237.023.26.057.27-.333.201.055.268-.096.24.228.313-.338.185.01.266.139.298-.071.25-.413.15.33.365-.136.228.02.281-.237.192-.596.06.59.489-.215.196.068.308-.67.002.417.46-.137.222-.85-.111.176.363-.3.134.002.286-.067.252-.084.245-.22.167.41.536-.126.232-.18.196-.726-.154.203.437-.041.286-.404.033-.51-.051.142.419-.39.022.01.326-.183.18.285.567-.2.172-.49-.076-.063.286-.119.24-.144.224-.67-.286.346.696-.598-.234.347.727-.258.107-.26.107-.675-.364.36.797-.548-.237-.41-.093.016.419-.099.29-.232.12-.43-.136-.07.333-.4-.117.11.596-.235.116-.406-.138-.318-.02.174.745-.498-.306-.127.285-.35-.084-.12.303-.026.48-.269.053-.16.257-.513-.413-.217.138-.137.301-.142.306-.315-.051-.43-.322-.236.099-.043.546-.443-.384-.212.157-.11.417-.182.25-.297-.054-.18.268-.267.026-.425-.437-.07.607-.38-.33-.29-.067-.143.415-.201.236-.354-.301-.112.589-.324-.214-.253.053-.192.326-.278-.04-.331-.306-.233.159-.146.6-.32-.268-.253.062-.32-.32-.225.213-.24.16-.208.413-.294-.214-.322-.49-.219.37-.27-.087-.266-.067-.274-.192-.235.341-.24.346-.267-.069-.28-.45-.245.419-.26.118-.262.04-.263-.58-.258-.138-.27.752-.257-.226-.251-.238-.247-.281-.253-.067-.292.524-.246-.208-.283.257-.279.158-.223-.388-.213-.415-.283.177-.31.37-.217-.328-.317.332-.26-.04-.22-.26-.326.311-.12-.736-.407.67-.174-.44-.216-.214-.206-.248-.436.652-.221-.194-.167-.384-.18-.306-.265-.013-.178-.29-.242-.08-.527.752-.03-.707-.458.501-.247-.098.044-.83-.288.03-.164-.273-.38.235-.163-.266-.167-.247-.438.327-.238-.107-.077-.419-.498.397.014-.58-.502.377-.016-.502-.069-.388-.509.348-.098-.334-.07-.368-.297-.007-.443.194.117-.62-.233-.11-.167-.202-.358.053-.603.355.265-.75-.577.3-.16-.217-.069-.32-.299-.053-.075-.3-.07-.3-.274-.084.057-.42-.582.214.073-.425-.099-.255-.394.011.157-.475-.673.239-.34-.058.488-.723-.504.072-.315-.085-.16-.205.14-.415-.624.116.393-.573-.461-.007.098-.364-.16-.203-.436-.04.393-.52-.603.045.187-.392-.372-.094-.333-.123.463-.51-.602.002.454-.489-.42-.091-.217-.185.188-.353-.318-.147-.178-.207-.233-.19.443-.424-.027-.256-.263-.179-.45-.129-.17-.218-.094-.244.062-.283.376-.359-.075-.24-.057-.248-.192-.217.158-.29.066-.27-.5-.165.374-.32-.294-.208-.555-.176.475-.324-.217-.23.411-.3-.39-.215.196-.272-.24-.234.297-.277.023-.252-.842-.21.664-.287-.046-.25.203-.259-.125-.428-.55.094-.133-.29-.531.303.141-.64-.23-.12-.402.042-.075-.301-.087-.268-.21-.163-.527-.223.812-.022-.018-.127z" fill="#FCEE21"/><path d="M9.31 48.434l.084-.29-.003.027.032-.273c.05-.18.277-.095.283.007l-.006.272v.011l-.003.012-.048.25.076.149.255.134.094.049-.023.1-.052.241.127.152.01.01.006.014.11.205.182.172.012.011.009.011.144.212.03.043-.007.051-.04.274.188.41.169.16.203.142.278.1.105.038-.013.11-.028.216.21.042.117.025-.005.116-.01.232.186.069.093.035-.002.099-.009.274.126.1.278.056.103.02.009.103.023.25.173.087.249.106.011.005.01.007.216.142.018.014.014.018.158.2.148.165.219.085.068.027.016.071.055.241.19.043.039.008.03.027.15.145.248.007.069.002.041.054.148.194.183.098.247.047.057.01.032.05.125.185.212.016h.01l.008.002.26.051.014.002.014.005.238.098.04.016.023.035.112.17.215-.072.048-.015.045.016c.124.044.247.082.37.136.119.046.23.1.345.151l.237.054.06.013.031.051.108.177.198-.148.041-.03.053.001.258.016.077.005.037.066.141.26.167-.054.023-.007h.025l.255.007.256-.018.062-.005.045.043.153.142.18-.138.046-.033.057.006.258.025.039.004.032.025.192.143.184-.08.03-.014.032.002.214.01.213-.14.025-.015.03-.004.253-.045.036-.007.035.012.219.073.198-.078.06-.022.057.029.255.127.22.004c.16-.038.321-.073.483-.104l.233-.103.24-.091.221-.128.014-.008.016-.005.216-.067.183-.165.032-.029.046-.007.262-.033.032-.005.03.01.18.055.066-.265.019-.076.077-.022.247-.074.032-.009.034.007.285.049.174-.047.123-.207.048-.08.093.013.206.029.057-.223.023-.09.093-.013.272-.038.17-.056.06-.252.025-.111.117.004.335.011c.114.005.162.252-.009.277l-.187.007-.034.214-.014.091-.112.045c-.084.033-.169.069-.253.1l-.007.002-.03.007-.12.022-.044.215-.039.2-.235-.022-.141-.013-.064.12-.046.087-.125.04-.256.083-.048.015-.082-.009-.224-.024-.048.25-.066.352-.386-.105-.235-.065-.061.012-.126.122-.05.05-.098.033-.187.065-.201.125-.014.008-.046.02-.232.099-.226.111-.032.016-.06.013a13.57 13.57 0 00-.5.123l-.038.01h-.069l-.267.003-.09.002-.108-.049-.087-.04-.064.027-.148.062-.18-.055-.14-.043-.032.007-.173.12-.121.083-.174-.002-.134-.002-.162.073-.265.12-.249-.18-.082-.06-.077.06-.343.272-.34-.303-.068-.06-.041.004-.016.002h-.195l-.2.067-.422.143-.197-.35-.479.359-.32-.518-.066-.107-.025-.004-.055-.011-.057-.027-.168-.076c-.058-.027-.11-.047-.165-.07-.05-.02-.096-.04-.148-.057l-.137.047-.41.14-.243-.359-.075-.114-.03-.01-.173-.036-.242-.018-.279-.023-.148-.223-.037-.056-.034-.006-.089-.018-.073-.04-.226-.125-.107-.058-.069-.09-.009-.013-.034-.002-.219-.009-.15-.147-.08-.078-.121-.027-.345-.078-.069-.325-.013-.065-.105-.043-.075-.087-.18-.21-.124-.16-.107-.073-.21-.096-.254-.13-.26-.133-.018-.246-.07-.015-.08-.067-.201-.172-.19-.163.014-.214.002-.031-.274-.112.023-.285-.36-.087.066-.373.006-.038-.036-.015-.027-.023-.22-.17-.036-.028-.005-.007-.187-.192-.064-.064-.02-.052-.192-.484-.043-.109.016-.078.043-.212-.05-.087-.149-.16-.045-.05-.012-.024-.1-.225-.13-.179-.082-.113.03-.1.043-.15-.121-.074-.07-.042-.021-.05a4.398 4.398 0 01-.096-.24l-.03-.074.018-.033zm27.732 2.531l.196.165.057.05-.009.073-.032.232.13.152.178.19.007.006.005.007.146.207.009.014.007.015.089.234.091.208.164.167.041.04v.058l-.004.234.155.127.025.02.014.027.093.192.206.123.043.027.016.049.076.227.127.172.19.156.034.03.01.044.054.214.178.12.004.005.005.004.199.163.006.007.007.006.171.183.021.023.01.029.054.16.082-.011.146-.098c.123-.1.244-.203.365-.306l.15-.185.03-.038.048-.01.197-.045-.016-.221-.002-.045.022-.038.133-.212.038-.062.076-.002.25-.01.072-.002.043.054.1.12.007.01.005.008.13.214.144.206.027.04-.005.049-.015.205.194.105.04.022.021.04.11.23.013.029v.031l-.004.228.153.14.018.018.011.022.098.199.2.145.017.013.014.02.144.21.016.022.004.027.046.223.15.16.035.036.002.05.016.26.094.199c.096.131.191.263.285.397.119.116.235.234.347.354l.116.09.108-.076.134-.205.016-.025.025-.016.226-.142.02-.014.024-.004.196-.047-.005-.252v-.062l.046-.043.196-.176.018-.018.026-.009.258-.1.152-.132.062-.234.018-.067.066-.027.201-.08.003-.227v-.07l.057-.04.221-.154.15-.136.008-.252.002-.084.077-.036.23-.11.037-.086.071-.168.146.112.135.105.05.04.002.062.012.257.045.214.135.163.228.14.048.031.014.056.002.014.019-.018.025-.011.189-.08.098-.201.03-.06.066-.016.249-.058.164-.127.146-.188.018-.024.028-.014.198-.1.087-.196.117-.237.009-.02.016-.015c.107-.11.212-.221.317-.333l.03-.234.009-.067.059-.033.208-.12.105-.186.009-.018.013-.013.165-.156.073-.203.061-.243.007-.023.014-.02.137-.207c.098-.074.294-.033.237.15l-.105.184-.045.24-.005.015-.073.245-.01.031-.036.038-.15.16c-.035.07-.069.14-.105.206l-.025.045-.053.033-.139.087-.018.18-.007.065-.053.06c-.1.117-.203.23-.308.344l-.093.208a7.36 7.36 0 01-.098.236l-.035.083-.086.044-.188.096-.12.156-.019.023-.027.022-.201.158-.046.036-.061.015-.149.036-.064.134-.04.09-.096.041-.185.083-.142.145-.365.373-.11-.505-.034-.17a5.247 5.247 0 01-.13-.102l-.06-.051-.14-.23-.042-.064-.002-.023-.018-.265-.003-.027c.005-.036.007-.071.01-.107l-.165.085c0 .073.003.15.005.223l.002.058-.055.058-.187.196-.018.016-.123.1.018.234.011.13-.157.08-.137.07-.03.178-.009.06-.078.08-.187.194-.02.02-.073.036-.19.091-.027.03c.01.077.016.155.02.233l.014.288-.313.09-.219.062-.095.065-.103.165-.039.062-.07.05c-.071.05-.142.104-.215.153l-.265.18-.242-.193-.203-.163-.03-.025-.016-.018-.17-.185c-.06-.06-.12-.118-.177-.18l-.038-.045-.007-.011a13.46 13.46 0 00-.274-.424l-.028-.042-.009-.02a4.072 4.072 0 01-.093-.239l-.034-.09v-.037l.002-.196-.07-.09-.072-.089-.007-.062-.027-.23-.073-.127-.16-.138-.064-.054-.015-.04-.085-.214-.142-.152-.077-.082.01-.078.026-.26-.054-.135-.208-.125-.096-.058.011-.096c.01-.083.021-.163.03-.245l-.114-.168-.128-.216-.045-.058-.094.007-.048.093c.01.045.018.09.03.134l.043.168.034.136-.21.095-.152.072c-.032.064-.064.13-.1.192l-.044.044c-.055.065-.105.134-.165.192-.059.06-.114.125-.175.18l-.032.025a3.14 3.14 0 01-.176.127l-.075.054-.103.015c-.078.012-.155.02-.23.032l-.354.047-.107-.326-.062-.192-.092-.1-.162-.136-.2-.139-.128-.087-.037-.145c-.013-.049-.023-.1-.034-.151l-.093-.08-.044-.038-.02-.03-.146-.207-.041-.06-.014-.05-.039-.128a3.318 3.318 0 01-.107-.07L38 53.72l-.037-.085-.075-.176-.128-.114-.137-.12.009-.15.011-.18c-.022-.027-.047-.054-.07-.08l-.05-.059-.014-.035-.091-.246-.076-.234c-.034-.056-.07-.111-.103-.17l.023.028-.166-.212-.158-.219-.068-.096.018-.076.046-.203-.117-.118-.043-.047-.005-.02-.07-.258c-.03-.19.219-.212.262-.1l.08.215z" fill="#ABA000"/><path d="M32.445 40.9a3.334 3.334 0 010-4.792 3.524 3.524 0 014.902 0 3.334 3.334 0 010 4.792 3.524 3.524 0 01-4.902 0z" fill="#31332A"/><path d="M33.5 36.392c0 .526.677.952 1.515.952.837 0 1.515-.426 1.515-.952 0-.527-.678-.953-1.515-.953-.838-.002-1.516.426-1.516.953z" fill="#636A78"/><path d="M50.17 34.106l.05.243.427.025.034.278.473.016-.361.504.87-.19.02.288-.043.317.223.178.33.132.1.24-.133.342-.388.435.285.154.541.067.035.263.16.218-.542.444.587.085-.383.375.703.073.104.241-.561.397.63.123-.345.33-.216.294.335.096a3.35 3.35 0 001.337-2.672c0-1.87-1.552-3.39-3.469-3.39-.276 0-.545.034-.803.094z" fill="#31332A"/><path d="M51.777 34.614c-.135.208.075.574.47.819.395.245.824.276.958.069.135-.207-.075-.573-.47-.819-.395-.245-.824-.276-.958-.069z" fill="#636A78"/><path d="M42.819 40.55c.004.03.011.08.025.14.102.482.518 1.773 1.51 1.927 1.023.156 4.684-1.378 5.316-1.99.06-.055.094-.106.094-.147 0-.035-.03-.084-.087-.142-.532-.571-3.398-2.12-4.346-2.626a.733.733 0 00-.673-.015c-1.324.633-1.77 2.197-1.832 2.714-.007.063-.01.11-.007.139z" fill="#FC8B2D"/><path d="M42.819 40.55c.004.03.011.08.025.14.57.06 1.141.08 1.712.098a56.572 56.572 0 003.474-.053 36.652 36.652 0 001.64-.108c.06-.055.094-.107.094-.147 0-.035-.03-.085-.087-.142a31.6 31.6 0 00-1.652-.076 64.06 64.06 0 00-1.737-.02c-.58 0-1.157.01-1.735.033-.575.027-1.152.063-1.73.134a1.11 1.11 0 00-.004.14zm3.003-1.925c-.043.125.094.296.309.386.214.089.424.06.467-.065.044-.125-.093-.297-.308-.386-.214-.087-.424-.06-.468.065z" fill="#D13301"/><path d="M20.006 73.941h3.024l-.204-8.826v-.037a.63.63 0 01.658-.598.628.628 0 01.611.642l-.337 8.779 8.131-.787a.351.351 0 01.386.307.348.348 0 01-.317.377l-6.028.585 7.044 1.249a.344.344 0 01-.064.684c-.021 0-.041-.002-.064-.004l-7.682-1.363 5.039 3.04a.34.34 0 01.114.475.357.357 0 01-.486.112l-6.546-3.948-3.282.002a.348.348 0 01-.351-.343.35.35 0 01.354-.346zm13.419-.723c0 .19.158.344.352.344l3.281-.003 6.546 3.948a.36.36 0 00.486-.114.342.342 0 00-.114-.475l-5.042-3.04 7.685 1.363c.02.005.043.005.064.005a.354.354 0 00.347-.284.348.348 0 00-.286-.401l-7.043-1.25 6.028-.584a.346.346 0 00.315-.377.35.35 0 00-.386-.307l-8.132.787.201-5.22-.342-.298-.29-.067-.144.415-.203.236-.066-.055.116 5.027h-3.024a.356.356 0 00-.349.35z" fill="#FC8B2D"/></g><defs><clipPath id="clip0"><path fill="#fff" transform="matrix(-1 0 0 1 55 27)" d="M0 0h50v54H0z"/></clipPath></defs></svg>