<svg xmlns="http://www.w3.org/2000/svg" width="318" height="188" fill="none"><path d="M45.952 171.34c-.003-.801.185-1.471.562-2.01.377-.539.927-.917 1.651-1.135 1.07-.32 2.025-.162 2.867.474.84.626 1.485 1.691 1.937 3.197l1.784 5.948-12.069 3.621-1.686-5.621c-.42-1.402-.478-2.575-.172-3.519.306-.943.959-1.565 1.959-1.865.597-.18 1.17-.189 1.72-.028.538.165 1.02.477 1.447.938zm.9 5.819l-.781-2.603c-.183-.61-.442-1.033-.776-1.271-.346-.235-.76-.279-1.243-.135-.471.142-.785.411-.942.809-.16.386-.15.878.03 1.476l.78 2.603 2.932-.879zm4.079-4.569c-.393-1.31-1.107-1.81-2.142-1.5-1 .3-1.303 1.105-.91 2.416l.92 3.068 3.053-.915-.921-3.069zm-9.541-19.929l.587 1.215 3.306-1.598 1.207 2.495-3.306 1.599.588 1.215 4.199.249 1.442 2.982-5.83-.561-2.983 4.582-1.292-2.674 2.454-3.566-.603-1.248-3.387 1.638-1.207-2.496 3.387-1.637-.596-1.232-4.327-.307-1.293-2.674 5.444.507 3.173-4.933 1.45 2.998-2.413 3.446zm-9.718-19.625l.568 1.225 3.33-1.545 1.167 2.514-3.33 1.546.568 1.224 4.194.316 1.394 3.005-5.82-.654-3.056 4.533-1.25-2.694 2.512-3.526-.584-1.257-3.412 1.583-1.167-2.515 3.413-1.583-.576-1.241-4.322-.376-1.25-2.694 5.435.594 3.251-4.882 1.402 3.021-2.468 3.406zm-6.808-20.026l.23 1.33 3.618-.624.47 2.732-3.618.624.23 1.33 3.966 1.399.563 3.264-5.448-2.148-4.132 3.579-.505-2.927 3.344-2.749-.235-1.366-3.708.639-.47-2.732 3.707-.639-.233-1.348-4.074-1.49-.504-2.927 5.092 1.991 4.411-3.866.566 3.282-3.27 2.646zm1.264-20.417l-.406 1.288 3.502 1.104-.833 2.644-3.502-1.105-.406 1.288 2.885 3.061-.996 3.159-3.858-4.406-5.313 1.288.893-2.833 4.232-.911.417-1.322-3.588-1.131.833-2.644 3.588 1.131.412-1.305-2.939-3.19.893-2.833 3.614 4.102 5.692-1.414-1 3.176-4.12.853zm9.954-18.351l-.822 1.07 2.912 2.237-1.688 2.198-2.912-2.236-.823 1.07 1.663 3.864-2.017 2.628-2.116-5.46-5.433-.61 1.808-2.355 4.289.592.844-1.1-2.984-2.29 1.688-2.2 2.984 2.292.833-1.085-1.668-4.004 1.809-2.356 1.99 5.092 5.833.62-2.028 2.641-4.162-.608zm14.924-15.838l-1.013.893 2.429 2.754-2.08 1.833-2.428-2.754-1.013.893.89 4.111-2.485 2.19-1.027-5.765-5.215-1.642 2.228-1.964 4.094 1.406 1.04-.917-2.488-2.822 2.08-1.833 2.487 2.822 1.027-.905-.868-4.25 2.228-1.964.975 5.38 5.605 1.73-2.498 2.202-3.968-1.398zm7.483-8.897l4.469-2.444 1.08 1.973-4.47 2.445-1.08-1.974zm18.569-5.406l-1.296.375 1.02 3.528-2.662.77-1.021-3.527-1.297.375-.95 4.098-3.182.92 1.531-5.652-4.015-3.71 2.853-.825 3.103 3.018 1.331-.385-1.046-3.614 2.663-.77 1.046 3.613 1.314-.38 1.03-4.215 2.852-.825-1.413 5.281 4.33 3.956-3.199.926-2.992-2.957zm20.474-3.335l-1.348.065.177 3.668-2.769.133-.177-3.667-1.348.065-1.872 3.767-3.309.16 2.797-5.145-3.049-4.538 2.967-.144 2.321 3.654 1.385-.067-.182-3.757 2.769-.134.181 3.758 1.367-.067 1.976-3.861 2.966-.144-2.597 4.811 3.298 4.85-3.326.161-2.227-3.568zm21.9.693l-1.342-.142-.384 3.652-2.757-.29.384-3.651-1.343-.142-2.425 3.438-3.293-.346 3.548-4.659-2.321-4.95 2.954.31 1.737 3.966 1.378.145.393-3.741 2.757.29-.393 3.74 1.36.144 2.542-3.516 2.954.31-3.3 4.36 2.52 5.296-3.312-.348-1.657-3.866zm12.467-.902l5.018.879-.389 2.216-5.017-.879.388-2.216zm17.939 6.051l-1.319-.29-.789 3.586-2.707-.596.789-3.586-1.319-.29-2.793 3.145-3.234-.712 4.046-4.233-1.754-5.178 2.9.638 1.284 4.135 1.353.298.809-3.675 2.707.596-.808 3.674 1.336.294 2.918-3.21 2.9.638-3.765 3.964 1.913 5.544-3.252-.715-1.215-4.027zm20.867 4.948l-1.31-.326-.886 3.564-2.69-.669.886-3.563-1.31-.326-2.877 3.069-3.215-.8 4.16-4.122-1.614-5.223 2.882.716 1.172 4.168 1.345.334.907-3.65 2.69.668-.907 3.65 1.327.33 3.004-3.129 2.882.717-3.871 3.86 1.762 5.594-3.231-.803-1.106-4.059zm22.073 5.422l-1.314-.308-.838 3.575-2.699-.633.838-3.575-1.314-.308-2.836 3.107-3.225-.757 4.104-4.177-1.682-5.202 2.891.679 1.227 4.151 1.349.317.859-3.663 2.699.633-.859 3.663 1.332.312 2.962-3.17 2.891.679-3.82 3.91 1.837 5.571-3.242-.76-1.16-4.044zm21.824 4.478l-1.332-.218-.593 3.624-2.736-.447.593-3.624-1.332-.218-2.618 3.293-3.269-.535 3.81-4.447-2.033-5.075 2.931.48 1.506 4.058 1.368.224.607-3.713 2.736.447-.607 3.713 1.35.22 2.739-3.363 2.931.479-3.544 4.163 2.212 5.432-3.287-.538-1.432-3.955zm11.999-.919l5.085.299-.132 2.246-5.085-.299.132-2.246zm19.569 2.292l-1.338.183.497 3.638-2.746.375-.497-3.638-1.338.183-1.536 3.916-3.281.448 2.336-5.37-3.433-4.254 2.942-.402 2.632 3.437 1.373-.187-.509-3.728 2.746-.375.51 3.727 1.355-.185 1.631-4.02 2.943-.401-2.167 5.019 3.709 4.544-3.299.45-2.53-3.36zm21.51-7.811l-1.144.716 1.948 3.113-2.35 1.47-1.948-3.112-1.144.716.208 4.202-2.807 1.757-.076-5.856-4.879-2.468 2.518-1.575 3.811 2.052 1.175-.735-1.995-3.19 2.349-1.47 1.996 3.19 1.16-.727-.165-4.334 2.518-1.576.087 5.466 5.248 2.619-2.822 1.766-3.688-2.024zm17.178-15.783l-.819 1.073 2.919 2.228-1.682 2.203-2.919-2.227-.819 1.073 1.674 3.859-2.009 2.633-2.132-5.455-5.435-.592 1.802-2.361 4.29.58.841-1.103-2.991-2.282 1.682-2.203 2.99 2.282.83-1.088-1.68-4 1.802-2.36 2.006 5.086 5.834.603-2.02 2.647-4.164-.596zm11.402-19.348l-.573 1.222 3.326 1.557-1.176 2.511-3.325-1.557-.573 1.223 2.456 3.415-1.405 3-3.242-4.877-5.436.574 1.259-2.69 4.315-.344.588-1.255-3.407-1.596 1.176-2.51 3.407 1.595.58-1.239-2.491-3.551 1.259-2.69 3.04 4.544 5.829-.65-1.412 3.017-4.195.3z" fill="#000"/></svg>