<svg xmlns="http://www.w3.org/2000/svg" width="180" height="99" fill="none"><g clip-path="url(#clip0)"><path d="M165.783 82.948c.216-4.69-14.11-9.203-31.998-10.08-17.888-.876-32.565 2.215-32.781 6.905-.216 4.69 14.11 9.203 31.998 10.08 17.888.877 32.564-2.215 32.781-6.904z" fill="#F3F3F3"/><path d="M178.746 32.803l-.3-.41-.544.328-.152-.863-.508.23-.155-.902-.498.2-.566.435-.292-.468-.429-.011-.235-.7-.31-.434-.45.06-.711 1.03-.112-1.187-.45.078-.494.25-.321-.417-.585.599-.447.074-.151-1.082-.332-.375-.635.799-.375-.208-.187-.922-.624.75-.209-.84-.426-.014-.371-.201-.53.372-.382-.179-.595.599-.054-1.353-.624.687-.509.257-.093-1.149-.404-.085-.39-.142-.422-.033-.656.68-.415-.078-.302-.412-.412-.086-.4-.122-.011-1.19-.825 1.033v-1.178l-.437-.011-.212-.584-.624.446-.725.643-.112-.803-.238-.49-.18-.606-.97 1.104-.227-.502-.011-.933-.855.784-.27-.401-.267-.394-.581.197-.108-.684-.22-.461-.332-.257-.627.246-.545.093-.144-.58h-.497l.288-1.234-.718.345-.137-.554-.656.227-.083-.62-.642.048.166-.543-.656-.309-.014-.423.23-.484-.23-.379-.101-.412.818-.677-1.089-.123-.148-.394.137-.49.375-.595-.137-.413-.162-.401-1.262.07.956-.884-.513-.238-.829-.067.516-.732.292-.643-.436-.257-.538-.186.328-.702-.548-.168.04-.539-.368-.278-.187-.394-.682-.034-.112-.45-.703.023.069-.599-.7.045.379-.893-.877.23.152-.716.173-.766-.635.033-.8.23-.372-.2.437-1.126-.905.409.068-.74-.739.26.27-1.045-.281-.342-.689.242.029-.8-.497-.018-.642.227-.649.282.169-1.115-.645.294-.152-.595-.714.487.126-1.204-.317-.324-.663.45-.127-.78-.335-.305-.811.936-.242-.535-.328-.32-.361-.256-.627.636-.231-.677-.242-.725-.695 1.06-.224-.866-.537.531-.429.09-.39-.146-.252-1.022-.548.907-.401-.074-.306-1.045-.455.353-.429.182-.443.703-.361-1.435-.436 1.264-.408-.699-.4.684-.454-1.286-.357 1.223-.465-.803-.325 1.063-.508-.966-.383.327-.45-.227-.354.442-.508-.509-.213 1.126-.465-.249-.372.23-.544-.497-.209.836-.577-.543-.253.618-.71-.878.051 1.48-.664-.65-.087.95-.576-.36-.675-.539-.025 1.004-.577-.264-.465-.004-.036.878-.671-.398-.007.87-.584-.201-.033.77-.555-.123-.844-.569-.245.416-.368.216-.342.256.32 1.168-.789-.368-.487.063-.426.156-.245.375-.223.394-.058.573-.108.502-.606-.03-.494.1.26.852-1.032-.406.754 1.28-1.313-.614.786 1.238-1.172-.435-.01.543.378.825-1.038-.257.548.918-.087.443-.674.04-.054.47-.747.021.57.84-1.37-.316-.036.48.068.524-.349.301-.523.216-.159.401.209.57.613.728-.454.256-.851.115-.058.435-.252.365.851.74-.927.14.606.625-1.111.12-.166.404.887.662-.995.204.548.55.339.491-.876.275-.307.39.527.503.451.475-.833.339.494.464-.707.383 1.096.469-1.374.39 1.396.427-.281.417-.844.453.014.428.894.36-.883.506-.083.446 1.222.268-.53.501-.119.45 1.064.338-.515.476.043.428-.812.353.174.442.173.443-.577.394.519.453-.285.417-.065.427.88.439-.328.42-.786.427.588.42-.275.435.397.413.343.405-1.003.487 1.017.353.253.398-.61.483.343.39-.429.48.079.42.252.394-.036.435-.09.45.527.334-.087.447.152.401-.361.52.534.309-.015.442-.22.498.112.417.653.249-.523.61.216.379-.032.468.375.32.941.1-.93.814.339.327-.109.513 1.061.004-.66.766.216.372 1.341-.186-.277.606.476.223-.004.475.105.42.133.41.346.278-.645.892.198.387.285.327 1.147-.256-.321.728.065.476.638.056.804-.086-.223.7.616.036-.014.543.288.301-.451.944.318.287.771-.127.101.476.188.401.227.372 1.06-.476-.548 1.16.945-.39-.548 1.212.407.178.411.178 1.068-.605-.57 1.327.865-.394.65-.157-.026.7.155.483.368.2.678-.226.112.553.631-.193-.173.993.371.193.642-.23.501-.034-.274 1.242.786-.51.202.476.552-.141.191.506.04.799.425.089.253.427.811-.687.343.23.216.502.224.51.497-.086.682-.535.371.163.069.91.699-.639.336.26.173.696.288.416.469-.09.285.447.422.045.67-.729.112 1.011.599-.55.458-.112.227.692.317.394.559-.502.177.981.512-.356.4.089.303.542.44-.066.523-.51.368.264.231 1 .504-.446.401.104.504-.535.357.357.379.267.328.688.465-.357.509-.817.346.617.426-.145.421-.112.433-.32.372.57.378.575.422-.115.444-.75.385.698.412.197.414.067.415-.967.407-.23.426 1.253.407-.376.397-.397.389-.469.401-.111.461.873.39-.346.447.428.44.264.353-.647.336-.691.447.293.49.617.343-.546.501.554.411-.067.346-.435.516.52.191-1.226.642 1.115.274-.732.342-.357.325-.413.689 1.085.35-.323.263-.64.285-.508.418-.023.281-.483.382-.134.833 1.253.047-1.179.725.837.39-.164-.069-1.383.454.049.26-.454.599.39.259-.442.263-.412.693.546.375-.178.122-.7.787.662-.022-.966.793.628.025-.836.109-.647.804.58.155-.558.112-.613.468-.011.7.323-.184-1.033.368-.182.263-.339.566.09.952.59-.418-1.248.912.498.253-.36.108-.532.472-.09.119-.502.112-.498.433-.14-.09-.7.919.357-.115-.71.155-.424.624.019-.249-.792 1.064.398.537-.097-.772-1.204.797.119.498-.142.252-.341-.22-.692.985.193-.621-.955.729-.011-.155-.606.252-.338.689-.067-.62-.866.952.074-.296-.654.588-.156.526-.205-.732-.851.952.004-.717-.815.663-.152.343-.308-.296-.588.501-.245.281-.346.368-.316-.699-.706.043-.428.415-.297.71-.216.271-.364.147-.405-.097-.472-.595-.599.119-.401.09-.413.303-.36-.249-.484-.104-.45.789-.274-.591-.536.465-.346.876-.293-.75-.54.343-.382-.649-.502.616-.357-.31-.453.379-.39-.469-.462-.036-.42 1.331-.349-1.05-.48.073-.416-.321-.431.198-.714.869.156.209-.483.84.506-.223-1.067.364-.201.635.07.119-.501.137-.446.331-.272.833-.371-1.283-.038.029-.211z" fill="#FDEE21"/><path d="M173.188 35.724l-.133-.483.003.045-.05-.454c-.079-.301-.436-.16-.447.011l.011.454v.018l.003.019.076.416-.119.25-.404.222-.148.082.036.167.083.402-.202.253-.014.018-.011.023-.173.342-.288.286-.019.018-.014.019-.227.353-.047.07.011.086.061.457-.296.684-.266.264-.321.238-.44.168-.166.063.021.182.044.36-.332.071-.184.041.007.193.015.387-.292.115-.148.06.003.163.015.458-.198.167-.44.093-.163.033-.014.171-.036.416-.274.145-.393.179-.018.007-.015.011-.342.238-.029.023-.022.03-.249.334-.234.275-.346.141-.108.045-.026.119-.086.401-.299.071-.062.015-.047.044-.238.242-.393.011-.108.004-.065.09-.234.323-.289.163-.389.078-.09.019-.051.082-.198.308-.335.026h-.015l-.014.004-.411.085-.022.004-.022.008-.375.163-.064.026-.037.06-.176.282-.339-.119-.076-.026-.072.026c-.195.075-.39.138-.584.227-.188.078-.364.167-.545.253l-.375.089-.094.022-.05.086-.169.293-.314-.245-.065-.052-.083.004-.408.026-.122.007-.058.112-.223.43-.264-.088-.036-.011h-.039l-.404.01-.404-.03-.097-.007-.073.071-.241.238-.285-.23-.072-.056-.09.01-.408.042-.061.007-.051.041-.302.238-.293-.134-.046-.022-.051.004-.339.014-.335-.23-.04-.026-.047-.007-.4-.075-.058-.01-.054.018-.346.122-.314-.13-.093-.037-.091.048-.404.212-.346.008a17.338 17.338 0 00-.764-.175l-.368-.171-.379-.152-.349-.212-.022-.015-.025-.008-.343-.111-.288-.275-.051-.049-.072-.01-.415-.056-.05-.008-.047.015-.285.093-.104-.443-.029-.126-.123-.037-.389-.123-.051-.015-.054.012-.451.081-.274-.078-.194-.345-.076-.134-.148.022-.325.048-.09-.371-.036-.149-.148-.022-.429-.064-.27-.092-.094-.42-.04-.186-.183.007-.531.019c-.18.007-.256.42.015.46l.296.012.054.357.021.152.177.074c.133.056.267.116.4.168l.011.003.047.012.191.037.069.357.061.334.371-.037.224-.022.101.2.072.145.198.067.404.138.076.026.13-.015.353-.04.076.415.104.588.61-.175.371-.108.098.019.198.204.079.082.155.056.296.108.317.208.022.015.072.033.368.164.357.186.05.026.094.022c.263.063.527.13.79.204l.061.019h.108l.422.004.144.003.17-.082.137-.066.101.044.234.104.285-.093.22-.07.051.01.274.202.191.137.274-.004.213-.003.256.122.418.201.393-.3.13-.101.122.1.541.454.538-.506.108-.1.065.007.025.004h.306l.318.111.667.238.31-.583.757.598.505-.862.105-.179.039-.007.087-.019.09-.044.267-.127c.09-.044.173-.078.259-.115.08-.034.152-.067.235-.097l.216.078.649.235.383-.599.119-.19.046-.018.274-.06.383-.03.44-.036.234-.372.058-.093.054-.011.14-.03.116-.067.357-.208.169-.097.108-.148.015-.023.054-.003.346-.015.238-.246.126-.13.192-.044.544-.13.108-.543.022-.108.166-.07.119-.146.285-.349.194-.268.17-.122.332-.16.4-.216.411-.223.029-.409.112-.026.126-.111.317-.286.299-.272-.021-.357-.004-.052.433-.186-.036-.476.57-.145-.105-.62-.011-.063.058-.026.043-.038.346-.282.058-.049.007-.01.296-.32.101-.108.032-.086.303-.806.069-.182-.026-.13-.068-.354.079-.145.235-.267.072-.082.018-.041.158-.375.206-.298.13-.19-.047-.167-.069-.249.192-.122.111-.071.033-.082a7.81 7.81 0 00.151-.401l.047-.123-.029-.056zm-43.816 4.22l-.31.275-.09.082.015.122.05.387-.206.253-.281.316-.011.01-.007.012-.231.346-.014.022-.011.026-.141.39-.144.346-.259.279-.065.067v.096l.007.39-.245.212-.04.034-.022.045-.147.32-.325.204-.068.044-.026.082-.119.38-.202.285-.299.26-.054.05-.014.073-.087.357-.281.201-.007.007-.008.008-.313.271-.011.011-.011.011-.271.305-.032.037-.014.049-.087.267-.13-.018-.231-.164c-.194-.167-.385-.338-.576-.509l-.238-.309-.047-.063-.076-.018-.31-.075.025-.368.004-.074-.036-.063-.21-.353-.061-.104-.119-.004-.397-.015-.111-.004-.069.09-.158.2-.011.015-.008.015-.205.357-.227.342-.043.067.007.082.025.342-.307.174-.064.037-.033.067-.173.383-.022.049v.052l.008.379-.242.234-.029.03-.018.037-.155.33-.314.242-.029.023-.021.033-.227.35-.026.037-.007.044-.072.372-.238.268-.054.06-.004.08-.025.436-.148.33c-.151.22-.303.44-.45.662-.188.194-.372.39-.549.591l-.183.15-.17-.127-.213-.342-.025-.041-.04-.026-.357-.238-.032-.022-.036-.008-.31-.078.007-.42v-.104l-.072-.07-.31-.294-.029-.03-.04-.015-.407-.167-.242-.22-.097-.39-.029-.111-.105-.045-.317-.134-.004-.379v-.115l-.09-.067-.349-.257-.238-.226-.011-.42-.004-.142-.123-.06-.364-.181-.057-.145-.112-.28-.231.187-.213.175-.079.066-.004.105-.018.427-.072.357-.213.271-.36.234-.076.053-.022.092-.003.023-.029-.03-.04-.019-.299-.133-.155-.335-.047-.1-.104-.026-.394-.097-.259-.212-.231-.312-.029-.041-.043-.022-.314-.168-.137-.327-.184-.394-.014-.033-.025-.026c-.17-.182-.336-.368-.502-.554l-.046-.39-.015-.112-.094-.056-.328-.2-.166-.309-.014-.03-.022-.022-.259-.26-.116-.339-.097-.405-.011-.037-.022-.033-.216-.346c-.155-.123-.465-.056-.375.249l.166.309.072.397.007.026.116.41.014.051.058.063.238.268c.054.115.108.23.166.342l.039.074.083.056.22.145.029.301.011.108.083.1c.158.194.321.383.487.573l.147.346c.051.133.101.264.156.394l.054.137.137.075.295.16.191.26.029.037.044.037.317.264.072.06.097.025.235.06.101.223.065.149.151.07.292.138.224.241.577.621.173-.84.054-.282c.068-.056.137-.112.205-.172l.094-.085.224-.383.065-.108.003-.037.029-.442.004-.045c-.007-.06-.011-.119-.015-.178l.26.141c0 .123-.004.25-.007.372l-.004.096.087.097.295.327.029.026.195.168-.029.39-.018.215.249.134.216.115.047.298.015.1.122.134.296.323.032.034.116.06.299.152.043.048c-.014.13-.025.26-.032.39l-.022.48.494.149.346.104c.051.037.101.07.152.108l.162.275.061.104.112.081c.112.086.224.175.339.257l.418.301.383-.323.321-.272.046-.04.026-.03.27-.309c.094-.1.188-.197.278-.301l.061-.074.011-.019c.141-.238.285-.476.433-.706l.043-.07.014-.034c.054-.13.101-.264.148-.398l.054-.149v-.063l-.003-.327.111-.149.112-.148.011-.105.043-.382.116-.212.252-.23.101-.09.025-.067.134-.357.223-.253.123-.137-.014-.13-.044-.431.087-.227.328-.208.151-.097-.018-.16c-.014-.137-.032-.271-.047-.409l.181-.279.202-.36.072-.097.148.011.075.157c-.014.074-.028.148-.046.223l-.069.278-.054.227.332.16.241.119c.051.108.101.216.159.32l.068.074c.087.108.166.223.26.32.094.1.18.208.278.3l.05.042a4.9 4.9 0 00.278.212l.119.089.162.026c.123.018.245.033.364.052l.559.078.17-.543.097-.32.144-.167.256-.227.318-.23.202-.145.057-.242c.022-.081.036-.167.054-.252l.148-.134.069-.063.032-.049.231-.346.065-.1.022-.082.061-.215c.058-.037.115-.078.169-.115l.17-.12.058-.14.119-.294.201-.19.217-.2-.015-.25-.018-.3c.036-.045.076-.09.112-.135l.079-.096.022-.06.144-.409.119-.39c.054-.093.112-.186.163-.282l-.036.044.263-.353.249-.364.108-.16-.029-.127-.072-.338c.061-.067.122-.13.184-.197l.068-.078.007-.033.112-.432c.047-.316-.346-.353-.414-.167l-.127.36z" fill="#ABA000"/><path d="M136.637 23.166c2.139-2.205 2.139-5.78 0-7.985a5.362 5.362 0 00-7.746 0c-2.139 2.205-2.139 5.78 0 7.986a5.362 5.362 0 007.746 0z" fill="#31332A"/><path d="M134.971 15.655c0 .877-1.071 1.587-2.394 1.587-1.323 0-2.394-.71-2.394-1.587 0-.878 1.071-1.588 2.394-1.588 1.323-.003 2.394.71 2.394 1.588z" fill="#636A78"/><path d="M108.63 11.844l-.079.405-.674.041-.054.465-.747.026.57.84-1.374-.316-.032.48.068.527-.353.298-.52.22-.158.4.209.57.613.724-.451.257-.854.111-.055.439-.252.364.855.74-.927.141.606.625-1.111.122-.166.402.887.662-.995.204.545.55.342.49-.53.16a5.693 5.693 0 01-2.113-4.453c0-3.119 2.452-5.65 5.481-5.65a5.3 5.3 0 011.269.156z" fill="#31332A"/><path d="M106.092 12.692c.213.345-.119.955-.743 1.364-.623.409-1.301.46-1.514.115-.213-.345.119-.955.743-1.364.624-.409 1.301-.461 1.514-.115z" fill="#636A78"/><path d="M120.245 22.584c-.008.052-.019.133-.04.234-.162.803-.819 2.955-2.387 3.211-1.616.26-7.4-2.297-8.399-3.315-.093-.093-.148-.179-.148-.246 0-.06.047-.141.138-.238.84-.951 5.369-3.531 6.865-4.375.336-.19.725-.2 1.064-.026 2.092 1.056 2.798 3.662 2.896 4.524.011.104.014.182.011.23z" fill="#FC8B2D"/><path d="M120.245 22.583c-.008.052-.019.134-.04.235-.902.1-1.803.133-2.705.163-.916.022-1.831.019-2.744 0a84.362 84.362 0 01-2.744-.09 54.918 54.918 0 01-2.593-.177c-.093-.093-.148-.179-.148-.246 0-.06.047-.141.138-.238.872-.07 1.741-.104 2.61-.126a96.559 96.559 0 012.744-.034c.916 0 1.829.019 2.741.056.909.045 1.821.104 2.733.223.008.108.011.186.008.234zm-4.746-3.207c.069.208-.147.494-.486.643-.339.148-.671.1-.74-.108-.068-.208.148-.495.487-.643.339-.145.671-.1.739.108z" fill="#D13301"/><path d="M156.29 78.236h-4.778l.321-14.71v-.063c-.022-.572-.487-1.015-1.039-.996-.555.022-.984.502-.966 1.07l.534 14.632-12.848-1.312a.563.563 0 00-.61.513.571.571 0 00.501.628l9.524.974-11.128 2.082a.57.57 0 00-.447.669c.05.278.284.472.548.472.032 0 .065-.004.101-.008l12.137-2.271-7.962 5.067a.584.584 0 00-.18.791.547.547 0 00.768.186l10.342-6.58 5.186.004a.564.564 0 00.555-.572.568.568 0 00-.559-.576zm-21.203-1.205a.564.564 0 01-.555.573l-5.186-.004-10.342 6.58a.551.551 0 01-.768-.19.59.59 0 01.181-.792l7.965-5.066-12.141 2.27c-.033.008-.069.008-.101.008a.567.567 0 01-.548-.472.578.578 0 01.451-.669l11.128-2.082-9.524-.974a.567.567 0 01-.497-.628.56.56 0 01.609-.513l12.848 1.312-.317-8.698.541-.498.458-.112.227.692.321.394.104-.093-.184 8.379h4.778a.578.578 0 01.552.583z" fill="#FC8B2D"/></g><g clip-path="url(#clip1)"><path d="M13.318 91.42c-.203-4.378 13.216-8.59 29.972-9.408 16.756-.819 30.504 2.066 30.706 6.444.203 4.377-13.216 8.59-29.972 9.408-16.756.818-30.504-2.067-30.706-6.444z" fill="#F3F3F3"/><path d="M1.175 44.617l.28-.382.51.306.143-.805.476.215.145-.843.466.187.53.406.274-.437.402-.01.22-.653.29-.406.422.056.666.96.104-1.106.423.073.462.232.301-.388.547.558.42.07.141-1.01.31-.35.595.745.351-.194.176-.86.585.7.195-.783.399-.014.348-.188.496.347.358-.166.558.558.05-1.263.585.642.476.24.088-1.073.378-.08.365-.131.395-.031.615.635.388-.073.284-.385.385-.08.375-.115.01-1.11.774.965v-1.1l.409-.01.199-.545.584.416.679.6.105-.75.223-.457.169-.566.908 1.03.213-.468.01-.87.8.732.254-.375.25-.368.544.184.101-.638.206-.43.31-.24.589.229.51.087.135-.541h.466l-.27-1.152.672.322.128-.517.615.212.078-.58.6.046-.154-.507.614-.288.014-.395-.216-.451.216-.354.094-.385-.766-.632 1.02-.114.138-.368-.128-.458-.351-.555.128-.385.152-.375 1.182.066-.895-.826.48-.222.776-.062-.483-.684-.273-.6.409-.24.503-.173-.307-.656.513-.156-.037-.503.344-.26.176-.368.638-.031.105-.42.659.02-.064-.558.655.042-.355-.833.821.215-.142-.67-.162-.714.594.031.75.215.348-.187-.408-1.051.847.381-.064-.69.693.243-.254-.975.264-.32.645.226-.027-.746.466-.017.601.212.608.263-.158-1.04.604.273.142-.555.669.455-.118-1.124.297-.302.621.42.118-.729.315-.284.76.874.226-.5.307-.298.338-.24.588.594.216-.632.226-.676.652.989.21-.809.503.496.402.084.365-.136.236-.954.514.847.374-.07.288-.975.425.33.402.17.416.656.337-1.34.41 1.18.38-.652.376.638.425-1.2.335 1.141.435-.749.304.992.477-.902.358.306.422-.212.331.413.476-.476.2 1.052.435-.233.348.215.51-.465.196.781.54-.507.237.576.665-.818-.047 1.38.622-.607.08.889.541-.337.632-.503.023.937.54-.247.437-.003.033.819.629-.371.006.811.548-.187.03.718.52-.114.79-.531.23.388.345.202.32.239-.3 1.09.74-.344.456.059.398.146.23.35.21.368.053.534.102.469.567-.028.463.094-.243.794.966-.378-.706 1.193 1.23-.572-.737 1.155 1.098-.406.01.507-.355.77.973-.24-.513.858.08.412.632.039.051.437.7.02-.534.785 1.283-.295.034.447-.064.49.327.28.49.202.149.374-.196.531-.574.68.425.24.797.107.055.406.236.34-.797.69.868.133-.568.582 1.04.111.156.379-.83.617.931.191-.513.514-.317.458.82.256.287.364-.493.469-.422.444.78.316-.463.433.663.358-1.027.437 1.287.364-1.307.4.263.388.79.423-.013.4-.838.336.828.471.077.417-1.145.25.497.468.111.42-.996.316.483.444-.04.399.76.33-.163.412-.162.413.54.368-.486.423.267.389.06.399-.823.409.307.392.736.399-.55.392.257.406-.372.385-.321.378.94.455-.954.33-.236.37.57.452-.32.364.402.448-.074.392-.237.367.034.406.085.42-.494.312.081.417-.141.374.337.486-.5.288.014.413.206.465-.105.389-.611.232.49.569-.203.354.03.437-.35.298-.882.094.87.76-.317.305.102.479-.993.003.618.715-.203.347-1.256-.173.26.565-.446.208.003.444-.098.393-.125.381-.324.26.605.833-.186.36-.267.306-1.074-.24.3.68-.06.445-.598.052-.753-.08.209.652-.578.035.014.507-.27.28.422.882-.297.267-.723-.118-.095.444-.175.375-.213.347-.993-.444.513 1.082-.885-.364.514 1.131-.382.166-.385.167-1-.566.534 1.24-.81-.369L59.83 70l.024.652-.145.45-.345.188-.635-.211-.105.517-.59-.18.161.925-.348.181-.6-.215-.47-.031.256 1.158-.736-.475-.19.444-.516-.132-.179.472-.037.746-.399.083-.236.4-.76-.642-.321.215-.203.468-.21.475-.465-.08-.639-.499-.348.153-.064.85-.655-.597-.314.243-.162.649-.27.388-.44-.083-.267.416-.395.042-.628-.68-.105.944-.56-.514-.43-.104-.212.645-.297.368-.524-.468-.165.916-.48-.333-.375.083-.284.506-.412-.062-.49-.475-.344.246-.216.933-.473-.416-.375.097-.473-.5-.334.334-.355.25-.307.641-.436-.333-.477-.763-.324.576-.398-.136-.395-.104-.406-.298-.348.53-.354.539-.396-.108-.415-.7-.361.651-.386.184-.388.063-.388-.902-.382-.215-.399 1.169-.381-.35-.372-.372-.365-.437-.375-.104-.432.815-.365-.322-.419.399-.412.246-.33-.604-.315-.645-.419.274-.46.576-.32-.51-.47.517-.385-.063-.324-.405-.483.485-.179-1.145-.601 1.041-.257-.683-.32-.333-.305-.386-.645 1.013-.328-.301-.246-.597-.267-.475-.392-.021-.263-.451-.358-.125-.78 1.17-.044-1.1-.68.78-.364-.153.064-1.29-.426.045-.243-.424-.56.365-.244-.413-.246-.385-.649.51-.351-.167-.115-.652-.736.618.02-.903-.743.587-.024-.78-.101-.605-.753.542-.146-.52-.104-.573-.44-.01-.655.301.173-.964-.345-.17-.247-.316-.53.083-.892.552.392-1.166-.854.465-.237-.337-.101-.496-.443-.083-.111-.468-.105-.465-.405-.132.084-.652-.861.333.108-.663-.145-.395-.584.017.233-.74-.997.372-.503-.09.723-1.124-.747.11-.466-.131-.236-.32.206-.644-.922.18.58-.892-.682-.01.145-.566-.236-.315-.645-.063.58-.808-.89.07.276-.611-.55-.146-.494-.191.686-.794-.892.003.672-.76-.621-.142-.32-.288.276-.548-.47-.23-.263-.322-.344-.295.655-.659-.04-.399-.39-.278-.665-.2-.253-.34-.138-.379.09-.44.558-.56-.111-.374-.085-.385-.283-.337.233-.45.098-.42-.74-.257.554-.5-.436-.322-.82-.274.702-.504-.321-.357.608-.468-.578-.333.29-.424-.354-.364.44-.43.033-.392-1.246-.326.983-.448-.068-.389.3-.402-.185-.666-.814.146-.196-.451-.787.471.21-.995-.342-.188-.594.066-.112-.468-.128-.416-.31-.254L0 44.85l1.202-.034-.027-.198z" fill="#FDEE21"/><path d="M6.38 47.344l.126-.451-.004.042.047-.424c.075-.28.41-.149.42.01l-.01.424v.017l-.004.018-.071.388.111.233.379.208.138.076-.034.156-.077.375.189.236.013.017.01.021.163.32.27.267.017.017.013.017.213.33.044.066-.01.08-.058.426.277.639.25.246.301.222.412.156.155.06-.02.17-.04.336.31.066.173.038-.007.18-.014.361.274.108.138.055-.003.153-.013.426.185.157.412.086.152.032.014.16.034.388.256.135.369.167.016.007.014.01.32.222.028.02.02.029.233.312.22.257.324.131.101.042.024.111.081.375.28.066.058.014.044.041.223.226.368.01.101.004.061.083.22.302.27.152.365.073.084.018.047.076.186.288.314.024h.014l.013.004.385.08.02.003.02.007.352.153.061.024.034.055.165.264.318-.111.07-.024.068.024c.183.07.365.128.547.212.176.073.342.156.51.236l.352.083.088.02.047.08.159.274.293-.229.061-.048.078.003.382.025.114.007.055.104.209.402.247-.083.033-.01h.037l.379.01.378-.028.091-.007.068.066.226.222.267-.215.068-.052.084.01.382.039.057.007.047.038.284.222.274-.125.044-.021.047.004.317.013.315-.215.037-.024.044-.007.375-.07.054-.01.05.018.325.114.293-.121.088-.035.085.045.378.198.324.007a16.5 16.5 0 01.716-.163l.345-.16.354-.142.328-.198.02-.014.024-.007.321-.104.27-.256.047-.046.068-.01.389-.052.047-.007.044.014.267.087.098-.413.027-.118.114-.035.365-.114.047-.014.051.01.422.076.257-.072.182-.323.071-.125.139.02.304.046.084-.347.034-.139.139-.02.402-.06.253-.086.088-.392.037-.174.172.007.497.017c.169.007.24.392-.014.43l-.277.011-.05.333-.02.142-.166.07c-.125.052-.25.107-.375.156l-.01.003-.044.01-.18.035-.064.334-.057.312-.348-.035-.21-.02-.094.187-.067.135-.186.062-.379.129-.07.024-.122-.014-.331-.038-.07.389-.099.548-.57-.163-.349-.1-.09.016-.187.191-.074.077-.145.052-.277.1-.297.195-.02.013-.068.032-.345.152-.334.174-.047.024-.088.02c-.247.06-.493.122-.74.192l-.057.017h-.102l-.395.003-.135.004-.159-.076-.128-.063-.095.042-.22.097-.266-.087-.206-.066-.047.01-.257.188-.18.128-.256-.003-.2-.004-.239.115-.392.187-.368-.28-.122-.094-.114.093-.507.424-.503-.472-.102-.094-.06.007-.024.004h-.287l-.297.104-.625.222-.29-.545-.71.558-.473-.804-.098-.167-.037-.007-.081-.017-.085-.042-.25-.118c-.084-.041-.162-.073-.243-.107-.074-.032-.142-.063-.22-.09l-.202.072-.608.219-.358-.559-.112-.177-.044-.017-.256-.056-.358-.027-.412-.035-.22-.347-.054-.087-.05-.01-.132-.028-.109-.062-.334-.195-.159-.09-.1-.139-.014-.02-.051-.004-.324-.014-.223-.229-.119-.121-.179-.042-.51-.121-.1-.507-.021-.1-.156-.066-.111-.136-.267-.326-.182-.25-.159-.114-.31-.15-.376-.2-.385-.209-.027-.381-.104-.025-.119-.104-.297-.267-.28-.253.02-.333.003-.049-.405-.173.034-.444-.534-.136.098-.579.01-.059-.054-.024-.04-.035-.325-.264-.054-.045-.007-.01-.276-.299-.095-.1-.03-.08-.284-.753-.064-.17.023-.121.064-.33-.074-.135-.22-.25-.067-.076-.017-.038-.148-.35-.193-.278-.122-.177.044-.157.064-.232-.179-.114-.104-.066-.03-.077a7.078 7.078 0 01-.143-.374l-.043-.115.027-.052zm41.044 3.938l.29.257.085.076-.014.114-.047.361.193.236.263.295.01.01.007.01.216.324.014.02.01.025.131.364.136.323.243.26.06.062v.09l-.006.365.23.198.037.03.02.042.138.299.304.19.065.042.023.077.112.353.189.268.28.242.05.045.014.07.081.333.264.187.007.007.006.007.294.254.01.01.01.01.254.285.03.035.014.045.08.25.122-.018.217-.153c.182-.156.361-.315.54-.475l.223-.288.044-.059.07-.017.291-.07-.023-.343-.004-.07.034-.058.196-.33.057-.097.112-.004.371-.014.105-.003.064.083.149.188.01.014.007.013.192.333.213.32.04.062-.006.076-.024.32.287.163.061.034.03.063.163.357.02.045v.049l-.007.354.226.218.028.028.017.035.145.309.294.225.027.02.02.032.213.326.023.035.007.042.068.346.222.25.051.056.004.076.023.406.139.309c.142.205.283.41.422.617.176.18.348.365.513.552l.173.139.158-.118.2-.32.023-.037.038-.025.334-.222.03-.02.034-.008.29-.072-.006-.392v-.098l.067-.066.29-.274.028-.027.037-.014.382-.156.226-.205.091-.364.027-.104.098-.042.297-.125.004-.354V59.1l.084-.063.328-.24.223-.21.01-.393.003-.132.115-.055.341-.17.054-.136.105-.26.216.174.2.163.074.062.003.097.017.4.068.332.199.254.338.218.07.049.02.087.004.02.027-.027.037-.018.28-.125.146-.312.044-.094.098-.024.368-.09.243-.198.216-.291.027-.038.041-.021.294-.156.128-.306.172-.367.014-.032.024-.024c.159-.17.314-.343.47-.517l.043-.364.014-.104.087-.052.308-.188.155-.288.014-.027.02-.021.243-.243.108-.316.091-.378.01-.035.02-.031.203-.323c.146-.114.436-.052.352.233l-.156.288-.067.371-.007.024-.108.382-.014.048-.053.06-.223.25c-.051.107-.102.214-.156.319l-.037.069-.078.052-.206.135-.027.281-.01.1-.078.095c-.148.18-.3.357-.456.534l-.138.323c-.047.124-.095.246-.145.367l-.05.129-.13.07-.276.148-.18.243-.026.035-.04.035-.298.246-.068.055-.09.025-.22.055-.095.208-.06.14-.143.065-.273.128-.21.226-.54.58-.162-.785-.05-.264a3.554 3.554 0 01-.193-.16l-.088-.079-.21-.357-.06-.1-.004-.035-.027-.413-.003-.042c.006-.055.01-.111.013-.167l-.243.132c0 .115.003.233.007.347l.003.09-.08.09-.278.306-.027.024-.182.156.027.365.017.2-.233.126-.203.107-.044.278-.014.094-.114.124-.277.302-.03.032-.109.055-.28.142-.04.045c.013.122.023.243.03.365l.02.447-.463.14-.324.096c-.047.035-.095.066-.142.1l-.152.258-.057.097-.105.076c-.105.08-.21.163-.318.24l-.391.28-.358-.301-.301-.254-.044-.038-.024-.028-.253-.288c-.088-.093-.176-.183-.26-.28l-.058-.07-.01-.017a21.221 21.221 0 00-.405-.66l-.04-.065-.014-.032a7.806 7.806 0 01-.139-.37l-.05-.14v-.059l.003-.305-.105-.139-.104-.139-.01-.097-.04-.357-.109-.198-.236-.215-.095-.083-.024-.063-.125-.333-.209-.236-.115-.128.014-.121.04-.403a13.064 13.064 0 00-.08-.212l-.308-.194-.142-.09.017-.15c.013-.128.03-.253.044-.38l-.17-.261-.188-.337-.068-.09-.138.01-.071.146c.013.07.027.14.044.208l.064.26.05.212-.31.15-.227.11c-.047.101-.094.202-.148.299l-.064.07c-.081.1-.156.207-.244.298-.087.093-.169.194-.26.28l-.047.039c-.084.07-.172.135-.26.198l-.112.083-.152.024c-.114.018-.23.031-.34.049l-.524.073-.159-.507-.091-.298-.135-.156-.24-.212-.297-.215-.19-.136-.054-.225c-.02-.076-.033-.156-.05-.236l-.139-.125-.064-.059-.03-.045-.217-.323-.06-.093-.02-.077-.058-.2c-.054-.035-.108-.074-.159-.108l-.158-.111-.055-.132-.111-.274-.19-.177-.202-.188.014-.232.017-.281-.105-.125-.074-.09-.02-.056-.136-.381-.111-.365c-.051-.086-.105-.173-.152-.263l.033.041-.246-.33-.233-.34-.102-.149.027-.117.068-.316c-.057-.063-.115-.122-.172-.184l-.064-.073-.007-.031-.105-.403c-.044-.294.324-.33.389-.156l.118.337z" fill="#ABA000"/><path d="M40.618 35.623c-2.004-2.058-2.004-5.394 0-7.453a5.036 5.036 0 017.256 0c2.004 2.058 2.004 5.395 0 7.453a5.035 5.035 0 01-7.256 0z" fill="#31332A"/><path d="M42.177 28.612c0 .82 1.004 1.482 2.243 1.482 1.24 0 2.243-.663 2.243-1.482 0-.818-1.003-1.481-2.243-1.481-1.24-.004-2.243.663-2.243 1.481z" fill="#636A78"/><path d="M66.853 25.056l.074.378.632.038.05.434.7.024-.534.784 1.287-.295.03.448-.064.493.33.277.487.205.149.375-.196.53-.574.677.422.24.8.103.051.41.237.34-.8.69.867.132-.567.583 1.04.114.156.375-.832.618.933.19-.51.514-.321.458.496.15a5.305 5.305 0 001.98-4.157c0-2.911-2.297-5.274-5.134-5.274-.41 0-.808.052-1.19.146z" fill="#31332A"/><path d="M69.23 25.847c-.199.322.112.891.696 1.273.585.382 1.22.43 1.419.108.2-.323-.111-.892-.696-1.274-.584-.381-1.22-.43-1.418-.107z" fill="#636A78"/><path d="M55.973 35.08c.007.048.017.124.038.218.152.75.766 2.758 2.236 2.997 1.513.243 6.93-2.144 7.867-3.095.087-.086.138-.166.138-.229 0-.055-.044-.131-.128-.221-.787-.889-5.03-3.297-6.432-4.084a1.037 1.037 0 00-.996-.024c-1.96.985-2.621 3.417-2.712 4.222-.01.097-.014.17-.01.215z" fill="#FC8B2D"/><path d="M55.973 35.079c.007.048.017.125.038.218.844.094 1.688.125 2.533.153.858.021 1.716.017 2.57 0a79.652 79.652 0 002.57-.083 51.797 51.797 0 002.43-.167c.087-.086.138-.166.138-.229 0-.055-.044-.131-.128-.222a44.526 44.526 0 00-2.446-.118 90.662 90.662 0 00-2.57-.03c-.858 0-1.713.017-2.567.051-.852.042-1.706.097-2.56.208-.008.101-.011.174-.008.219zm4.446-2.994c-.064.194.138.461.456.6.317.139.628.094.692-.1.064-.195-.138-.462-.456-.6-.317-.136-.628-.094-.692.1z" fill="#D13301"/><path d="M22.209 87.02h4.475l-.3-13.728v-.059a.953.953 0 01.972-.93c.52.021.922.469.905 1l-.5 13.655 12.036-1.224a.527.527 0 01.57.479.533.533 0 01-.47.586l-8.92.909 10.424 1.943a.533.533 0 01.419.624.528.528 0 01-.514.44c-.03 0-.06-.003-.094-.006l-11.37-2.12 7.458 4.729a.545.545 0 01.17.739.513.513 0 01-.72.174l-9.688-6.141-4.857.003a.527.527 0 01-.52-.534c0-.295.233-.538.524-.538zm19.861-1.123c0 .295.233.534.52.534l4.857-.003 9.688 6.14a.517.517 0 00.72-.176.549.549 0 00-.17-.74l-7.461-4.728 11.373 2.12c.03.007.064.007.094.007a.53.53 0 00.514-.441.54.54 0 00-.422-.625l-10.424-1.942 8.92-.91a.53.53 0 00.466-.586.524.524 0 00-.57-.479L48.14 85.293l.297-8.119-.507-.464-.429-.104-.212.645-.301.368-.098-.087.172 7.82h-4.475a.54.54 0 00-.517.545z" fill="#FC8B2D"/></g><defs><clipPath id="clip0"><path fill="#fff" transform="translate(101 .001)" d="M0 0h79v90H0z"/></clipPath><clipPath id="clip1"><path fill="#fff" transform="matrix(-1 0 0 1 74 14.002)" d="M0 0h74v84H0z"/></clipPath></defs></svg>