<svg xmlns="http://www.w3.org/2000/svg" width="97" height="84" fill="none"><rect width="84" height="84" rx="42" fill="#fff"/><g clip-path="url(#clip0)"><path d="M84.747 59.627c-3.318 1.822-5.639 5.245-5.91 9.223a.73.73 0 00.728.782h3.98l7.668-2.562 2.24-3.279 1.926-3.479a.731.731 0 00-.334-1.016 11.327 11.327 0 00-4.626-1.07l-5.672 1.4z" fill="#FED402"/><path d="M71.797 62.642h3.771l-8.42 7.48H39.05l-7.472-7.48h40.218z" fill="#E5E1E5"/><path d="M79.491 11.195l.716 2.915 6.835 31.525.383 5.38-2.678.808-2.175-5.219-7.045-32.495-.205-2.664 4.17-.25z" fill="#EFEDEF"/><path d="M27.723 67.653h-4.148a.577.577 0 01-.558-.717c1.214-4.994 5.721-8.713 11.083-8.713 5.616 0 10.294 4.08 11.234 9.43h-17.61z" fill="#FEE97D"/><path d="M76.174 17.095l-.648-2.985-.205-2.665 4.17-.25.715 2.915.647 2.985h-4.68z" fill="#E5E1E5"/><path d="M84.033 14.11h-9.826a1.03 1.03 0 01-1.03-1.031v-1.384a2.847 2.847 0 012.388-2.81l8.13-1.328a2.095 2.095 0 012.433 2.068v2.39a2.095 2.095 0 01-2.095 2.094z" fill="#FEE45A"/><path d="M78.338 12.28a4.086 4.086 0 004.086-4.086v-.399l-.002-.03 1.273-.208a2.095 2.095 0 012.433 2.068v2.39a2.095 2.095 0 01-2.095 2.094h-9.826a1.03 1.03 0 01-1.03-1.03v-.8h5.16z" fill="#FEDF30"/><path d="M65.412 67.653L83.546 53.58l2.71-2.211 1.733 6.002-3.241 2.257-10.645 8.026-8.122 5.627-3.355-4.27 2.786-1.357z" fill="#FEE97D"/><path d="M90.22 76.47a6.78 6.78 0 110-13.559 6.78 6.78 0 010 13.56z" fill="#736572"/><path d="M83.635 51.52l4.045-.761 1.472 1.614 3.347 15.437a1.675 1.675 0 01-1.282 1.992l-2.435.528a1.674 1.674 0 01-1.992-1.282L83.441 53.6l.194-2.08z" fill="#FEE45A"/><path d="M34.166 76.373a6.742 6.742 0 110-13.483 6.742 6.742 0 010 13.483z" fill="#736572"/><path d="M73.97 68.984l-4.15 4.15a1.553 1.553 0 01-1.098.455H38.817l-4.94-1.95a1.683 1.683 0 01-1.065-1.565v-.737c0-.93.754-1.684 1.684-1.684h39.606l.001 1.007a.458.458 0 01-.134.325z" fill="#EFEDEF"/><path d="M61.812 71.78a6.386 6.386 0 004.515-1.87l2.256-2.257h5.519l.001 1.007a.458.458 0 01-.134.325l-4.149 4.148a1.553 1.553 0 01-1.098.456H38.817l-4.585-1.81h27.58zm25.23-26.145l.383 5.38-2.678.808-2.175-5.219-.588-2.715 4.47-.969.588 2.715z" fill="#E5E1E5"/><path d="M87.83 68.32a1.675 1.675 0 001.283-1.992l-3.3-15.218 1.866-.351 1.472 1.614 3.347 15.437a1.675 1.675 0 01-1.282 1.992l-2.435.528a1.674 1.674 0 01-1.992-1.282l-.104-.48 1.145-.248z" fill="#FEDF30"/><path d="M82.414 46.851a.426.426 0 00-.326.508l1.353 6.241.105-.022 5.605-1.205-1.355-6.252a.429.429 0 00-.508-.327l-4.874 1.057z" fill="#D7D0D6"/><path d="M85.766 50.891l-.987-4.553 2.51-.544c.23-.05.456.097.507.327l1.355 6.252-2.927.63-.458-2.112z" fill="#B8B2B8"/></g><path d="M41.445 47.663l.106-.146.193.117.054-.307.18.082.055-.321.176.071.2.155.104-.167.153-.004.083-.248.11-.155.16.021.251.366.04-.421.16.028.175.088.113-.148.207.213.159.026.053-.384.118-.134.225.284.133-.074.066-.327.221.267.075-.3.15-.004.132-.072.188.132.135-.063.211.213.02-.481.22.244.18.091.034-.408.143-.03.138-.05.15-.013.232.242.147-.027.108-.147.145-.03.142-.044.004-.423.293.367v-.419l.154-.004.076-.207.22.158.258.23.04-.286.084-.175.064-.215.343.392.08-.178.005-.332.303.279.096-.143.094-.14.206.07.038-.243.078-.164.118-.091.222.087.193.033.051-.206h.177l-.103-.439.255.123.048-.197.233.08.03-.22.227.017-.059-.193.233-.11.005-.15-.082-.172.082-.135.036-.146-.29-.241.385-.044.053-.14-.049-.174-.133-.212.049-.146.057-.143.448.025-.339-.314.181-.085.294-.024-.182-.26-.104-.229.155-.091.19-.066-.116-.25.194-.06-.014-.191.13-.1.067-.14.242-.011.04-.16.248.008-.024-.213.248.016-.134-.317.31.081-.053-.255-.062-.272.225.012.284.082.132-.071-.155-.4.32.145-.023-.264.262.093-.096-.371.1-.122.243.086-.01-.284.177-.007.227.08.23.101-.06-.396.229.104.054-.211.253.173-.045-.428.112-.115.236.16.044-.278.12-.108.287.333.085-.19.117-.114.127-.092.223.227.082-.241.085-.258.247.377.08-.308.19.189.152.032.138-.052.09-.363.193.322.142-.026.109-.372.161.126.152.065.157.25.128-.51.155.449.144-.249.142.243.161-.457.127.435.165-.286.114.378.18-.343.136.116.16-.08.125.157.18-.181.076.4.165-.088.131.081.193-.177.074.298.205-.193.09.22.251-.313-.018.526.235-.231.031.338.205-.128.239-.192.008.357.205-.093.165-.002.013.312.237-.141.003.309.207-.071.011.273.197-.043.3-.203.086.148.13.077.122.091-.114.415.28-.13.173.022.15.055.088.134.079.14.02.204.038.178.215-.01.175.035-.092.303.366-.144-.267.454.465-.218-.279.44.416-.154.004.193-.135.293.368-.091-.194.326.03.158.24.014.019.167.265.008-.202.298.485-.112.013.17-.024.187.124.107.185.077.056.142-.074.203-.217.259.161.09.302.042.02.154.09.13-.302.263.328.05-.214.222.393.043.06.144-.315.235.352.073-.194.195-.12.175.31.098.11.138-.187.179-.16.169.295.12-.175.165.25.137-.388.166.487.139-.495.152.1.148.299.161-.005.152-.317.128.313.18.03.159-.434.095.188.178.042.16-.377.12.183.17-.015.152.287.125-.061.157-.062.158.205.14-.184.161.101.148.023.152-.312.156.116.15.279.152-.208.149.097.154-.14.147-.122.144.355.173-.36.126-.09.141.216.172-.121.139.152.17-.028.15-.09.14.013.155.032.16-.187.118.031.16-.053.142.127.185-.189.11.005.157.078.177-.04.148-.23.089.185.216-.077.135.011.167-.132.113-.334.036.33.29-.12.116.038.182-.376.002.234.272-.077.132-.475-.066.098.215-.168.08v.169l-.036.15-.048.145-.122.099.229.317-.07.137-.102.117-.406-.092.114.26-.023.169-.227.02-.285-.03.08.248-.219.013.005.193-.102.107.16.335-.113.102-.273-.045-.036.17-.067.142-.08.133-.376-.17.195.413-.335-.14.194.432-.144.063-.146.064-.379-.216.202.472-.306-.14-.23-.055.009.248-.055.172-.13.071-.241-.08-.04.196-.223-.068.061.353-.132.068-.227-.082-.178-.011.097.44-.278-.18-.072.17-.195-.051-.068.18-.014.284-.151.032-.09.151-.287-.244-.121.082-.077.178-.08.181-.176-.03-.241-.19-.132.058-.024.324-.248-.228-.119.093-.061.247-.103.148-.166-.032-.1.159-.15.016-.238-.26-.04.36-.212-.195-.162-.04-.08.246-.113.14-.198-.178-.063.348-.181-.127-.142.032-.108.193-.155-.024-.186-.18-.13.093-.082.356-.179-.159-.142.037-.179-.19-.126.127-.134.095-.117.244-.164-.127-.18-.29-.123.22-.151-.052-.15-.04-.153-.114-.132.203-.134.204-.15-.04-.157-.268-.136.249-.146.07-.147.024-.147-.344-.145-.082-.15.446-.145-.134-.14-.141-.138-.167-.142-.04-.164.311-.138-.123-.158.152-.156.094-.126-.23-.118-.246-.159.104-.174.22-.121-.194-.178.197-.145-.024-.123-.155-.183.185-.068-.436-.227.396-.097-.26-.122-.127-.115-.146-.244.386-.124-.116-.093-.227-.101-.18-.148-.009-.1-.172-.136-.047-.295.445-.016-.419-.257.298-.138-.059.024-.491-.161.017-.092-.161-.212.139-.092-.158-.094-.147-.245.195-.133-.064-.043-.248-.279.235.008-.343-.281.223-.01-.297-.038-.23-.285.206-.055-.199-.04-.218-.166-.004-.247.115.065-.367-.13-.065-.094-.12-.2.032-.338.21.148-.444-.323.177-.09-.128-.038-.19-.167-.031-.043-.179-.04-.177-.152-.05.032-.248-.326.127.04-.253-.054-.15-.222.006.089-.282-.377.142-.19-.034.273-.429-.283.042-.176-.05-.09-.121.078-.246-.349.069.22-.34-.258-.004.055-.215-.09-.12-.244-.024.22-.309-.337.027.105-.233-.209-.055-.186-.073.26-.303-.338.002.254-.29-.235-.054-.122-.11.105-.208-.177-.088-.1-.123-.13-.112.248-.251-.016-.152-.147-.106-.252-.076-.095-.13-.053-.144.035-.168.21-.213-.042-.142-.032-.147-.107-.128.088-.172.037-.16-.28-.098.21-.19-.165-.123-.31-.105.266-.191-.122-.136.23-.179-.218-.127.11-.16-.135-.14.166-.164.013-.149-.471-.124.371-.17-.025-.149.114-.153-.07-.254-.309.056-.074-.172-.297.18.079-.38-.13-.071-.224.025-.042-.178-.05-.159-.117-.096L41 47.75l.455-.013-.01-.075z" fill="#FCEE21"/><path d="M43.415 48.702l.047-.172v.016l.017-.162c.028-.107.155-.056.159.004l-.004.162v.006l-.002.007-.026.148.042.089.143.079.052.029-.012.06-.03.142.072.09.005.006.004.008.061.122.102.102.007.006.005.007.08.126.017.025-.004.03-.022.163.105.243.095.094.113.084.156.06.06.022-.008.065-.016.128.118.025.065.015-.003.069-.005.137.104.041.052.021-.001.058-.005.163.07.06.156.032.058.012.005.061.013.148.097.052.139.063.006.003.005.004.122.084.01.008.008.01.088.12.083.098.123.05.038.016.009.042.03.143.107.025.022.005.016.016.085.086.139.004.038.001.023.032.083.115.102.058.139.028.031.006.018.03.07.11.12.008h.005l.005.002.145.03.008.002.008.002.133.058.023.01.012.02.063.101.12-.042.027-.01.026.01c.069.026.138.049.207.08.066.028.129.06.193.09l.133.032.033.008.018.03.06.105.11-.087.024-.019.03.001.144.01.043.002.02.04.08.153.093-.031.013-.004h.014l.143.004.143-.011.035-.003.025.025.086.085.101-.082.026-.02.032.004.144.015.022.002.018.015.107.085.103-.048.017-.008.018.001.12.006.119-.082.014-.01.017-.002.142-.027.02-.004.02.007.122.044.111-.047.033-.013.032.017.143.076.123.002c.09-.022.18-.043.271-.062l.13-.06.135-.055.123-.075.008-.005.01-.003.12-.04.103-.098.018-.017.025-.004.147-.02.018-.002.017.005.1.033.038-.157.01-.045.043-.013.139-.044.017-.005.02.004.16.029.096-.028.07-.123.026-.047.053.008.115.017.032-.132.012-.053.053-.008.152-.023.096-.033.033-.15.014-.065.065.003.188.006c.064.003.09.15-.005.164l-.105.004-.019.127-.008.054-.062.026-.142.06-.004.001-.017.004-.067.013-.025.127-.021.12-.132-.014-.08-.008-.035.071-.026.052-.07.024-.143.049-.027.009-.046-.005-.125-.015-.027.148-.037.209-.216-.062-.132-.038-.034.006-.07.073-.029.029-.054.02-.105.038-.113.074-.007.005-.026.012-.13.058-.127.067-.018.009-.033.008a7.386 7.386 0 00-.28.072l-.022.007h-.038l-.15.001-.05.002-.06-.03-.05-.023-.035.016-.083.037-.101-.033-.078-.025-.018.004-.097.07-.068.05-.097-.002h-.075l-.091.043-.148.071-.14-.107-.046-.036-.043.036-.192.161-.19-.18-.039-.035-.023.002-.009.002h-.109l-.112.04-.236.084-.11-.207-.268.212-.18-.306-.036-.064-.014-.002-.031-.007-.032-.016-.095-.045c-.032-.016-.061-.027-.092-.04-.028-.013-.053-.025-.083-.035l-.076.028-.23.083-.136-.213-.042-.067-.017-.007-.097-.021-.135-.01-.156-.014-.083-.132-.02-.033-.02-.004-.05-.01-.04-.024-.127-.074-.06-.035-.039-.053-.005-.008h-.019l-.123-.006-.084-.087-.045-.047-.067-.016-.194-.046-.038-.193-.008-.038-.058-.025-.043-.052-.1-.124-.07-.095-.06-.044-.117-.057-.142-.076-.146-.08-.01-.145-.04-.01-.044-.039-.113-.102-.106-.096.008-.127.001-.018-.153-.067.013-.169-.202-.051.037-.221.004-.023-.02-.009-.016-.013-.123-.1-.02-.018-.003-.004-.105-.113-.036-.039-.011-.03-.107-.287-.025-.065.01-.046.023-.125-.028-.052-.083-.095-.025-.03-.007-.014-.056-.133-.073-.106-.046-.067.017-.06.024-.088-.068-.044-.04-.025-.01-.03a2.83 2.83 0 01-.054-.142l-.017-.044.01-.02zm15.53 1.5l.11.098.032.029-.006.043-.017.138.072.09.1.112.004.004.003.004.081.123.006.008.003.009.05.139.051.123.092.099.023.024v.034l-.002.139.087.075.014.012.007.016.053.114.115.072.024.016.01.03.041.134.072.102.106.092.02.017.004.027.03.127.1.071.003.003.003.002.11.097.005.004.004.004.095.108.012.013.005.018.03.095.047-.007.082-.058.204-.181.084-.11.017-.022.027-.007.11-.026-.01-.131v-.027l.012-.022.074-.126.022-.037.042-.001.14-.005.04-.002.025.032.056.072.004.005.002.005.073.127.08.122.016.023-.002.03-.01.121.11.062.022.013.012.024.061.136.008.017v.019l-.003.135.086.083.01.01.006.014.055.117.112.086.01.008.008.012.08.125.009.013.002.016.026.132.084.095.02.021v.03l.01.154.052.117c.054.078.108.156.16.236.066.068.132.138.194.21l.065.053.06-.045.076-.122.009-.014.014-.01.126-.084.012-.008.013-.003.11-.028-.003-.149v-.037l.026-.025.11-.104.01-.011.014-.005.144-.06.086-.078.034-.139.01-.04.038-.015.112-.048.001-.134v-.041l.032-.024.124-.091.085-.081.004-.15v-.05l.044-.02.13-.066.02-.051.04-.1.081.067.076.062.028.024.001.037.006.152.026.127.075.096.128.083.027.019.008.033.001.008.01-.01.014-.007.106-.048.055-.119.017-.035.037-.01.14-.034.091-.075.082-.111.01-.015.016-.008.11-.06.05-.116.065-.14.005-.012.009-.009c.06-.065.118-.13.177-.197l.017-.139.005-.04.033-.02.117-.07.058-.11.006-.01.007-.009.092-.092.041-.12.035-.145.003-.013.008-.012.077-.123c.055-.043.165-.02.133.089l-.06.11-.025.141-.002.01-.041.145-.005.018-.02.023-.085.095a3.6 3.6 0 01-.059.121l-.014.027-.03.02-.077.051-.01.107-.004.039-.03.035a8.406 8.406 0 01-.172.204l-.053.123a4.335 4.335 0 01-.055.14l-.019.049-.048.026-.105.057-.068.093-.01.013-.015.013-.113.094-.026.021-.034.01-.083.02-.036.08-.023.053-.053.025-.104.049-.08.085-.204.221-.061-.298-.02-.101a2.794 2.794 0 01-.072-.06l-.033-.031-.08-.136-.023-.039v-.013l-.011-.157-.001-.016.005-.063-.092.05.002.132.002.034-.031.035-.105.116-.01.01-.07.059.011.139.006.076-.088.048-.076.04-.017.106-.005.036-.044.048-.104.115-.012.012-.04.02-.107.055-.015.017c.005.046.009.093.011.139l.008.17-.175.053-.123.037-.054.039-.057.097-.022.037-.04.03c-.039.03-.079.062-.12.09l-.148.108-.135-.115-.114-.097-.017-.014-.009-.01-.096-.11c-.033-.036-.066-.07-.098-.108l-.022-.026-.003-.007a8.151 8.151 0 00-.154-.25l-.015-.026-.005-.012a2.592 2.592 0 01-.053-.141l-.019-.053v-.023l.002-.116-.04-.053-.04-.053-.004-.037-.015-.136-.04-.075-.09-.082-.036-.032-.009-.023-.047-.127-.08-.09-.043-.05.005-.045.015-.154a4.471 4.471 0 00-.03-.08l-.117-.074-.053-.035.006-.057.017-.145-.064-.1-.072-.127-.025-.035-.053.004-.026.056.016.08.024.098.02.08-.118.058-.086.042a1.817 1.817 0 01-.056.114l-.024.026c-.03.038-.059.08-.092.114-.033.035-.064.074-.099.107l-.017.014a1.832 1.832 0 01-.099.076l-.042.031-.058.01-.129.018-.198.028-.06-.193-.034-.114-.051-.06-.091-.08-.113-.082-.071-.051-.02-.086a1.452 1.452 0 01-.02-.09l-.052-.048-.025-.022-.011-.017-.082-.123-.023-.036-.008-.029-.021-.077-.06-.04-.06-.043-.02-.05-.043-.105-.072-.067-.076-.071.005-.089.006-.107-.04-.048-.027-.034-.008-.021-.051-.145-.042-.14a1.377 1.377 0 01-.058-.1l.013.016-.094-.125-.088-.13-.038-.057.01-.045.026-.12-.066-.07-.024-.028-.002-.012-.04-.153c-.017-.112.123-.126.147-.06l.045.129z" fill="#ABA000"/><path d="M56.369 44.237a2.056 2.056 0 010-2.84 1.896 1.896 0 012.745 0 2.056 2.056 0 010 2.84 1.896 1.896 0 01-2.745 0z" fill="#31332A"/><path d="M56.959 41.566c0 .312.38.564.849.564s.848-.252.848-.564c0-.312-.38-.565-.848-.565-.47-.001-.849.253-.849.565z" fill="#636A78"/><path d="M66.296 40.211l.028.144.239.015.02.165.264.01-.202.298.487-.113.011.171-.024.188.125.105.184.078.056.143-.074.202-.217.258.16.091.303.04.019.156.09.13-.303.262.328.05-.215.223.394.043.059.143-.315.235.353.073-.193.196-.121.174.188.057c.456-.367.749-.94.749-1.584 0-1.108-.87-2.008-1.943-2.008-.155 0-.306.02-.45.055z" fill="#31332A"/><path d="M67.196 40.512c-.076.123.042.34.263.486.221.145.461.163.537.04.075-.122-.042-.34-.263-.485-.222-.145-.462-.163-.537-.04z" fill="#636A78"/><path d="M62.18 44.03c.002.018.006.047.013.083.058.285.29 1.05.846 1.142.573.092 2.623-.817 2.977-1.18.033-.032.052-.063.052-.087 0-.02-.016-.05-.048-.084-.298-.339-1.903-1.256-2.434-1.556a.39.39 0 00-.377-.009c-.741.375-.992 1.302-1.026 1.608a.54.54 0 00-.004.082z" fill="#FC8B2D"/><path d="M62.18 44.03c.002.018.006.047.013.083.32.035.64.047.959.058a29.518 29.518 0 001.945-.032c.307-.016.614-.033.919-.063.033-.033.052-.064.052-.087 0-.022-.016-.05-.048-.085-.31-.025-.617-.037-.925-.045a34.288 34.288 0 00-.973-.012c-.325 0-.648.007-.971.02-.323.016-.646.037-.97.08-.002.038-.003.065-.002.082zm1.682-1.141c-.025.074.052.176.172.228.12.053.238.036.262-.038.025-.074-.052-.176-.172-.229-.12-.051-.238-.035-.262.039z" fill="#D13301"/><path d="M49.404 63.817h1.694l-.114-5.23v-.023a.362.362 0 01.368-.354.364.364 0 01.343.38l-.19 5.203 4.554-.467a.2.2 0 01.216.183.203.203 0 01-.178.223l-3.375.346 3.944.74c.108.02.18.127.159.239a.2.2 0 01-.195.167l-.035-.002-4.302-.808 2.822 1.802c.093.06.121.185.063.281a.194.194 0 01-.272.066l-3.665-2.34-1.838.002a.2.2 0 01-.197-.203c0-.113.088-.205.198-.205zm7.516-.428a.2.2 0 00.196.203l1.838-.001 3.666 2.34a.196.196 0 00.272-.068.21.21 0 00-.064-.282l-2.823-1.801 4.303.807c.011.003.024.003.036.003a.206.206 0 00.035-.406l-3.945-.74 3.375-.346a.202.202 0 00.177-.224.199.199 0 00-.216-.182l-4.554.467.112-3.093-.191-.177-.163-.04-.08.246-.114.14-.037-.033.065 2.979h-1.693a.205.205 0 00-.196.208z" fill="#FC8B2D"/><g clip-path="url(#clip1)" fill="#F42403"><path d="M53.694 23.513a.049.049 0 00-.023.005 3.414 3.414 0 00-.468.125c-.036.014-.075.03-.106.046-.197.09-.36.199-.499.34-.04.037-.073.079-.11.122a2.2 2.2 0 00-.314.548 3.907 3.907 0 00-.169.487c-.32-.366-.621-.627-.955-.77a1.666 1.666 0 00-.781-.128 3.12 3.12 0 00-.38.053c-1.016.223-1.675 1.147-1.474 2.063.04.176.098.345.175.51.045.095.093.184.145.276.01.013.014.024.023.037.019.026.035.057.053.083.083.126.176.248.278.37.07.085.148.167.227.253.49.515 1.14.993 1.863 1.455a46.35 46.35 0 001.919 1.143c.016.01.031.017.051.025.017.01.032.017.044.029.022-.03.042-.062.065-.088l.197-.277c.786-1.098 1.532-2.19 1.973-3.216l.037-.085c.092-.219.167-.44.229-.651.142-.514.181-1.004.08-1.463-.199-.888-1.114-1.441-2.08-1.292zm-14.141 4.334c-.551-.712-1.611-.821-2.421-.263-.008.003-.013.01-.02.016a2.507 2.507 0 00-.365.313.88.88 0 00-.076.089 1.656 1.656 0 00-.349.682c-.04.17-.055.354-.052.553.002.024 0 .05.002.078.005.16.026.331.052.513-.447-.192-.828-.3-1.191-.287a1.594 1.594 0 00-.757.221 2.44 2.44 0 00-.318.212c-.819.641-1.018 1.76-.445 2.505.11.14.234.27.375.386.079.065.161.128.251.189a.084.084 0 01.038.022 3.602 3.602 0 00.489.267c.101.048.205.09.312.132.66.253 1.452.405 2.3.514.71.089 1.464.147 2.218.206l.059.002.051.004c.007-.036.012-.075.02-.107a10.3 10.3 0 01.059-.336c.234-1.332.443-2.646.403-3.762 0-.033-.003-.061-.004-.094a5.238 5.238 0 00-.075-.687c-.093-.533-.267-.998-.556-1.368zm1.474-16.427a5.51 5.51 0 00.023-.786l-.002-.004c-.023-.607-.146-1.154-.413-1.615-.512-.886-1.691-1.174-2.687-.676a.065.065 0 00-.023.014 3.054 3.054 0 00-.459.296c-.034.03-.069.056-.102.086a1.752 1.752 0 00-.42.543 1.344 1.344 0 00-.075.167 2.42 2.42 0 00-.144.614c-.001.03-.007.056-.008.086a5.493 5.493 0 00-.018.586c-.475-.285-.885-.466-1.298-.508a1.886 1.886 0 00-.888.131c-.125.05-.257.114-.392.191-1.024.593-1.42 1.821-.887 2.75a2.935 2.935 0 00.618.744l.039.034c.03.022.056.05.085.071a4.996 4.996 0 00.758.498c.71.388 1.573.683 2.512.94.786.212 1.627.395 2.465.574.023.004.041.01.063.013l.06.014c.012-.042.026-.08.04-.12l.115-.37-.001-.003c.473-1.463.907-2.907 1.032-4.17.001-.03.004-.065.007-.1z"/></g><defs><clipPath id="clip0"><path fill="#fff" transform="matrix(-1 0 0 1 97 5)" d="M0 0h74v74H0z"/></clipPath><clipPath id="clip1"><path fill="#fff" transform="rotate(-21.383 47.489 -62.162)" d="M0 0h23.514v26.28H0z"/></clipPath></defs></svg>