<svg xmlns="http://www.w3.org/2000/svg" width="118" height="84" fill="none"><path d="M111 47c0 7.18-5.82 13-13 13a12.964 12.964 0 01-9.567-4.199A12.944 12.944 0 0185 47c0-7.18 5.82-13 13-13a12.936 12.936 0 018.801 3.433A12.963 12.963 0 01111 47z" fill="#F0CD00"/><path d="M111 47c0 7.018-5.56 12.737-12.516 12.991-6.956-.254-12.516-5.973-12.516-12.991s5.56-12.737 12.516-12.991C105.44 34.263 111 39.982 111 47z" fill="#FFDE50"/><path d="M106.801 37.433L88.433 55.801a13.06 13.06 0 01-1.647-2.22l17.795-17.794a13.08 13.08 0 012.22 1.646zm3.302 4.814L93.247 59.104a12.979 12.979 0 01-3.292-1.891l18.257-18.258a12.984 12.984 0 011.891 3.292z" fill="#FFEA94"/><path d="M108.102 47c0 5.579-4.523 10.102-10.102 10.102a10.05 10.05 0 01-5.298-1.5 10.13 10.13 0 01-4.101-4.894 10.054 10.054 0 01-.701-3.584c-.002-.041-.002-.083-.002-.124 0-5.579 4.523-10.102 10.102-10.102l.125.001a10.066 10.066 0 017.018 2.958A10.06 10.06 0 01108.102 47z" fill="#FAA300"/><path d="M105.143 39.857L90.857 54.143a10.12 10.12 0 01-2.256-3.435 10.054 10.054 0 01-.701-3.584c-.002-.041-.002-.083-.002-.124 0-5.579 4.523-10.102 10.102-10.102l.125.001a10.066 10.066 0 017.018 2.958z" fill="#FFBD00"/><path d="M108.102 47c0 5.579-4.523 10.102-10.102 10.102-.192 0-.381-.005-.57-.016 5.313-.296 9.531-4.699 9.531-10.086 0-5.387-4.218-9.79-9.531-10.086.189-.01.378-.016.57-.016 5.579 0 10.102 4.523 10.102 10.102z" fill="#F68E00"/><path d="M98.52 49.179a4.8 4.8 0 004.796-4.795 4.8 4.8 0 00-4.795-4.796h-5.29c-.586 0-1.061.475-1.061 1.062v6.406h-.723a1.061 1.061 0 100 2.123h.723v1.22h-.723a1.061 1.061 0 100 2.123h.723v1.084a1.061 1.061 0 102.122 0v-1.084h3.712a1.061 1.061 0 100-2.123h-3.712v-1.22h4.229zm-4.228-7.468h4.229a2.676 2.676 0 012.673 2.673c0 1.473-1.2 2.672-2.673 2.672h-4.229v-5.345z" fill="#F68E00"/><path d="M99.847 49.179a4.8 4.8 0 004.795-4.795 4.8 4.8 0 00-4.795-4.796h-5.29c-.586 0-1.061.475-1.061 1.062v6.406h-.723a1.061 1.061 0 100 2.123h.723v1.22h-.723a1.061 1.061 0 000 2.123h.723v1.084a1.061 1.061 0 002.122 0v-1.084h3.712a1.062 1.062 0 100-2.123h-3.712v-1.22h4.229zm-4.229-7.468h4.229a2.676 2.676 0 012.673 2.673 2.676 2.676 0 01-2.673 2.672h-4.229v-5.345z" fill="#FFEA94"/><rect width="84" height="84" rx="42" fill="#fff"/><g clip-path="url(#clip0)"><path d="M47.54 65.595c-.138-2.929 9.022-5.747 20.46-6.295s20.822 1.382 20.96 4.311c.139 2.929-9.021 5.747-20.46 6.295-11.437.548-20.821-1.382-20.96-4.311z" fill="#E3E3E3"/><path d="M39 34.65l.532.23.21.173.089.28.075.314.405-.047.234.128-.143.666.54-.313.132.3.555-.096.128.444-.206.27.042.26-.67.298.852.217-.021.264-.301.288.241.243-.197.285.395.222-.416.314.216.238-.478.337.56.183.3.214-.382.335.506.172-.068.28-.158.303.192.228.057.256.078.25-.382.375-.062.295.094.254.176.227.452.136.264.188.031.267-.446.442.236.196.18.214.321.154-.19.366.221.194.426.096-.46.507.61-.002-.47.533.338.126.376.096-.19.408.608-.047-.397.541.441.042.161.212-.099.379.468.005-.397.599.63-.123-.14.431.161.214.32.09.508-.077-.496.753.345.06.68-.245-.158.494.4-.01.098.263-.075.445.59-.222-.06.436.277.089.073.308.078.314.3.055.07.332.162.225.584-.311-.268.781.607-.368.364-.055.166.212.236.114-.117.646.447-.201.3.008.07.384.1.348.513-.364.07.405.016.52.509-.389-.016.601.503-.413.078.437.24.11.443-.34.169.259.166.274.384-.243.166.285.29-.031-.044.865.25.102.464-.523.031.737.532-.781.244.08.182.301.267.016.184.316.169.4.223.204.439-.68.207.26.221.221.176.46.41-.698.122.769.33-.324.223.272.265.039.317-.345.22.342.304-.392.285-.183.216.431.226.406.28-.165.285-.27.25.218.295-.547.257.068.25.296.254.248.26.233.272-.785.26.144.266.607.265-.042.262-.123.25-.437.282.469.27.073.244-.358.236-.359.278.202.27.068.272.091.22-.387.325.51.296.225.21-.431.242-.165.23-.225.322.332.257-.065.322.28.15-.625.234-.165.335.316.28.042.195-.34.257-.055.33.223.111-.612.356.313.205-.245.145-.431.293.07.384.343.07-.633.429.455.27-.026.181-.28.301.055.182-.262.111-.434.213-.164.447.4.041-.57.239-.102.436.334.317.053.127-.282.015-.037.138-.316.22-.142.483.4.05.217.007.006.213-.047.218-.047.12.198.04.07.12-.02.117-.021.106.065c.14.087.286.17.429.251l.226.086.111.042.062.11.089.16.132.044.078.026.06.063.119.123.07.013.278-.1.254-.094.153.233.169.253.03.048.017.06.057.217.036.013.23.026.063.005.062.031.086.042.22-.094.478-.201.026.525.005.136.133-.091.28-.194.22.27.094.112.135.024.176.03.091.158.122.206.078-.047.369-.227.186.4.084.177.072-.05.218-.15.229.148.223.144.127.084.008.028.311-.193.205.405c.083.16.161.324.241.486l.192.09h.003l.039-.053-.132-.194.1-.196-.002-.002-.202-.157.039-.256.01-.073-.075-.087-.039-.05-.026-.06-.112-.25-.018-.037-.008-.042-.06-.259-.02-.096.02-.1.045-.193-.026-.18-.036-.244.15-.125-.166-.201-.265-.317.234-.22-.345-.282.415-.342.233-.19.047-.116.04-.144.077-.287.288-.034.148-.018.02-.003.016-.003.268-.008.13-.005.106.063.23.141.009.005.09-.086.478-.442.213.612.039.107.041-.034.501-.415.161.577.327-.177.145.491.005.02.115-.104.249-.224.264.196.133.096.143.008.07.003.062.026.244.1.122.088.067.128.11.21.08.018.041.01.034.013.18.079h.007l.205-.251.127-.157.195.013.26.018.113.008.089.065.083.063.078-.026.215-.076.166.154.145.136.117-.115.187-.188.236.113.262.125.021.01.018.014.192.122.091-.125.12-.167.2.01.249.013.243-.01.08-.003.07.029.25.1.042-.103.142-.355.229.107-.013-.084-.01-.055H94.1l-.298.016-.065-.293-.041-.196-.094-.055-.013-.008-.01-.007-.127-.094-.203-.016-.21-.013-.086-.194-.049-.107-.104-.02-.036-.009-.034-.013-.244-.104-.163-.068-.042-.17-.07-.275-.109.021-.278.053-.109-.254-.135.037-.285.075-.125-.269-.122-.264-.013-.031-.007-.032-.047-.177-.106-.074-.154-.104-.002-.186v-.02h-.327l-.026-.267-.112.02-.462.08.055-.469.015-.141-.023-.013-.301-.12-.433-.17.28-.374.07-.097-.075-.036-.05-.126-.114-.287-.075-.186.12-.16.132-.175.02-.209.019-.193.173-.089.27-.139.031-.013.032-.01.106-.031.018-.068.026-.327.021-.233.22-.076.276-.091.023-.008.026-.005.213-.037.137-.107.037-.031.046-.019.076-.03.03-.152.022-.097.064-.073.18-.2.038-.046.055-.029.234-.125.09-.05.104.008.229.018.16-.16-.013-.219-.03-.51.485.144.005.003.023-.324.371.047.216.026-.024-.11-.015-.07-.205-.304-.169-.25-.067-.032-.164.015-.078.008-.075-.026-.11-.039-.113.052-.265.183-.272.191-.208-.261-.148-.183-.01-.005-.185.083-.311.141-.153-.303-.11-.214-.02-.008-.26.026-.176.018-.122-.13-.228-.251-.27-.29.316-.241.296-.222.005-.068.003-.034.008-.032.01-.041-.23-.24-.242-.252.241-.25.073-.076-.029-.123-.072-.32.311-.101.117-.037-.003-.005-.041-.288.27-.099.124-.047v-.003l-.065-.287-.01-.047.003-.05.013-.29.005-.094.049-.078.143-.23.039-.066.065-.042.109-.073.005-.11.005-.128.086-.096.036-.04-.12-.039-.142-.05-.104.063-.192.12-.177-.128-.077-.055-.024.027-.233.248-.236-.238-.135-.136-.013.01-.034.024-.031.013-.197.079-.187.172-.024.024-.023.013-.247.151-.163.105-.158-.097-.161-.1-.05.022-.189.201-.153.165-.197-.094-.112-.055-.093.078-.172.144-.179-.12-.145-.097-.099.052-.163.086-.031-.023-.003-.086.343-.194-.231-.324.036-.094.062-.157-.054-.28.335-.209-.055-.28-.023-.271.16-.246.053-.261-.276-.301.221-.243-.39-.303.162-.249.648-.222-.64-.303.22-.254.254-.256-.176-.272.376-.261-.503-.27-.208-.26.56-.275-.038-.267-.182-.259.332-.285-.368-.245.111-.275.112-.277-.52-.222.03-.267-.33-.298.677-.211-.075-.283-.34-.313.781-.168-.054-.28-.564-.316.571-.224.01-.27-.539-.282-.18-.259.894-.269-.88-.243.7-.29-.451-.24.314-.29-.532-.213.29-.295.335-.314-.194-.243-.56-.172.217-.306.35-.345-.635-.128.568-.413-.106-.254-.711-.076.389-.392-.594-.086.545-.463-.164-.227-.036-.275-.545-.068-.29-.159.391-.455.135-.355-.104-.251-.332-.136-.226-.189.044-.329-.02-.298-.878.196.366-.523-.477-.015-.034-.29-.43-.027-.055-.277.35-.575-.662.16.242-.518-.008-.337-.748.272.501-.774-.838.384.483-.797-.66.251.164-.53-.317-.063-.386.02-.068-.313-.036-.358-.143-.246-.155-.233-.273-.096-.311-.04-.504.23.205-.729-.22-.16-.237-.135-.155-.259-.543.355-.353.079-.02-.481-.374.125-.005-.543-.428.25-.024-.548-.298.002-.366.168-.018-.628-.429.337-.37.225-.055-.593-.423.405.034-.925-.457.549-.159-.385-.37.34-.136-.523-.35.311-.236-.143-.298.156-.136-.705-.326.319-.226-.28-.288.141-.244-.206-.327.606-.208-.667-.298.502-.234-.776-.29.803-.255-.43-.26.437-.28-.79-.228.898-.285-.44-.273-.112-.29-.222-.195.653-.255.047-.35-.567-.163.638-.247.091-.278-.055-.342-.332-.14.544-.447-.661-.153.452-.148.421-.402-.397-.228.16-.21.2-.156.335-.52-.586-.215.191-.08.49-.423-.283-.205.201.08.753-.457-.303-.098.37-.41-.182.106.695-.415-.175-.41-.141-.317.013.021.5-.444-.152-.179.211.172.654-.473-.165.044.463-.579-.256.28.703-.238.125-.511-.143-.405-.021.109.478.096.447-.56-.144.24.554-.443-.026.044.374-.452-.013-.07.282-.435.021-.123.246-.233.172.023.338-.353.104.21.437-.342.115-.28.16.187.402.33.46-.53.04-.33.148.613.554-.807-.044-.104.25-.091.26.241.37.089.31-.097.245-.695.076.524.423-.065.256-.148.238.148.303-.008.267-.417.19.106.34-.41-.028-.054.387-.418-.141-.089.345-.456-.215.181.771h-.316l-.091.361-.353-.057-.402-.154-.21.162-.14.287-.068.426-.371-.123-.172.246-.17.251-.548-.489-.008.58-.146.314-.62-.69-.114.377-.153.305-.07.502-.462-.4-.4-.28-.135.364-.28.005.003.737-.527-.645-.008.742-.257.076-.265.052-.194.259-.265.05-.418-.427-.27.021-.249.09-.257.052-.062.718-.324-.159-.4-.429-.034.845-.381-.374-.244.112-.338-.232-.238.125-.27.01-.135.523-.397-.47-.122.578-.242.133-.402-.5-.213.233-.096.677-.285-.047-.374-.374-.205.26-.316-.155-.289-.05-.07.743-.454-.644-.288-.036-.2.272-.15.436-.275.006-.187.29-.36-.27-.32-.125-.099.565-.324-.144-.096.538-.35-.203-.19.256.018.133-.828.029z" fill="#FCEE21"/><path d="M76.07 39.87l-.034-.007-.026-.02-.2-.168-.223-.066-.016-.005-.007-.005-.384-.19-.327.344-.076.079-.088-.06-.194-.134-.224-.02-.085-.009-.021-.08-.096-.343-.18.112-.038.024-.042-.008-.225-.04-.252.082-.101.034-.034-.1-.125-.384-.184.108-.036.02-.04-.01-.199-.06-.25.201-.07.058-.056-.068-.226-.264-.205-.202-.192.05-.25.36-.07.1-.059-.105-.254-.439c-.018-.034-.008-.078.026-.096a.068.068 0 01.096.023l.2.33.194-.296.018-.023.031-.008.26-.073.047-.014.036.035.244.23.002.002.003.003.174.193.215-.183.037-.031.049.013.208.057.254-.154.106-.065.042.12.14.397.177-.062.025-.008.026.005.21.034.273-.18.13-.084.047.152.121.407.174.01.032.003.028.019.133.086.313-.348.068-.07.09.042.465.222.242.065.026.008.023.018.197.157.203.042.257-.029.088-.01.052.078.181.272.18.107.212.01.265-.041.065-.01.054.039.198.14.22.009.031.002.031.013.174.076.22-.115.071-.036.075.03.255.1.007.003.01.005.123.065.212-.243.055-.065.09.003.263.007h.023l.026.008.255.079.033.01.032.024.192.157.197.002h.062l.054.04.143.11.148-.084.265-.212.187-.152.124.212.094.164.08-.091.164-.188.166.193.083.1.104-.123.184-.217.171.232.099.134.078-.076.109-.107.145.06.236.094.15.023.188-.114.109-.066.119.055.153.07c.138-.075.273-.148.413-.216l.207-.102.122.198.153.246a9.49 9.49 0 00.294-.175l.145-.089.143.105.186.133.159-.026.023-.005.031.002.216.008.197-.063.236-.107.244-.125.153-.079.143.105.138.1.067-.038-.036.095.23.324-.342.193.003.087-.112-.087-.15-.112-.1.047-.264.115-.018.008-.013.005-.26.076-.049.013-.044-.003-.241-.015-.234.034-.111.015-.086-.063-.14-.104c-.122.07-.244.141-.369.209l-.223.123-.124-.215-.161-.269c-.104.053-.205.1-.307.154l-.111.06-.11-.054-.15-.073-.148.086-.078.047-.082-.016-.263-.047-.03-.005-.022-.008-.121-.052-.156.149-.195.188-.153-.217-.088-.125-.086.096-.174.196-.163-.198-.091-.11-.112.123-.202.222-.143-.259-.12-.217-.085.066-.015.01-.013.008-.278.151-.12.066-.1-.081-.198-.157-.197-.005-.07-.003-.05-.044-.215-.183-.195-.066-.15-.008-.254.28-.099.107-.122-.07-.241-.136-.169-.07-.22.109-.076.037-.075-.034-.22-.105-.237-.013-.052-.005-.039-.029-.181-.139-.21.032-.019.002-.015-.002-.27-.021-.04-.003-.03-.018-.24-.149-.03-.02-.018-.027-.148-.23-.187.016-.023.002-.021-.005-.257-.06zm-8.816 8.483l.033-.104.122-.384a.07.07 0 01.086-.047c.039.01.062.05.052.088l-.075.28.386-.02.14-.009-.054.136-.127.327.288-.008.05-.002.036.039.168.18.216.144.005.002.008.008.184.168.22.138.021.013.018.024.151.217.008.01.008.021.096.256.098.165.242.042.103.018.021.112c.031.163.055.325.078.487l.293-.1.164-.055.06.17.08.225.176.102.024.013.023.026.112.126.26-.021.238-.018-.029.248-.02.183.132-.047.135-.05.099.113.179.203.018.021.013.032.122.253.06.09.238-.06.114-.03.094.084.2.175.052.047.02.076.06.225.14.063.039.018.036.036.192.194.032.031.02.047.073.165.153.031.026.006.031.013.156.07.285-.078.301-.081.032.319.033.316.073.06.16.042.281-.031.104-.01.09.064.164.115.218.042.068.013.062.05.127.107.2.01.112.006.085.086.192.196.06.06.02.092.011.047-.483-.4-.22.141-.138.316-.015.037-.06-.005-.07-.063-.15-.13-.198-.045-.065-.013-.046-.037-.13-.096-.218.018-.055.005-.046-.013-.265-.079-.06-.018-.041-.034-.205-.172-.094-.079-.007-.112-.01-.126-.066.016-.093.024-.08-.04-.219-.104-.246-.055-.135-.031-.05-.123-.103-.257-.122-.13-.197-.094-.11-.053-.025-.112-.065-.274-.052-.05-.267.06-.159.034-.083-.13-.153-.239-.01-.018-.006-.013-.111-.254-.06-.07-.309.1-.327.106.05-.334.041-.282-.106.005-.099.002-.06-.07-.155-.186-.198-.125-.062-.04-.018-.062-.041-.13-.312.093-.197.06-.02-.198a36.72 36.72 0 00-.07-.58l-.193-.043-.07-.012-.031-.058-.135-.24-.008-.014-.002-.01-.086-.261-.12-.186-.197-.133-.01-.008-.008-.005-.182-.18-.21-.152-.013-.008-.008-.01-.14-.16-.389-.005-.16-.003.064-.144.153-.34-.353.003-.106-.003z" fill="#ABA000"/><path d="M66.726 28.476a3.547 3.547 0 010-4.991 3.486 3.486 0 014.955 0 3.547 3.547 0 010 4.99 3.486 3.486 0 01-4.955 0z" fill="#31332A"/><path d="M69.322 24.772c-.845 0-1.53-.444-1.53-.993 0-.549.685-.993 1.53-.993.846 0 1.531.444 1.531.993 0 .549-.685.993-1.53.993z" fill="#636A78"/><path d="M84.634 21.4l.049.254.43.026.035.29.477.016-.366.523.877-.197.021.298-.044.33.226.185.332.136.104.251-.135.356-.392.452.288.162.545.07.036.275.164.228-.545.462.591.087-.386.39.71.075.107.25-.568.414.636.128-.35.345-.221.306.337.102a3.53 3.53 0 001.352-2.784c0-1.95-1.57-3.53-3.503-3.53a3.449 3.449 0 00-.807.1z" fill="#31332A"/><path d="M86.259 21.928c-.135.217.078.599.475.852.4.257.833.288.968.071.135-.217-.078-.599-.475-.852-.4-.254-.833-.285-.968-.07z" fill="#636A78"/><path d="M77.206 28.108c.002.034.01.084.026.146.104.502.522 1.848 1.526 2.008 1.033.165 4.73-1.435 5.37-2.073.059-.06.093-.113.093-.152 0-.036-.031-.086-.086-.149-.537-.593-3.433-2.206-4.391-2.731a.728.728 0 00-.68-.019c-1.336.659-1.79 2.288-1.853 2.826a.99.99 0 00-.005.144z" fill="#FC8B2D"/><path d="M77.206 28.108a.93.93 0 00.026.146 22.33 22.33 0 001.728.102 56.41 56.41 0 003.509-.055 31.866 31.866 0 001.658-.112c.06-.06.094-.113.094-.152 0-.036-.031-.086-.086-.149a32.484 32.484 0 00-1.669-.078 64.83 64.83 0 00-1.754-.021c-.584 0-1.168.01-1.752.037-.581.028-1.165.065-1.746.138a.838.838 0 00-.008.144zm3.049-1.914c-.044.131.093.309.311.403.216.091.428.063.473-.068.044-.13-.094-.308-.312-.403-.215-.091-.428-.06-.472.068z" fill="#D13301"/><path d="M54.16 62.877h3.054l-.205-9.191v-.04a.645.645 0 01.664-.621c.353.013.63.313.618.669l-.343 9.141 8.214-.82a.358.358 0 01.07.713l-6.09.609 7.115 1.302a.36.36 0 01.288.418.359.359 0 01-.35.295.527.527 0 01-.065-.005l-7.762-1.42 5.092 3.166a.36.36 0 01-.374.612l-6.612-4.11-3.317.003a.356.356 0 01-.356-.358.362.362 0 01.358-.363zm13.557-.75c0 .198.158.358.355.358l3.317-.003L78 66.592a.353.353 0 00.49-.118.361.361 0 00-.113-.494l-5.092-3.166 7.762 1.42c.02.005.042.005.065.005a.36.36 0 00.062-.714l-7.116-1.299 6.091-.61a.358.358 0 00-.07-.714l-8.214.822.2-5.43-.345-.31-.293-.068-.146.431-.205.246-.067-.06.117 5.236h-3.055a.356.356 0 00-.355.358z" fill="#FC8B2D"/></g><defs><clipPath id="clip0"><path fill="#fff" transform="matrix(-1 0 0 1 118 14)" d="M0 0h79v56H0z"/></clipPath></defs></svg>