<svg xmlns="http://www.w3.org/2000/svg" viewBox="0 0 65 62" fill-rule="evenodd" clip-rule="evenodd" stroke-linejoin="round" stroke-miterlimit="2"><path d="M35.767 17.603a.942.942 0 00-1.332 0L33.4 18.638a.942.942 0 101.332 1.332l1.035-1.035a.943.943 0 000-1.332zm.867 5.211a.939.939 0 00.666-.276l1.035-1.035a.942.942 0 10-1.332-1.331l-1.035 1.035a.94.94 0 00.666 1.607zm2.936-.074l-1.034 1.035a.943.943 0 00.666 1.607.935.935 0 00.666-.276l1.035-1.034a.942.942 0 10-1.332-1.332zm1.535 4.935a.939.939 0 001.332 0l1.035-1.035a.942.942 0 10-1.332-1.332l-1.035 1.035a.942.942 0 000 1.332zM7.884 51.859l-1.738 1.738a.942.942 0 101.332 1.332l1.737-1.738a.94.94 0 10-1.331-1.332zm36.026-7.062l-5.625-3.249a2.05 2.05 0 00-2.044 0l-5.627 3.249a2.048 2.048 0 00-1.021 1.769v6.498c0 .727.39 1.405 1.02 1.769l5.628 3.249a2.044 2.044 0 002.044 0l5.627-3.249a2.048 2.048 0 001.02-1.769v-6.498c0-.727-.39-1.406-1.021-1.769zm-.861 8.267c0 .057-.03.11-.08.138l-5.626 3.249a.163.163 0 01-.16 0l-5.627-3.249a.16.16 0 01-.08-.138v-6.498a.16.16 0 01.08-.138l5.627-3.249a.165.165 0 01.16 0l5.627 3.249a.16.16 0 01.08.138v6.498h-.001z" fill-rule="nonzero" stroke="#000" stroke-width=".22"/><path d="M37.262 46.339a3.48 3.48 0 00-3.476 3.476 3.48 3.48 0 003.476 3.476 3.48 3.48 0 003.477-3.476 3.48 3.48 0 00-3.477-3.476zm0 5.069a1.595 1.595 0 01-1.593-1.593 1.594 1.594 0 111.593 1.593zm15.997-9.192a3.48 3.48 0 003.476 3.477 3.48 3.48 0 003.476-3.477 3.48 3.48 0 00-3.476-3.476 3.48 3.48 0 00-3.476 3.476zm5.069 0c0 .879-.715 1.593-1.593 1.593a1.595 1.595 0 01-1.593-1.593 1.594 1.594 0 013.186 0z" fill="#fdee21" fill-rule="nonzero"/><path d="M63.384 37.198l-5.627-3.249a2.05 2.05 0 00-2.043 0l-5.627 3.249a2.05 2.05 0 00-1.022 1.77v6.497a2.05 2.05 0 001.022 1.77l5.627 3.248a2.041 2.041 0 002.043 0l5.302-3.058a.943.943 0 00-.942-1.631l-5.302 3.058a.161.161 0 01-.16 0l-5.626-3.249a.16.16 0 01-.08-.138v-6.497c0-.057.03-.11.08-.139l5.627-3.248a.158.158 0 01.16 0l5.626 3.248a.16.16 0 01.08.139v6.497c0 .057-.03.11-.08.138l-.338.196a.942.942 0 10.942 1.631l.338-.195a2.048 2.048 0 001.022-1.77v-6.497c0-.728-.391-1.406-1.022-1.77zm-22.766-3.644a16.862 16.862 0 0015.393-4.595c4.77-4.77 6.12-11.724 3.927-17.743a.944.944 0 00-1.551-.343l-7.737 7.736-6.454-1.729-1.73-6.455.928-.927a.942.942 0 10-1.332-1.332L40.75 9.478a.94.94 0 00-.243.91l2.01 7.504a.942.942 0 00.667.666l7.504 2.011a.942.942 0 00.91-.243l7.016-7.016c1.286 5.084-.182 10.566-3.934 14.317A14.983 14.983 0 0141 31.71c-2.74-.569-5.58.366-7.412 2.438L13.585 56.779l-.01.01a6.518 6.518 0 01-2.237 1.69.942.942 0 00.787 1.711A8.4 8.4 0 0015 58.022l19.999-22.626c1.386-1.568 3.538-2.274 5.619-1.842z" fill-rule="nonzero" stroke="#000" stroke-width=".22"/><path d="M8.04 59.058a6.585 6.585 0 01-4.118-1.906c-2.697-2.697-2.563-7.136.364-9.652l.01-.009 22.63-20.003c2.074-1.832 3.008-4.673 2.44-7.413a14.98 14.98 0 014.082-13.679c3.752-3.752 9.233-5.22 14.318-3.934l-5.954 5.922a.942.942 0 101.332 1.332l7.059-7.027a.943.943 0 00-.344-1.551c-6.02-2.193-12.973-.844-17.743 3.926a16.862 16.862 0 00-4.595 15.393c.432 2.081-.274 4.234-1.841 5.62L3.053 46.076c-3.728 3.21-3.945 8.926-.463 12.408a8.474 8.474 0 005.299 2.452.943.943 0 00.152-1.878z" fill-rule="nonzero" stroke="#000" stroke-width=".22"/><path d="M7.842 59.035c.026.005.209.02.576.064.547.065 1.519.09 2.753-.536.277-.141.619-.285.925-.491 2.578-1.74.55 1.289.55 1.289l-.644.871c-1.912.792-3.792.865-5.283.516l-.64-1.042 1.215-.329.548-.342z" stroke="#000" stroke-width=".2" stroke-linecap="round" stroke-miterlimit="1.5"/></svg>