<svg xmlns="http://www.w3.org/2000/svg" width="102" height="84" fill="none"><rect width="84" height="84" rx="42" fill="#fff"/><path d="M26.133 59.34c-.133-2.763 10.664-5.514 24.115-6.146 13.452-.631 24.464 1.097 24.597 3.86.133 2.762-10.663 5.514-24.115 6.145-13.451.632-24.463-1.096-24.597-3.859z" fill="#E3E3E3"/><g clip-path="url(#clip0)"><path d="M27.125 23.596h12.5v36.75l-12.5-3.063V23.596z" fill="#EDBC7C"/><path d="M69.313 23.596H39.625v36.75l29.688-1.531v-35.22z" fill="#D4A263"/><path d="M74 35.846H42.75l-3.125-12.25h29.688L74 35.846z" fill="#F4D0A1"/><path d="M63.063 23.596H32.212c.466-2.26 2.51-3.967 4.958-3.967 1.184 0 2.267.417 3.127 1.091.435-2.31 2.49-4.066 4.968-4.066a5.027 5.027 0 014.816 3.52c2.143-1.05 4.473-.512 5.972 1.052 2.68-1.427 5.848-.2 7.01 2.37z" fill="#fff"/><path d="M60.118 38.608l-3.028 3.55 1.526.028v8.718l2.986-.067v-8.594l1.461.029-2.945-3.664zm-9.366-.343l-3.315 3.706 1.67.032v9.118l3.263-.074v-8.981l1.597.03-3.215-3.831zM61.601 53.7l-12.494.46v-1.52l12.494-.37v1.43z" fill="#A97A45"/><path d="M27.125 23.596h12.5L36.5 35.846 24 35.08l3.125-11.484z" fill="#F8E1C2"/></g><path d="M60.818 67.847c-.134-2.762 8.752-5.42 19.847-5.936 11.095-.517 20.198 1.304 20.332 4.066.134 2.762-8.751 5.42-19.846 5.936-11.096.516-20.199-1.304-20.333-4.066z" fill="#E3E3E3"/><path d="M52.778 38.316l.186-.24.338.192.094-.508.315.136.096-.532.309.119.351.256.181-.276.266-.007.146-.411.192-.257.28.036.44.606.07-.698.28.046.305.146.2-.245.362.352.277.044.094-.637.206-.22.394.47.232-.123.116-.543.387.443.13-.495.264-.009.23-.118.33.219.236-.105.37.352.033-.797.387.405.315.151.058-.676.25-.05.242-.084.262-.02.407.401.257-.046.188-.243.255-.05.248-.072.007-.7.512.608v-.694l.271-.007.132-.343.387.262.45.379.069-.473.147-.289.112-.357.602.65.14-.295.008-.55.53.462.167-.236.166-.232.36.116.067-.403.137-.271.205-.151.39.144.337.055.09-.342h.308l-.179-.726.445.203.085-.326.408.134.051-.366.398.028-.103-.32.407-.18.01-.25-.144-.285.143-.223.063-.243-.508-.399.676-.072.091-.232-.085-.289-.232-.35.085-.243.1-.237.783.042-.592-.521.317-.14.514-.04-.32-.43-.18-.38.27-.15.333-.11-.203-.414.34-.098-.025-.318.228-.164.117-.232.422-.02.07-.264.436.013-.043-.353.434.026-.235-.525.544.136-.094-.423-.107-.45.393.02.497.135.23-.118-.27-.664.56.241-.042-.436.459.154-.168-.615.175-.202.427.142-.018-.47.309-.011.398.133.402.167-.105-.657.4.173.094-.35.443.287-.078-.71.197-.19.411.265.079-.46.208-.18.503.552.15-.315.203-.188.224-.151.39.374.142-.398.15-.427.432.623.138-.51.334.314.266.052.242-.085.156-.602.34.534.248-.044.19-.615.282.208.266.107.275.414.224-.845.27.744.254-.411.248.402.282-.757.221.72.288-.473.202.626.315-.569.237.193.28-.134.22.26.314-.299.132.663.289-.146.23.135.338-.293.13.492.358-.32.156.364.44-.516-.03.871.411-.383.054.56.358-.212.418-.318.015.592.358-.156.289-.002.022.517.416-.235.005.513.362-.119.02.454.345-.073.523-.335.152.245.228.128.213.15-.2.688.49-.217.302.037.264.092.152.221.14.232.035.338.067.295.376-.017.306.059-.16.501.639-.239-.468.753.814-.36-.487.728.727-.256.007.32-.235.486.644-.151-.34.54.053.26.419.025.033.276.463.013-.353.495.85-.186.022.282-.042.309.217.177.324.127.098.236-.13.335-.38.43.282.15.528.068.036.256.156.215-.528.436.575.083-.375.367.689.07.102.24-.55.389.618.12-.34.324-.21.29.543.161.19.23-.327.295-.28.28.517.2-.306.273.438.226-.68.276.853.23-.866.251.174.246.524.267-.01.251-.554.213.548.297.052.263-.759.158.33.295.073.265-.66.2.32.28-.027.251.503.208-.107.26-.107.261.358.232-.323.267.177.246.04.251-.545.259.203.247.488.252-.365.247.17.256-.246.243-.212.239.621.287-.63.208-.157.234.378.284-.212.23.266.283-.05.247-.156.232.022.256.056.265-.326.197.053.263-.093.236.223.307-.33.181.008.26.137.294-.07.245-.404.147.324.36-.134.222.02.276-.233.188-.584.06.577.479-.21.193.067.302-.657.002.409.45-.134.22-.832-.11.172.357-.295.131.002.28-.065.248-.083.24-.214.165.4.525-.123.228-.177.193-.711-.151.2.429-.041.28-.396.033-.499-.05.139.41-.383.023.01.32-.18.177.28.556-.197.168-.478-.074-.063.28-.116.236-.141.22-.658-.28.34.682-.586-.23.34.714-.253.105-.255.105-.662-.357.354.782-.537-.232-.403-.092.016.411-.096.285-.228.118-.42-.133-.07.326-.392-.114.108.584-.23.114-.399-.135-.31-.02.17.731-.488-.3-.125.28-.343-.083-.118.298-.025.47-.264.053-.156.252-.504-.405-.212.136-.134.295-.139.3-.308-.05-.423-.316-.23.097-.043.536-.434-.376-.208.153-.107.41-.18.244-.29-.052-.177.262-.261.027-.416-.43-.07.596-.371-.324-.284-.066-.141.408-.197.232-.346-.296-.11.578-.318-.21-.248.052-.188.32-.273-.04-.324-.3-.228.156-.143.589-.314-.263-.248.062-.313-.316-.221.21-.235.158-.204.405-.288-.21-.316-.482-.214.364-.264-.086-.262-.065-.268-.188-.23.334-.236.34-.261-.068-.275-.442-.24.411-.255.116-.257.04-.257-.57-.253-.135-.264.737-.252-.22-.246-.235-.242-.276-.248-.065-.287.514-.241-.203-.277.251-.273.156-.22-.381-.207-.407-.278.172-.304.364-.212-.322-.311.326-.255-.04-.215-.255-.32.306-.118-.722-.399.657-.17-.432-.212-.21-.201-.243-.427.64-.218-.191-.163-.377-.176-.3-.26-.013-.174-.284-.237-.079-.517.738-.03-.694-.449.492-.241-.096.042-.814-.282.028-.16-.267-.372.23-.161-.26-.163-.244-.43.322-.232-.105-.076-.411-.488.39.013-.57-.491.37-.016-.493-.067-.38-.5.341-.095-.328-.07-.361-.29-.007-.434.19.114-.608-.228-.107-.164-.2-.35.053-.591.348.26-.736-.567.294-.156-.213-.067-.313-.293-.052-.074-.296-.07-.293-.268-.083.056-.412-.57.21.071-.418-.096-.25-.387.012.155-.467-.66.235-.334-.057.48-.71-.495.07-.309-.083-.156-.201.136-.407-.61.114.384-.563-.452-.007.096-.356-.156-.2-.427-.039.385-.51-.591.044.183-.386-.364-.092-.327-.12.454-.501-.59.002.445-.48-.412-.09-.212-.18.183-.347-.31-.144-.175-.204-.228-.186.434-.416-.027-.252-.257-.175-.44-.127-.169-.214-.091-.239.06-.278.369-.352-.074-.237-.056-.243-.188-.212.155-.285.065-.264-.49-.162.367-.316-.289-.203-.543-.173.465-.318-.213-.225.403-.296-.383-.21.193-.267-.235-.23.29-.271.023-.248-.825-.205.65-.283-.044-.245.199-.254-.123-.42-.54.092-.129-.285-.52.298.138-.628-.226-.118-.394.041-.074-.295-.085-.263-.205-.16-.517-.219.796-.022-.018-.125z" fill="#FCEE21"/><path d="M56.224 40.037l.083-.284-.003.026.032-.267c.049-.178.27-.094.277.006l-.007.267v.011l-.002.011-.047.245.074.147.25.132.092.048-.022.098-.051.237.125.148.009.011.006.014.108.2.179.17.01.01.01.011.14.208.03.042-.007.05-.038.27.184.402.165.156.199.14.273.098.103.038-.014.107-.026.212.205.042.114.024-.004.114-.01.227.182.068.092.035-.002.097-.01.269.124.098.273.055.1.02.01.1.022.246.17.085.243.105.011.005.01.006.212.14.018.013.013.018.154.197.146.162.215.083.067.026.015.07.054.237.186.041.038.01.029.025.147.143.244.006.067.002.04.053.146.19.179.097.241.046.056.01.032.049.123.181.208.016h.009l.008.002.255.05.014.003.013.004.233.096.04.016.023.035.11.166.21-.07.046-.015.045.015c.12.044.242.08.363.133.116.046.225.099.337.15l.233.052.058.013.031.05.105.173.195-.144.04-.03.052.001.252.016.076.004.036.066.139.254.163-.053.022-.007h.025l.25.007.251-.017.06-.005.045.042.15.14.177-.136.045-.033.056.007.252.024.038.004.031.024.188.14.182-.078.029-.013.031.002.21.008.208-.135.025-.015.029-.005.248-.044.036-.006.034.01.214.073.195-.077.058-.022.056.029.25.125.215.004c.157-.037.316-.072.474-.103l.228-.1.235-.09.217-.125.014-.009.015-.004.213-.066.179-.162.031-.028.045-.007.257-.033.031-.004.03.009.176.054.065-.26.018-.075.076-.022.241-.072.032-.008.033.006.28.048.17-.046.12-.203.047-.08.092.014.201.029.056-.22.023-.087.091-.013.267-.037.167-.055.059-.247.024-.11.114.005.329.01c.112.005.159.248-.009.272l-.183.007-.034.21-.013.09-.11.043c-.083.033-.165.068-.248.099l-.007.002-.029.006-.118.022-.043.21-.038.198-.23-.022-.139-.014-.063.119-.044.085-.123.04-.25.08-.048.016-.08-.009-.22-.024-.046.245-.065.346-.378-.103-.23-.063-.061.01-.123.121-.05.048-.096.033-.183.063-.197.123-.013.009-.045.02-.228.096-.221.11-.032.015-.058.013a12.93 12.93 0 00-.49.12l-.038.011h-.067l-.262.002-.09.002-.104-.048-.085-.04-.063.027-.145.061-.177-.054-.136-.042-.032.007-.17.118-.118.08-.17-.001-.132-.002-.159.072-.26.118-.243-.177-.08-.06-.077.06-.335.267-.333-.298-.067-.06-.04.005-.016.003h-.191l-.196.065-.414.14-.193-.343-.47.352-.312-.508-.065-.105-.025-.004-.054-.011-.055-.027-.166-.074c-.056-.026-.107-.046-.16-.068-.05-.02-.095-.04-.146-.057l-.134.046-.403.138-.237-.352-.074-.112-.03-.01-.17-.036-.236-.017-.273-.022-.145-.22-.036-.054-.034-.007-.087-.017-.072-.04-.221-.122-.105-.057-.067-.087-.01-.014-.033-.002-.214-.009-.148-.144-.078-.077-.119-.026-.338-.077-.067-.32-.013-.063-.103-.041-.074-.086-.177-.205-.12-.158-.105-.072-.206-.094-.248-.127-.255-.132-.018-.24-.07-.016-.078-.066-.197-.168-.185-.16.013-.21.002-.03-.268-.11.022-.28-.353-.086.065-.365.007-.038-.036-.015-.027-.022-.215-.166-.036-.029-.004-.006-.183-.188-.063-.064-.02-.05-.188-.475-.043-.107.016-.077.043-.208-.05-.086-.145-.157-.045-.048-.011-.024-.098-.221-.128-.175-.08-.112.029-.099.042-.146-.118-.073-.07-.041-.02-.048a4.438 4.438 0 01-.094-.237l-.029-.072.018-.033zm27.178 2.485l.192.162.056.048-.009.072-.031.228.127.149.175.186.007.006.004.007.143.203.01.014.006.015.087.23.09.203.16.165.04.039v.057l-.004.23.153.125.024.02.013.026.092.188.202.12.042.026.016.049.073.223.126.168.185.154.034.028.009.044.053.21.175.118.004.005.005.004.195.16.006.006.007.007.168.18.02.021.009.029.053.157.08-.01.144-.097c.12-.098.24-.199.358-.3l.148-.181.029-.038.047-.01.192-.044-.016-.217-.002-.044.022-.037.13-.208.038-.061.074-.002.246-.01.07-.001.042.052.098.118.007.01.004.008.128.21.14.201.028.04-.005.048-.015.201.19.103.04.022.02.04.107.225.014.028v.031l-.005.223.15.138.018.018.011.022.097.194.194.143.018.013.013.02.141.205.016.022.004.027.045.218.148.158.033.035.002.048.016.256.092.195c.094.13.188.259.28.39.116.114.23.23.34.348l.114.087.105-.074.132-.201.015-.024.025-.016.221-.14.02-.013.023-.004.192-.046-.004-.248v-.06l.044-.043.193-.172.018-.018.024-.009.253-.098.15-.13.06-.23.018-.065.065-.026.197-.079.002-.223v-.068l.056-.04.217-.15.147-.134.007-.248.002-.083.077-.035.225-.107.036-.085.07-.165.143.11.132.103.049.04.002.06.011.252.045.21.132.16.224.138.047.03.013.056.002.013.018-.018.025-.01.185-.08.096-.197.03-.059.065-.015.243-.057.161-.125.143-.184.018-.024.027-.013.195-.098.085-.193.114-.232.009-.02.015-.015c.106-.107.208-.217.311-.326l.03-.23.008-.066.058-.033.204-.118.103-.181.009-.018.013-.013.161-.153.072-.2.06-.238.007-.022.013-.02.135-.203c.096-.073.288-.033.232.146l-.103.182-.044.234-.005.016-.071.24-.01.03-.035.038-.148.158a5.677 5.677 0 01-.103.201l-.024.044-.052.033-.136.085-.018.177-.007.064-.051.06c-.099.113-.2.224-.302.336l-.092.204a7.313 7.313 0 01-.096.232l-.034.08-.085.045-.183.094-.118.153-.018.022-.027.022-.197.155-.045.035-.06.016-.146.034-.062.132-.04.087-.094.042-.182.081-.138.142-.358.366-.108-.495-.033-.166a5.097 5.097 0 01-.127-.1l-.059-.051-.138-.226-.04-.063-.003-.022-.018-.26-.002-.027a1.24 1.24 0 00.009-.105l-.161.083c0 .072.002.147.004.22l.003.056-.054.057-.183.193-.018.015-.121.099.018.23.011.126-.154.08-.135.067-.029.175-.008.06-.077.078-.183.19-.02.02-.072.035-.185.09-.027.028c.009.077.016.154.02.23l.013.283-.306.087-.215.062-.094.063-.1.162-.038.061-.07.048c-.069.05-.138.103-.21.151l-.26.178-.237-.19-.198-.16-.03-.025-.015-.017-.168-.182c-.058-.059-.116-.116-.172-.177l-.038-.044-.007-.01c-.087-.14-.177-.281-.268-.417l-.027-.041-.01-.02a3.892 3.892 0 01-.09-.234l-.034-.088v-.037l.002-.193-.07-.087-.069-.088-.007-.061-.026-.226-.072-.124-.156-.136-.063-.053-.016-.039-.083-.21-.138-.149-.076-.081.009-.077.026-.254a3.35 3.35 0 00-.053-.133l-.204-.123-.094-.057.011-.094.03-.24-.112-.165-.126-.212-.044-.057-.092.007-.047.092c.01.043.018.087.03.13l.042.165.033.134-.206.094-.15.07a2.4 2.4 0 01-.098.188l-.042.044c-.054.063-.103.131-.161.188-.058.06-.112.123-.172.177l-.032.024a3.16 3.16 0 01-.172.125l-.074.053-.1.015-.226.03-.347.047-.105-.32-.06-.188-.09-.099-.159-.133-.197-.136-.125-.085-.036-.143c-.013-.048-.022-.098-.033-.148l-.092-.08-.043-.036-.02-.029-.143-.204-.04-.059-.013-.048-.038-.127-.106-.068-.105-.07-.035-.083-.074-.173-.126-.111-.134-.119.01-.146.01-.178-.069-.078-.05-.057-.013-.035-.089-.241-.074-.23c-.033-.055-.07-.11-.1-.166l.022.026-.163-.208-.155-.215-.067-.094.018-.074.045-.2-.114-.115-.043-.046-.004-.02-.07-.254c-.029-.186.215-.208.258-.099l.078.213z" fill="#ABA000"/><path d="M78.897 32.642a3.276 3.276 0 010-4.703 3.45 3.45 0 014.804 0 3.275 3.275 0 010 4.703 3.45 3.45 0 01-4.804 0z" fill="#31332A"/><path d="M79.93 28.218c0 .517.663.935 1.484.935s1.485-.418 1.485-.935c0-.516-.664-.934-1.485-.934-.82-.003-1.485.418-1.485.934z" fill="#636A78"/><path d="M96.267 25.974l.05.24.418.023.033.274.463.015-.353.495.852-.186.02.282-.043.311.22.175.322.13.098.236-.13.335-.38.427.28.15.53.066.033.259.157.214-.53.436.575.083-.376.368.689.072.103.236-.55.39.617.12-.338.324-.212.29.328.093a3.29 3.29 0 001.311-2.622c0-1.837-1.52-3.327-3.4-3.327-.27 0-.534.032-.787.091z" fill="#31332A"/><path d="M97.841 26.474c-.132.203.074.562.46.803.388.24.808.271.94.068.132-.204-.073-.563-.46-.803-.387-.241-.808-.272-.94-.068z" fill="#636A78"/><path d="M89.063 32.299c.005.03.011.079.025.138.1.473.507 1.74 1.48 1.891 1.002.153 4.59-1.353 5.21-1.953.058-.054.091-.105.091-.144 0-.035-.029-.083-.085-.14-.521-.56-3.33-2.08-4.258-2.577a.717.717 0 00-.66-.015c-1.297.622-1.736 2.156-1.796 2.664-.007.061-.01.107-.007.136z" fill="#FC8B2D"/><path d="M89.063 32.299c.005.03.011.079.025.138.559.059 1.118.079 1.677.096a55.583 55.583 0 003.404-.053 35.926 35.926 0 001.608-.105c.059-.054.092-.105.092-.144 0-.035-.029-.083-.085-.14a30.875 30.875 0 00-1.62-.075 62.717 62.717 0 00-1.701-.02c-.568 0-1.134.012-1.7.034-.564.026-1.13.06-1.695.13-.005.064-.007.11-.005.139zm2.944-1.889c-.042.122.092.29.302.378.21.088.416.06.459-.063.042-.123-.092-.291-.302-.379-.21-.085-.416-.059-.459.064z" fill="#D13301"/><path d="M66.705 65.072h2.964l-.2-8.663v-.037a.618.618 0 01.645-.587c.344.014.61.296.6.63l-.332 8.617 7.97-.773c.19-.017.36.118.377.302a.341.341 0 01-.31.37l-5.907.574 6.902 1.226a.337.337 0 01-.063.672.456.456 0 01-.062-.005l-7.529-1.337 4.939 2.984a.334.334 0 01.111.466.35.35 0 01-.476.11l-6.415-3.875-3.216.002a.341.341 0 01-.344-.337c0-.186.154-.34.346-.34zm13.151-.71c0 .186.155.337.345.337l3.216-.002 6.415 3.875a.352.352 0 00.476-.112.336.336 0 00-.112-.466l-4.94-2.984 7.53 1.338c.02.004.043.004.063.004a.347.347 0 00.34-.278.342.342 0 00-.28-.394l-6.902-1.226 5.907-.573a.339.339 0 00.309-.37.343.343 0 00-.378-.302l-7.97.772.197-5.122-.335-.293-.284-.066-.141.407-.2.232-.064-.055.114 4.935H80.2a.349.349 0 00-.343.343z" fill="#FC8B2D"/><defs><clipPath id="clip0"><path fill="#fff" transform="translate(24 14)" d="M0 0h50v49H0z"/></clipPath></defs></svg>