<svg xmlns="http://www.w3.org/2000/svg" viewBox="0 0 77 72" fill-rule="evenodd" clip-rule="evenodd" stroke-linejoin="round" stroke-miterlimit="2"><path d="M3.64 50.767s5.28 7.979 24.6 8.956c19.33.977 29.01-1.716 29.01-1.716l10.94-4.088 3.93-2.324-.69 6.253-.21 3.929-7.7 2.654-2.71 1.859-3.02.902s-24.18 2.732-30.23 1.776c-6.05-.955-16.67-3.876-16.67-3.876s-4.94-2.867-5.42-3.132c-.48-.265-2.49-2.548-2.71-3.186-.21-.637.88-8.007.88-8.007z" fill="#fdee21"/><path d="M6.65 34.083l-.11 8.07 4.14 4.035s12.8 4.354 23.52 5.203c10.73.85 23.59-1.115 30.49-2.921 6.9-1.805 8.92-5.946 8.92-5.946l1.06-5.628-.58-2.601s-7.97 3.398-9.88 4.406c-1.91 1.009-14.28 3.794-20.65 3.688-6.37-.106-17.41-.797-18.63-.956-1.22-.159-7.06-2.601-7.06-2.601s-3.08-.956-4.36-1.54c-1.27-.584-6.86-3.209-6.86-3.209zm-5-16.514l.34 5.479s3.33 5.992 10.6 7.744c7.28 1.752 14.44 2.602 14.44 2.602l9.98.106h7.6l18.26-3.993 4.67-3.271s1.28-2.039 1.32-2.463c.04-.425-.38-5.522-.38-5.522l.08-1.912-8.24 3.898-8.96 2.431s-15.88 1.789-20.13 1.417c-4.25-.371-20.81-3.132-20.97-3.291-.16-.16-6.48-3.186-6.48-3.186l-2.13-.039z" fill="#fdee21"/><path d="M71.043 23.888c.09-.403.139-.817.139-1.24v-9.706C71.182 4.536 52.844 0 35.59 0 18.337 0 0 4.536 0 12.942c0 .362.036.717.103 1.065A1.605 1.605 0 000 14.56v8.088c0 2.69 1.879 4.982 4.996 6.857a5.515 5.515 0 00-.04 2.298 1.602 1.602 0 00-.103.552v8.089c0 .743.146 1.454.42 2.136-2.986 2.212-3.655 4.427-3.655 5.953 0 .362.036.717.103 1.065a1.601 1.601 0 00-.103.553v8.088c0 8.407 18.337 12.942 35.59 12.942 17.254 0 35.592-4.535 35.592-12.942v-9.706a5.66 5.66 0 00-.422-2.12c2.307-1.697 3.657-3.69 3.657-5.97v-9.706c0-1.781-.893-4.37-4.992-6.849zM12.08 6.47c6.256-2.085 14.606-3.234 23.51-3.234 8.906 0 17.256 1.149 23.512 3.234 5.538 1.846 8.844 4.266 8.844 6.473s-3.306 4.626-8.844 6.473c-6.257 2.085-14.606 3.233-23.511 3.233S18.336 21.5 12.08 19.415c-5.538-1.847-8.844-4.266-8.844-6.473s3.306-4.627 8.844-6.473zm55.866 12.12v4.06c0 1.869-2.38 3.89-6.47 5.587v-6.233c2.607-.965 4.82-2.105 6.47-3.414zm-9.706 4.467v6.339c-1.981.615-4.153 1.14-6.471 1.57v-6.44a64.242 64.242 0 006.47-1.469zm-9.707 1.974v6.461c-2.075.291-4.24.512-6.47.656v-6.474a93.557 93.557 0 006.47-.643zm-9.707.801v6.472a102.174 102.174 0 01-6.47 0v-6.472a99.783 99.783 0 006.47 0zm-9.706-.158v6.475a87.747 87.747 0 01-6.471-.656V25.03c2.108.285 4.279.5 6.47.643zm-9.707-1.147v6.44c-2.319-.43-4.49-.956-6.47-1.571v-6.339a64.25 64.25 0 006.47 1.47zM3.236 22.648V18.59c1.65 1.31 3.863 2.45 6.47 3.414v6.233c-4.091-1.697-6.47-3.718-6.47-5.588zm4.853 13.736c1.65 1.31 3.863 2.45 6.47 3.414v6.233c-4.09-1.697-6.47-3.718-6.47-5.587v-4.06zm3.235 27.443c-4.091-1.697-6.47-3.718-6.47-5.588v-4.06c1.65 1.31 3.863 2.45 6.47 3.415v6.233zm9.707 2.73c-2.319-.431-4.49-.956-6.471-1.571v-6.339a64.332 64.332 0 006.471 1.47v6.44zm9.707 1.181a87.828 87.828 0 01-6.472-.656V60.62c2.11.286 4.28.501 6.472.644v6.474zm9.706.156a102.174 102.174 0 01-6.47 0v-6.472a99.783 99.783 0 006.47 0v6.472zm9.707-.812c-2.076.291-4.24.512-6.471.656v-6.474a93.631 93.631 0 006.47-.643v6.461zm9.706-2.096c-1.98.615-4.152 1.14-6.47 1.57v-6.44a64.273 64.273 0 006.47-1.469v6.339zm9.707-6.747c0 1.87-2.38 3.89-6.47 5.588v-6.233c2.607-.965 4.82-2.105 6.47-3.414v4.06zm-8.844-3.234c-6.257 2.086-14.606 3.234-23.511 3.234s-17.255-1.148-23.511-3.234C8.16 53.16 4.853 50.74 4.853 48.533c0-1.267 1.097-2.425 2.263-3.298 5.419 5.324 19.71 8.151 33.328 8.151 10.891 0 22.211-1.808 29.081-5.255.024.134.04.268.04.402 0 2.207-3.307 4.626-8.845 6.472zM17.795 47.19v-6.338a64.292 64.292 0 006.471 1.47v6.439c-2.318-.43-4.49-.956-6.47-1.57zm9.707 2.097v-6.462c2.109.286 4.279.5 6.471.644v6.474a87.816 87.816 0 01-6.47-.656zm9.707.812v-6.473a99.783 99.783 0 006.47 0V50.1a102.174 102.174 0 01-6.47 0zm9.706-.156v-6.475a93.539 93.539 0 006.471-.643v6.462c-2.075.29-4.24.511-6.47.656zm9.707-1.182v-6.44a64.273 64.273 0 006.47-1.47v6.34a57.091 57.091 0 01-6.47 1.57zM72.8 40.444c0 1.87-2.38 3.89-6.471 5.587V39.8c2.607-.966 4.82-2.105 6.47-3.415v4.06zm-8.845-3.234c-6.256 2.085-14.606 3.234-23.51 3.234-8.906 0-17.256-1.149-23.512-3.234-5.253-1.751-8.492-4.018-8.812-6.13 6.947 2.962 17.392 4.51 27.47 4.51 14.182 0 29.094-3.065 33.955-8.825 2.106 1.308 3.254 2.7 3.254 3.972 0 2.207-3.307 4.627-8.845 6.473z" fill-rule="nonzero"/></svg>