<svg xmlns="http://www.w3.org/2000/svg" width="75" height="85" fill="none"><g clip-path="url(#clip0)"><path d="M11.331 78.582c-.136-4.047 12.64-7.762 28.536-8.299 15.896-.536 28.893 2.31 29.03 6.356.136 4.046-12.64 7.761-28.536 8.298-15.896.537-28.893-2.309-29.03-6.355z" fill="#F3F3F3"/><path d="M0 15.111l.012.078.012.078v.066c-.004.297.004.59.015.882l.059.417.004.05.003.044.008.343.063.179.26.304.495.577-.323.343.347.223-.269.659-.12.285.178.179.429.437-.28.538-.051.101.004.004.269.406-.187.382.011.008.043.05.335.398.382.452-.296.496-.016.03.024.028.296.406.082.113.039.117.136.425.16.401.07.172-.012.172-.031.499-.008.093-.02.07-.023.086.035.032.137.12.066.153.167.39c.145.257.297.51.452.76l.203.316-.125.343-.023.066.436.32-.152.433.69.257-.296.687-.136.316.268.179.433.288-.14.476-.07.242.39.125.283.09.121.249.199.425.02.043.011.031c.105.304.203.612.292.92l.043.153-.02.124-.019.14.105.051.23.117.078.219.156.444.039.106.004.081.008.468.093.336.098.187.346.152.261.113.035.258.078.316.238.202.23.195-.039.273-.016.121.207.04.393.07.024.37.03.514.063.332.203.21.374.25.253.172-.058.277-.059.26.226.051.102.024.062.05.386.305.148.117.007.167.012.445.214.253.02.024.004.004.257.39.023.031.004.016.183.405.265.297c.238.198.48.39.725.577l.086.066-.546-.043-.132.207-.07.113-.324.203.203.725-.81-.289.253.784-.203.324-.838-.32-.097.433.35.885-.377.144-.713-.19-.07.456-.495.035-.386.144.429.944-.998-.46-.378.155-.054.469.12.631-.33.2-.024.483-.627-.075-.476.07.273.75-.495.054.254.718-.565-.004-.051.44.113.148-.978.605.807-.094.374.059.303.277.308.327.464-.339.37-.012.288.905.437-.756.37.269.608-.503.463.448-.062.468.234.285-.608.83 1.188-.331.156.335-.167.554.463.125-.043.48.635-.008-.284.67.428.137-.35.745.81-.176.515.055-.23.67.736-.148.113.386.016.476.39.14.249.27.268.25-.206.717.132.397.289.242.37.152.643-.152.452.043.218.3-.238.847.425.074.37.136.495-.039.023.577.401.078.581-.18-.206.937.74-.43-.203.972.499-.082.526-.148.054.624.71-.48-.106.932.565-.257.34.14.143.526.57-.315-.067.998.682-.589.132.624.343.144.452-.117.569-.444-.078 1.255.46-.171.654-.772.152.71.476-.297.303.25.215.588.56-.682.235.57.397-.086.304.323.308.324.405-.14.315.35.351.16.495-.783.218 1.127.483-.87.401-.324.351.14.366-.027.304.862.402-.553.373-.203.351.413.363.351.37-.8.366.441.382.616.343-.826.4.737.324-.85.398.472.366-.036.304-.721.385.195.39.218.296-.561.398.23.33-.242.55 1.073.37-.051.203-.956.55.87.104-1.318.355-.07.428.238.336-.168.444.257.479.363.413.09.062-1.127.433.167.42.113.53.433.016-1.13.682.842.175-.624.46.175.347-.136.148-.64.502.261.117-.686.218-.421.561.37.557.332.23-.398.16-.522.452.09-.02-.87.359-.094.506.18.48.12.479.098-.21-1.135.413-.008.744.542.292-.238.234-.331v-.698l.666.366.378-.1.043-.605.039-.597.479.05.374-.105.397-.078v-.623l.748.39.519.066-.043-.671.179-.37.124-.433.624.18.269-.258.584.113-.253-.858.167-.363.632.148.37-.148-.004-.546.276-.245.554.039-.289-.815.651.124.078-.44-.125-.624.405-.121.706.148-.351-.811.834.25.311-.223.024-.464.405-.144.043-.445-.168-.604.148-.343.826.167-.342-.717.218-.293.763.098.421-.156-.047-.484-.05-.48.167-.327.928.156.011-.433.289-.257-.316-.624-.07-.464.487-.144-.047-.445.834.031-.752-.815.405-.199.596-.113.207-.308-.57-.674.578-.137-.156-.468.627-.129.199-.315-.09-.433-.323-.515.572-.175.846-.09-1.017-.745 1.09-.023.242-.316.242-.32-.95-.667.903-.129-.931-.631 1.032-.117.016-.379-.027-.386-.129-.405.663-.25.12-.358-.76-.508.094-.358-.25-.406.464-.304-.479-.425.662-.296.472-.332-.156-.386-.565-.405 1.005-.316.078-.379-.015-.378-.889-.386.148-.367-.07-.366-.101-.363-.207-.359.273-.382-.479-.331 1.126-.46.008-.379-.846-.284.822-.476-.303-.335.12-.398-1.079-.199.69-.495.152-.414-.23-.335.004-.386-.67-.226.397-.48-.094-.363-.39-.28-.202-.328.28-.472-.506-.23-.054-.37-.261-.3.26-.488-.26-.3-.219-.312.024-.41-.12-.355-.543-.167.098-.445-.682-.093.023-.414.636-.721-.99.078.093-.46.129-.488-.401-.203.276-.58-.794.027-.437-.172.491-.725-.234-.293-.401-.187.206-.577-.619-.039-.054-.413-.059-.414-.783.098-.152-.343-.608-.13.678-.724-.288-.289-.631-.14.833-.75-.26-.295-.904.011.537-.67-.175-.332-.853.039-.398-.187.896-.948-1.235.32.65-.842-.716.027.183-.57-.795.118.148-.562.191-.616-.405-.156-.803.187.051-.526.187-.66-.86.29.404-.898-.304-.23-.915.406.202-.745-.779.312.343-.94-.358-.16-.234-.304-.713.296-.464.008.16-.823-.086-.522-.296-.23-.499.066-.405-.066-.175-.43-.234-.342-.927.85.078-.89-.592.317-.242-.332-.541.273-.262-.296.028-.936-.694.659-.066-.792-.25-.413-.72.854.07-1.291-.752 1.053.031-1.303-.627.769-.168-.757-.424.144-.46.297-.3-.332-.296-.41-.343-.198-.355-.172-.397.075-.405.167-.452.632L42.846.53l-.378-.039-.378.004-.37-.206-.413.807-.378.343-.359-.565-.366.413-.386-.655-.346.6-.41-.647-.362.21-.33.457-.457-.745-.288.71-.296.53-.48-.679-.233.788-.604-1.142-.175.982-.46-.35-.214.666-.526-.534-.207.616-.386-.008-.257.398-.65-.76-.176.616-.467-.18-.253.375-.44-.078.023.955-.713-.659-.016.815-.806-.764.202 1.174-.608-.34-.011.71-.889-.756.343 1.244-.65-.332-.413.055-.507-.067.218.925-.276.234-.822-.441.245.885-.238.28-.374.13-.65-.16.206.752-1.005-.487.129.655.113.612-.768-.199-.168.351-.116.39.043.515-1.037-.343-.128.382.241.643-.709-.042-.105.386.627.865-.767-.046.14.518-.627.066.611.765-.623.078-.596.113-.378.238.37.589-.643.124-.07.383.662.67-.69.133.379.526-.88.094.825.655-.203.32-.716.18-.51.26.467.503.428.472-.779.219.678.499-.561.28.117.157.195.261-.558.3.036.125-.21-.086-.016-.004-.043-.023-.401-.242-.14-.086-.04-.195-.101-.51-.027-.016-.499.238-.483.226-.18-.542-.105-.32-.136-.023-.499-.004h-.02l-.057-.012-.48-.07-.276-.043-.137-.285-.066-.136-.14.023-.234.043-.222-.167-.386-.289-.062-.047-.066-.093-.059-.086-.167.039-.258.062-.241-.164-.397-.26-.032-.024-.05-.043-.195-.18-.265-.03-.471-.028-.413-.024-.172-.413-.105-.245-.284.113-.53.206-.285-.425-.03.012-.624.324-.363-.632-.163-.28-.113.058-.347.183-.37-.187-.288-.148-.343-.043-.273-.032-.203-.214-.214-.222-.25-.07-.104-.028-.113-.07-.145-.094-.206.036-.152.027-.171-.04-.394-.093-.429-.043-.296-.03-.218-.227-.175-.183-.063-.004-.397.058-.12.016-.125-.016-.468-.066-.152-.024-.14-.077-.207-.117-.011.003-.335.215-.187.12-.23.013-.468.027-.288.015-.246-.171-.136-.094-.062.016-.331.109-.289.094-.093-.036-.012.07.113.215.129.254-.043.273-.07.464-.04.242-.151.183L0 15.11z" fill="#FDEE21"/><path d="M45.309 35.494l.284.187.086.055-.008.117-.023.367.19.187.261.234.008.008.008.007.218.27.016.019.011.023.145.328.144.285.241.202.059.051v.094l.011.358.226.145.035.02.02.038.144.265.292.121.063.028.027.07.12.323.192.223.272.175.051.031.02.063.093.308.253.125.008.004.008.003.288.184.012.008.008.007.249.223.031.027.016.039.09.23.112-.043.195-.199c.16-.195.32-.394.48-.593l.19-.335.04-.066.065-.032.265-.136-.039-.331-.007-.067.027-.066.163-.37.051-.11.105-.03.347-.098.097-.028.067.067.148.152.011.011.008.012.199.285.214.269.043.05v.075l-.004.32.265.093.059.02.03.058.168.316.024.039v.05l.011.352.223.163.027.02.015.031.152.27.285.155.027.016.02.023.218.273.023.031.012.04.081.327.223.199.05.043.008.074.047.393.144.274c.144.167.284.339.425.514.171.137.343.281.506.43l.168.097.144-.152.167-.36.02-.042.035-.035.3-.293.027-.027.031-.016.265-.136-.027-.386-.008-.094.063-.078.253-.335.023-.031.031-.024.347-.238.199-.253.066-.382.02-.11.09-.062.268-.19-.016-.352-.004-.105.078-.082.293-.308.194-.261-.011-.386-.004-.129.105-.082.308-.246.043-.144.085-.28.21.124.196.113.074.043.007.098.035.39.078.316.2.202.326.14.07.032.024.082.004.02.023-.036.035-.023.253-.188.117-.339.035-.101.09-.047.339-.172.214-.25.183-.334.024-.043.039-.032.265-.218.1-.328.141-.401.012-.035.02-.028c.14-.202.272-.409.408-.616l.024-.37.008-.105.078-.075.276-.253.129-.316.011-.031.024-.024.214-.296.082-.335.066-.394.008-.035.016-.035.17-.363c.133-.18.402-.047.34.152l-.129.32-.042.378-.004.024-.078.397-.012.051-.047.07-.195.297c-.042.117-.081.234-.128.35l-.031.079-.07.07-.184.18-.007.28-.004.101-.066.11c-.13.21-.262.42-.394.627l-.11.347c-.034.133-.077.266-.116.394l-.043.14-.117.098-.25.21-.151.282-.023.042-.035.043-.261.308-.059.07-.082.043-.202.106-.078.226-.05.148-.13.098-.249.187-.183.269-.471.694-.195-.737a4.638 4.638 0 01-.063-.25c-.062-.035-.124-.074-.187-.113l-.085-.058-.215-.304-.062-.086-.004-.031-.05-.402-.008-.039c.004-.055.004-.11.004-.168l-.219.184.024.339.008.09-.07.105-.242.362-.023.032-.164.195.047.35.027.196-.21.175-.184.152-.027.285-.008.097-.1.152-.242.36-.024.038-.097.078-.253.203-.036.055a4.5 4.5 0 01.047.354l.043.437-.425.242-.296.168-.124.128-.129.289-.05.11-.094.1c-.094.102-.187.207-.285.309l-.35.366-.35-.218-.297-.184-.043-.027-.023-.023-.25-.226c-.085-.075-.175-.145-.257-.223l-.058-.054-.012-.016a29.384 29.384 0 00-.413-.561l-.043-.055-.011-.027a4.759 4.759 0 01-.148-.336l-.055-.125-.004-.058-.011-.3-.106-.113-.105-.113-.016-.094-.058-.343-.113-.168-.234-.156-.09-.062-.023-.055-.136-.296-.206-.187-.114-.102.004-.12.016-.406c-.027-.066-.059-.129-.086-.191l-.296-.121-.136-.055.008-.152c.007-.129.015-.257.02-.386l-.172-.222-.191-.289-.07-.07-.129.039-.058.16c.015.066.03.133.05.195l.074.242.059.195-.28.218-.203.16c-.04.11-.078.222-.121.328l-.055.081c-.07.117-.136.238-.21.351-.078.113-.148.227-.23.336l-.043.047a4.76 4.76 0 01-.23.253l-.101.105-.14.059c-.105.043-.21.082-.316.124l-.483.192-.175-.465-.102-.272-.132-.121-.234-.152-.288-.149-.183-.093-.063-.21a6.297 6.297 0 01-.062-.22l-.136-.093-.063-.043-.03-.039-.219-.269-.062-.078-.024-.07-.062-.183c-.05-.024-.105-.047-.156-.07l-.152-.074-.054-.117-.117-.246-.187-.133-.199-.14v-.514c-.035-.036-.07-.067-.101-.098l-.074-.07-.02-.051-.144-.347-.12-.336a4.639 4.639 0 01-.157-.226l.035.035-.245-.269-.234-.285-.101-.12.02-.125.046-.328a2.963 2.963 0 01-.167-.144l-.063-.055-.008-.027-.12-.37c-.066-.32.265-.421.354-.242l.105.296z" fill="#ABA000"/><path d="M65.493 24.049l.258.3.097.39.616.14-.265.488.101.378.499.187.027.394-.327.464.611.246-.05.398.417.312-.289.429-.65.468 1.079.148-.175.476.218.273-.604.534.631.401.004.188-.514.226-.565.304.374.382-.032.347.223.3-.035.418-.063.343.02.374.923.347.035.433-.144.37-1.114.25.569.574.378.339-.624.21-.506.394.222.402-.413.273.308.437.038.269.624.612-.031.421-.667.226.055.102.452-.496.545-.483.5-.534.634-.422.546-.51.385-.636.499-.554.37-.643.273-.706.444-.593.316-.67.35-.648.534-.554.37-.643.101-.776.55-.558.125-.756.292-.679.284-.678.23-.702.148-.722.3-.694-.027-.749-.047-.78-.697-.331-.628-.374-.717-.191-.74.202-.725-.175-.728.097-.72.102-.718.12-.724.09-.745-.054-.69.292-.728.074-.643.305-.23.062z" fill="#E3D507"/><path d="M19.812 18.632l.187.094.382.16.471.012.055.003.023.004.48.129.1.027.051.059.28.316.382.128.176.059.004.16.023.608.331.066.05.008.024.016c.257.18.51.362.76.55a.13.13 0 01.05.101c0 .02-.007.039-.015.058a.13.13 0 01-.171.047c-.258-.148-.515-.288-.772-.433l-.487-.035-.152-.011-.027-.18-.086-.573-.323-.074-.059-.012-.066-.058-.277-.262-.362-.058-.53.039-.05.004-.078-.024-.464-.144-.241-.093-.036-.125.558-.3-.191-.266zm-8.86 24.392l-.176-.117.133-.206.545.043.04.03-.016.137-.055.515.312.14.05.024.024.031.284.335.41.195.066.031.023.051.195.476.315.405a.126.126 0 01-.011.168.127.127 0 01-.176-.004l-.37-.397-.011-.012-.012-.023-.207-.406-.413-.152-.03-.012-.036-.035-.296-.288-.46-.16-.156-.051.004-.183.024-.535z" fill="#ABA000"/><path d="M32.137 18.019a4.918 4.918 0 012.559-9.496 4.918 4.918 0 01-2.559 9.496z" fill="#31332A"/><path d="M30.17 11.598c-.382-.663.143-1.68 1.17-2.272 1.029-.591 2.17-.534 2.551.13.381.662-.143 1.679-1.171 2.27-1.028.592-2.17.535-2.55-.128z" fill="#636A78"/><path d="M45.082 1.088l.27.374.3.332.459-.297.425-.144.167.757.627-.769-.03 1.303.751-1.053-.07 1.29.72-.853.242.405.07.792.694-.66-.027.937.26.296.542-.273.242.336.592-.316-.078.889.927-.85.234.343.175.429.406.066.066-.012A4.911 4.911 0 0045.71.655a4.715 4.715 0 00-.628.433z" fill="#31332A"/><path d="M47.22.76c0 .277.418.5.932.5s.931-.223.931-.5c0-.276-.417-.499-.931-.499-.518-.004-.931.223-.931.5z" fill="#636A78"/><path d="M47.654 3.853S44.956 9.03 45.05 9.62c.093.59 1.426 3.288 3.81 3.752 2.385.464 5.607-3.72 5.607-3.72s-5.205.807-5.946.339c-.748-.464-1.024-5.272-.868-6.138z" fill="#FA7100"/><path d="M48.517 9.99c.744.465 5.945-.338 5.945-.338s-3.623-.219-4.987-.687c-.869-3.006-1.827-5.112-1.827-5.112-.152.865.124 5.674.868 6.138zM46.16 7.838c-.124.34-.116.655.02.706.137.05.351-.183.476-.522.124-.34.117-.656-.02-.706-.136-.051-.35.183-.475.522z" fill="#D13301"/><path d="M18.561 75.668h3.994l-.27-11.937v-.05a.837.837 0 111.676.062l-.448 11.875 10.738-1.065a.467.467 0 01.093.928l-7.96.792 9.3 1.688a.465.465 0 01-.081.924c-.028 0-.055-.004-.082-.007l-10.146-1.845 6.655 4.11a.464.464 0 11-.487.792l-8.645-5.339-4.333.004a.47.47 0 01-.468-.468.462.462 0 01.464-.464zm23.073-1.642c0 .258.21.469.467.469l4.337-.004 8.641 5.338a.468.468 0 00.49-.796l-6.653-4.11 10.145 1.845c.031.004.059.008.086.008a.468.468 0 00.086-.928l-9.3-1.689 7.96-.791a.461.461 0 00.416-.507.462.462 0 00-.51-.418L47.06 73.508l.417-11.079-.242-.086-.358.094.02.87-.453-.09-.16.522-.23.398-.167-.101.215 9.523h-3.994a.47.47 0 00-.475.468z" fill="#FA7100"/></g><defs><clipPath id="clip0"><path fill="#fff" transform="matrix(-1 0 0 1 75 0)" d="M0 0h75v85H0z"/></clipPath></defs></svg>