<svg xmlns="http://www.w3.org/2000/svg" viewBox="0 0 60 68" fill-rule="evenodd" clip-rule="evenodd" stroke-linecap="round" stroke-linejoin="round" stroke-miterlimit="1.5"><path d="M34.788 30.565c3.364-2.795 5.459-6.3 5.402-11.009 0 0 7.489-2.41 12.789-6.067 4.73-3.266 6.32-1.378 5.71 1.05-1.53 6.1-9.49 9.695-9.49 9.695s6.48-1.023 6.7 2.575c.29 4.719-9.13 4.521-12.3 4.135 0 0 6.2 1.662 5.6 4.495-.67 3.126-5.2 1.648-7.062.271-2.515-1.86-7.35-5.145-7.35-5.145zm-10.023 0c-3.364-2.795-5.46-6.3-5.402-11.009 0 0-7.49-2.41-12.79-6.067-4.73-3.266-6.32-1.378-5.71 1.05 1.53 6.1 9.49 9.695 9.49 9.695s-6.48-1.023-6.7 2.575c-.29 4.719 9.13 4.521 12.3 4.135 0 0-6.2 1.662-5.6 4.495.67 3.126 5.2 1.648 7.063.271 2.515-1.86 7.349-5.145 7.349-5.145z" fill="none" stroke="#000" stroke-width="1.5"/><path fill="none" stroke="#000" stroke-width=".33" d="M1074.71 299.946h7.254v.761h-7.254z" transform="matrix(3.62709 0 0 4.84102 -3881.436 -1449.406)"/><path d="M16.622 2.296c0-.884-.71-1.6-1.592-1.6h-1.107c-.882 0-1.592.716-1.592 1.6v4.37c0 .875.71 1.59 1.592 1.59h1.107c.882 0 1.592-.715 1.592-1.59v-4.37zm30.605 0c0-.884-.71-1.6-1.592-1.6h-1.107c-.882 0-1.592.716-1.592 1.6v4.37c0 .875.71 1.59 1.592 1.59h1.107c.882 0 1.592-.715 1.592-1.59v-4.37z" fill="#fdee21"/><g stroke="#000"><path fill="none" stroke-width=".35" d="M1077.97 301.006h1.305v6.207h-1.305z" transform="matrix(2.94655 0 0 6.75657 -3148.439 -2027.067)"/><path d="M1076.37 324.389c-.01-.079-.02-.16-.02-.241 0-1.231 1.02-2.231 2.28-2.231 1.26 0 2.28 1 2.28 2.231 0 .081 0 .162-.01.241h-4.53z" fill="#ebebeb" stroke-width=".69" transform="matrix(2.05249 0 0 1.99437 -2184.109 -593.38)"/><path d="M1076.33 323.91c.73-1.822 3.51-1.915 4.55-.076l-.64 2.48-1.6.072-1.68-.104-.63-2.372z" stroke-width=".69" transform="matrix(2.05249 0 0 1.99437 -2184.069 -592.082)"/><path d="M1079.78 324.606c0-.592-.5-1.072-1.11-1.072h-.06c-.61 0-1.11.48-1.11 1.072v5.238c0 .593.5 1.073 1.11 1.073h.06c.61 0 1.11-.48 1.11-1.073v-5.238z" fill="#fdee21" stroke-width=".67" transform="matrix(2.05249 0 0 2.12102 -2184.129 -634.593)"/></g><path d="M17.32 2.302A2.289 2.289 0 0015.03.007h-1.107a2.294 2.294 0 00-2.296 2.295v4.37a2.3 2.3 0 002.296 2.296h1.107a2.295 2.295 0 002.29-2.295V2.302zm-1.396 0v4.37a.9.9 0 01-.894.895h-1.107a.9.9 0 01-.893-.894V2.302c0-.497.402-.894.893-.894h1.107c.491 0 .894.397.894.894zm32 0a2.289 2.289 0 00-2.29-2.295h-1.107a2.294 2.294 0 00-2.296 2.295v4.37a2.3 2.3 0 002.296 2.296h1.107a2.295 2.295 0 002.29-2.295V2.302zm-1.396 0v4.37a.9.9 0 01-.894.895h-1.107a.9.9 0 01-.893-.894V2.302c0-.497.402-.894.893-.894h1.107c.491 0 .894.397.894.894z"/></svg>