<svg xmlns="http://www.w3.org/2000/svg" viewBox="0 0 799 802" fill-rule="evenodd" clip-rule="evenodd" stroke-linejoin="round" stroke-miterlimit="2"><path d="M58.067 470.086l-3.958-30.172-51.685 6.78-2.435-18.57 66.63-8.73 6.404 48.825-14.956 1.867zm17.339 11.601l6.258 17.638-37.184 13.199 46.46 12.938 5.972 16.838-63.331 22.47-6.26-17.638 37.093-13.172-46.338-12.886-6.004-16.918 63.334-22.47zm25.887 164.896l-23.773 15.91-9.666-14.435 11.248-7.528-23.926-35.743-11.248 7.527-9.719-14.513 23.774-15.911 1.333 1.992c2.262 3.264 6.08 4.07 11.454 2.432 5.375-1.638 12.37-5.11 20.986-10.414l17.66-10.893 30.12 44.991-43.316 29.004 5.073 7.581zm-1.651-55.963c-6.101 3.763-11.473 6.67-16.12 8.703-4.647 2.034-8.603 3.032-11.869 2.978l14.151 21.137 30.795-20.604-10.736-16.042-6.221 3.828zm76.568 56.261c4.498 4.079 7.729 8.378 9.69 12.881 1.96 4.503 2.582 8.969 1.864 13.364-.718 4.411-2.776 8.484-6.175 12.237-3.401 3.735-7.25 6.156-11.544 7.279-4.297 1.106-8.781.9-13.454-.62-4.67-1.52-9.256-4.318-13.757-8.413l-8.669-7.879-11.813 13.006-14.068-12.783 45.187-49.733 22.738 20.661zm-24.158 24.873c2.89 2.621 5.639 3.973 8.248 4.057 2.61.084 4.97-1.038 7.078-3.364 2.108-2.326 3.01-4.79 2.701-7.407-.306-2.618-1.904-5.228-4.792-7.85l-7.818-7.114-13.233 14.58 7.816 7.098zm52.531 79.334c-6.205-3.47-11.046-7.89-14.526-13.278-3.48-5.387-5.338-11.189-5.572-17.405-.232-6.216 1.273-12.225 4.517-18.029 3.243-5.82 7.571-10.252 12.983-13.314 5.407-3.078 11.321-4.53 17.73-4.408 6.414.14 12.722 1.944 18.925 5.398 6.205 3.47 11.046 7.89 14.525 13.278 3.481 5.387 5.338 11.189 5.572 17.404.23 6.2-1.273 12.226-4.516 18.03-3.243 5.82-7.571 10.252-12.983 13.314-5.41 3.061-11.322 4.53-17.733 4.391-6.411-.123-12.72-1.927-18.922-5.381zm7.672-13.754c2.963 1.66 6.035 2.455 9.217 2.403 3.182-.07 6.183-.969 9-2.73 2.814-1.778 5.142-4.298 6.983-7.593 1.841-3.296 2.77-6.614 2.792-9.94.022-3.325-.778-6.35-2.401-9.09-1.625-2.742-3.917-4.934-6.878-6.578-2.963-1.66-6.035-2.456-9.218-2.403-3.184.053-6.181.968-9 2.73-2.815 1.76-5.142 4.297-6.982 7.593-1.84 3.295-2.773 6.598-2.795 9.923-.022 3.325.778 6.35 2.402 9.09 1.625 2.742 3.917 4.934 6.88 6.595zm70.685-23.564l18.082 4.833-10.2 38.12 37.002-30.942 17.248 4.617-17.372 64.919-18.084-4.849 10.175-38.016-36.882 30.876-17.343-4.655 17.374-64.902zm120.965 52.171c3.66 1.542 6.494 3.752 8.506 6.647 2.01 2.894 2.95 6.153 2.819 9.791-.148 4.159-1.682 7.734-4.608 10.694-2.923 2.977-6.813 5.186-11.668 6.644-4.855 1.458-10.161 2.086-15.918 1.883-4.539-.15-9.14-.86-13.803-2.113a59.868 59.868 0 01-13.305-5.379l6.133-13.033a42.947 42.947 0 009.515 3.836c3.395.924 6.69 1.441 9.887 1.554 4.223.155 7.7-.418 10.437-1.685 2.734-1.284 4.146-3.175 4.235-5.674.071-1.979-.708-3.47-2.336-4.491-1.63-1.02-3.852-1.586-6.665-1.678l-17.173-.618.495-13.918 15.64.571c2.558.09 4.558-.353 6.002-1.33 1.442-.977 2.196-2.32 2.258-4.048.076-2.18-.95-3.891-3.084-5.151-2.131-1.26-4.925-1.956-8.377-2.071-2.816-.109-5.804.187-8.966.872a41.216 41.216 0 00-9.045 3.086l-5.05-14.58c7.285-3.206 15.213-4.653 23.786-4.342 5.5.2 10.571 1.153 15.217 2.893 4.646 1.74 8.305 4.116 10.985 7.163 2.677 3.048 3.945 6.583 3.8 10.608-.112 3.136-1.027 5.901-2.747 8.297-1.718 2.413-4.042 4.265-6.97 5.572zm73.055 28.389c-6.974 1.365-13.528 1.11-19.663-.766-6.136-1.876-11.298-5.106-15.485-9.69-4.19-4.599-6.92-10.16-8.196-16.7-1.272-6.524-.832-12.705 1.323-18.543 2.154-5.838 5.727-10.763 10.708-14.808 4.985-4.028 10.964-6.725 17.935-8.09 6.972-1.364 13.526-1.108 19.662.768 6.135 1.859 11.295 5.089 15.485 9.689 4.19 4.6 6.921 10.161 8.195 16.685 1.274 6.54.832 12.72-1.322 18.559-2.157 5.822-5.726 10.763-10.707 14.807-4.986 4.029-10.964 6.725-17.936 8.09zm-3.016-15.46c3.332-.639 6.192-2.022 8.588-4.116 2.395-2.094 4.1-4.722 5.112-7.884 1.012-3.178 1.158-6.601.435-10.32-.722-3.702-2.148-6.835-4.276-9.381-2.127-2.547-4.696-4.355-7.702-5.392-3.007-1.037-6.176-1.237-9.506-.598-3.33.655-6.192 2.02-8.585 4.131-2.395 2.094-4.1 4.722-5.113 7.884-1.013 3.162-1.158 6.602-.436 10.304s2.148 6.835 4.277 9.398c2.128 2.546 4.694 4.338 7.702 5.392 3.008 1.037 6.176 1.236 9.504.581zm94.736-89.528l27.803 61.184-17.042 7.747-21.569-47.467-17.566 7.995 4.177 10.11c3.68 8.87 6.199 16.31 7.551 22.307 1.353 5.996 1.341 11.106-.033 15.347-1.373 4.257-4.567 7.517-9.577 9.795-2.332 1.052-5.113 1.89-8.343 2.516l-5.475-14.594a11.656 11.656 0 002.48-.803c2.272-1.043 3.61-2.742 4.013-5.095.402-2.37.132-5.275-.814-8.75-.945-3.475-2.509-7.842-4.69-13.104l-10.21-24.788 49.294-22.4zm59.2-44.74l41.336 52.978-14.758 11.527-10.394-13.33-8.173 6.386 1.687 20.097-15.741 12.297-1.36-23.91c-4.752 1.195-9.214 1.036-13.383-.444-4.17-1.497-7.85-4.289-11.038-8.376-3.23-4.149-5.066-8.467-5.512-13.004-.444-4.521.496-8.976 2.819-13.399 2.323-4.406 5.88-8.478 10.675-12.216l23.842-18.606zm-14.328 30.173c-5.903 4.607-6.748 9.618-2.536 15.017 2.087 2.668 4.416 4.121 6.987 4.343 2.57.222 5.269-.757 8.094-2.97l8.933-6.962-12.697-16.272-8.78 6.844zm112.561-67.117l22.759 17.653-10.65 13.733-10.848-8.416-33.77 43.554-53.102-41.198 11.474-14.784 41.19 31.943 15.827-20.404-41.19-31.944 11.471-14.8 41.19 31.944 5.649-7.281zm-35.242-42.801l7.62-17.104 36.04 16.074-24.743-41.404 7.268-16.31 61.38 27.354-7.62 17.104-35.952-16.035 24.695 41.277-7.31 16.398-61.378-27.354zm41.564-131.769l66.013 12.583-3.502 18.39-16.599-3.16-1.94 10.187 14.53 13.996-3.736 19.62-16.781-17.078c-2.788 4.029-6.24 6.869-10.362 8.488-4.123 1.62-8.73 1.946-13.82.978-5.156-.977-9.393-3.033-12.71-6.136-3.316-3.103-5.556-7.089-6.716-11.923-1.162-4.85-1.173-10.259-.036-16.24l5.659-29.705zm9.124 32.133c-1.4 7.366 1.262 11.684 7.988 12.953 3.334.647 6.04.202 8.124-1.32 2.08-1.539 3.457-4.06 4.128-7.58l2.12-11.127-20.276-3.865-2.084 10.939zM96.828 137.043l25.661 53.054c2.773 5.644 4.075 11.04 3.904 16.174-.171 5.133-1.743 9.746-4.715 13.837-2.18 3.01-5.184 5.738-9.014 8.169l-8.688-11.877c2.164-1.675 3.79-3.26 4.881-4.773 1.091-1.497 1.723-3.079 1.896-4.73.174-1.65-.109-3.504-.843-5.528l-54.493-7.315 11.79-16.24 35.45 6.413L85.94 152.04l10.888-14.996zm86.932 12.042c-5.28 4.648-11 7.725-17.168 9.2-6.168 1.474-12.207 1.285-18.124-.582-5.914-1.868-11.095-5.312-15.544-10.348-4.448-5.037-7.232-10.613-8.35-16.712-1.117-6.1-.56-12.106 1.667-18.053 2.227-5.93 5.98-11.236 11.255-15.9 4.607-4.061 9.476-6.917 14.612-8.534 5.134-1.633 10.28-2.002 15.438-1.088l-1.825 16.203c-6.734-1.05-12.43.475-17.082 4.591-2.735 2.418-4.64 5.165-5.717 8.243-1.074 3.094-1.235 6.244-.484 9.465.753 3.221 2.38 6.251 4.878 9.074 2.498 2.823 5.301 4.815 8.403 5.959 3.103 1.143 6.252 1.382 9.447.7 3.192-.698 6.158-2.24 8.89-4.656 4.653-4.117 6.875-9.58 6.663-16.39l16.311.204c.265 5.222-.73 10.29-2.983 15.174-2.253 4.9-5.684 9.372-10.287 13.45zm-.689-86.426l16.51-8.815 18.602 34.791 5.863-47.882 15.748-8.42 31.684 59.277-16.51 8.815-18.557-34.713-5.826 47.745-15.832 8.461-31.682-59.26zM331.978 4.738l16.9 65.045-18.12 4.7-13.106-50.443-18.678 4.84 2.382 10.7c2.103 9.363 3.308 17.12 3.614 23.253.304 6.134-.583 11.192-2.667 15.124-2.082 3.95-5.787 6.617-11.114 8.004-2.478.641-5.362.991-8.652 1.05l-2.888-15.313a11.517 11.517 0 002.58-.369c2.416-.634 4.025-2.068 4.826-4.334.804-2.25 1.037-5.173.7-8.754-.335-3.581-1.128-8.164-2.373-13.717l-5.807-26.174 52.403-13.612zm88.623 47.757l.277 14.685-53.943 1.009-1.266-67.187 52.695-.996.277 14.685-33.883.64.214 11.325 29.851-.554.267 14.202-29.851.554.231 12.29 35.131-.653zm91.656-37.322l-13.64 65.804-18.61-3.847 5.318-25.664-25.38-5.26-5.32 25.664-18.612-3.864 13.64-65.804 18.614 3.864-5.126 24.71 25.38 5.26 5.125-24.71 18.611 3.847zm89.645 38.67l-29.192 60.523-17.12-8.252 11.383-23.612-23.345-11.253-11.384 23.612-17.123-8.268 29.194-60.522 17.12 8.251-10.967 22.752 23.346 11.253 10.969-22.735 17.12 8.251zm29.592 89.554l-21.86-18.14-12.403 6.672-14.919-12.396 65.75-32.747 14.402 11.95-20.032 70.718-15.216-12.632 4.278-13.425zm4.67-14.333l7.092-22.066-20.385 11.018 13.294 11.048zm98.829 50.996l-53.167 41.103-11.448-14.806 13.367-10.338-6.342-8.205-20.12 1.591-12.211-15.793 23.908-1.253c-1.172-4.76-.998-9.21.514-13.384 1.515-4.156 4.322-7.83 8.424-10.99 4.152-3.214 8.49-5.031 13.017-5.452 4.524-.437 8.987.532 13.386 2.874 4.4 2.342 8.459 5.92 12.178 10.731l18.494 23.922zm-30.11-14.466c-4.578-5.922-9.577-6.786-14.996-2.607-2.683 2.079-4.143 4.397-4.38 6.971-.238 2.574.737 5.272 2.93 8.11l6.929 8.961 16.328-12.628-6.81-8.807z" fill-rule="nonzero"/><path d="M428.664 263.563a1093.87 1093.87 0 01-25.503-30.13 5.066 5.066 0 00-.848-.848 5.015 5.015 0 00-7.052.762l-.012.015c-7.065 8.619-15.79 18.898-25.539 30.201-42.846 49.7-102.118 118.332-102.118 174.954 0 72.698 58.933 131.631 131.63 131.631 72.699 0 131.631-58.933 131.631-131.63 0-56.517-59.272-125.256-102.189-174.955zm56.517 260.895c-47.478 47.483-124.459 47.487-171.942.01a121.582 121.582 0 01-35.615-85.95c0-52.985 57.823-119.922 99.716-168.385 7.983-9.254 15.4-17.661 21.865-25.715 6.464 8.054 13.882 16.46 21.865 25.715 41.716 48.463 99.716 115.435 99.716 168.384a121.194 121.194 0 01-35.605 85.941z" fill-rule="nonzero" stroke="#000" stroke-width="5.89"/><path d="M399.77 516.934v.036c-42.118.019-76.278-34.11-76.297-76.227v-.07a5.034 5.034 0 00-10.067 0c-.04 47.638 38.548 86.29 86.187 86.328h.177a5.034 5.034 0 000-10.067z" fill-rule="nonzero" stroke="#000" stroke-width="3.886"/></svg>