<svg xmlns="http://www.w3.org/2000/svg" width="199" height="258" fill="none"><g clip-path="url(#clip0)" fill-rule="evenodd" clip-rule="evenodd"><path d="M129.625 177.84l.183.045-.031.238.315-.07-.003.212.329-.075.005.203-.064.26.203.036.066.149.272-.018.194.048.046.166-.245.396.42-.131.039.17-.011.209.189.053-.118.29.04.168.391-.103.176.064-.178.336.126.101.342-.065-.164.326.316-.047.068.147.124.102-.049.238.117.108-.116.295.468-.174-.141.317-.013.215.405-.132.088.13.106.116.073.143-.135.327.088.134.186.047.09.133.1.123.406-.166-.23.437.401-.169.068.152.229-.01-.059.284-.112.345.29-.075.202.013.232-.023-.233.497.205.008.318-.129-.14.411.176.038.173.038.02.232.247-.06.189.011.137.079.009.255.049.204.218-.032.073.174.377-.276-.011.3.208-.031.02.262.223-.059.079.231.16-.135.201.186.146-.056.131-.15.163.027.155-.023.11-.384.201.364.156-.004.148-.118.146-.217.16-.011h.161l.162.452.16-.462.156.146.145.282.174-.286.176-.195.151.116.143.162.19-.215.137.169.179-.091.148.088.162.01.111.234.17-.025.097.25.193-.11.087.251.247-.259.051.339.222-.155.236-.17.082.228.039.312.123.102.319-.314-.007.376.243-.13.02.296.316-.244.157.05.02.277.267-.125.08.172.017.258v.267l.354-.218-.005.267.225-.032-.06.321.39-.216.157.065-.054.296.283-.067.154.074-.2.419.218.008.158.069.14.089-.125.312.265-.016.281-.019-.257.396.327-.047-.102.265.034.164.106.115.385-.057-.227.322.084.13.401-.043-.054.21.001.176-.173.257.54-.079-.365.334.298.043-.174.237.505-.024-.363.3.342.048-.315.266.405.04-.056.18.144.126-.099.187.249.107-.353.234.155.128-.024.163.249.12-.254.193.27.125-.172.176.403.124-.511.194.319.139-.311.167.207.151.283.159-.337.153.175.163.069.163-.293.138.234.178-.295.128.154.176-.256.122.124.175.317.216-.105.145-.019.16-.037.157-.445.054.242.225.049.179.011.171-.091.14-.101.135-.187.102-.155.11.1.207.038.188-.327.031.289.304-.545-.082.402.372-.538-.098.321.349-.183.081-.337-.014.241.326-.393-.06-.139.093.086.243-.15.085.101.266-.369-.08.309.436-.157.08-.189.051-.05.166.002.214-.112.114-.225.007-.338-.11-.02.195.087.315-.14.082-.087.142-.377-.194.089.345-.302-.123.123.407-.113.116-.355-.217.077.378-.269-.112-.217-.05.036.347-.087.163-.249-.112-.228-.091.008.341-.231-.107-.026.302-.32-.317.069.537-.351-.427-.1.157-.03.361-.148.056-.254-.262-.042.382-.14.093-.27-.39-.093.258-.136.105-.271-.324-.086.249-.152.045v.336l-.177.002-.175.002-.049.259-.231-.117-.1.159-.135.083-.279-.244-.094.174-.031.337-.229-.146-.107.158-.199-.08-.188-.062-.019.421-.269-.306-.173-.031-.075.282-.182-.065-.1.22-.155.031-.171-.031-.143.075-.14.095-.19-.136-.141.094-.158.004-.124.201-.183-.143-.148.068-.138.148-.157.021-.181-.193-.131.27-.161-.022-.154.079-.164-.086-.173-.316-.14.443-.161-.071-.158.11-.157-.37-.163.34-.16-.022-.135-.498-.165.184-.145-.134-.161.069-.159.023-.158.012-.146-.082-.209.354-.16-.014-.154-.053-.08-.439-.202.217-.171.044-.113-.215-.09-.294-.204.178-.104-.211-.183.083-.145-.058-.254.292-.145-.07-.069-.288-.178.033-.164-.009-.159-.026.005-.44-.314.358-.006-.387-.331.365-.122-.118-.12-.118.048-.461-.367.39.007-.36-.043-.25-.234.108-.187.015-.123-.1-.022-.27-.205.04-.027-.249-.313.203-.12-.104-.016-.256-.063-.181-.382.273.057-.348-.19-.003-.035-.213-.199.004-.278.101-.093-.137-.182-.028.114-.381-.129-.088-.203-.004-.206-.005-.044-.187.082-.316-.111-.107-.32.108.115-.338-.138-.08-.262.038-.184-.04-.039-.179-.194-.035-.077-.143.149-.339-.36.106.099-.288-.03-.176-.268.018-.181-.055.088-.267-.359.078.045-.231-.089-.128-.229-.028-.042-.164.095-.256-.143-.09-.375.06.078-.24-.094-.126.107-.252-.175-.075-.145-.095-.284-.016.054-.215.203-.294-.261-.033-.013-.171-.025-.163.046-.198-.249-.048-.252-.051-.022-.165.189-.262-.294-.036-.127-.116-.085-.135.269-.285.018-.174-.489.029.067-.196.077-.197.102-.203-.021-.156-.365-.037.061-.186-.212-.095-.154-.117.168-.217.185-.217-.165-.113-.283-.085.136-.198-.262-.096-.039-.153.097-.185-.253-.106.39-.243-.475-.065.21-.201.069-.171.094-.174-.471-.084.059-.17.178-.183.131-.173-.053-.15.123-.168-.012-.153-.549-.113.394-.185-.391-.135-.001-.159.48-.174-.084-.152.116-.156-.22-.154.111-.154.102-.152-.287-.165.005-.157.219-.143-.34-.181.331-.129-.33-.189.28-.128.205-.131-.317-.199.167-.134.193-.126-.065-.168-.213-.198.378-.083.008-.155.077-.14-.115-.186-.34-.25.486-.032-.304-.248.085-.14.165-.114-.039-.178.153-.114.152-.111-.016-.172.252-.067-.257-.273.259-.06.121-.115-.098-.216.305-.026-.291-.316-.047-.203.523.099-.157-.262-.026-.195.08-.137.268-.022-.212-.318.417.081-.104-.257.23-.032.077-.136-.079-.251.386.093-.165-.323.266.01-.034-.229-.008-.213.397.135-.141-.334.382.136-.046-.255.055-.164.243.02.01-.212.076-.147.054-.174.343.144.138-.077.041-.188-.031-.279.084-.148.116-.109.175-.034.291.124.119-.1.126-.09.079-.157.201.017.168-.026-.023-.317.269.131.049-.212-.029-.35.294.186.079-.174.267.155.03-.267.201.043.077-.188.225.099.149-.048-.078-.516.317.299.133-.084.193.05.213-.171-.181-.282.133-.142-.295-.224.395-.073.016-.157-.119-.213.154-.112.131-.112.045-.156.002-.344.203.444.068-.04z" fill="#FCEE21"/><path d="M129.449 180.206l.183-.023-.015.005.161-.047c.115-.015.119.13.062.158l-.156.061-.006.003-.007.001-.153.033-.067.077-.017.174-.006.063-.062.012-.15.028-.056.108-.004.008-.006.007-.091.109-.055.142-.003.008-.091.138-.018.027-.031.008-.165.045-.189.202-.05.131-.034.146.009.179.003.067-.065.018-.129.036.025.127.014.071-.068.025-.134.049.007.18-.057.022-.157.061-.028.092.046.23-.056.029-.136.073-.007.116-.003.163v.008l-.002.007-.03.154-.002.013-.007.012-.077.135-.059.122.003.142.002.045-.037.026-.124.088.021.116.004.024-.009.022-.047.117.069.178-.021.035-.075.129-.014.124.038.182-.095.143.041.121.001.005.001.005.034.166v.189l-.015.022-.07.102.092.102.019.022.002.03c.004.078.01.157.008.237.002.077-.003.152-.006.227l.026.144.006.036-.021.029-.076.102.13.075.027.015.077.221-.03.037-.114.14.069.08.009.011.006.013.056.143.086.17-.013.035-.044.119.12.067.03.016.01.033.052.171-.006.024-.036.139.088.083.015.014.006.018.046.122.127.084.015.01.009.015.084.13.012.018.002.022.009.139.091.092.027.027-.016.21.049.122c.059.08.116.161.172.243l.112.104.107.112.123.092.008.006.006.007.088.105.137.062.025.011.014.024.08.137.009.017.002.019.01.113.165-.027.048-.008.031.037.099.12.013.015.005.02.039.17.066.084.146.019.057.008.015.055.03.122.14-.022.057-.008.029.048.084.142.072.082.157-.028.068-.012.097.254c.024.065-.105.15-.158.061l-.048-.103-.129.033-.055.014-.052-.052-.116-.116-.003-.003-.01-.015-.041-.061-.132.027-.123.026-.043-.135-.026-.082-.083-.006-.06-.004-.052-.06-.106-.121-.02-.023-.013-.047-.038-.13-.153.033-.214.048-.049-.384-.021-.032-.098-.04-.041-.016-.041-.046-.081-.088-.118-.082-.008-.005-.022-.021-.11-.105-.115-.099-.017-.014-.021-.029a6.408 6.408 0 00-.186-.248l-.015-.019-.081-.186-.022-.05.004-.071.002-.058-.031-.029-.07-.067-.01-.113-.009-.087-.011-.017-.109-.068-.075-.047-.038-.096-.03-.075-.08-.072-.13-.117.044-.181.015-.06-.053-.028-.234-.124.092-.26.019-.052-.012-.022-.004-.008-.008-.02-.037-.089-.085-.094-.18-.201.153-.192-.315-.181.219-.3.045-.062-.003-.015-.006-.033.001-.038.004-.111c.002-.038.001-.072.001-.107 0-.032 0-.063-.002-.096l-.059-.065-.174-.194.194-.289v-.019l-.02-.105-.099-.297.092-.136.022-.033-.004-.021-.011-.054.006-.05.027-.228.035-.059.005-.009-.054-.143.048-.118.026-.063-.013-.073-.035-.209.168-.116.033-.023v-.069l.108-.213.063-.106.017-.076.005-.139.029-.348.135-.068-.008-.043.02-.06.099-.296.125-.043.019-.007-.001-.178.167-.056-.035-.219.226-.053.023-.005v-.024l.006-.021.045-.162.008-.026.002-.005.065-.149.022-.051.024-.023.281-.271.047-.01.131-.026.036-.048.057-.121.017-.037.012-.012.104-.11.07-.114.045-.073.064-.007.095-.012.014-.085.007-.049.024-.023c.037-.038.075-.075.113-.111l.036-.034.028-.003zm5.021 15.965l-.048.147-.014.044-.044.012-.139.037-.056.108-.066.144-.003.005-.003.005-.083.131-.005.009-.008.007-.112.105-.096.1-.056.132-.014.032-.033.013-.133.053-.036.117-.005.018-.013.014-.087.097-.023.143-.004.031-.136.116-.068.112-.044.142-.009.026-.021.016-.109.082-.027.127v.004l-.002.003-.046.149-.002.006-.002.005-.064.138-.008.016-.013.012-.078.069.025.042.09.058c.086.044.173.087.259.129l.14.04.028.008.017.023.072.098.121-.061.024-.012.027.004.151.022.045.007.019.041.064.137.018.038-.064.122-.003.006-.004.005-.091.123-.084.129-.016.025-.028.009-.12.04-.013.132-.003.028-.019.021-.105.114-.013.015-.018.007-.131.052-.044.118-.006.015-.099.112-.036.145-.004.014-.092.141-.009.015-.015.009-.116.079-.056.122-.013.027-.026.013-.144.072-.091.098c-.052.085-.105.169-.159.252a6.247 6.247 0 01-.12.277l-.023.086.068.042.147.025.019.003.015.011.133.091.012.008.008.011.072.098.142-.062.035-.015.034.016.145.066.015.006.011.012.116.118.111.053.147-.022.042-.006.03.03.093.092.17-.068.036.022.139.086.112.05.144-.056.048-.02.039.035.116.102h.057l.112-.001-.057.207-.011.038-.035.017-.143.066-.111.076-.061.114-.027.159-.006.035-.028.02-.007.005.015.006.012.011.09.086.136.007.041.002.024.032.09.125.11.06.14.037.018.005.015.012.103.086.13.001.162.008.013.001.013.004c.087.034.174.066.262.097l.14-.039.04-.011.033.025.117.086.129.015.012.001.011.005.127.054.132-.009.153-.024.014-.002.014.003.15.027c.064.036.087.155-.03.167l-.13-.014-.145.031-.01.001-.155.018-.021.002-.03-.011-.126-.045c-.048-.003-.095-.005-.142-.009l-.031-.003-.031-.022-.081-.056-.106.033-.038.012-.047-.015a8.294 8.294 0 01-.266-.089l-.139-.002c-.052.002-.105.002-.157.002l-.055.001-.045-.038-.098-.081-.117-.029-.018-.005-.019-.01-.136-.073-.031-.016-.022-.03-.056-.074-.09-.004-.061-.002-.046-.043-.089-.083-.115-.045-.297-.114.26-.18c.029-.021.059-.04.088-.06l.028-.096.015-.045h.001l.124-.171.012-.006.146-.074.014-.008.063-.021-.087-.071a2.8 2.8 0 00-.125.056l-.032.015-.046-.017-.154-.057-.013-.007-.086-.045-.129.066-.071.037-.082-.068-.071-.06-.108.026-.037.009-.064-.024-.153-.057-.016-.006-.038-.032-.096-.083-.023-.008a3.113 3.113 0 01-.128.067l-.16.076-.123-.152-.087-.107-.058-.037-.163-.025-.045-.027c-.045-.028-.092-.054-.137-.083l-.164-.104.105-.354.006-.013.065-.139c.021-.047.04-.094.063-.14l.015-.033.005-.006c.06-.083.119-.168.177-.253l.017-.025.009-.009c.037-.038.075-.074.114-.11l.043-.039.021-.009.112-.045.034-.061.034-.06.033-.019.123-.07.055-.071.04-.122.016-.048.019-.018.101-.098.053-.115.029-.062.046-.014.153-.047c.022-.02.044-.041.065-.063l.022-.144.01-.068.057-.016.146-.042.069-.103.093-.122.022-.039-.025-.05a1.417 1.417 0 00-.065-.004c-.023.016-.047.031-.069.049l-.153.115-.103-.093-.076-.067c-.044-.003-.089-.005-.132-.01l-.035-.014c-.05-.015-.101-.027-.148-.045-.048-.019-.097-.034-.143-.055l-.022-.013a2.1 2.1 0 01-.113-.067l-.048-.029-.033-.054-.072-.12-.109-.185.16-.137.094-.08.035-.074.039-.122.032-.144.02-.092.073-.055.078-.055.024-.071.012-.033.012-.019.083-.13.024-.037.024-.02.065-.052.014-.077.016-.076.039-.04.083-.084.072-.203.087-.03.105-.036.029-.058.021-.042.017-.016.118-.109.115-.097.072-.097-.01.019.081-.143.126-.2.047-.008.126-.023.04-.092.017-.035.01-.007.129-.101c.101-.061.171.071.119.121l-.102.1z" fill="#ABA000"/><path d="M140.226 190.092a2.083 2.083 0 101.614 3.84 2.083 2.083 0 00-1.614-3.84z" fill="#31332A"/><path d="M141.907 190.735c-.299.125-.383.603-.188 1.067.195.464.595.738.894.612.298-.125.382-.603.187-1.067-.195-.463-.595-.738-.893-.612z" fill="#636A78"/><path d="M147.084 199.426l-.126.085.085.243-.15.085.102.266-.37-.081.31.437-.158.08-.189.051-.049.167.002.213-.113.114-.225.008-.337-.111-.021.195.088.315-.141.082-.086.141-.378-.193.089.345-.302-.123.123.407-.112.116-.356-.216.077.378-.268-.113-.218-.05.022.208a2.083 2.083 0 002.701-3.049z" fill="#31332A"/><path d="M147.17 200.438c-.149-.025-.307.179-.354.456-.047.276.035.521.184.547.149.025.307-.179.354-.456.047-.277-.035-.522-.184-.547z" fill="#636A78"/><path d="M141.72 196.89a.72.72 0 00-.074.047c-.25.172-.885.709-.741 1.296.149.603 1.872 2.266 2.366 2.47.046.02.083.026.105.017.02-.008.04-.037.061-.082.199-.43.41-2.386.476-3.032a.434.434 0 00-.148-.377c-.667-.583-1.658-.458-1.965-.369a.357.357 0 00-.08.03z" fill="#FC8B2D"/><path d="M141.72 196.89a.72.72 0 00-.074.047c.099.33.22.652.343.972.128.323.264.644.404.962.14.318.286.634.435.949.142.297.286.594.443.883.046.02.083.026.105.017.02-.008.04-.037.061-.082a19.96 19.96 0 00-.342-.933 36.83 36.83 0 00-.393-.966 26.247 26.247 0 00-.423-.953c-.15-.313-.304-.624-.479-.926a.357.357 0 00-.08.03zm1.841 1.191c-.08.005-.146.122-.147.262 0 .14.065.249.146.244.081-.005.147-.122.147-.262.001-.14-.065-.249-.146-.244z" fill="#D13301"/><path d="M120.013 202.161l1.697.662 1.862-5.112a.383.383 0 11.71.283l-2.156 4.966 4.738 1.327a.212.212 0 11-.114.409l-3.513-.984 3.672 2.259a.212.212 0 11-.223.362l-4.005-2.464 2.147 2.848a.211.211 0 01-.042.297.211.211 0 01-.297-.042l-2.789-3.698-1.842-.718a.211.211 0 01-.12-.275.211.211 0 01.275-.12zm7.644 3.18a.18.18 0 00.102.233l1.56.607 2.361 3.132a.18.18 0 00.286-.217l-1.817-2.41 3.39 2.085c.01.006.02.01.03.014a.18.18 0 00.159-.32l-3.109-1.912 2.974.833a.18.18 0 00.097-.347l-4.011-1.123.621-1.429-.101.112-.122-.119-.121-.118.044-.411-.674 1.849-1.437-.56a.18.18 0 00-.232.101z" fill="#FC8B2D"/></g><g clip-path="url(#clip1)" fill-rule="evenodd" clip-rule="evenodd"><path d="M160.791 55.818l-.256-.107.098-.34-.476.032.052-.307-.497.036.038-.299.151-.364-.287-.098-.063-.232-.401-.035-.272-.112-.031-.252.447-.523-.642.097-.02-.257.063-.301-.263-.12.236-.397-.021-.253-.593.061-.242-.131.335-.45-.162-.177-.514.02.312-.439-.471-.003-.066-.228-.158-.177.124-.337-.146-.183.235-.404-.721.15.276-.43.067-.312-.619.102-.101-.21-.127-.192-.076-.225.27-.447-.099-.215-.259-.11-.102-.213-.119-.202-.629.151.433-.586-.622.158-.066-.237-.336-.037.149-.4.24-.479-.439.046-.292-.065-.343-.018.45-.673-.297-.057-.493.117.296-.569-.247-.094-.245-.094.023-.342-.374.032-.273-.059-.183-.145.045-.374-.026-.31h-.325l-.068-.27-.612.319.083-.436-.31-.001.03-.386-.339.036-.063-.355-.264.162-.251-.316-.226.049-.225.189-.231-.076h-.23l-.247.535-.212-.576-.228-.03-.242.14-.261.285-.237-.02-.235-.036-.134-.695-.337.637-.196-.247-.147-.443-.317.378-.301.244-.195-.203-.171-.267-.325.272-.164-.277-.28.092-.196-.161-.234-.052-.111-.366h-.252l-.086-.387-.305.117-.073-.385-.418.323.002-.507-.358.178-.382.195-.069-.35.013-.465-.157-.175-.535.386.094-.547-.383.136.037-.437-.515.286-.218-.108.033-.408-.417.122-.08-.268.033-.38.059-.39-.563.24.066-.389-.336-.004.16-.454-.618.229-.214-.13.146-.42-.428.035-.208-.142.384-.567-.316-.06-.214-.136-.184-.161.25-.427-.389-.036-.415-.035.464-.52-.488-.005.208-.364-.013-.246-.129-.19-.574-.005.404-.418-.094-.207-.594-.028.125-.293.037-.258.31-.336-.806-.005.608-.406-.426-.129.307-.308-.741-.077.596-.356-.488-.146.518-.317-.581-.15.121-.25-.181-.216.186-.25-.339-.21.566-.264-.196-.222.071-.23-.337-.231.413-.226-.365-.242.29-.218-.56-.272.787-.168-.433-.274.49-.174-.269-.267-.376-.294.525-.148-.218-.277-.065-.253.459-.136-.303-.312.459-.12-.186-.291.402-.121-.141-.284-.415-.385.186-.188.063-.23.089-.22.66.02-.302-.38-.033-.273.023-.252.164-.184.178-.175.295-.107.25-.125-.098-.325-.015-.282.484.027-.354-.507.777.242-.503-.634.762.264-.39-.58.285-.077.487.095-.278-.53.56.175.223-.104-.071-.374.238-.09-.089-.41.521.199-.354-.705.248-.082.287-.032.11-.232.044-.312.189-.14.33.039.467.236.074-.28-.057-.48.223-.088.157-.186.507.366-.053-.523.414.247-.089-.621.19-.144.47.395-.028-.568.366.224.306.12.025-.514.163-.218.338.22.312.183.065-.5.313.208.105-.435.396.534.019-.799.417.702.181-.207.123-.52.23-.049.312.44.146-.548.224-.105.308.629.192-.355.222-.124.323.534.181-.344.232-.032.075-.49.258.037.256.035.129-.366.311.222.18-.21.217-.09.352.418.176-.234.12-.484.302.264.191-.207.272.162.26.133.121-.61.325.505.245.084.172-.394.252.135.195-.298.232-.012.242.085.226-.079.225-.107.248.24.225-.105.232.03.225-.266.236.25.231-.066.234-.186.234.005.221.321.25-.363.23.067.242-.08.221.162.181.498.303-.614.219.14.255-.126.146.575.314-.46.228.068.085.756.282-.232.183.229.25-.065.236.001.233.019.195.152.384-.47.23.056.212.111.02.658.342-.27.259-.028.118.34.065.449.337-.215.105.33.285-.079.198.117.436-.37.196.134.037.437.266-.01.238.05.225.075-.105.64.537-.453-.076.566.563-.459.151.2.15.198-.174.662.623-.487-.09.523.007.375.365-.106.276.02.157.174-.028.398.308-.013-.016.37.501-.227.152.178-.034.378.052.278.617-.314-.16.496.277.047.003.318.291.037.427-.084.106.22.259.081-.251.53.168.158.296.051.299.054.022.281-.189.443.137.18.491-.084-.243.466.184.147.39.003.26.1.017.27.274.094.081.225-.293.461.549-.074-.208.399.004.263.395.032.251.122-.188.37.541-.035-.117.327.102.207.327.092.025.248-.196.353.189.163.559-.005-.166.332.108.206-.212.344.238.148.191.171.41.087-.127.3-.361.384.373.107-.018.252-.001.243-.111.28.353.124.356.13-.005.245-.335.34.422.119.159.197.093.216-.454.355-.066.251.719.066-.141.271-.156.27-.194.274-.004.232.524.135-.13.258.288.186.199.205-.294.278-.319.275.216.203.394.186-.242.259.36.198.022.232-.182.248.345.21-.623.268.678.2-.35.247-.14.234-.175.232.668.23-.124.233-.301.227-.229.224.044.23-.216.218-.017.226.774.287-.616.182.541.283-.034.233-.739.146.089.241-.204.201.287.274-.197.2-.182.199.382.304-.043.227-.352.16.457.34-.512.115.439.35-.437.123-.328.146.418.36-.274.159-.308.14.057.26.266.336-.57.037-.046.225-.143.187.125.296.442.44-.716-.062.387.43-.155.186-.266.128.017.27-.249.13-.246.128-.015.255-.382.042.313.454-.39.03-.203.142.096.336-.451-.03.353.526.024.306-.741-.261.171.417-.006.29-.147.183-.395-.028.238.51-.59-.21.095.397-.343-.003-.143.18.059.384-.542-.221.169.508-.386-.075-.002.341-.035.314-.55-.285.132.518-.527-.285.01.382-.117.228-.349-.083-.062.306-.144.198-.117.242-.468-.287-.218.081-.102.266-.017.413-.155.197-.194.134-.262.01-.398-.245-.195.118-.204.104-.15.212-.289-.071-.251.001-.038.468-.363-.252-.119.299-.035.517-.387-.337-.155.236-.355-.286-.102.383-.283-.108-.154.258-.307-.195-.228.037-.001.77-.396-.507-.212.093-.271-.117-.349.203.201.452-.226.177.381.392-.593.019-.057.226.125.335-.249.13-.216.135-.1.216-.08.502-.196-.692-.109.042z" fill="#FCEE21"/><path d="M161.575 52.408l-.273-.008.024-.004-.246.033c-.17-.004-.144-.216-.055-.244l.241-.054.01-.003h.01l.23-.014.116-.097.063-.25.022-.092.095-.003.223-.008.107-.144.008-.01.009-.01.158-.139.111-.194.007-.011.164-.181.031-.036.047-.005.25-.028.321-.252.102-.18.082-.206.028-.262.01-.1.099-.011.196-.024-.008-.19-.004-.107.104-.02.206-.044.03-.263.088-.019.243-.054.061-.129-.015-.345.088-.03.214-.075.036-.168.041-.238.002-.01.003-.01.078-.218.007-.02.013-.016.142-.18.113-.164.027-.207.008-.066.059-.03.2-.101-.004-.173-.001-.036.018-.03.095-.161-.06-.274.038-.047.138-.171.048-.178-.015-.274.171-.188-.033-.185-.001-.008v-.008l-.012-.248.002-.012.034-.226.006-.038.026-.028.124-.134-.11-.17-.024-.036.005-.044c.012-.115.02-.23.04-.347.016-.113.039-.22.06-.33l-.005-.215-.001-.054.038-.038.132-.131-.172-.138-.036-.03-.063-.34.052-.046.197-.178-.083-.132-.011-.018-.005-.021-.05-.22-.088-.269.027-.048.091-.163-.16-.123-.04-.031-.007-.05-.039-.262.014-.033.085-.195-.111-.14-.018-.024-.005-.028-.04-.187-.167-.152-.019-.018-.01-.023-.094-.209-.013-.03.003-.032.017-.204-.112-.154-.033-.046.069-.303-.044-.189c-.068-.13-.133-.26-.196-.392l-.14-.177-.131-.186-.16-.163-.01-.01-.007-.012-.105-.173-.186-.12-.034-.022-.014-.037-.086-.219-.011-.026.002-.028.011-.167-.247.002h-.071l-.037-.06-.119-.197-.015-.025-.002-.03-.02-.256-.077-.138-.209-.06-.082-.024-.008-.084-.018-.184h-.293l-.032-.078-.091-.224-.086-.136-.235.005-.103.002-.084-.392c-.021-.1.186-.194.244-.052l.047.16.195-.02.084-.007.063.087c.048.065.098.13.144.195l.004.005.011.024.046.098.199-.01.185-.011.032.208.02.124.12.027.086.02.063.098.128.201.023.037.01.072.026.199.229-.015.324-.021-.014.57.023.051.134.08.055.033.051.077.098.146.154.145.011.01.027.035.136.178.147.17.021.024.024.047c.069.136.141.27.216.402l.017.032.077.289.021.078-.021.103-.016.084.038.05.087.113-.009.166-.007.13.012.026.144.123.099.086.034.148.027.116.1.123.164.2-.105.254-.034.084.07.053.314.233-.192.359-.039.072.012.034.004.013.008.03.034.138.102.157.218.332-.266.247.419.333-.385.39-.08.08v.022l.002.05-.011.054-.03.162c-.011.055-.017.105-.025.156-.007.046-.014.091-.018.14l.07.108.212.322-.348.378-.004.028.006.157.078.456-.164.177-.04.043.001.032.004.081-.02.072-.089.327-.065.078-.009.012.046.22-.096.162-.051.085.001.11.006.313-.271.131-.053.026-.016.1-.206.287-.115.14-.041.109-.039.2-.119.502-.212.069.001.064-.042.083-.21.41-.192.035-.029.005-.038.26-.256.044.002.328-.341.026-.035.003-.006.035-.013.029-.102.226-.017.037-.004.006-.128.203-.044.07-.04.027-.469.334-.072.003-.196.009-.064.062-.11.164-.033.05-.02.015-.176.136-.128.152-.081.095-.095-.003-.141-.004-.039.12-.023.07-.039.03a6.568 6.568 0 01-.191.136l-.059.041-.041-.001zm-3.765-24.4l.103-.204.03-.061.068-.008.211-.023.105-.145.129-.195.005-.007.005-.006.15-.173.011-.011.012-.01.187-.128.162-.125.112-.178.027-.044.051-.012.206-.048.078-.162.012-.025.021-.018.15-.122.064-.203.014-.045.224-.139.123-.148.097-.197.018-.036.035-.019.176-.094.068-.18.002-.005.002-.005.101-.207.004-.008.004-.007.124-.187.015-.022.023-.015.129-.082-.028-.067-.119-.105a19.455 19.455 0 00-.348-.246l-.195-.089-.039-.018-.02-.038-.083-.159-.19.063-.038.012-.038-.012-.215-.066-.064-.02-.019-.064-.063-.214-.018-.06.121-.163.006-.008.007-.007.16-.16.15-.168.029-.032.043-.008.184-.032.05-.19.01-.04.032-.025.178-.144.023-.018.028-.007.202-.046.091-.162.011-.02.171-.143.084-.202.009-.02.166-.186.017-.019.022-.01.187-.09.11-.164.024-.037.042-.014.225-.072.154-.123c.095-.112.191-.223.289-.333.076-.127.154-.253.236-.376l.054-.12-.09-.076-.21-.07-.026-.009-.02-.018-.173-.163-.016-.014-.01-.019-.083-.159-.221.06-.054.014-.046-.031-.197-.129-.019-.013-.014-.018-.143-.2-.15-.1-.22-.002h-.062l-.038-.051-.114-.155-.263.062-.048-.04-.183-.156-.153-.099-.222.05-.074.018-.049-.06-.146-.174-.084-.012-.163-.024.129-.29.024-.052.055-.017.223-.065.18-.086.113-.152.075-.227.016-.049.046-.023.011-.006-.02-.011-.015-.02-.112-.145-.198-.04-.058-.012-.028-.053-.104-.201-.147-.113-.196-.085-.025-.01-.019-.022-.13-.149-.191-.03-.234-.048-.019-.003-.017-.01c-.12-.068-.24-.134-.361-.2l-.212.026-.061.007-.043-.043-.151-.153-.185-.05-.017-.005-.016-.009-.173-.106-.195-.017h-.249l-.019-.006-.212-.073c-.086-.068-.093-.246.081-.237l.185.05.219-.013h.014l.231.008.03.001.042.023.174.095c.068.015.137.028.205.045l.044.01.041.04.105.1.163-.026.057-.009.065.033c.124.061.247.124.369.188l.202.034.229.032.08.012.058.065.125.14.164.069.025.01.025.02.183.136.04.03.027.05.064.12.132.026.087.016.058.073.111.142.158.09.407.232-.419.206-.142.067a1.78 1.78 0 01-.062.134l-.032.062h-.001l-.219.222-.019.006-.23.075-.022.01a1.69 1.69 0 00-.096.016l.111.122c.065-.018.13-.034.195-.053l.05-.015.063.035.212.117.018.013.115.085.202-.068.112-.038.104.117.091.104.164-.014.055-.005.088.05.211.117.022.013.047.055.122.142.031.017c.067-.025.135-.049.203-.07l.249-.075.147.25.102.175.077.067.231.073.06.05c.06.05.122.098.181.15l.217.188-.232.493-.012.018-.126.188c-.041.064-.079.129-.122.19l-.03.044-.008.008c-.107.109-.211.219-.315.33l-.031.033-.014.012c-.063.046-.127.09-.191.133l-.072.049-.033.007-.172.041-.064.081-.062.08-.053.02-.196.076-.095.091-.086.168-.034.067-.031.022-.169.12-.104.156-.056.084-.071.01-.232.035c-.037.025-.073.05-.109.077l-.064.206-.03.096-.087.011-.222.029-.124.134-.163.157-.04.053.025.079.094.02c.038-.018.075-.035.111-.056l.249-.134.13.158.095.116c.064.014.128.027.191.043l.048.028c.069.033.14.062.206.1.065.037.133.07.196.111l.029.023c.052.04.101.081.15.123l.063.054.037.085.077.192.118.293-.264.164-.154.096-.068.1-.084.17-.079.203-.05.13-.119.063-.125.064-.051.098-.025.045-.021.025-.151.17-.043.05-.04.023-.105.062-.038.108-.041.108-.066.05-.139.103-.15.28-.133.025-.162.03-.055.078-.04.056-.028.019-.196.133-.19.115a5.023 5.023 0 01-.127.126l.019-.025-.151.19-.227.263-.071.002-.189.005c-.026.042-.051.085-.079.126l-.031.046-.016.01-.212.117c-.16.067-.233-.14-.146-.203l.17-.122z" fill="#ABA000"/><path d="M148.062 35.589a3.073 3.073 0 10-1.498-5.96 3.073 3.073 0 001.498 5.96z" fill="#31332A"/><path d="M145.755 34.278c.464-.117.693-.795.512-1.514-.181-.72-.703-1.21-1.167-1.093-.463.116-.692.794-.511 1.514.181.72.703 1.21 1.166 1.093z" fill="#636A78"/><path d="M140.143 20.45l.203-.097-.07-.373.237-.09-.088-.41.52.2-.354-.706.248-.082.287-.032.109-.232.044-.311.191-.141.329.038.467.237.074-.28-.057-.48.224-.088.156-.186.508.366-.053-.523.412.247-.087-.621.189-.144.47.395-.028-.568.366.224.306.121.015-.308a3.074 3.074 0 00-4.618 3.843z" fill="#31332A"/><path d="M140.243 18.955c.211.07.488-.192.619-.586.13-.393.064-.768-.147-.838-.211-.07-.488.192-.619.585-.13.393-.064.769.147.839z" fill="#636A78"/><path d="M147.4 25.344c.027-.01.068-.027.118-.053.402-.195 1.449-.837 1.369-1.724-.083-.913-2.224-3.721-2.899-4.13-.063-.039-.115-.056-.149-.048-.031.008-.067.045-.108.106-.387.584-1.129 3.389-1.369 4.316a.642.642 0 00.13.582c.843.998 2.316 1.038 2.784.976a.58.58 0 00.124-.025z" fill="#FC8B2D"/><path d="M147.4 25.344c.027-.01.068-.027.118-.053-.071-.503-.175-1-.283-1.493a38.32 38.32 0 00-.375-1.493 51.28 51.28 0 00-.423-1.48c-.141-.466-.285-.93-.449-1.388-.063-.039-.115-.056-.149-.048-.031.008-.067.045-.107.106.083.483.183.961.29 1.437.113.5.231 1 .358 1.497.125.497.26.992.405 1.483.149.49.304.978.491 1.457a.574.574 0 00.124-.025zm-2.42-2.147c.119.01.241-.146.273-.35.032-.204-.039-.378-.158-.389-.119-.01-.241.146-.273.35-.032.204.039.378.158.389z" fill="#D13301"/><path d="M180.228 22.496l-2.327-1.343-3.855 7.039a.564.564 0 11-.972-.571l4.25-6.762-6.613-2.99a.314.314 0 11.258-.572l4.903 2.218-4.851-4.112a.313.313 0 01.405-.478l5.292 4.485-2.496-4.63a.313.313 0 01.551-.298l3.242 6.015 2.526 1.457a.314.314 0 01-.313.542zm-10.438-6.342a.266.266 0 00-.096-.362l-2.14-1.233-2.744-5.092a.265.265 0 10-.467.251l2.113 3.92-4.478-3.797a.385.385 0 00-.04-.026.265.265 0 00-.305.43l4.108 3.483-4.151-1.878a.265.265 0 00-.219.484l5.598 2.53-1.223 1.946.172-.14.152.2.149.2-.155.589 1.395-2.545 1.97 1.137c.125.072.287.03.361-.097z" fill="#FC8B2D"/></g><g clip-path="url(#clip2)" fill-rule="evenodd" clip-rule="evenodd"><path d="M155.447 151.655l-.01-.147.185-.033-.127-.219.159-.048-.134-.228.151-.052.209-.013-.021-.16.095-.085-.077-.198-.011-.156.113-.074.354.09-.197-.283.117-.069.158-.042-.004-.153.244.019.116-.069-.169-.268.006-.146.292.054.046-.119-.129-.24.281.046-.109-.225.093-.085.047-.117.19-.02.053-.113.247.017-.241-.307.27.03.164-.041-.194-.271.076-.097.062-.106.089-.089.276.024.079-.098-.009-.149.078-.099.068-.104-.22-.263.381.068-.221-.259.097-.087-.061-.168.225-.024.284.002-.125-.198-.038-.154-.072-.167.427.056-.043-.155-.171-.207.34.007-.014-.14-.012-.138.168-.069-.104-.171-.036-.144.026-.121.189-.066.141-.085-.076-.155.113-.096-.296-.216.227-.063-.072-.148.19-.076-.096-.153.154-.113-.139-.088.091-.194-.076-.096-.143-.062-.018-.128-.054-.11-.313.009.224-.237-.039-.115-.124-.082-.196-.058-.046-.117-.038-.12.299-.227-.383-.011.072-.151.176-.174-.254-.062-.187-.086.051-.14.087-.145-.206-.091.094-.142-.11-.112.031-.131-.031-.124.148-.138-.059-.12.164-.132-.127-.118.166-.125-.252-.123.241-.118-.168-.129-.183-.135.151-.116.224-.102.046-.117-.309-.163.282-.084-.154-.15.216-.085-.257-.178v-.129l.202-.08-.156-.17.109-.101.188-.073.2-.064-.246-.212.2-.059-.077-.161.254-.031-.254-.24.011-.133.235-.029-.118-.195.019-.133.36.05-.046-.164.015-.134.033-.126.262.019-.074-.193-.081-.206.356.099-.112-.234.222.014.114-.064.06-.106-.133-.274.294.093.077-.093-.127-.289.17-.009.131-.043.232.069-.187-.385.337.193-.039-.232.218.073-.137-.37.309.2-.045-.267.273.172-.066-.311.148-.002.06-.136.163.029.02-.211.259.208.059-.146.127-.02.031-.214.204.143.029-.231.172.087-.002-.33.264.335.029-.27.198.192.064-.19.052-.249.193.216.081-.169.105-.091.173.186.077-.217.165.191.095-.157.151.163.102-.134.086-.288.133.044.124-.024.126-.009.145.318.111-.233.122-.079.125-.049.126.035.125.044.12.115.118.09.132-.123.131-.073.1.236.159-.287.067.426.183-.388.054.424.184-.321.104.117.069.254.187-.257.048.308.102.081.161-.121.099.092.174-.139.028.295.252-.334.097.099.083.129.136-.002.159-.053.111.057.059.166-.003.278.151-.03.214-.14.095.085.126.031-.056.328.237-.149-.021.255.275-.188.113.057-.078.316.264-.147-.02.227.014.174.251-.109.142.026-.025.212-.014.192.252-.086-.025.197.232-.052-.161.314.385-.179-.237.364.142.037.276-.063.077.097-.136.252.295-.059.103.082-.227.294.214.008.111.077-.178.279.206.005.07.103.25-.079.043.131.044.13.204-.025-.033.201.143.036.094.082-.117.266.153.029.259-.057-.055.205.143.043-.013.167-.002.155.319-.085-.165.273.018.136.228-.011-.005.152.187.022.061.109.016.134.091.089.103.082-.056.175.103.082.041.117.179.045-.064.171.086.094.143.068.053.112-.101.181.232.033.022.126.095.096-.025.143-.195.203h.364l-.016.138.12.092-.239.204.293.041.02.125-.339.218.176.079-.065.141.089.104.055.112.046.116-.027.128.314.072.027.123-.003.127-.308.164.209.099.074.117-.134.136-.198.136.181.11-.133.128.105.117-.009.121.278.121-.017.125-.199.12.066.124.033.125.017.125-.329.1.342.149-.288.097.351.16-.059.119-.06.118-.355.072.378.182-.271.08-.176.092.136.149.055.136-.045.115-.197.08.079.144-.18.079.226.185-.049.114-.188.073-.12.09.294.22-.273.04.043.143-.151.076.05.147.141.184-.08.102.022.142-.311.005-.036.117.046.153.044.155-.128.076-.255.014-.054.108.156.213-.279-.005-.027.122.09.186.013.147-.124.071.02.153-.088.091-.288-.031.164.244-.239-.005-.124.063.077.196.001.148-.22-.002.144.249-.183.021-.075.097.033.177-.112.07-.214-.01-.033.128.134.265-.198-.001-.072.1-.213-.021-.015.149-.036.131.055.215-.173.01-.268-.082.037.203-.124.051-.116.056-.159.013.024.197.021.2-.117.056-.241-.08.043.228-.057.123-.081.095-.275-.133-.135.028.137.357-.162-.003-.165-.011-.176-.028-.111.052.059.282-.153-.002-.021.181-.051.142-.201-.074-.206-.087-.046.15.004.232-.18-.055-.009.218-.106.065-.16-.028-.02.213-.273-.233.064.37-.2-.11-.144-.011-.152-.029.048.372-.14-.004-.179-.09-.16-.057-.099.076-.155-.052-.111.045.045.436-.231-.251-.008.324-.119.039-.243-.317-.093.098-.144-.05-.063.201-.141-.046-.137-.04-.056.253-.118.033-.159-.13-.054.297-.175-.216-.063.29-.162-.178-.146-.122-.073.283-.14-.093-.139-.113-.11.088-.098.205-.151-.262-.118.031-.122-.025-.112.13-.105.313-.139-.355-.114.285-.125-.03-.123-.096-.124.071-.121-.088-.119-.087-.124.053-.11-.172-.143.256-.106-.179-.115-.063-.137.124-.092-.221-.167.291-.14.084-.05-.414-.158.179-.14.065-.121-.027-.08-.194-.187.233-.038-.33-.167.138-.079-.164-.119-.025-.169.118-.022-.31-.202.2-.055-.202-.163.08-.157.057.006-.329-.215.185.011-.318-.179.095-.136-.003-.042-.185-.16.042-.128-.022-.143.001.027-.29-.09-.085-.151.014-.2.089-.13-.027-.109-.061-.067-.122.023-.247-.102-.065-.097-.073-.136-.022-.034-.154-.06-.119-.231.092.034-.232-.17.014-.254.105.069-.264-.148-.018.053-.236-.207.041-.015-.16-.159-.013.021-.191-.071-.1-.367.18.148-.307-.094-.079-.008-.156-.178-.119-.168.202-.137-.066-.097.273-.149-.277-.121.025-.13.139-.12-.088-.115-.071-.126.003-.258.079.283-.255-.045-.042z" fill="#FCEE21"/><path d="M157.253 151.227l-.06-.132.007.011-.073-.11c-.038-.081.069-.119.103-.083l.082.102.004.004.003.005.06.106.074.032.133-.029.049-.01.024.044.056.104.094.017.006.001.007.003.103.042.119.008h.007l.125.035.024.007.013.021.072.113.196.093.109.006.118-.009.131-.049.049-.018.029.044.058.088.088-.048.05-.027.034.044.069.088.132-.047.03.037.083.103.076-.001.16-.089.035.035.086.084.089-.022.122-.036.006-.002.006-.001.121-.014.011-.001.011.002.119.026.104.015.106-.036.033-.011.028.021.095.071.081-.043.017-.009.019.002.098.007.117-.093.031.007.114.026.096-.019.127-.071.129.037.08-.059.004-.003.004-.002.115-.064.006-.002.116-.036.019-.007.02.006.093.028.054-.092.012-.02.022-.008c.058-.022.114-.045.175-.063.057-.019.114-.033.171-.049l.101-.053.025-.013.027.009.094.032.025-.114.005-.024.147-.11.035.014.131.052.043-.07.006-.01.009-.007.093-.076.107-.105.029.002.099.005.021-.105.006-.027.022-.015.115-.079.019-.001.113-.006.041-.086.007-.014.012-.009.079-.063.034-.115.003-.013.009-.011.077-.093.011-.013.016-.007.102-.039.047-.09.014-.026.16-.039.08-.065c.045-.063.092-.124.14-.185l.051-.108.058-.107.04-.114.003-.007.004-.006.057-.091.014-.116.002-.022.015-.015.083-.093.01-.011.014-.005.082-.035-.059-.116-.017-.034.02-.032.066-.103.009-.013.013-.008.117-.069.048-.07-.02-.113-.008-.045.038-.023.083-.052-.049-.099-.02-.04.03-.034.085-.096.044-.073-.057-.11-.025-.049.166-.132c.043-.033.137.043.083.104l-.065.06.054.088.024.038-.027.051c-.019.038-.038.077-.059.114l-.001.003-.009.011-.036.045.052.092.048.086-.091.064-.054.038.015.064.011.046-.032.052-.066.109-.012.019-.032.022-.088.059.061.105.086.15-.275.127-.019.023-.006.082-.003.034-.025.042-.046.081-.033.108-.002.007-.011.021-.052.107-.047.11-.006.015-.017.023c-.048.065-.095.13-.141.197l-.01.016-.12.104-.032.029-.054.014-.044.012-.014.03-.034.067-.081.035-.064.027-.009.012-.025.098-.017.067-.063.051-.049.04-.035.077-.057.124-.145.01-.048.004-.008.046-.038.204-.216-.008-.043-.001-.013.013-.006.006-.012.01-.058.049-.051.086-.107.181-.179-.069-.06.278-.276-.092-.057-.019-.01.006-.024.012-.028.008-.084.023c-.029.008-.054.017-.08.025l-.072.024-.034.059-.104.176-.261-.076-.014.004-.074.04-.198.144-.123-.036-.03-.009-.015.008-.038.021-.038.007-.177.035-.052-.013-.008-.002-.094.075-.1-.009-.052-.004-.052.027-.147.076-.127-.098-.024-.019-.052.016-.185-.031-.094-.022-.061.006-.105.029-.266.061-.082-.085-.031.016-.049-.001-.244-.004-.062-.083-.009-.012-.133.043-.081-.112-.156.078-.092-.156-.01-.016-.018.006-.017.001-.131.004h-.026l-.126-.013-.044-.005-.022-.012-.269-.145-.018-.034-.051-.091-.045-.016-.103-.013-.032-.004-.012-.006-.106-.052-.102-.025-.065-.017-.02-.046-.031-.068-.067.01-.038.006-.024-.012-.109-.059-.034-.018-.009-.02zm10.725-7.522l.121.001h.036l.019.03.061.095.094.016.123.016h.004l.005.002.117.031.008.002.007.004.105.058.097.048.112.011.027.003.017.021.072.087.095-.001h.015l.013.006.094.042.111-.017.025-.004.119.074.099.024h.138l.017.012.086.062.102-.01h.006l.122-.001h.009l.118.015.014.002.012.008.069.042.026-.029.022-.081c.013-.075.024-.149.035-.224l-.003-.114-.001-.022.014-.019.056-.076-.075-.076-.015-.015-.003-.021-.019-.118-.005-.036.026-.024.087-.08.024-.022.106.019.005.001.005.001.113.039.116.032.022.006.014.019.058.08.102-.021.022-.004.019.009.111.051.014.006.01.012.069.086.098.005h.013l.108.048.116-.007.011-.001.127.035.013.004.011.008.086.068.104.013.023.003.017.017.087.09.095.045c.075.019.151.038.226.059.078.006.156.014.235.024l.069-.003.015-.06-.016-.117-.002-.014.004-.014.037-.12.003-.011.007-.009.056-.077-.08-.091-.02-.023.004-.029.015-.124.002-.012.005-.011.061-.115.013-.095-.051-.105-.014-.03.015-.029.047-.091-.091-.111.008-.032.031-.124.011-.096-.076-.093-.026-.032.017-.037.048-.11-.013-.043-.027-.083.168-.007.03-.001.021.023.084.09.083.065.099.019.125-.018.027-.004.022.016.006.004v-.012l.006-.011.043-.088-.028-.103-.008-.031.019-.025.071-.097.019-.097-.005-.113-.001-.015.006-.013.04-.097-.03-.098-.033-.122-.002-.011v-.01c.004-.073.008-.146.01-.219l-.062-.095-.018-.027.011-.031.037-.107-.019-.1-.002-.009.001-.01.009-.107-.037-.097-.054-.108-.005-.01-.001-.011-.015-.118c.012-.057.095-.102.131-.017l.02.1.058.101.003.007.05.111.007.015-.001.025-.004.106.026.107.005.024-.008.028-.023.074.05.071.018.026v.038l-.004.22.032.104.038.117.013.041-.017.042-.037.093.006.094v.014l-.003.017-.022.119-.005.026-.017.024-.042.059.019.069.012.045-.021.045-.041.086-.006.096-.015.248-.196-.151a3.686 3.686 0 01-.065-.051l-.079.002-.036-.001h-.001l-.157-.053-.007-.007-.09-.092-.009-.008a.65.65 0 00-.031-.042l-.032.081.071.081.019.02-.002.038-.006.129-.002.011-.013.075.079.08.045.044-.031.077-.028.068.045.074.015.026-.003.053-.006.128-.001.014-.015.035-.039.091-.001.019c.028.026.055.053.081.08l.094.101-.084.128-.059.09-.014.053.019.127-.009.04-.029.122-.039.147-.289.005-.012-.001-.118-.016c-.04-.005-.08-.007-.12-.013l-.028-.004-.005-.002a10.22 10.22 0 00-.231-.072l-.023-.007-.009-.005c-.037-.018-.072-.039-.108-.059l-.04-.023-.012-.014-.059-.072-.054-.011-.053-.011-.022-.021-.081-.075-.066-.024-.101-.001-.039-.001-.018-.01-.097-.052-.098-.012-.054-.007-.021-.032-.071-.102a1.9 1.9 0 00-.062-.034l-.113.018-.053.008-.026-.038-.066-.099-.093-.027-.113-.041-.034-.007a.921.921 0 00-.032.031l.013.049.052.04.123.086-.045.1-.033.072c.009.034.018.067.024.101l-.002.03c.001.04.004.081.001.12-.002.04-.002.081-.007.12l-.004.019c-.006.034-.015.068-.023.101l-.011.042-.032.038-.073.082-.112.125-.14-.087-.082-.051-.063-.009h-.1l-.116.01-.073.007-.058-.042-.06-.045-.059-.001-.027-.001-.017-.004-.116-.032-.034-.009-.02-.013-.054-.036-.061.007-.061.006-.039-.019-.082-.042-.168-.006-.044-.058-.052-.069a.746.746 0 00-.05-.008l-.036-.006-.015-.009-.11-.062-.099-.064c-.03-.01-.06-.019-.09-.031l.016.004-.125-.027-.179-.046-.017-.034-.047-.089a1.113 1.113 0 01-.079-.008l-.029-.004-.008-.005-.106-.073c-.069-.061.012-.144.062-.117l.099.052z" fill="#ABA000"/><path d="M162.082 140.847a1.63 1.63 0 102.484-2.113 1.63 1.63 0 00-2.298-.185 1.629 1.629 0 00-.186 2.298z" fill="#31332A"/><path d="M162.164 139.442c.164.193.54.143.84-.112.3-.255.411-.618.246-.811-.164-.194-.54-.143-.84.112-.3.255-.41.618-.246.811z" fill="#636A78"/><path d="M167.425 133.524l.093.074.161-.121.099.092.174-.139.027.295.253-.334.097.099.082.129.136-.003.159-.052.112.057.059.166-.003.278.15-.031.215-.139.095.085.125.031-.055.327.236-.147-.02.254.275-.188.113.056-.078.317.264-.147-.021.227.015.174.149-.065a1.63 1.63 0 00-2.912-1.295z" fill="#31332A"/><path d="M168.159 133.221c.017.117.206.187.424.157.218-.031.381-.15.365-.267-.017-.117-.206-.187-.424-.157s-.381.15-.365.267z" fill="#636A78"/><path d="M166.8 138.126a.53.53 0 00.053.044c.187.146.738.493 1.142.246.415-.253 1.248-1.932 1.283-2.349.004-.039 0-.068-.012-.082-.011-.013-.037-.021-.075-.026-.369-.047-1.878.258-2.375.362a.34.34 0 00-.247.199c-.277.635.05 1.345.19 1.553a.297.297 0 00.041.053z" fill="#FC8B2D"/><path d="M166.8 138.126a.53.53 0 00.053.044c.222-.152.434-.318.644-.485.211-.172.418-.349.622-.53a24.102 24.102 0 001.16-1.088c.003-.039 0-.068-.013-.082-.011-.013-.037-.021-.075-.026a15.06 15.06 0 00-.616.476c-.211.171-.421.344-.628.521-.207.177-.411.357-.61.542-.198.185-.394.374-.578.576a.28.28 0 00.041.052zm.453-1.655c.023.059.126.081.231.048.104-.033.171-.107.148-.166-.023-.06-.127-.081-.231-.048-.104.033-.171.107-.148.166z" fill="#D13301"/><path d="M175.865 153.076l.092-1.422-4.254-.181a.298.298 0 01-.285-.33.3.3 0 01.329-.267l4.215.434-.13-3.849a.166.166 0 01.332-.011l.096 2.854.817-3.274a.167.167 0 01.202-.121.165.165 0 01.121.201l-.891 3.571 1.617-2.275a.167.167 0 01.271.193l-2.101 2.955-.1 1.544a.166.166 0 11-.331-.022zm.566-6.455a.14.14 0 00.149-.131l.085-1.308 1.778-2.501a.14.14 0 00-.229-.163l-1.369 1.926.754-3.023.004-.025a.142.142 0 00-.107-.146.14.14 0 00-.17.102l-.692 2.773-.081-2.416a.14.14 0 00-.282.009l.111 3.258-1.213-.125.107.049-.06.119-.059.118-.317.065 1.538.065-.078 1.205a.14.14 0 00.131.149z" fill="#FC8B2D"/></g><g clip-path="url(#clip3)" fill-rule="evenodd" clip-rule="evenodd"><path d="M168.615 238.854l.09-.117.161.097.049-.248.15.069.05-.26.148.061.166.127.089-.133.128-.001.073-.201.095-.124.133.019.207.301.038-.342.135.025.146.073.097-.118.171.175.133.024.05-.312.1-.106.185.233.112-.058.061-.266.182.22.066-.241.126-.003.113-.056.155.109.114-.049.175.176.022-.39.183.2.15.077.033-.331.121-.023.117-.039.125-.008.192.2.124-.021.092-.118.123-.023.12-.033.009-.343.241.302.004-.34.131-.002.065-.167.184.132.213.188.037-.231.073-.141.056-.173.284.323.07-.144.007-.269.251.23.082-.114.082-.113.172.059.035-.196.068-.132.099-.073.186.074.162.029.045-.166.148.002-.08-.358.212.103.043-.159.194.069.028-.179.191.016-.047-.157.196-.086.007-.122-.066-.141.07-.108.032-.118-.241-.2.325-.03.046-.113-.039-.143-.109-.173.043-.118.05-.116.375.027-.281-.261.154-.066.247-.015-.15-.214-.084-.188.131-.072.161-.051-.095-.204.164-.045-.009-.157.11-.078.059-.113.202-.006.035-.13.21.01-.018-.173.208.016-.109-.259.26.071-.042-.208-.048-.223.189.013.237.07.111-.056-.124-.327.267.123-.017-.215.219.079-.076-.303.085-.097.205.073-.005-.231.148-.004.19.069.192.084-.045-.322.19.088.048-.172.21.144-.032-.347.096-.093.196.133.04-.224.102-.087.237.274.074-.153.1-.091.107-.073.185.187.072-.194.075-.208.202.309.07-.249.158.156.128.028.115-.04.081-.294.159.264.119-.019.096-.301.133.105.127.054.129.205.114-.412.125.367.124-.201.116.2.141-.37.1.355.143-.23.091.309.156-.277.112.096.135-.063.103.13.155-.145.057.326.14-.07.109.068.165-.141.058.243.175-.154.072.178.216-.249-.022.426.2-.184.022.275.173-.101.203-.153.003.29.172-.074.139.002.007.253.201-.112-.001.252.174-.055.007.222.165-.033.255-.16.07.121.109.064.101.076-.101.335.237-.102.144.021.126.046.072.109.065.115.014.166.03.146.18-.006.146.031-.08.244.309-.111-.231.365.394-.171-.24.354.351-.12v.156l-.116.237.31-.07-.167.263.024.129.201.015.013.134.223.011-.174.239.41-.084.008.138-.023.152.103.088.155.065.046.117-.066.163-.185.207.133.077.254.036.015.127.074.106-.258.209.276.045-.184.178.331.04.047.117-.267.186.295.064-.165.157-.104.14.261.084.089.113-.159.143-.137.135.247.102-.149.132.209.113-.329.13.407.12-.417.117.081.121.25.135-.006.124-.268.1.26.15.023.129-.364.071.155.148.033.13-.318.093.152.139-.016.124.24.105-.053.128-.054.126.17.116-.156.129.083.122.016.123-.263.123.096.122.232.128-.177.119.08.126-.12.117-.104.115.296.146-.304.097-.077.114.179.142-.104.111.126.141-.026.121-.076.112.009.126.024.13-.158.094.024.13-.047.115.105.152-.161.087.002.127.064.146-.035.119-.195.069.152.178-.066.109.008.135-.114.091-.28.024.273.24-.101.093.029.148-.315-.004.193.224-.066.107-.399-.06.08.176-.143.063-.001.137-.033.121-.041.116-.105.08.188.261-.06.11-.087.093-.339-.08.092.213-.022.136-.19.014-.239-.028.063.202-.183.008.001.157-.087.086.13.274-.096.082-.229-.041-.032.137-.058.116-.069.105-.313-.142.158.338-.28-.117.158.351-.123.051-.122.049-.315-.18.164.386-.256-.118-.193-.048.004.202-.048.139-.111.056-.2-.069-.036.16-.187-.059.047.288-.112.053-.189-.069-.149-.012.076.36-.232-.151-.062.136-.164-.042-.059.144-.016.23-.127.024-.077.122-.237-.202-.104.065-.067.145-.068.146-.148-.028-.201-.158-.111.046-.024.263-.206-.188-.1.074-.055.199-.087.119-.141-.028-.086.128-.126.011-.196-.214-.038.292-.175-.162-.136-.034-.071.198-.097.112-.163-.147-.057.282-.151-.105-.12.024-.092.155-.131-.021-.154-.149-.11.074-.074.287-.147-.131-.12.028-.147-.156-.109.101-.114.075-.101.198-.136-.106-.148-.238-.105.177-.127-.044-.125-.034-.127-.095-.113.163-.116.165-.124-.036-.129-.218-.118.199-.123.055-.124.018-.119-.282-.12-.068-.133.36-.119-.11-.117-.117-.114-.137-.118-.034-.141.25-.114-.102-.135.122-.133.074-.102-.189-.097-.201-.134.083-.149.176-.1-.16-.151.158-.122-.021-.102-.127-.155.148-.051-.356-.197.32-.077-.214-.102-.104-.094-.121-.209.311-.103-.096-.075-.185-.083-.149-.125-.008-.081-.141-.114-.04-.253.358-.009-.341-.219.238-.115-.049.026-.399-.135.012-.075-.132-.18.11-.076-.129-.076-.12-.209.154-.111-.053-.033-.203-.237.188.011-.279-.239.177-.003-.24-.03-.188-.242.164-.044-.162-.029-.177-.141-.007-.209.091.059-.298-.109-.054-.076-.099-.169.023-.286.166.13-.358-.273.139-.074-.105-.03-.153-.14-.029-.033-.145-.032-.144-.128-.043.031-.201-.276.098.038-.205-.044-.123-.186.003.078-.227-.319.109-.16-.03.236-.344-.238.031-.148-.044-.073-.1.069-.198-.295.052.189-.274-.216-.006.049-.175-.074-.098-.204-.023.188-.247-.284.017.092-.188-.175-.048-.156-.061.222-.242-.284-.004.218-.231-.197-.047-.101-.091.091-.168-.148-.074-.082-.101-.108-.093.211-.201-.011-.122-.122-.089-.21-.066-.08-.106-.042-.117.031-.136.18-.17-.033-.117-.026-.119-.087-.106.075-.138.034-.129-.234-.083.179-.152-.137-.102-.26-.089.225-.152-.099-.112.195-.142-.182-.106.094-.13-.111-.114.142-.131.013-.121-.395-.107.314-.133-.018-.122.097-.122-.056-.207-.259.041-.06-.14-.253.141.071-.306-.107-.061-.19.018-.032-.145-.039-.129-.097-.081-.247-.11.382-.006-.007-.061z" fill="#FCEE21"/><path d="M170.255 239.724l.042-.139-.001.013.017-.131c.025-.087.13-.044.132.006l-.005.13v.006l-.001.005-.025.12.034.072.12.067.043.024-.011.049-.027.116.06.074.004.005.003.007.05.1.084.083.005.005.07.109.014.021-.004.025-.02.132.086.199.078.077.094.07.131.05.049.019-.007.053-.015.103.099.023.055.012-.004.056-.006.112.13.051-.002.048-.006.132.058.049.179.039.004.05.009.12.081.041.116.054.005.002.005.004.101.069.009.006.006.009.073.098.069.08.102.043.033.013.007.034.024.117.09.021.018.005.013.013.07.071.148.007.019.025.069.095.085.049.142.03.073.113.099.009h.004l.004.001.129.028.006.003.111.048.019.009.011.017.051.082.102-.033.022-.007.022.008c.057.022.116.042.172.068.056.024.108.05.161.076l.111.027.028.007.014.025.049.085.095-.069.02-.014.182.014.017.033.065.126.078-.025.011-.003.012.001.119.004.15-.008.021.02.071.069.085-.065.022-.016.026.003.14.016.015.012.088.07.087-.037.015-.006.015.001.101.005.101-.064.012-.008.013-.002.12-.019.017-.003.016.006.103.037.094-.036.028-.011.146.077.102.003c.076-.017.152-.032.228-.046l.11-.048.114-.041.105-.06.007-.003.007-.003.103-.03.087-.078.016-.015.021-.002.124-.014.015-.002.014.005.084.028.033-.126.009-.037.036-.011.117-.033.015-.005.016.003.134.025.081-.02.06-.099.023-.039.045.007.096.016.029-.106.011-.044.044-.005.128-.016.082-.026.029-.121.013-.053.213.011c.054.003.074.122-.007.132l-.088.002-.017.103-.008.044-.053.021c-.04.015-.08.032-.12.046l-.003.002-.014.002-.057.01-.021.104-.02.096-.111-.012-.067-.007-.03.058-.022.041-.059.019-.121.038-.022.007-.038-.005-.105-.014-.024.119-.034.169-.29-.085-.03.004-.059.058-.024.024-.047.016-.088.03-.096.059-.006.004-.022.009-.11.045-.107.052-.015.008-.028.005a6.176 6.176 0 00-.235.056l-.019.005-.158-.001h-.044l-.049-.025-.041-.02-.031.013-.07.029-.084-.027-.065-.022-.016.003-.082.057-.058.039-.081-.003-.063-.002-.076.034-.126.057-.115-.089-.039-.029-.036.029-.163.129-.157-.148-.032-.03-.019.001-.007.001h-.017l-.075-.002-.095.031-.2.066-.09-.17-.228.169-.147-.251-.03-.052-.011-.003-.026-.006-.027-.013-.078-.038-.077-.034c-.023-.01-.045-.02-.069-.029l-.065.022-.194.064-.146-.23-.014-.006-.081-.018-.244-.023-.069-.108-.016-.027-.017-.004-.042-.009-.034-.02-.155-.091-.032-.043-.004-.007-.12-.006-.069-.072-.037-.038-.056-.014-.161-.04-.031-.157-.006-.031-.049-.022-.119-.144-.056-.079-.049-.036-.098-.047-.24-.13-.007-.118-.033-.009-.037-.033-.181-.164.009-.103.001-.015-.128-.056.013-.137-.169-.044.033-.178.004-.018-.017-.008-.013-.011-.102-.083-.017-.014-.002-.003-.087-.093-.029-.032-.009-.025-.106-.286.008-.037.022-.102-.023-.041-.069-.079-.021-.024-.005-.012-.046-.109-.06-.086-.038-.055.015-.049.022-.071-.057-.037-.033-.021-.009-.024a2.744 2.744 0 01-.044-.116l-.013-.037.006-.02zm13.023 1.421l.091.081.027.023-.006.036-.017.112.06.073.082.093.003.004.003.003.067.101.005.007.003.007.04.114.042.1.076.082.019.02-.001.027-.004.112.072.063.012.009.006.014.042.093.095.061.021.013.041.134.059.084.087.076.016.014.005.021.024.103.083.06.002.001.003.002.092.081.003.002.003.004.079.089.01.011.004.013.024.078.039-.005.07-.047c.058-.047.116-.096.174-.145l.072-.087.014-.018.023-.005.092-.02-.006-.107-.001-.021.012-.018.063-.101.019-.03.036-.001.118-.003h.033l.067.084.004.004.002.004.06.104.065.101.013.019-.002.023-.009.099.09.051.019.011.009.02.05.111.006.014-.001.015-.004.11.071.069.009.009.049.107.092.071.009.007.073.11.007.012.003.013.02.108.069.078.016.018.001.023.006.126.042.096.131.193c.055.056.108.114.16.173l.054.044.051-.036.065-.098.008-.012.013-.008.107-.066.009-.006.011-.003.093-.02v-.151l.022-.02.093-.083.009-.008.012-.005.122-.046.072-.062.031-.113.009-.032.031-.012.095-.037.004-.144.028-.019.105-.072.071-.065.005-.121.001-.04.037-.017.109-.051.018-.041.035-.081.131.106.023.02.001.03.003.124.02.103.062.08.106.069.023.015.005.027.002.006.008-.009.012-.005.09-.037.048-.096.014-.028.031-.007.118-.026.077-.06.071-.088.009-.012.013-.007.095-.046.041-.093.057-.114.004-.009.008-.008.151-.157.016-.113.005-.032.028-.016.099-.056.051-.088.005-.008.007-.007.078-.074.036-.098.031-.116.003-.011.006-.009.066-.099c.047-.035.139-.014.11.074l-.05.088-.024.114-.002.007-.036.117-.005.016-.017.018-.073.077c-.017.032-.033.066-.051.098l-.011.021-.026.016-.065.04-.01.087-.003.031-.026.028-.147.164-.045.098c-.015.038-.032.076-.048.113l-.017.04-.041.02-.089.045-.058.075-.009.011-.013.011-.095.074-.021.017-.029.007-.071.016-.031.064-.02.043-.046.019-.088.038-.067.068-.175.177-.048-.243c-.006-.027-.01-.054-.015-.082a.722.722 0 01-.06-.05l-.028-.025-.083-.143-.001-.011-.007-.128-.001-.012.004-.052-.077.04v.107l.001.028-.027.028-.089.092-.009.008-.06.047.008.113.004.062-.075.038-.065.032-.015.086-.006.029-.037.038-.089.092-.01.01-.035.016-.089.043-.013.014.008.113.004.138-.148.041-.104.029-.045.03-.069.108-.033.024c-.034.024-.068.049-.103.072l-.126.086-.22-.187-.008-.009-.079-.09c-.027-.03-.055-.058-.081-.089l-.018-.021-.003-.005a7.123 7.123 0 00-.126-.207l-.013-.02-.004-.009-.042-.117-.015-.043.001-.018.002-.094-.032-.043-.033-.043-.003-.031-.012-.11-.034-.061-.074-.068-.029-.026-.007-.019-.039-.103-.065-.075-.036-.04.005-.038.014-.124-.024-.066-.097-.061-.045-.029.006-.046.015-.117-.052-.082-.057-.105-.022-.028-.044.002-.023.045.013.065.035.146-.099.045-.072.032c-.016.031-.032.063-.049.092l-.021.021c-.026.031-.051.063-.079.092-.028.028-.055.059-.084.085l-.016.012a1.274 1.274 0 01-.084.06l-.036.025-.048.007-.11.013-.166.02-.048-.157-.028-.093-.042-.048-.075-.066-.093-.069-.06-.043-.016-.07-.016-.073-.043-.04-.02-.018-.009-.015-.067-.1-.019-.029-.007-.024-.017-.062-.05-.035-.05-.035-.017-.041-.033-.085-.123-.116.005-.072.007-.086-.032-.039-.023-.029-.006-.017-.041-.118-.034-.114-.047-.082.011.013-.077-.103-.104-.153.009-.036.023-.098-.053-.058-.02-.022-.002-.01-.031-.124c-.013-.091.104-.1.124-.047l.039.104z" fill="#ABA000"/><path d="M180.731 235.108a1.63 1.63 0 103.261.051 1.63 1.63 0 00-3.261-.051z" fill="#31332A"/><path d="M181.72 234.106c-.004.253.312.464.706.47.394.006.716-.194.72-.448.004-.253-.312-.463-.706-.47-.393-.006-.716.195-.72.448z" fill="#636A78"/><path d="M189.578 233.129l.021.117.201.015.013.134.223.011-.174.239.41-.084.008.138-.023.151.104.088.153.066.046.116-.064.164-.186.207.133.076.254.037.014.126.074.106-.257.21.275.045-.183.177.331.041.047.117-.266.187.295.063-.165.157-.105.14.156.05a1.63 1.63 0 00-1.335-2.894z" fill="#31332A"/><path d="M190.33 233.385c-.065.099.031.277.215.398.184.12.385.138.45.04.065-.099-.031-.277-.215-.398s-.385-.138-.45-.04z" fill="#636A78"/><path d="M186.073 236.175a.827.827 0 00.011.068c.044.233.23.858.696.938.479.083 2.212-.628 2.514-.918.029-.027.045-.051.045-.07 0-.017-.014-.041-.039-.07-.246-.278-1.582-1.044-2.024-1.294a.342.342 0 00-.317-.013c-.627.295-.849 1.044-.882 1.292a.294.294 0 00-.004.067z" fill="#FC8B2D"/><path d="M186.073 236.175a.571.571 0 00.011.068c.267.033.536.048.804.06.272.01.545.013.817.012a22.206 22.206 0 001.589-.052c.029-.027.045-.051.045-.07 0-.017-.014-.041-.039-.07a14.46 14.46 0 00-.777-.048 27.776 27.776 0 00-1.632-.018c-.271.009-.543.021-.814.051a.294.294 0 00-.004.067zm1.432-.945c-.022.06.042.144.142.188.1.045.199.032.221-.027.022-.06-.042-.144-.142-.188-.1-.045-.199-.032-.221.027z" fill="#D13301"/><path d="M183.024 253.391l1.008-1.008-3.078-2.942-.013-.013a.3.3 0 01.439-.407l2.881 3.106 2.441-2.978a.167.167 0 01.258.21l-1.81 2.209 2.773-1.922a.168.168 0 01.232.042.168.168 0 01-.042.231l-3.026 2.096 2.716-.643a.166.166 0 01.2.124.166.166 0 01-.123.2l-3.528.835-1.093 1.095a.167.167 0 01-.236 0 .167.167 0 01.001-.235zm4.684-4.479a.142.142 0 00.199.001l.926-.928 2.986-.707a.14.14 0 00.105-.169.141.141 0 00-.17-.104l-2.299.544 2.561-1.774c.007-.006.014-.011.019-.017a.14.14 0 00.017-.179.141.141 0 00-.196-.036l-2.348 1.627 1.532-1.869a.14.14 0 00-.02-.198.14.14 0 00-.198.019l-2.066 2.522-.829-.894.048.107-.123.05-.123.05-.28-.161 1.112 1.064-.853.854a.14.14 0 000 .198z" fill="#FC8B2D"/></g><g clip-path="url(#clip4)" fill-rule="evenodd" clip-rule="evenodd"><path d="M5.273 135.251l.195-.198.279.217.148-.453.266.162.151-.474.263.146.282.276.198-.23.239.028.181-.36.206-.21.245.065.32.61.148-.633.245.078.257.17.21-.2.28.368.243.074.163-.573.213-.176.292.479.224-.085.174-.484.29.453.179-.437.236.024.223-.081.266.241.225-.068.288.369.128-.725.297.417.264.177.137-.612.231-.015.226-.047.237.013.315.417.236-.012.199-.2.235-.015.232-.035.094-.64.383.62.085-.636.244.027.16-.298.316.287.354.401.122-.425.168-.247.144-.311.458.668.163-.254.075-.501.418.486.18-.194.178-.193.308.149.11-.359.156-.232.203-.115.33.18.297.091.122-.301.276.038-.068-.687.373.239.116-.287.348.171.092-.328.353.074-.052-.305.387-.116.039-.228-.092-.278.157-.187.086-.214-.406-.428.614.018.112-.201-.04-.277-.167-.348.108-.212.12-.205.696.134-.467-.55.302-.089.466.027-.233-.435-.115-.37.262-.105.312-.059-.132-.403.318-.049.019-.294.223-.122.135-.199.38.034.094-.234.391.065.006-.328.384.077-.145-.509.47.19-.031-.398-.04-.427.352.066.426.185.221-.081-.16-.64.474.291.016-.406.391.197-.073-.584.181-.163.367.183.042-.433.278.027.34.171.34.2-.012-.612.336.206.129-.31.361.317.018-.658.2-.151.337.292.126-.411.21-.139.382.567.173-.271.207-.148.217-.111.304.391.178-.347.187-.372.31.624.186-.451.26.328.233.08.226-.049.217-.531.238.53.227-.01.247-.541.226.226.225.13.196.413.305-.747.151.715.278-.347.171.399.348-.659.108.686.318-.398.101.599.355-.484.188.205.267-.088.164.267.32-.237.035.624.279-.1.188.152.339-.226.055.466.361-.249.095.351.46-.419-.137.794.416-.3-.021.519.347-.15.414-.24-.058.543.338-.099.26.033-.045.477.402-.165-.06.471.34-.064-.038.417.316-.025.512-.242.105.242.19.144.171.165-.264.605.466-.138.265.071.226.115.11.221.095.229-.01.315.023.278.338.029.267.092-.205.439.602-.139-.513.631.775-.232-.528.61.683-.146-.034.292-.27.418.595-.061-.37.454.014.246.373.073-.006.255.415.07-.38.409.787-.066-.016.26-.078.279.174.188.274.157.06.228-.159.291-.394.346.233.173.467.125-.002.24.115.216-.529.334.505.145-.383.292.61.149.063.23-.542.289.538.186-.344.256-.227.239.47.215.14.232-.328.232-.288.222.44.246-.31.213.366.259-.643.17.734.314-.807.126.125.246.437.307-.04.231-.524.126.454.34.014.247-.698.052.257.31.032.252-.615.101.252.296-.056.227.425.252-.129.226-.128.224.292.256-.322.206.128.246.003.235-.52.171.152.251.405.291-.358.182.121.254-.25.192-.22.193.52.339-.59.113-.17.196.303.307-.22.183.205.292-.076.22-.168.194-.011.238.015.248-.315.141.014.248-.114.205.163.307-.32.126-.024.239.085.287-.091.215-.381.086.244.367-.148.189-.015.254-.233.145-.53-.018.457.511-.211.151.021.283-.588-.078.31.463-.147.185-.734-.202.11.348-.28.085-.032.256-.09.219-.103.209-.214.125.294.53-.139.193-.182.155-.618-.226.124.418-.07.251-.36-.017-.441-.107.074.393-.346-.026-.032.295-.183.14.182.542-.198.132-.419-.128-.09.25-.135.203-.153.181-.554-.336.22.668-.497-.282.216.693-.242.067-.24.064-.549-.407.22.759-.452-.278-.35-.133-.038.378-.121.249-.22.081-.36-.175-.102.291-.337-.152.024.55-.222.074-.338-.172-.277-.055.061.69-.4-.334-.147.24-.296-.116-.143.256-.081.428-.244.017-.171.21-.4-.431-.208.098-.157.256-.162.257-.269-.084-.34-.341-.22.061-.103.486-.343-.398-.205.115-.148.361-.19.204-.255-.084-.19.219-.24-.008-.318-.443-.136.536-.292-.342-.246-.094-.177.355-.207.188-.273-.312-.169.515-.26-.231-.23.018-.207.27-.239-.07-.255-.313-.222.115-.203.521-.247-.279-.23.025-.24-.326-.227.166-.23.114-.233.348-.232-.229-.222-.479-.238.307-.227-.11-.226-.092-.217-.206-.247.28-.254.282-.225-.095-.191-.437-.267.346-.242.075-.236.006-.16-.554-.209-.154-.329.643-.198-.233-.193-.244-.182-.283-.214-.09-.32.437-.19-.217-.28.198-.265.108-.149-.376-.136-.398-.27.125-.319.296-.15-.321-.317.26-.225-.065-.161-.262-.324.242-.017-.677-.439.554-.097-.417-.166-.217-.15-.249-.462.535-.17-.202-.1-.364-.121-.296-.23-.044-.122-.282-.204-.1-.554.612.06-.639-.464.396-.204-.119.14-.739-.257-.008-.11-.264-.362.164-.112-.257-.117-.243-.425.242-.195-.125-.017-.386-.485.297.084-.518-.488.278.047-.452-.012-.358-.49.253-.046-.312-.015-.339-.262-.044-.411.122.177-.542-.191-.127-.12-.202-.322.006-.572.246.323-.642-.543.2-.114-.214-.021-.294-.256-.084-.029-.28-.027-.276-.23-.109.102-.37-.538.122.117-.374-.055-.241-.348-.036.196-.408-.62.133-.293-.092.518-.591-.451.003-.267-.114-.115-.203.173-.357-.563.032.415-.47-.403-.06.13-.317-.114-.199-.378-.089.407-.42-.534-.033.213-.33-.316-.129-.278-.149.47-.404-.53-.071.46-.383-.359-.133-.168-.193.207-.294-.26-.171-.13-.207-.182-.198.441-.329.006-.232-.209-.193-.377-.17-.126-.217-.052-.23.089-.247.375-.278-.037-.225-.02-.228-.14-.218.172-.242.092-.233-.42-.209.37-.244-.234-.222-.467-.224.457-.234-.161-.232.397-.223-.317-.238.205-.222-.181-.239.295-.212.05-.225-.714-.288.618-.179-.008-.232.21-.207-.059-.399-.494.017-.08-.275-.506.208.203-.557-.188-.138-.358-.009-.028-.279-.044-.251-.164-.173-.436-.261.716.075v-.116z" fill="#FCEE21"/><path d="M8.148 137.248l.109-.251-.006.024.061-.24c.067-.157.254-.054.247.039l-.04.244v.01l-.004.01-.073.218.047.144.21.151.075.055-.032.089-.076.21.094.153.007.011.005.013.07.198.14.175.008.011.107.219.02.043-.012.045-.067.243.115.391.129.162.16.153.234.123.088.046-.026.097-.05.19.179.064.1.036-.02.104-.036.208.233.125-.015.089-.04.246.097.104.325.114-.004.093-.01.227.142.096.206.126.009.006.008.007.173.154.015.013.01.018.115.199.11.166.183.102.057.032.006.066.02.223.162.061.034.012.021.029.114.147.277.047.029.052.107.192.148.111.26.088.11.229.184.038.008.002.007.002.235.082.01.006.198.116.033.019.016.035.078.166.198-.04.043-.008.039.02c.103.054.207.105.307.167.1.056.19.118.285.178l.201.076.05.019.021.049.073.171.192-.107.04-.023.34.068.024.065.092.25.153-.028.021-.004.021.004.223.035.282.018.035.043.117.145.175-.102.043-.026.05.012.256.062.026.025.15.151.171-.05.028-.008.029.005.188.033.203-.098.023-.012h.026l.229-.01.032-.001.03.014.182.093.185-.047.055-.013.255.177.192.029c.145-.015.29-.027.437-.036l.216-.064.222-.053.21-.087.013-.006.014-.002.2-.034.18-.127.033-.023h.04l.235.001.028.001.026.012.151.072.09-.23.026-.066.07-.012.226-.037.03-.005.028.009.245.078.157-.021.134-.171.052-.067.081.023.178.052.077-.194.031-.078h.084l.243-.002.158-.029.083-.22.036-.096.395.067c.1.018.112.246-.042.247l-.166-.016-.055.188-.024.081-.104.026c-.078.02-.156.042-.235.061l-.006.001-.027.002-.108.006-.064.189-.059.176-.204-.048-.123-.028-.07.101-.05.073-.115.022-.235.043-.042.008-.07-.018-.194-.049-.072.218-.101.309-.525-.226-.055.002-.125.095-.05.039-.09.019-.173.037-.192.089-.013.006-.043.012-.216.06-.212.073-.03.011-.053.004c-.151.014-.303.031-.453.051l-.036.005-.297-.037-.08-.009-.088-.058-.072-.046-.06.017-.137.038-.152-.07-.117-.055-.03.002-.167.087-.116.06-.151-.023-.118-.018-.15.047-.248.077-.196-.191-.066-.064-.075.046-.333.205-.261-.313-.052-.062-.037-.002-.014-.001-.03-.004-.141-.02-.184.037-.39.078-.129-.339-.465.265-.218-.502-.045-.104-.02-.008-.047-.017-.047-.03-.14-.088c-.046-.031-.09-.055-.134-.081-.041-.024-.08-.048-.124-.07l-.127.026-.377.076-.222-.464-.023-.014-.149-.052-.452-.098-.103-.217-.025-.054-.03-.01-.077-.027-.06-.045-.27-.205-.048-.089-.007-.013-.223-.039-.113-.15-.06-.079-.103-.039-.292-.111-.022-.3-.004-.06-.087-.051-.19-.298-.088-.16-.084-.078-.172-.111-.42-.297.014-.222-.06-.023-.061-.071-.302-.347.038-.191.006-.028-.227-.134.054-.253-.305-.121.103-.326.01-.033-.03-.018-.022-.023-.172-.179-.028-.029-.004-.006-.14-.195-.049-.067-.011-.047-.135-.56.024-.067.065-.186-.034-.083-.112-.162-.034-.05-.007-.024-.06-.214-.093-.175-.059-.111.039-.087.056-.129-.097-.082-.057-.046-.012-.048a6.705 6.705 0 01-.056-.227l-.016-.071.017-.037zm24.048 5.587l.151.171.045.05-.018.066-.056.205.095.151.133.193.005.007.003.007.104.203.007.014.004.015.05.221.055.197.125.171.03.042-.008.051-.032.209.121.132.02.021.008.026.057.185.165.135.036.029.046.26.092.17.146.163.027.03.004.04.023.198.141.13.005.004.003.004.155.171.006.006.004.006.128.185.015.022.005.027.028.15h.073l.141-.072c.12-.076.24-.153.359-.232l.154-.148.032-.029.043-.004.178-.018.013-.2.002-.04.025-.031.142-.175.042-.052.067.006.222.022.062.006.107.173.005.008.004.009.088.208.1.202.02.039-.01.043-.038.182.157.117.033.024.012.04.068.219.009.027-.005.029-.033.205.117.145.015.018.069.211.156.154.015.014.111.224.011.022.002.026.013.206.112.163.025.036-.003.044-.017.236.058.19c.068.129.136.26.2.391.09.118.178.237.263.359l.09.095.104-.055.144-.169.017-.021.025-.012.215-.1.02-.009.02-.002.179-.018.027-.227.007-.056.046-.032.193-.134.019-.013.022-.006.238-.059.15-.101.083-.204.024-.058.06-.016.187-.048.04-.267.056-.03.213-.112.148-.105.036-.225.012-.075.072-.024.217-.07.042-.073.084-.143.22.228.04.042-.005.057-.023.232.013.198.099.162.183.154.04.033.004.051.001.013.018-.015.024-.006.176-.051.111-.168.033-.05.06-.006.225-.021.159-.095.151-.15.02-.02.027-.009.187-.066.099-.165.13-.2.012-.016.015-.012a20.2 20.2 0 00.32-.261l.055-.207.016-.059.056-.024.198-.083.115-.153.01-.014.015-.011.163-.121.089-.175.084-.211.008-.02.014-.016.146-.169c.095-.055.263.006.19.163l-.115.154-.07.208-.006.012-.093.212-.012.027-.037.031-.153.126c-.039.058-.077.117-.117.173l-.027.037-.051.024-.132.06-.038.16-.013.057-.054.049c-.103.091-.207.182-.312.272l-.107.174c-.037.068-.076.134-.115.201l-.041.07-.081.029-.177.065-.125.126-.019.019-.027.017-.195.118-.043.027-.056.006-.135.014-.073.113-.048.075-.09.026-.172.052-.142.112-.367.292-.035-.466a7.783 7.783 0 01-.01-.157 1.941 1.941 0 01-.101-.107l-.045-.053v-.001l-.125-.286.001-.019.016-.242v-.024c.008-.031.014-.063.02-.095l-.154.057c-.008.067-.017.134-.023.201l-.006.052-.055.046-.188.153-.019.012-.121.075-.012.213-.007.118-.148.053-.13.046-.047.157-.016.053-.079.063-.188.152-.02.016-.068.023-.177.061-.028.022a3.692 3.692 0 01-.01.214l-.024.26-.286.042-.2.03-.091.047-.154.188-.068.036c-.07.038-.138.077-.208.113l-.255.131-.371-.399-.012-.018-.128-.187c-.044-.062-.09-.121-.132-.184l-.029-.044-.004-.011a15.769 15.769 0 00-.19-.414l-.019-.041-.005-.018c-.02-.075-.036-.151-.053-.227l-.018-.084.005-.034.027-.175-.052-.089-.05-.088v-.057l.003-.209-.05-.123-.124-.143-.049-.056-.008-.037-.05-.201-.105-.154-.057-.084.016-.07.055-.228a4.573 4.573 0 00-.031-.13l-.168-.136-.077-.063.021-.085.056-.217-.079-.165-.084-.21-.034-.056a1.162 1.162 0 00-.083-.006 2.164 2.164 0 00-.053.079c.002.041.005.083.01.124l.032.281-.196.062-.142.045c-.037.054-.073.109-.112.161l-.043.034c-.056.052-.11.107-.169.154-.059.047-.116.098-.177.141l-.032.018a3.595 3.595 0 01-.17.094l-.073.038-.093.002h-.207l-.316.001-.054-.306-.032-.179-.068-.1-.125-.141-.16-.149-.101-.094-.015-.135a3.167 3.167 0 01-.012-.14l-.072-.084-.033-.039-.015-.029-.103-.204-.03-.058-.006-.046-.018-.121-.087-.075-.085-.078-.021-.08-.045-.167-.204-.244.027-.133.032-.161a5.57 5.57 0 01-.051-.08l-.037-.058-.008-.033-.05-.232-.036-.219c-.024-.055-.048-.11-.07-.165l.016.027-.12-.21-.16-.309.025-.067.066-.177c-.03-.04-.06-.079-.087-.12l-.032-.047-.003-.018-.03-.24c-.002-.173.218-.164.242-.06l.05.204z" fill="#ABA000"/><path d="M28.788 130.965a3.074 3.074 0 106.091.829 3.074 3.074 0 00-6.091-.829z" fill="#31332A"/><path d="M30.863 129.313c-.064.473.48.938 1.215 1.038.736.1 1.384-.203 1.448-.676.065-.473-.48-.938-1.215-1.038-.735-.1-1.384.203-1.448.676z" fill="#636A78"/><path d="M45.786 129.25l.014.224.372.073-.004.255.413.07-.378.409.786-.066-.017.26-.077.279.175.187.273.157.06.229-.158.292-.394.345.232.173.466.125v.241l.114.214-.529.335.505.146-.383.291.61.149.063.23-.541.29.537.185-.344.256-.227.239.28.128a3.074 3.074 0 00-1.848-5.716z" fill="#31332A"/><path d="M47.137 129.899c-.144.17-.004.525.313.792.316.267.69.346.833.176.144-.17.003-.525-.313-.792s-.69-.346-.833-.176z" fill="#636A78"/><path d="M38.543 134.163c0 .029 0 .073.005.13.031.446.238 1.656 1.091 1.912.878.263 4.282-.68 4.912-1.154.06-.044.095-.085.1-.12.004-.032-.017-.079-.058-.139-.398-.577-2.725-2.31-3.496-2.878a.642.642 0 00-.59-.095c-1.24.41-1.824 1.763-1.941 2.22a.578.578 0 00-.023.124z" fill="#FC8B2D"/><path d="M38.542 134.163c0 .029 0 .074.006.13.493.121.992.209 1.49.292.507.08 1.017.148 1.527.208.509.061 1.02.113 1.53.159.485.042.97.081 1.455.099.06-.043.096-.085.1-.12.005-.032-.017-.079-.058-.139-.48-.103-.96-.187-1.442-.266a52.009 52.009 0 00-3.05-.401c-.51-.044-1.02-.081-1.535-.086a.578.578 0 00-.023.124zm2.894-1.446c-.054.107.045.278.223.384.177.105.365.105.42-.002.054-.106-.046-.278-.224-.384-.177-.105-.365-.104-.42.002z" fill="#D13301"/><path d="M28.968 165.693l2.113-1.66-5.098-6.197-.02-.027a.564.564 0 11.912-.663l4.694 6.461 5.237-5.025a.313.313 0 11.434.452l-3.883 3.726 5.622-2.973a.313.313 0 11.293.554l-6.133 3.242 5.227-.593a.313.313 0 11.071.622l-6.79.771-2.292 1.802a.312.312 0 11-.387-.492zm9.772-7.328c.09.115.257.135.371.045l1.941-1.526 5.748-.653a.265.265 0 00-.06-.526l-4.424.502 5.19-2.743c.015-.01.028-.018.04-.028a.264.264 0 00-.286-.442l-4.761 2.516 3.287-3.154a.265.265 0 10-.367-.383l-4.433 4.254-1.35-1.859.065.211-.242.067-.24.064-.49-.363 1.844 2.242-1.789 1.405a.264.264 0 00-.044.371z" fill="#FC8B2D"/></g><defs><clipPath id="clip0"><path fill="#fff" transform="scale(-1 1) rotate(-21.309 419.644 500.407)" d="M0 0h29.465v29.465H0z"/></clipPath><clipPath id="clip1"><path fill="#fff" transform="scale(1 -1) rotate(-30 -6.014 -258.515)" d="M0 0h43.465v43.465H0z"/></clipPath><clipPath id="clip2"><path fill="#fff" transform="scale(-1 1) rotate(86.273 -148.688 -17.512)" d="M0 0h23.062v23.062H0z"/></clipPath><clipPath id="clip3"><path fill="#fff" transform="scale(-1 1) rotate(45 -362.515 -107.754)" d="M0 0h23.062v23.062H0z"/></clipPath><clipPath id="clip4"><path fill="#fff" transform="scale(-1 1) rotate(38.15 -179.039 6.576)" d="M0 0h43.465v43.465H0z"/></clipPath></defs></svg>