<svg xmlns="http://www.w3.org/2000/svg" width="99" height="84" fill="none"><rect width="84" height="84" rx="42" fill="#fff"/><path d="M98.254 51.954L46.612 35.797a2.078 2.078 0 00-2.066.493L24.51 55.576c-.59.566-.358 1.572.415 1.813l51.206 15.959a3.056 3.056 0 003.034-.728L98.67 53.765c.587-.566.356-1.569-.416-1.811z" fill="#CCC"/><path d="M74.157 67.275L21.8 50.895c.057-.241.178-.464.36-.64L42.935 30.18a1.791 1.791 0 011.785-.426l51.274 16.041a3.503 3.503 0 011.776 1.256L77.728 66.42a3.587 3.587 0 01-3.57.855z" fill="#757575"/><path d="M74.158 67.275a3.587 3.587 0 003.57-.855l20.043-19.37c1.04 1.392 1.027 3.489-.378 4.845L78.22 70.425a2.773 2.773 0 01-2.762.659L25.29 55.324c-1.749-.55-3.08-2.006-3.496-3.825a1.307 1.307 0 01.006-.607l52.359 16.383z" fill="#4A4A4A"/><path d="M26.797 51.026l7.476 2.312L70.62 64.571l19.544-18.89-4.572-1.463-38.874-12.444-19.92 19.252z" fill="#4A4A4A"/><path d="M34.273 53.338l36.344 11.235 19.546-18.89-4.572-1.463c-8.077 3.511-28.06 10.816-51.318 9.118zM33.6 41.606l.02.006.398.105a.427.427 0 00.404-.11l2.88-2.804a.344.344 0 00.042-.053c.069-.123.016-.285-.12-.321l-.276-.073a.533.533 0 00-.51.141l-2.885 2.788c-.106.099-.077.273.048.321z" fill="#3D3D3D"/><path d="M33.6 41.606l.02.006.398.105a.427.427 0 00.404-.11l2.88-2.804a.35.35 0 00.042-.053.392.392 0 00-.052-.022l-.275-.073a.533.533 0 00-.51.142l-2.884 2.787a.057.057 0 00-.022.022z" fill="#4A4A4A"/><path d="M26.943 54.48l.066.285a.223.223 0 00.156.17l3.106.98.136.045 3.395 1.071a.23.23 0 00.228-.054.08.08 0 00.02-.025l.011-.016c.004-.006.01-.014.012-.022a.092.092 0 00.01-.02.14.14 0 00.01-.035.218.218 0 000-.107l-.07-.305a.231.231 0 00-.156-.172l-3.648-1.14-.136-.042-2.847-.89a.224.224 0 00-.178.019.237.237 0 00-.115.258z" fill="#A6A6A6"/><path d="M80.282 58.016a.688.688 0 00.358.26l2.119.665a.68.68 0 00.68-.16l4.849-4.663a.705.705 0 00.21-.4.73.73 0 00-.119-.527.664.664 0 00-.364-.265l-2.113-.661a.685.685 0 00-.678.161l-4.857 4.658a.7.7 0 00-.212.406.742.742 0 00.127.526z" fill="#3D3D3D"/><path d="M80.156 57.488l.004.008a.688.688 0 00.358.26l2.119.666a.68.68 0 00.68-.16l4.85-4.663a.705.705 0 00.21-.4v-.008a.664.664 0 00-.365-.265l-2.113-.661a.685.685 0 00-.678.161l-4.857 4.658a.706.706 0 00-.208.404z" fill="#A6A6A6"/><path d="M27.058 54.221a.224.224 0 01.178-.018l2.847.89.136.042 3.648 1.14a.23.23 0 01.157.172l.069.305a.244.244 0 01-.063.225l.265-.17v-.002a.232.232 0 00.108-.257l-.069-.305a.232.232 0 00-.156-.172l-3.727-1.164-.135-.043-2.77-.865a.228.228 0 00-.185.024v-.002l-.303.2z" fill="#7A7A7A"/><path d="M30.082 55.09l.188.825.137.043-.19-.825.231-.226-.134-.043-.232.227z" fill="#3D3D3D"/><path d="M94.094 52.113l.27 1.175 1.93-1.872-.265-1.16-.2.192-.65.624-1.085 1.041z" fill="#A6A6A6"/><path d="M94.094 52.113l.197.865 1.733-1.677-.195-.853-.651.624-1.084 1.041zm-49.764-6.22c-.116-1.984 5.984-3.97 13.624-4.433 7.64-.464 13.927.77 14.042 2.754.116 1.985-5.984 3.97-13.624 4.433-7.64.464-13.927-.769-14.042-2.754z" fill="#3D3D3D"/><path d="M48.943 10.35l.231-.03.071.294.33-.228.094.25.344-.238.097.237.043.333.248-.048.144.143.305-.145.243-.033.129.174-.105.578.425-.347.12.182.082.25.241-.024-.006.394.121.18.404-.3.231-.005-.055.475.192.063.364-.235-.044.459.344-.2.143.141.188.063.051.303.182.073v.398l.46-.418-.02.436.08.259.408-.34.16.114.172.087.149.133-.008.447.162.117.234-.03.162.115.17.099.394-.382-.07.62.386-.384.147.148.259-.115.059.36.026.456.298-.222.24-.077.255-.133-.044.691.24-.085.306-.297.024.548.22-.037.215-.034.127.263.257-.184.224-.073.192.028.124.297.149.217.235-.138.162.172.311-.497.12.358.226-.132.14.298.23-.172.194.236.125-.232.314.125.143-.131.083-.237.2-.042.168-.1-.046-.5.394.335.178-.075.117-.208.069-.322.18-.084.186-.075.388.457-.022-.617.245.101.293.263.071-.414.115-.31.226.067.237.125.12-.34.236.136.164-.19.21.037.19-.063.233.224.184-.107.224.249.172-.216.213.254.169-.418.21.376.185-.285.194-.308.198.23.184.349.188.062.225-.513.16.444.222-.264.157.34.253-.433.204-.012.146.315.251-.269.168.166.137.295.119.313.308-.418.115.317.245-.141.076.404.35-.433.21.004.07.374.295-.21.21.018-.041.582.255-.09.211.01.2.04-.002.423.297-.14.317-.152-.121.585.356-.204.002.357.113.176.172.087.417-.242-.117.48.155.116.443-.235.032.271.08.206-.084.382.585-.341-.269.56.362-.087-.093.36.568-.26-.283.518.416-.099-.244.455.485-.137.016.236.221.083-.03.265.335.01-.3.439.235.078.045.203.34.026-.205.343.366.025-.119.285.52-.039-.5.461.427.018-.283.338.307.083.398.056-.321.334.275.113.154.16-.277.295.35.103-.282.285.257.136-.242.26.222.15.461.109-.055.216.049.198.028.2-.487.27.378.15.138.189.09.196-.042.206-.056.206-.17.207-.128.198.207.198.13.204-.363.186.469.224-.665.154.63.252-.661.132.524.263-.174.178-.394.137.423.275-.478.109-.117.172.208.247-.137.17.237.264-.46.075.55.372-.145.166-.194.145.018.218.099.251-.08.186-.254.111-.438.024.064.241.241.33-.125.16-.035.205-.52-.054.257.364-.404-.006.325.422-.078.188-.506-.091.257.408-.358-.01-.273.043.198.39-.026.232-.336-.018-.305-.004.162.398-.312-.02.105.368-.51-.227.32.6-.596-.34-.045.23.128.436-.144.136-.412-.192.125.467-.119.173-.486-.333.01.344-.111.188-.455-.257.012.331-.155.124.15.394-.201.083-.202.083.062.325-.319-.03-.044.232-.118.16-.431-.16-.03.249.117.41-.329-.067-.053.235-.263-.004-.246.014.168.503-.447-.236-.213.042.041.366-.24.008-.015.303-.164.11-.21.04-.13.154-.12.175-.28-.072-.119.176-.18.076-.051.291-.277-.082-.139.147-.093.239-.17.095-.295-.144-.03.376-.195.05-.14.162-.228-.026-.34-.291.037.584-.217-.01-.133.202-.346-.364-.036.475-.192.047-.38-.522-.106.291-.228-.09-.154.155-.17.1-.178.086-.206-.03-.08.511-.191.059-.2.008-.289-.48-.134.346-.176.132-.228-.2-.235-.305-.155.303-.213-.2-.174.18-.192-.003-.162.461-.198-.016-.21-.307-.188.121-.194.065-.194.042-.192-.52-.2.565-.181-.45-.216.58-.192-.084-.192-.083-.152-.563-.247.626-.153-.426-.162-.275-.22.234-.21.103-.185-.06-.147-.308-.217.142-.143-.281-.269.382-.184-.067-.134-.293-.153-.184-.316.495-.091-.434-.22.083-.136-.235-.226.097-.275.245-.168-.117-.222.05-.041-.5-.186-.044-.237.09-.238.086-.134-.198-.048-.408-.176-.075-.318.27-.02-.448-.196-.03-.283.166-.23.036-.126-.192-.237.046-.153-.13.018-.468-.366.29-.016-.385-.112-.192-.301.144-.232.018-.02-.354-.375.257-.052-.293-.162-.11-.275.073-.12-.174-.007-.345-.205-.04-.404.244-.018-.317-.164-.105.01-.346-.236-.008-.21-.047-.332.111-.033-.275.1-.44-.316.08-.09-.193-.102-.18-.037-.255-.307.059-.313.056-.098-.184.099-.394-.355.091-.197-.077-.159-.12.182-.458-.057-.214-.55.259-.01-.261v-.265l.026-.287-.095-.174-.435.126-.014-.247-.287-.016-.23-.067.097-.331.115-.34-.241-.057-.362.03.067-.294-.344.006-.113-.162.028-.26-.339-.009.34-.465-.575.142.15-.332.004-.234.03-.247-.58.117-.008-.226.123-.297.073-.263-.128-.152.065-.254-.083-.174-.68.12.37-.399-.511.02-.072-.186.473-.424-.164-.142.064-.234-.323-.081.06-.232.047-.225-.404-.063-.063-.185.188-.27-.473-.056.322-.303-.464-.07.265-.28.176-.248-.453-.09.132-.232.164-.236-.148-.168-.334-.136.397-.27-.06-.186.025-.2-.216-.166-.502-.136.544-.26-.461-.154.035-.204.139-.209-.125-.191.125-.203.124-.2-.095-.196.26-.194-.418-.202.271-.19.087-.19-.21-.208.34-.17-.476-.239-.144-.216.645-.125-.3-.235-.116-.218.03-.198.299-.148-.386-.277.514-.095-.233-.254.249-.144.028-.194-.204-.258.487-.07-.337-.302.313-.11-.143-.254-.104-.247.516-.024-.313-.328.503-.014-.168-.279-.01-.218.287-.087-.083-.253.021-.208-.016-.23.46.012.124-.152-.038-.24-.16-.314.03-.212.083-.182.188-.119.39.012.09-.172.106-.164.02-.222.239-.07.182-.108-.168-.362.368.03-.04-.272-.19-.396.421.083.014-.24.376.06-.085-.328.25-.042.003-.257.305.014.148-.125-.32-.57.498.206.115-.16.245-.03.169-.297-.335-.25.09-.227-.44-.127.421-.267-.053-.192-.231-.196.126-.203.101-.192-.02-.202-.15-.406.431.428.06-.078z" fill="#FCEE21"/><path d="M49.803 13.21l.202-.111-.016.012.164-.13c.125-.07.194.1.143.158l-.153.144-.006.006-.008.004-.16.109-.043.121.06.213.02.076-.066.043-.159.1-.017.152-.003.013-.003.01-.056.171v.206l-.002.012-.04.192-.007.04-.032.024-.17.128-.127.323.002.176.028.188.089.206.034.08-.068.05-.132.1.085.138.047.077-.067.06-.132.12.059.137.03.071-.056.05-.154.144.01.121.113.182.041.067-.051.06-.125.148.044.14.069.194.004.008.002.01.035.194.004.018-.002.018-.027.195-.014.17.067.165.022.053-.03.046-.103.16.077.123.016.026v.03l-.002.16.125.14.034.038-.008.05-.03.187.04.151.1.16.024.038-.01.045-.035.168.1.123.005.006.003.006.107.17.006.008.004.01.07.182.011.03-.008.033-.033.151.15.08.034.015.014.035c.04.09.083.18.116.275.036.09.066.18.095.268l.093.158.024.038-.012.045-.041.154.182.028.037.006.026.03.124.15.038.044-.018.057-.069.216.115.063.016.008.011.014.13.142.142.129.033.03v.047l.002.16.168.022.042.006.026.034.118.154.018.024.004.03.02.18.138.057.022.01.016.018.107.121.184.04.021.005.018.012.154.115.022.016.012.025.073.16.145.066.043.02.014.047.063.208.111.121c.103.067.206.136.307.206l.176.071.174.081.184.053.012.004.01.006.148.082.184.01.034.003.026.02.154.125.018.014.01.023.06.129.179-.107.051-.03.052.03.168.095.022.012.014.02.12.182.115.069.176-.045.07-.018.04.059.092.127.15-.089.062-.036.055.044.16.128.119.062.168-.103.073-.046.058.064.166.188c.057.065-.054.225-.155.144l-.1-.1-.135.098-.057.042-.083-.036-.186-.083-.004-.002-.018-.012-.075-.053-.139.093-.13.087-.111-.14-.066-.084-.098.03-.072.022-.087-.046-.176-.095-.031-.018-.038-.049-.1-.135-.161.109-.226.154-.142-.265-.087-.164-.038-.028-.13-.002h-.054l-.069-.035-.133-.066-.172-.043-.011-.002-.034-.014-.174-.073-.178-.062-.026-.009-.038-.024a11 11 0 00-.324-.206l-.026-.016-.035-.037-.14-.143-.048-.049-.028-.084-.024-.07-.05-.02-.11-.046-.063-.127-.05-.1-.02-.013-.156-.03-.107-.02-.087-.096-.067-.075-.124-.048-.202-.08-.03-.231-.01-.077-.073-.008-.325-.039-.01-.348-.001-.068-.024-.02-.01-.009-.018-.018-.083-.087-.14-.072-.297-.154.089-.297-.443-.067.116-.453.024-.093-.01-.016-.022-.036-.015-.045-.046-.133a2.41 2.41 0 00-.047-.125c-.014-.037-.028-.075-.046-.112l-.097-.05-.287-.148.072-.325.021-.103-.008-.022-.07-.114-.115-.141-.133-.164.044-.2.011-.05-.014-.023-.037-.058-.016-.061-.05-.19-.023-.089.014-.085.002-.012-.018-.02-.109-.123.002-.16.002-.085-.047-.08-.135-.23.14-.212.028-.042-.031-.08.008-.09.02-.212.025-.154-.016-.097-.055-.166-.062-.208-.06-.214.124-.141-.028-.047-.004-.079-.01-.2-.01-.192.125-.107.018-.016-.081-.21.166-.142-.139-.242.236-.166.024-.016-.01-.029-.002-.026-.02-.21-.004-.035v-.006l.008-.206.002-.07.018-.039.164-.366.037-.08.05-.033.138-.091.02-.075.01-.168.004-.05.008-.02.071-.176.03-.166.02-.105.069-.038.105-.057-.022-.107-.012-.06.016-.04.08-.181.027-.057.053-.026zm12.933 16.454l.012.194.004.059-.046.034-.142.107-.016.152-.012.2v.008l-.002.006-.038.192-.001.012-.006.012-.081.176-.066.162-.006.18-.002.044-.031.03-.129.124.012.153.002.025-.008.022-.057.153.04.178.007.039-.018.034-.085.164-.028.162.012.188.002.034-.017.028-.087.146.025.161v.009l.014.196v.012l-.012.192-.002.022-.01.02-.059.116.047.038.131.026c.119.012.238.024.356.033l.178-.019.036-.004.03.02.126.083.113-.127.022-.026.031-.008.184-.043.056-.012.041.04.135.132.037.036-.006.053-.014.12v.007l-.001.008-.05.186-.038.19-.007.037-.028.024-.12.103.043.162.01.034-.012.032-.07.182-.007.023-.018.016-.127.121.002.16v.02l-.006.018-.057.16.024.186.002.018-.004.018-.04.192-.004.02-.012.019-.099.145-.01.17-.002.038-.025.029-.133.15-.06.157c-.02.123-.045.246-.068.37a8.18 8.18 0 01-.014.38l.01.111.097.018.182-.038.021-.004.022.006.194.046.018.004.016.01.126.083.135-.137.033-.035.048.002.196.013.02.002.017.008.188.087.15.012.16-.093.046-.026.048.022.148.066.127-.12.037-.037.052.01.198.036.152.008.14-.131.048-.044.06.022.177.066.066-.026.128-.052.014.14.014.128.006.049-.034.036-.134.144-.095.14-.02.161.041.2.008.043-.023.036-.006.008h.02l.017.008.143.059.16-.055.047-.016.042.028.16.105.155.02.178-.02.023-.002.022.008.156.055.15-.058.19-.065.016-.006h.016c.115 0 .23-.004.345-.006l.142-.11.042-.032.049.014.172.049.154-.043.014-.004h.016l.17.004.149-.07.164-.097.016-.008.017-.005.184-.036c.091.014.17.144.04.21l-.154.043-.153.103-.01.006-.17.093-.021.012-.04.002-.166.004c-.056.018-.11.039-.166.055l-.038.01-.045-.012-.12-.029-.106.087-.037.03-.062.005a9.773 9.773 0 01-.346.018l-.16.06a4.02 4.02 0 01-.18.075l-.064.026-.069-.022-.148-.05-.149.018-.021.002-.026-.004-.19-.022-.042-.006-.04-.027-.096-.062-.107.038-.07.024-.072-.03-.14-.057h-.153l-.392.002.218-.331.075-.111c-.004-.043-.01-.083-.012-.126l-.002-.058.052-.2.013-.057.012-.012.135-.154.012-.016c.021-.016.041-.034.061-.052l-.13-.043c-.04.04-.082.081-.12.123l-.029.033-.06.002-.203.004-.018-.002-.119-.014-.118.137-.066.077-.124-.042-.109-.037-.113.081-.037.026-.086.002-.201.002h-.022l-.057-.02-.149-.052h-.03a3.95 3.95 0 01-.116.137l-.148.162-.21-.122-.147-.084c-.027-.007-.055-.01-.083-.017l-.142.033-.056.012-.063-.012-.194-.035-.235-.046-.02-.237-.016-.198-.002-.028.002-.018.012-.194c.004-.065.004-.13.008-.194l.004-.045.002-.01c.032-.125.061-.253.089-.378l.008-.038.006-.014a2.68 2.68 0 01.083-.18l.032-.067.021-.02.11-.103.011-.087.012-.087.03-.039.11-.14.032-.108-.008-.162-.004-.063.014-.03.071-.162.01-.16.006-.086.047-.039.155-.125.047-.103-.04-.18-.017-.083.057-.046.149-.116.033-.151.052-.186.008-.057-.052-.048a.826.826 0 00-.075.026c-.02.028-.04.059-.057.089l-.07.113-.055.093-.16-.06-.117-.045-.156.049h-.048c-.063.006-.126.014-.19.014-.063 0-.126.004-.19 0l-.03-.004c-.053-.006-.106-.017-.16-.027l-.067-.012-.061-.048-.137-.11-.207-.165.122-.235.072-.137.008-.103-.01-.162-.028-.184-.018-.117.06-.1.063-.1-.004-.095-.002-.045.006-.028.037-.192.01-.055.02-.034.05-.09-.018-.098-.016-.097.028-.065.057-.135-.004-.131-.004-.14.087-.075.105-.09c.002-.027.004-.055.008-.081l.006-.06.012-.025.087-.182.089-.168c.012-.049.025-.1.04-.148l-.005.027.03-.205.038-.204.015-.089.052-.032.134-.085.004-.127.004-.049.008-.014.105-.178c.09-.117.228.004.19.09l-.087.163z" fill="#ABA000"/><path d="M66.38 23.373c-.867-1.15-.657-2.8.469-3.685a2.535 2.535 0 013.607.48c.866 1.15.656 2.8-.47 3.685a2.535 2.535 0 01-3.606-.48z" fill="#31332A"/><path d="M68.846 19.87c-.287.285-.168.884.263 1.34.431.455 1.015.595 1.302.312.287-.285.168-.883-.263-1.34-.432-.457-1.015-.595-1.302-.312z" fill="#636A78"/><path d="M78.698 27.71l-.107.157.208.246-.135.168.236.265-.461.075.552.37-.144.166-.194.145.017.218.1.249-.08.186-.255.113-.437.024.063.239.241.33-.124.161-.036.204-.52-.054.257.364-.401-.006.322.422-.077.188-.507-.091.258.408-.359-.01-.272.04.118.235a2.535 2.535 0 002.147-.715 2.668 2.668 0 00.057-3.716 2.796 2.796 0 00-.467-.382z" fill="#31332A"/><path d="M79.047 29.556c-.07-.347.021-.659.203-.697.182-.038.386.211.456.558.07.347-.02.659-.202.697-.182.038-.386-.211-.457-.558z" fill="#636A78"/><path d="M71.391 27.186a.804.804 0 00-.063.089c-.21.315-.7 1.239-.27 1.861.44.641 3.166 1.803 3.827 1.817.061.003.107-.008.129-.028.02-.02.03-.063.033-.123.036-.598-.599-2.992-.813-3.78a.55.55 0 00-.338-.376c-1.029-.378-2.11.222-2.425.467a.887.887 0 00-.08.073z" fill="#FC8B2D"/><path d="M71.392 27.186a.784.784 0 00-.063.089c.26.341.544.665.83.984.293.321.592.637.897.946a36.187 36.187 0 001.832 1.75c.06.003.106-.008.128-.028.02-.02.03-.063.034-.123a24.348 24.348 0 00-.811-.94 44.52 44.52 0 00-1.8-1.88c-.313-.3-.63-.594-.966-.87a.587.587 0 00-.081.072zm2.62.654c-.091.043-.113.21-.052.377.062.165.186.262.277.22.091-.043.113-.21.052-.376-.064-.164-.186-.263-.277-.22z" fill="#D13301"/><path d="M48.8 43.324h2.246l-.15-6.858v-.029a.475.475 0 01.489-.462c.26.01.463.234.453.499l-.252 6.822 6.042-.612a.264.264 0 01.287.24.266.266 0 01-.235.293l-4.481.455 5.235.97a.268.268 0 01.211.311.264.264 0 01-.257.22.36.36 0 01-.047-.003l-5.71-1.06 3.745 2.362a.27.27 0 01.085.367.257.257 0 01-.36.087l-4.865-3.066-2.439.002a.264.264 0 01-.261-.267.268.268 0 01.263-.27zm10.215.235c0 .125.1.226.222.226l2.065-.002 4.12 2.598a.218.218 0 00.304-.075.228.228 0 00-.073-.311l-3.172-2 4.833.896a.276.276 0 00.04.002.22.22 0 00.218-.186.225.225 0 00-.178-.263l-4.434-.823 3.793-.384a.229.229 0 00.2-.248.227.227 0 00-.244-.204l-5.114.519.073-1.963-.065.178-.194-.083-.192-.083-.134-.503.053 2.48h-1.901a.226.226 0 00-.22.229z" fill="#FC8B2D"/></svg>