<svg xmlns="http://www.w3.org/2000/svg" width="101" height="101" fill="none"><path fill-rule="evenodd" clip-rule="evenodd" d="M60.027 80.904l.748 1.937.624-.244 1.257 3.254 3.802-1.49-.514-1.498c-.191-.577-.295-1.039-.31-1.386-.017-.347.11-.576.378-.687l.178-.07-.748-1.936-1.176.46.356.92-3.064 1.2-.355-.92-1.176.46zm4.435 1.215c.052.296.154.664.306 1.104l.187.557-1.427.56-.864-2.239 1.84-.72c-.086.197-.1.444-.042.738zm-8.758 4.902c.385.167.789.22 1.21.163.624-.086 1.056-.364 1.296-.834l.114.565 1.256-.172-1.344-6.681-1.315.18.461 2.291c-.411-.35-.906-.485-1.485-.406a2.083 2.083 0 00-1.084.468 2.04 2.04 0 00-.64.997c-.12.41-.128.868-.027 1.373.102.505.289.933.562 1.283.273.356.605.614.996.773zm-.097-3.278c.164-.273.415-.432.752-.479.338-.046.64.038.909.251.263.22.437.537.52.951.083.414.043.757-.122 1.03a.999.999 0 01-.76.488 1.113 1.113 0 01-.9-.26c-.269-.214-.444-.528-.528-.942-.083-.413-.04-.76.129-1.04z" fill="#000"/><path d="M47.487 87.602l2.343-5.232c.238-.568.529-.965.871-1.19.336-.224.74-.329 1.214-.314.257.008.512.056.762.144.25.089.454.207.61.354l-.545 1.014a1.268 1.268 0 00-.373-.244 1.223 1.223 0 00-.431-.097.735.735 0 00-.482.134c-.125.089-.238.243-.341.463l-.02.046 2.048 5.099-1.483-.046-1.324-3.433-1.467 3.345-1.382-.043zm-6.004-2.322l2.477.57.595-3.797 1.391.32-.781 4.982-3.868-.89.186-1.185z" fill="#000"/><path fill-rule="evenodd" clip-rule="evenodd" d="M36.744 84.136c.244.463.7.825 1.366 1.086.347.135.701.222 1.064.259.357.036.682.016.974-.06l-.14-1.056a1.782 1.782 0 01-.662.072 2.267 2.267 0 01-.719-.152c-.33-.13-.552-.302-.664-.517-.115-.21-.124-.453-.028-.728l.991.388c.63.246 1.136.313 1.52.2.38-.116.64-.375.781-.78a1.33 1.33 0 00.045-.753 1.46 1.46 0 00-.389-.685 2.263 2.263 0 00-.804-.507c-.64-.25-1.148-.22-1.523.093l.189-.542-1.168-.456-.865 2.481c-.225.647-.215 1.2.032 1.657zm2.109-2.583a1.17 1.17 0 01.618.076c.219.086.376.2.472.341a.515.515 0 01.049.46c-.118.34-.434.409-.945.209l-.856-.335.155-.444a.843.843 0 01.507-.307z" fill="#000"/><path d="M34.102 84.013l-1.245-.75 1.023-1.688L32 80.442l-1.023 1.687-1.253-.756 2.62-4.321 1.254.755-.98 1.615 1.88 1.133.98-1.614 1.245.75-2.621 4.322z" fill="#000"/><path fill-rule="evenodd" clip-rule="evenodd" d="M25.28 69.428l-1.633 1.43.444.482-2.744 2.403 2.705 2.93 1.285-1.047c.496-.397.91-.67 1.242-.817.332-.147.596-.12.793.085l.127.138 1.632-1.43-.836-.906-.776.68-2.18-2.362.777-.68-.836-.906zm.289 4.549c-.27.161-.594.396-.972.704l-.479.386-1.014-1.1 1.887-1.653 1.309 1.418c-.221-.003-.465.08-.731.245zm-7.992-5.991c-.014.398.085.776.298 1.134.314.53.74.825 1.277.886l-.496.286.632 1.067 5.856-3.38-.662-1.115-2.008 1.158c.18-.482.124-.968-.168-1.46a2.126 2.126 0 00-.85-.815 2.26 2.26 0 00-1.187-.246c-.435.026-.874.168-1.316.423-.443.255-.78.562-1.012.92-.237.36-.358.741-.364 1.142zm3.084-1.156c.321.058.566.23.736.517.17.286.203.584.1.893-.111.307-.348.566-.71.775-.363.21-.705.285-1.026.227a1.05 1.05 0 01-.748-.52 1 1 0 01-.088-.89c.103-.309.336-.568.698-.777.363-.21.709-.285 1.038-.225z" fill="#000"/><path d="M14.3 60.432l5.63.173c.606.004 1.07.116 1.39.333.319.212.549.525.689.94.076.227.113.465.113.714 0 .248-.044.467-.13.656l-1.121-.113c.06-.13.095-.267.105-.41a1.084 1.084 0 00-.05-.41.64.64 0 00-.28-.37c-.124-.077-.305-.12-.543-.131h-.049l-4.078 3.59-.44-1.303 2.763-2.37-3.589-.084-.41-1.215zm.086-5.281l.392 2.387 3.6-.635.22 1.34-4.724.834-.612-3.727 1.124-.199z" fill="#000"/><path fill-rule="evenodd" clip-rule="evenodd" d="M14.251 49.355c-.371.4-.565.967-.58 1.699-.01.38.034.751.129 1.112.094.355.233.66.415.913l.999-.514a1.781 1.781 0 01-.313-.608 2.23 2.23 0 01-.11-.743c.007-.364.098-.638.271-.823.168-.185.405-.281.714-.288l-.024 1.09c-.015.69.103 1.2.356 1.528.253.322.606.478 1.06.468a1.449 1.449 0 001.305-.845 2.26 2.26 0 00.212-.953c.015-.703-.201-1.178-.649-1.426l.608-.013.028-1.283-2.785.062c-.725.016-1.27.224-1.636.624zm3.34 1.094c.104.18.154.386.15.62-.006.24-.062.432-.168.575a.557.557 0 01-.44.211c-.38.009-.565-.268-.552-.83l.02-.94.5-.011a.88.88 0 01.49.375z" fill="#000"/><path d="M13.044 46.434l.271-1.401 1.9.365.41-2.116-1.9-.365.273-1.41 4.868.934-.273 1.41-1.82-.348-.408 2.115 1.818.35-.271 1.401-4.868-.935z" fill="#000"/><path fill-rule="evenodd" clip-rule="evenodd" d="M24.353 33.385l-2.048-.996-.359.64-3.44-1.675-2.18 3.898 1.528.817c.584.32 1.008.61 1.274.873.265.264.323.535.174.815l-.102.183 2.048.996.674-1.205-.974-.474 1.757-3.14.974.473.674-1.205zm-4.687 2.213a8.192 8.192 0 00-1.064-.655l-.565-.307.818-1.463 2.366 1.152-1.055 1.886c-.07-.217-.237-.422-.5-.613zm2.911-9.669a2.235 2.235 0 00-1.001.757c-.408.53-.55 1.08-.426 1.647l-.447-.386-.821 1.069 5.278 4.56.86-1.12-1.81-1.563c.528-.012.982-.264 1.36-.756a2.485 2.485 0 00.34-2.487 3.058 3.058 0 00-.86-1.16c-.4-.345-.813-.563-1.24-.653a2.073 2.073 0 00-1.233.092zm2.173 2.652c.053.348-.03.665-.251.952-.22.287-.499.44-.834.46-.337.012-.668-.124-.995-.406-.327-.282-.517-.597-.57-.945-.054-.357.03-.679.25-.965.22-.287.498-.436.835-.448.336-.02.667.11.994.393.327.283.517.602.571.959z" fill="#000"/><path d="M28.512 19.521l1.843 5.656c.21.604.276 1.104.195 1.5a1.806 1.806 0 01-.6 1.018 1.987 1.987 0 01-.599.366 1.378 1.378 0 01-.634.104l-.297-1.154c.138.014.274 0 .405-.04a.968.968 0 00.35-.196.662.662 0 00.232-.411c.025-.15 0-.345-.075-.585l-.017-.049-4.666-2.775 1.013-.9 3.105 1.901-1.199-3.596.944-.838zm5.862-1.711l-2.179 1.27 1.847 3.147-1.224.713-2.423-4.129 3.403-1.982.576.982z" fill="#000"/><path fill-rule="evenodd" clip-rule="evenodd" d="M39.123 14.937c-.514-.176-1.138-.121-1.873.162a4.915 4.915 0 00-1.07.572 3.398 3.398 0 00-.782.75l.819.702c.125-.192.295-.37.51-.533.22-.172.455-.307.708-.404.364-.141.666-.17.904-.088.236.077.405.255.506.533l-1.094.422c-.694.268-1.165.584-1.415.948a1.217 1.217 0 00-.142 1.157c.094.256.248.458.463.605.215.148.475.228.782.24.312.01.65-.055 1.015-.196.706-.272 1.113-.663 1.223-1.172l.2.548 1.288-.497-.917-2.512c-.239-.655-.614-1.067-1.125-1.237zm-.066 3.49a1.42 1.42 0 01-.572.388c-.242.093-.45.12-.624.082a.48.48 0 01-.347-.314c-.125-.344.094-.625.66-.843l.943-.364.164.45a.945.945 0 01-.224.6zm6.313-4.925c-.477-.314-1.088-.412-1.835-.292a4.026 4.026 0 00-1.105.343 2.848 2.848 0 00-.849.605l.711.952c.144-.173.33-.32.558-.441.233-.129.478-.214.735-.255.37-.06.666-.015.887.132.22.14.362.372.427.693l-1.11.178c-.706.113-1.2.333-1.486.659-.28.325-.371.724-.275 1.197.06.297.185.55.376.76.19.211.434.361.73.45.301.09.637.104 1.007.044.717-.114 1.159-.43 1.326-.945l.128.634 1.308-.21-.589-2.905c-.153-.758-.468-1.29-.944-1.599zm-.48 3.703a1.165 1.165 0 01-.6.273c-.246.039-.45.016-.616-.068a.599.599 0 01-.298-.421c-.08-.398.166-.643.74-.735l.958-.153.105.52a.936.936 0 01-.288.584zm7.066-4.298c-.4-.372-.967-.566-1.699-.582a4.01 4.01 0 00-1.112.13 2.774 2.774 0 00-.912.415l.513 1c.167-.136.37-.24.608-.313.244-.08.492-.117.744-.11.363.007.637.098.822.271.185.167.282.405.288.713l-1.089-.024c-.69-.015-1.2.104-1.528.357-.323.253-.479.606-.469 1.06a1.45 1.45 0 00.846 1.305c.272.133.59.203.953.211.702.016 1.177-.2 1.425-.648l.014.607 1.282.029-.062-2.785c-.016-.725-.224-1.271-.624-1.636zm-1.094 3.339a1.153 1.153 0 01-.62.15c-.24-.006-.431-.061-.574-.167a.557.557 0 01-.212-.44c-.008-.381.268-.565.83-.553l.94.02.012.5a.879.879 0 01-.376.49z" fill="#000"/><path d="M54.44 13.045l1.401.271-.365 1.9 2.116.41.365-1.9 1.41.273-.934 4.867-1.41-.273.348-1.818-2.115-.41-.35 1.819-1.4-.272.934-4.867z" fill="#000"/><path fill-rule="evenodd" clip-rule="evenodd" d="M67.49 24.353l.996-2.048-.64-.358 1.674-3.442-3.897-2.18-.818 1.53c-.319.582-.61 1.007-.873 1.273-.263.265-.535.323-.814.174l-.183-.102-.996 2.048 1.205.674.473-.974 3.142 1.757-.474.974 1.205.674zm-2.213-4.687c.197-.26.415-.615.655-1.064l.306-.565 1.463.818-1.151 2.367-1.887-1.055c.218-.07.422-.238.614-.5zm9.669 2.911a2.235 2.235 0 00-.757-1.002c-.53-.407-1.08-.55-1.648-.425l.387-.448-1.069-.82-4.56 5.278 1.12.86 1.563-1.81c.012.528.264.982.756 1.36a2.485 2.485 0 002.487.339 3.055 3.055 0 001.16-.86c.345-.4.562-.812.653-1.238a2.073 2.073 0 00-.092-1.234zm-2.652 2.173a1.208 1.208 0 01-.952-.251c-.287-.22-.44-.499-.46-.834-.012-.337.123-.668.406-.995.282-.327.597-.517.945-.57.357-.054.678.03.965.25.287.22.436.498.448.835.02.336-.111.667-.394.994-.282.327-.601.517-.958.57z" fill="#000"/><path d="M80.899 27.621l-5.655 1.843c-.605.211-1.105.276-1.5.195a1.805 1.805 0 01-1.019-.6 1.989 1.989 0 01-.366-.599 1.38 1.38 0 01-.104-.634l1.154-.297a.982.982 0 00.236.755.66.66 0 00.411.232c.15.025.345 0 .585-.074l.05-.017 2.775-4.666.9 1.012-1.902 3.106 3.596-1.2.839.944zm1.711 5.862l-1.27-2.179-3.146 1.847-.713-1.224 4.128-2.423 1.983 3.403-.982.576z" fill="#000"/><path fill-rule="evenodd" clip-rule="evenodd" d="M85.484 38.232c.176-.513.121-1.138-.162-1.873a4.917 4.917 0 00-.572-1.07 3.402 3.402 0 00-.75-.782l-.702.82c.192.124.37.294.533.51.172.218.306.454.404.707.14.365.17.666.088.904-.077.236-.255.405-.533.506l-.422-1.093c-.268-.694-.584-1.166-.948-1.415a1.218 1.218 0 00-1.157-.142 1.222 1.222 0 00-.606.462 1.457 1.457 0 00-.24.782c-.01.312.056.65.196 1.015.273.706.663 1.114 1.173 1.223l-.549.2.498 1.288 2.512-.916c.655-.24 1.067-.615 1.237-1.126zm-3.49-.066a1.419 1.419 0 01-.388-.572c-.093-.241-.12-.45-.082-.624a.48.48 0 01.314-.346c.344-.126.625.094.843.658l.364.944-.45.164a.943.943 0 01-.6-.224zm4.924 6.314c.315-.477.412-1.089.293-1.836a4.025 4.025 0 00-.343-1.105 2.847 2.847 0 00-.605-.849l-.952.711c.173.144.32.33.441.558.129.233.214.478.255.735.06.37.015.666-.132.887-.14.22-.372.362-.694.428l-.178-1.112c-.112-.704-.332-1.2-.658-1.485-.325-.28-.724-.37-1.197-.275-.297.06-.55.185-.76.376-.211.19-.361.434-.45.73a2.274 2.274 0 00-.045 1.008c.115.716.43 1.158.946 1.325l-.635.129.21 1.308 2.906-.59c.757-.153 1.29-.468 1.598-.943zM83.216 44a1.163 1.163 0 01-.273-.601c-.039-.245-.016-.45.068-.615a.598.598 0 01.421-.299c.398-.08.643.166.734.74l.154.958-.52.106a.935.935 0 01-.584-.289zm4.298 7.065c.371-.4.565-.966.58-1.698a4.001 4.001 0 00-.129-1.112 2.786 2.786 0 00-.415-.913l-1 .514c.136.166.24.369.314.607.08.245.116.492.11.744-.008.363-.098.638-.272.823-.167.185-.405.28-.713.288l.024-1.09c.015-.69-.104-1.2-.356-1.528-.253-.322-.606-.478-1.06-.469-.284.007-.54.083-.766.228a1.516 1.516 0 00-.54.618c-.133.272-.203.59-.211.953-.015.703.2 1.178.649 1.425l-.608.014-.028 1.282 2.784-.061c.726-.016 1.271-.224 1.637-.625zm-3.34-1.093a1.152 1.152 0 01-.15-.62c.006-.24.062-.432.168-.575a.557.557 0 01.44-.212c.38-.008.565.269.552.831l-.02.94-.5.01a.878.878 0 01-.49-.374z" fill="#000"/><path d="M87.83 54.44l-.272 1.402-1.9-.365-.41 2.116 1.9.364-.273 1.411-4.867-.935.273-1.41 1.819.35.41-2.116-1.82-.35.272-1.401 4.868.935z" fill="#000"/></svg>