<svg xmlns="http://www.w3.org/2000/svg" width="98" height="68" fill="none"><g clip-path="url(#clip0)"><path d="M87.432 40.008L63.034 53.105a2.266 2.266 0 01-3.068-.924L52.26 37.823a2.266 2.266 0 01.925-3.068l24.398-13.097a2.266 2.266 0 013.068.925l7.707 14.357a2.265 2.265 0 01-.925 3.068z" fill="#8CBAFA"/><path d="M88.356 36.94l-.961-1.791c.527.981.06 2.257-1.042 2.849L61.954 51.095c-1.102.592-2.423.276-2.95-.706l.962 1.792a2.266 2.266 0 003.068.925l24.398-13.098a2.265 2.265 0 00.924-3.068z" fill="#5692D8"/><path d="M56.097 38.138a.615.615 0 01-.114-1.131l11.951-6.415a.615.615 0 11.582 1.084l-11.95 6.415a.614.614 0 01-.469.047zm2.038 3.798a.615.615 0 01-.113-1.131l11.95-6.415a.615.615 0 11.582 1.084l-11.95 6.415a.613.613 0 01-.469.047z" fill="#252D4C"/><path d="M75.988 25.84l-2.39 1.282a1.931 1.931 0 101.826 3.404l2.39-1.283a1.931 1.931 0 10-1.826-3.404z" fill="#FFCD34"/></g><g clip-path="url(#clip1)"><path d="M10.27 61.73c-.167-3.504 10.849-6.876 24.603-7.532 13.755-.655 25.04 1.654 25.206 5.158.166 3.505-10.85 6.877-24.604 7.532-13.754.655-25.04-1.654-25.205-5.158z" fill="#E3E3E3"/><path d="M0 24.707l.64.275.252.207.106.334.09.376.487-.057.281.154-.171.797.649-.375.159.36.668-.116.153.531-.247.323.05.312-.805.357 1.024.26-.025.315-.362.344.29.291-.237.341.474.266-.5.375.26.285-.575.403.675.22.358.256-.458.4.608.206-.08.335-.191.363.23.272.07.306.093.3-.459.448-.075.353.113.304.212.272.543.162.318.225.038.32-.537.528.284.235.215.256.387.185-.228.437.266.232.511.116-.552.606.733-.003-.564.638.405.15.453.116-.228.488.73-.056-.477.647.53.05.194.253-.119.454.562.006-.478.716.759-.147-.169.516.194.257.384.106.611-.09-.596.9.415.072.818-.294-.19.591.48-.012.119.316-.09.531.708-.266-.072.523.334.106.087.37.094.374.362.066.084.397.194.27.702-.373-.322.935.73-.44.438-.067.2.254.283.137-.14.773.537-.24.362.008.084.46.118.416.618-.434.085.484.018.623.612-.466-.019.719.606-.494.093.522.287.131.534-.406.203.31.2.328.461-.291.2.34.35-.037-.053 1.036.3.122.558-.626.037.882.64-.935.294.097.218.36.321.018.222.379.203.478.268.244.528-.813.25.31.265.265.212.55.493-.834.147.92.396-.389.268.326.319.047.38-.413.266.41.365-.47.343-.218.26.516.27.484.338-.197.343-.322.3.26.355-.654.31.081.299.354.306.297.312.278.327-.938.313.172.32.726.32-.05.314-.147.3-.523.34.56.325.088.293-.429.284-.428.334.24.325.082.327.11.266-.464.39.61.355.27.253-.517.29-.197.278-.269.387.397.31-.078.386.335.181-.748.281-.197.403.379.337.05.234-.407.309-.065.396.265.134-.731.428.375.246-.294.175-.516.353.084.462.41.084-.757.515.544.324-.03.219-.336.362.066.218-.313.134-.519.256-.197.537.479.05-.682.287-.122.524.4.381.063.153-.338.019-.044.165-.378.266-.17.58.48.06.259.009.006.256-.056.262-.056.143.237.05.085.144-.025.14-.025.128.078c.169.103.343.203.515.3l.272.103.134.05.075.132.106.19.159.054.093.031.072.075.144.147.084.016.334-.12.306-.112.184.279.203.303.037.056.019.072.069.26.043.015.278.032.075.006.075.038.103.05.265-.113.574-.24.032.628.006.162.159-.11.337-.23.265.322.113.134.162.028.212.038.11.187c.046.082.096.163.146.247l.094-.056.443-.272.225.479.1.212.087-.06.262-.18.275.178.268.172.153.1.01.034.374-.231.246.484c.1.191.194.388.29.582l.232.107h.003l.046-.063-.159-.231.122-.235-.003-.003-.244-.188.047-.306.013-.088-.09-.103-.048-.06-.03-.071-.135-.3-.022-.044-.01-.05-.071-.31-.025-.116.025-.119.053-.231-.031-.216-.044-.29.181-.15-.2-.242-.318-.378.281-.263-.415-.337.5-.41.28-.228.056-.138.047-.172.094-.344.346-.04.178-.023.025-.003.019-.003.321-.01.156-.006.128.075.278.17.01.006.108-.104.575-.528.256.732.046.128.05-.04.603-.498.193.691.393-.212.175.587.006.026.138-.126.3-.269.318.235.159.116.171.01.085.002.075.032.293.118.147.107.08.153.132.25.097.022.05.012.04.016.215.094h.01l.246-.3.153-.188.234.016.312.022.138.009.106.078.1.075.093-.031.26-.09.199.184.175.162.14-.137.225-.225.284.134.315.15.025.013.022.015.23.147.11-.15.144-.2.24.013.3.015.293-.012.097-.003.084.034.3.119.05-.122.171-.425.275.128-.016-.1-.012-.066h-.016l-.359.019-.078-.35-.05-.235-.112-.066-.016-.01-.012-.008-.153-.113-.244-.019-.252-.015-.103-.232-.06-.128-.124-.025-.044-.01-.04-.015-.294-.125-.197-.082-.05-.203-.084-.328-.131.025-.334.062-.131-.303-.162.044-.344.09-.15-.322-.146-.316-.016-.037-.009-.038-.056-.212-.128-.088-.184-.125-.003-.222v-.025H61.8l-.03-.32-.135.026-.555.094.065-.56.019-.169-.028-.016-.362-.144-.522-.203.337-.447.085-.116-.09-.044-.06-.15-.137-.344-.09-.222.143-.19.159-.21.025-.25.022-.232.209-.106.324-.166.038-.015.037-.013.128-.037.022-.082.031-.39.025-.279.265-.09.331-.11.028-.01.032-.006.255-.044.166-.128.044-.037.056-.022.09-.038.038-.181.025-.116.078-.087.215-.238.047-.056.065-.035.281-.15.11-.06.124.01.275.022c.078-.078.115-.116.194-.19l-.016-.264-.038-.61.584.173.006.003.028-.388.447.056.259.032-.028-.132-.02-.084-.246-.363-.203-.3-.08-.038-.197.019-.094.01-.09-.032-.132-.047-.137.063-.318.219-.328.228-.25-.313-.177-.219-.013-.006-.222.1-.374.169-.184-.363-.131-.256-.025-.01-.312.032-.212.021-.147-.156-.275-.3-.324-.347.38-.288.356-.266.007-.081.003-.04.009-.038.012-.05-.277-.288-.29-.3.29-.3.087-.091-.034-.147-.088-.382.375-.122.14-.044-.003-.006-.05-.344.325-.119.15-.056v-.003l-.078-.344-.013-.056.003-.06.016-.347.006-.113.06-.093.171-.276.047-.078.078-.05.13-.087.007-.132.006-.153.103-.116.044-.047-.144-.047-.171-.059-.125.075-.23.144-.213-.153-.094-.066-.028.031-.28.297-.285-.284-.162-.163-.016.013-.04.028-.038.015-.237.094-.224.207-.029.028-.028.015-.296.182-.197.125-.19-.116-.194-.119-.059.025-.228.241-.184.197-.237-.112-.134-.066-.113.094-.206.172-.215-.144-.175-.116-.118.063-.197.103-.037-.028-.003-.103.412-.232-.278-.388.044-.112.074-.188-.065-.335.402-.25-.065-.334-.028-.326.193-.294.063-.312-.331-.36.265-.29-.468-.364.194-.297.78-.266-.771-.362.265-.304.306-.306-.212-.325.452-.313-.605-.322-.25-.313.674-.328-.047-.32-.218-.31.4-.34-.444-.294.134-.328.135-.332-.624-.266.034-.319-.396-.356.814-.254-.09-.337-.41-.376.94-.2-.065-.335-.678-.378.687-.269.012-.322-.649-.338-.215-.31 1.073-.322-1.057-.29.842-.348-.543-.287.378-.347-.64-.254.35-.353.402-.375-.234-.291-.674-.207.262-.366.421-.412-.764-.154.683-.494-.128-.303-.855-.09.468-.47-.714-.103.655-.554-.197-.272-.043-.328-.656-.082-.35-.19.472-.544.162-.426-.124-.3-.4-.163-.271-.225.053-.394-.025-.356-1.055.234.44-.625-.574-.02-.04-.346-.519-.032-.066-.331.422-.688-.796.19.29-.619-.01-.403-.898.325.602-.926-1.008.46.58-.954-.792.3.197-.634-.381-.075-.465.025-.081-.376-.044-.428-.171-.294-.188-.278-.327-.116-.375-.047-.605.275.246-.872-.265-.191-.284-.163-.187-.31-.653.426-.424.094-.025-.576-.45.15-.005-.65-.515.3-.029-.657-.358.003-.44.2-.022-.75-.515.403-.447.27-.065-.71-.509.484.04-1.107-.548.657-.19-.46-.447.407-.162-.626-.422.372-.284-.172-.358.188-.163-.844-.393.381-.272-.334-.346.168L42.043.4l-.393.726-.25-.798-.36.6L40.76 0l-.35.96-.305-.513-.312.523-.337-.945-.275 1.073-.343-.526-.328-.134-.35-.266-.234.782-.306.056-.42-.678-.197.763-.297.11-.334-.067-.412-.397-.168.65-.537-.79-.184.54-.178.504-.484-.475-.274.19-.253.241-.187.4-.625-.7-.259.228-.096.585-.51-.338-.246.241.097.9-.55-.362-.118.444-.493-.219.128.832-.5-.21-.492-.168-.381.015.025.598-.534-.182-.215.254.206.782-.568-.197.053.553-.696-.306.337.84-.287.151-.615-.172-.487-.025.131.572.116.535-.674-.172.29.663-.534-.031.053.447-.543-.016-.084.338-.524.025-.147.294-.28.207.028.403-.425.125.253.522-.412.138-.337.19.224.482.397.551-.637.047-.396.178.736.663-.97-.053-.125.3-.11.31.291.444.106.369-.115.294-.837.09.63.507-.077.307-.178.284.178.363-.01.32-.502.228.128.406-.493-.034-.066.463-.502-.17-.106.413-.55-.256.219.923h-.38l-.11.431-.425-.069-.483-.184-.253.194-.169.344-.08.51-.447-.147-.206.294-.206.3-.659-.585-.009.694-.175.376-.745-.826-.138.45-.184.366-.084.6-.556-.478-.48-.334-.163.434-.337.006.003.883-.633-.773-.01.888-.308.09-.319.063-.234.31-.318.06-.502-.51-.325.025-.3.106-.309.063-.075.86-.39-.191-.48-.513-.04 1.01-.46-.447-.293.134-.406-.278-.287.15-.324.013-.163.625-.477-.563-.147.691-.29.16-.484-.597-.256.278-.115.81-.343-.056-.45-.448-.246.31-.381-.184-.346-.06-.085.888-.546-.77-.346-.043-.24.325-.181.523-.331.006-.225.347-.434-.322-.384-.15-.118.675-.39-.172-.116.645-.421-.244-.228.306.022.16-.996.034z" fill="#FCEE21"/><path d="M44.577 30.953l-.04-.01-.031-.025-.24-.2-.27-.078-.018-.006-.01-.007-.461-.228-.393.413-.09.094-.107-.072-.234-.16-.268-.025-.103-.01-.025-.096-.116-.41-.215.135-.047.028-.05-.01-.271-.047-.303.097-.122.041-.04-.119-.15-.46-.222.129-.043.025-.047-.013-.24-.072-.3.241-.084.069-.069-.081-.272-.316-.246-.241-.231.06-.3.43-.084.12-.072-.125-.305-.526c-.022-.04-.01-.094.03-.116a.082.082 0 01.116.029l.24.394.234-.354.022-.028.038-.01.312-.087.056-.015.044.04.293.275.003.003.003.004.21.231.259-.219.043-.037.06.015.25.07.305-.185.128-.079.05.144.168.476.213-.075.03-.01.032.006.253.041.328-.216.156-.1.056.182.146.488.21.012.037.003.034.022.16.103.377-.416.081-.084.11.05.558.266.29.078.031.01.029.021.237.188.243.05.31-.034.105-.013.063.094.218.325.215.128.256.013.319-.05.078-.013.065.047.237.169.266.01.037.002.038.016.209.09.265-.137.084-.044.09.038.306.119.01.003.012.006.147.078.256-.29.066-.079.109.003.315.01h.028l.031.01.306.093.04.013.038.028.231.187.237.004h.075l.066.046.171.132.178-.1.318-.254.225-.181.15.253.112.197.097-.11.197-.224.2.231.1.119.124-.147.222-.26.206.279.118.16.094-.091.13-.129.176.072.284.113.18.028.225-.138.131-.078.144.066.184.084c.166-.09.328-.178.496-.26l.25-.121.147.238.184.293c.118-.068.237-.137.352-.21l.175-.105.172.125.225.16.19-.032.028-.006.037.003.26.01.237-.076.284-.128.293-.15.184-.094.172.125.165.119.081-.044-.043.113.277.388-.412.23.004.104-.135-.103-.18-.135-.12.057-.318.137-.021.01-.016.006-.312.09-.06.016-.052-.003-.29-.019-.282.041-.134.019-.103-.075-.168-.125c-.147.084-.294.169-.443.25l-.269.147-.15-.257-.193-.322c-.125.063-.247.12-.368.185l-.135.072-.13-.066-.182-.087-.177.103-.094.056-.1-.019-.315-.056L53 32.16l-.025-.01-.146-.062-.188.178-.234.225-.184-.26-.106-.15-.103.116-.209.235-.197-.238-.109-.131-.134.147-.243.266-.172-.31-.144-.26-.102.079-.02.012-.015.01-.334.18-.143.079-.122-.097-.237-.188-.237-.006-.085-.003-.059-.053-.259-.22-.234-.077-.181-.01-.306.335-.119.128-.146-.084-.29-.163-.203-.084-.265.131-.091.044-.09-.04-.266-.126-.284-.015-.062-.007-.047-.034-.218-.166-.253.038-.022.003-.019-.003-.324-.025-.047-.004-.038-.021-.287-.179-.037-.025-.022-.031-.178-.275-.225.018-.028.004-.025-.007-.309-.072zM33.975 41.101l.04-.125.148-.46a.083.083 0 01.103-.056c.046.013.074.06.062.107l-.09.334.464-.025.169-.01-.066.163-.152.391.346-.009.06-.003.043.047.203.216.259.172.006.003.01.01.22.2.266.165.025.016.022.028.181.26.01.012.009.025.115.306.119.197.29.05.125.022.025.135c.037.194.065.388.093.582l.353-.12.197-.065.072.203.096.27.212.121.029.016.028.031.134.15.312-.025.287-.022-.034.298-.025.218.159-.056.162-.06.119.135.215.244.022.025.016.038.146.303.072.106.287-.072.137-.034.113.1.24.21.063.056.024.09.072.27.169.075.047.022.043.043.231.232.038.037.025.057.087.197.184.037.031.006.038.016.187.084.343-.093.362-.097.038.381.04.379.088.072.193.05.337-.038.125-.012.11.078.196.137.262.05.081.016.075.06.153.128.24.012.135.006.102.104.231.234.072.072.025.11.013.056-.58-.479-.266.17-.166.378-.018.044-.072-.007-.084-.075-.181-.156-.237-.053-.078-.016-.057-.044-.156-.115-.262.022-.065.006-.056-.016-.319-.094-.072-.022-.05-.04-.246-.207-.112-.093-.01-.135-.012-.15-.078.019-.113.028-.096-.047-.263-.125-.296-.066-.162-.037-.06-.147-.124-.307-.147-.156-.237-.113-.131-.062-.032-.135-.078-.328-.062-.06-.321.072-.19.04-.1-.156-.185-.284-.012-.022-.007-.016-.134-.303-.072-.084-.37.118-.394.129.06-.4.05-.339-.129.007-.118.003-.072-.084-.187-.223-.238-.15-.075-.047-.021-.075-.05-.156-.375.113-.237.072-.025-.238a26.493 26.493 0 00-.084-.695l-.231-.05-.084-.015-.038-.069-.162-.288-.01-.015-.003-.013-.103-.313-.143-.222-.237-.16-.013-.008-.01-.007-.218-.216-.252-.181-.016-.01-.01-.012-.168-.19-.468-.007-.194-.003.078-.172.185-.407-.425.004-.128-.004z" fill="#ABA000"/><path d="M33.34 17.319a4.228 4.228 0 010-5.97 4.207 4.207 0 015.958 0 4.228 4.228 0 010 5.97 4.206 4.206 0 01-5.958 0z" fill="#31332A"/><path d="M36.462 12.889c-1.017 0-1.84-.532-1.84-1.189 0-.656.824-1.188 1.84-1.188 1.017 0 1.842.532 1.842 1.188 0 .657-.825 1.189-1.842 1.189z" fill="#636A78"/><path d="M54.875 8.854l.06.304.517.03.04.348.575.019-.44.625 1.055-.234.025.356-.053.394.271.222.4.163.125.3-.163.425-.47.542.346.193.655.085.044.328.196.272-.655.554.711.103-.465.466.855.09.128.301-.683.494.765.153-.422.413-.265.366.406.122a4.215 4.215 0 001.626-3.33 4.218 4.218 0 00-4.213-4.223 4.118 4.118 0 00-.971.12z" fill="#31332A"/><path d="M56.83 9.486c-.163.26.093.716.57 1.02.481.306 1.002.344 1.165.084.162-.26-.094-.716-.572-1.02-.48-.303-1.001-.34-1.164-.084z" fill="#636A78"/><path d="M45.943 16.88c.004.04.013.1.032.175.124.6.627 2.21 1.835 2.401 1.242.198 5.689-1.716 6.457-2.48.071-.072.112-.134.112-.181 0-.044-.037-.103-.103-.178-.646-.71-4.129-2.64-5.28-3.269a.88.88 0 00-.818-.021c-1.607.788-2.153 2.736-2.228 3.38-.007.079-.01.138-.007.172z" fill="#FC8B2D"/><path d="M45.943 16.88c.004.04.013.1.032.175.692.075 1.388.1 2.078.122a68.148 68.148 0 004.22-.066 38.46 38.46 0 001.994-.134c.071-.072.112-.135.112-.182 0-.044-.037-.103-.103-.178a39.791 39.791 0 00-2.007-.094 78.781 78.781 0 00-2.11-.025c-.702 0-1.404.013-2.106.044-.699.034-1.401.078-2.1.166-.01.078-.013.137-.01.172zm3.667-2.29c-.053.156.112.369.375.482.259.11.515.075.568-.082.053-.156-.113-.369-.375-.481-.259-.11-.515-.072-.568.081z" fill="#D13301"/><path d="M18.227 58.477h3.674l-.247-10.996v-.047a.774.774 0 01.8-.744.774.774 0 01.742.8l-.412 10.937 9.877-.982a.43.43 0 01.468.385.43.43 0 01-.384.47l-7.324.728 8.557 1.557a.43.43 0 01-.075.854c-.025 0-.05-.003-.078-.006l-9.334-1.698 6.123 3.787a.428.428 0 01.14.591.426.426 0 01-.59.14l-7.951-4.916-3.989.004a.427.427 0 01-.427-.429.435.435 0 01.43-.434zm16.304-.897c0 .238.19.429.428.429l3.988-.003 7.952 4.916a.43.43 0 00.453-.732l-6.124-3.787 9.334 1.698c.026.006.05.006.079.006a.43.43 0 00.074-.853l-8.557-1.555 7.325-.729a.428.428 0 00.384-.469.43.43 0 00-.468-.384l-9.878.982.24-6.496-.415-.372-.352-.082-.175.516-.247.294-.08-.072.14 6.265h-3.673a.427.427 0 00-.428.428z" fill="#FC8B2D"/></g><defs><clipPath id="clip0"><path fill="#fff" transform="rotate(16.773 -21.83 200.573)" d="M0 0h42v42H0z"/></clipPath><clipPath id="clip1"><path fill="#fff" transform="matrix(-1 0 0 1 95 0)" d="M0 0h95v67H0z"/></clipPath></defs></svg>