<svg xmlns="http://www.w3.org/2000/svg" width="88" height="88" fill="none"><g clip-path="url(#clip0)"><path d="M73.43 64.961c-3.946 2.168-6.705 6.238-7.027 10.968a.869.869 0 00.865.93h4.733l9.119-3.046 2.663-3.9 2.29-4.137a.87.87 0 00-.396-1.208 13.471 13.471 0 00-5.502-1.273L73.43 64.96z" fill="#FED402"/><path d="M58.029 68.548h4.485l-10.015 8.895H19.088l-8.886-8.895h47.827z" fill="#E5E1E5"/><path d="M67.178 7.367l.851 3.466 8.128 37.49.455 6.397-3.184.962-2.586-6.207-8.378-38.642-.244-3.168 4.958-.298z" fill="#EFEDEF"/><path d="M5.617 74.507H.684a.686.686 0 01-.664-.853c1.444-5.938 6.804-10.362 13.18-10.362 6.68 0 12.242 4.852 13.36 11.215H5.617z" fill="#FEE97D"/><path d="M63.234 14.383l-.77-3.55-.244-3.168 4.958-.298.851 3.466.77 3.55h-5.565z" fill="#E5E1E5"/><path d="M72.579 10.833H60.895a1.226 1.226 0 01-1.226-1.226V7.962a3.386 3.386 0 012.84-3.342l9.668-1.579A2.491 2.491 0 0175.07 5.5v2.84a2.491 2.491 0 01-2.491 2.492z" fill="#FEE45A"/><path d="M65.806 8.657a4.86 4.86 0 004.86-4.86v-.473l-.002-.036 1.513-.247A2.491 2.491 0 0175.07 5.5v2.84a2.491 2.491 0 01-2.491 2.492H60.895a1.226 1.226 0 01-1.226-1.226v-.95h6.138z" fill="#FEDF30"/><path d="M50.435 74.507L71.999 57.77l3.223-2.63 2.061 7.138-3.855 2.684-12.658 9.545-9.659 6.69-3.99-5.077 3.314-1.613z" fill="#FEE97D"/><path d="M79.938 84.992a8.062 8.062 0 110-16.125 8.062 8.062 0 010 16.125z" fill="#736572"/><path d="M72.107 55.32l4.81-.904 1.75 1.92 3.98 18.357a1.992 1.992 0 01-1.525 2.369l-2.896.628a1.991 1.991 0 01-2.368-1.525l-3.982-18.37.23-2.474z" fill="#FEE45A"/><path d="M13.28 84.876a8.017 8.017 0 110-16.034 8.017 8.017 0 010 16.034z" fill="#736572"/><path d="M60.613 76.09l-4.934 4.934a1.847 1.847 0 01-1.307.54H18.81l-5.874-2.317a2.002 2.002 0 01-1.267-1.862v-.876c0-1.106.896-2.002 2.002-2.002h47.1l.002 1.196a.546.546 0 01-.16.387z" fill="#EFEDEF"/><path d="M46.155 79.414c2.014 0 3.946-.8 5.37-2.225l2.682-2.682h6.564l.002 1.196a.546.546 0 01-.16.387l-4.934 4.934a1.847 1.847 0 01-1.306.54H18.81l-5.452-2.15h32.797zm30.002-31.092l.455 6.398-3.184.962-2.586-6.207-.7-3.229 5.315-1.152.7 3.228z" fill="#E5E1E5"/><path d="M77.096 75.3a1.992 1.992 0 001.525-2.37l-3.924-18.097 2.22-.417 1.75 1.92 3.98 18.357a1.992 1.992 0 01-1.525 2.369l-2.896.628a1.991 1.991 0 01-2.368-1.525l-.124-.57 1.362-.296z" fill="#FEDF30"/><path d="M70.654 49.77a.507.507 0 00-.387.603l1.608 7.423.125-.027 6.666-1.433-1.612-7.435a.51.51 0 00-.604-.389l-5.796 1.257z" fill="#D7D0D6"/><path d="M74.64 54.574l-1.174-5.415 2.984-.647a.51.51 0 01.604.39l1.612 7.434-3.481.749-.545-2.511z" fill="#B8B2B8"/></g><g clip-path="url(#clip1)"><path d="M22.523 51.214l.125-.177.228.142.063-.374.212.1.065-.392.208.087.236.189.122-.203.18-.005.098-.303.13-.188.187.025.297.447.047-.514.188.034.207.108.134-.18.244.259.186.032.064-.47.138-.162.265.347.157-.09.078-.4.26.325.088-.364.178-.006.155-.087.222.16.16-.076.248.259.022-.586.26.298.213.11.04-.497.168-.037.163-.061.176-.015.274.295.174-.034.126-.179.172-.037.167-.053.004-.515.345.447v-.51l.183-.005.088-.253.261.193.303.28.047-.349.099-.212.075-.263.405.478.095-.217.005-.404.357.34.113-.175.111-.17.243.085.045-.296.092-.2.139-.111.262.106.227.04.06-.25h.208l-.12-.536.3.15.057-.24.274.098.034-.269.269.021-.07-.235.274-.134.006-.183-.096-.21.096-.164.043-.179-.342-.293.455-.053.061-.17-.057-.213-.156-.258.057-.179.068-.174.527.03-.4-.383.214-.103.347-.029-.215-.317-.123-.279.183-.11.224-.081-.137-.305.229-.072-.017-.234.154-.12.078-.172.285-.014.047-.195.294.01-.03-.26.293.02-.158-.387.366.1-.063-.31-.072-.333.265.015.334.1.155-.087-.182-.489.378.178-.029-.32.31.112-.114-.453.118-.148.287.105-.012-.346.208-.009.268.099.271.122-.07-.483.27.127.063-.258.298.211-.053-.522.133-.14.277.195.053-.338.14-.132.338.406.101-.232.137-.139.151-.11.262.275.097-.294.1-.314.291.46.094-.376.224.23.18.04.162-.064.105-.443.23.393.167-.032.128-.453.19.154.179.078.185.305.15-.622.183.548.17-.303.167.296.19-.557.15.53.194-.348.135.46.212-.418.16.142.188-.099.148.192.212-.22.09.488.194-.108.155.1.227-.216.087.362.241-.235.106.267.297-.38-.021.641.277-.282.036.413.24-.157.283-.233.01.435.241-.115.194-.001.016.38.28-.172.003.377.244-.087.013.333.232-.053.353-.247.102.18.154.094.143.111-.134.506.33-.16.203.028.178.068.102.162.094.171.024.248.045.218.253-.013.206.043-.108.37.43-.176-.314.554.548-.266-.328.536.49-.188.004.235-.158.358.434-.111-.23.397.037.192.281.018.023.203.312.01-.238.364.572-.137.015.207-.028.228.146.13.218.093.066.174-.087.247-.256.316.19.11.355.05.024.19.106.157-.356.32.387.062-.253.27.464.052.07.175-.37.287.415.089-.23.238-.14.213.365.12.128.168-.22.218-.188.206.348.146-.206.202.295.166-.458.203.574.169-.583.185.117.18.353.197-.006.185-.374.157.37.219.034.193-.51.116.22.217.05.195-.444.147.216.206-.019.185.34.153-.073.192-.072.192.24.17-.216.197.119.18.027.186-.367.19.137.182.328.185-.246.182.115.188-.166.18-.143.175.419.21-.425.154-.105.172.254.21-.143.169.18.208-.034.182-.105.17.015.189.038.195-.22.145.036.193-.064.174.151.226-.223.133.006.192.092.216-.047.18-.272.108.218.264-.09.164.013.203-.156.139-.393.044.388.352-.141.142.045.222-.443.002.276.332-.09.16-.561-.08.116.263-.199.097.002.206-.044.182-.056.177-.145.12.27.387-.083.168-.119.142-.479-.111.134.315-.027.206-.266.025-.336-.038.093.303-.257.017.005.235-.12.13.188.41-.132.123-.323-.054-.042.206-.078.174-.095.16-.443-.205.23.502-.396-.169.23.525-.17.077-.172.078-.446-.263.238.575-.362-.17-.271-.068.01.303-.064.21-.154.086-.283-.098-.047.24-.263-.084.072.43-.155.084-.268-.1-.21-.014.115.538-.329-.221-.084.206-.23-.061-.08.219-.017.346-.178.039-.105.185-.339-.298-.143.1-.09.218-.094.22-.208-.037-.284-.232-.156.071-.028.395-.292-.277-.14.112-.073.302-.12.18-.196-.039-.119.194-.176.02-.28-.317-.047.439-.25-.239-.191-.048-.095.3-.133.17-.233-.217-.074.425-.214-.155-.167.039-.127.235-.184-.029-.218-.22-.154.114-.096.433-.211-.193-.167.045-.211-.232-.15.155-.157.116-.137.298-.195-.155-.212-.354-.145.267-.177-.063-.177-.048-.18-.139-.156.247-.158.25-.176-.05-.185-.326-.161.303-.172.085-.173.03-.174-.42-.17-.1-.178.543-.17-.162-.166-.172-.162-.203-.167-.049-.193.379-.163-.15-.187.185-.183.115-.148-.28-.14-.3-.187.127-.205.267-.143-.237-.21.24-.17-.029-.145-.188-.216.226-.08-.532-.268.483-.114-.317-.143-.155-.136-.179-.288.47-.146-.14-.11-.276-.119-.221-.175-.01-.117-.21-.16-.057-.348.543-.02-.51-.302.362-.163-.071.029-.6-.19.021-.108-.196-.25.169-.109-.192-.11-.178-.289.236-.157-.077-.05-.303-.33.287.01-.419-.332.272-.01-.362-.045-.28-.336.25-.065-.24-.047-.267-.195-.004-.293.14.077-.448-.153-.079-.11-.147-.237.039-.398.256.175-.541-.381.216-.105-.157-.046-.23-.197-.038-.05-.218-.046-.216-.181-.061.038-.303-.384.155.048-.308-.065-.184-.26.009.103-.344-.444.173-.225-.042.323-.522-.333.052-.208-.062-.105-.148.091-.3-.41.084.258-.414-.304-.005.065-.262-.106-.147-.287-.029.259-.375-.398.032.124-.283-.246-.068-.22-.089.306-.368-.398.001.3-.353-.277-.066-.143-.133.123-.255-.21-.106-.117-.15-.153-.137.292-.306-.018-.185-.173-.13-.297-.093-.113-.157-.062-.176.04-.204.25-.26-.05-.174-.038-.179-.126-.156.104-.21.043-.194-.33-.12.247-.231-.194-.15-.366-.127.313-.234-.143-.166.271-.217-.257-.155.13-.197-.159-.169.196-.2.015-.181-.556-.152.439-.208-.03-.18.133-.187-.082-.31-.363.068-.088-.209-.35.22.093-.463-.152-.087-.266.03-.05-.217-.057-.193-.138-.118-.348-.161.536-.016-.012-.092z" fill="#FCEE21"/><path d="M24.844 52.48l.056-.209-.001.02.02-.197c.034-.13.183-.07.188.005l-.005.196v.008l-.002.008-.031.18.05.109.168.096.062.036-.015.072-.035.174.085.11.006.008.004.01.073.148.12.124.008.008.006.008.095.153.02.03-.006.037-.025.199.123.296.112.114.134.103.184.073.069.027-.009.08-.018.155.139.031.076.018-.003.084-.006.167.122.05.062.026-.002.07-.005.199.082.072.184.04.068.015.006.074.015.18.114.063.165.078.007.003.006.005.143.103.012.01.01.012.103.145.098.12.145.06.045.02.01.052.037.174.125.03.025.007.02.019.1.105.164.005.045.001.027.039.098.14.12.07.163.035.038.008.02.035.084.134.14.011h.006l.006.002.171.037.01.001.009.004.156.07.027.012.015.026.074.122.142-.052.031-.01.03.01c.082.033.163.06.244.099.079.034.153.072.228.11l.157.038.039.01.02.037.072.127.13-.106.028-.023.035.002.17.01.05.004.025.048.093.187.11-.038.015-.005h.017l.169.005.168-.013.041-.003.03.03.101.103.12-.1.03-.024.037.005.17.018.026.003.02.018.127.103.122-.058.02-.01.021.002.142.006.14-.1.016-.011.02-.003.167-.032.024-.005.023.008.144.053.131-.056.04-.017.037.021.169.092.145.004a7.02 7.02 0 01.319-.076l.154-.074.158-.066.146-.092.009-.007.01-.003.143-.048.12-.12.022-.02.03-.005.173-.024.022-.004.019.007.119.04.044-.191.012-.055.051-.016.163-.054.02-.006.023.005.189.035.114-.034.081-.15.032-.057.062.01.135.02.038-.16.015-.065.062-.01.18-.027.112-.04.04-.183.016-.08.077.003.221.008c.075.003.107.182-.006.2l-.123.005-.023.154-.01.066-.073.033c-.056.024-.111.05-.167.072l-.005.002-.02.005-.079.016-.029.154-.025.145-.155-.016-.094-.01-.042.087-.03.063-.083.03-.169.059-.031.011-.054-.006-.148-.018-.032.18-.043.255-.255-.076-.155-.047-.04.009-.084.088-.033.036-.065.024-.123.047-.133.09-.009.006-.03.015-.153.07-.15.081-.02.011-.04.01a8.22 8.22 0 00-.33.089l-.025.008h-.045l-.177.001-.06.002-.07-.036-.058-.029-.042.02-.098.045-.12-.04-.091-.031-.021.005-.115.087-.08.06-.114-.002-.089-.002-.107.053-.174.087-.165-.13-.054-.044-.051.044-.226.196-.224-.219-.046-.043-.027.003-.01.002h-.128l-.133.048-.278.103-.13-.253-.316.26-.211-.374-.044-.078-.017-.003-.036-.008-.037-.02-.112-.054c-.038-.02-.072-.034-.108-.05-.033-.014-.064-.029-.098-.042l-.09.034-.272.102-.16-.26-.05-.082-.019-.008-.114-.026-.16-.013-.184-.016-.098-.16-.024-.041-.022-.005-.059-.013-.048-.029-.15-.09-.07-.042-.045-.064-.006-.01-.023-.002-.144-.006-.1-.106-.053-.057-.08-.02-.227-.056-.045-.235-.01-.046-.068-.031-.05-.063-.12-.151-.08-.116-.071-.053-.139-.07-.167-.093-.172-.097-.012-.177-.046-.011-.053-.049-.133-.123-.125-.118.01-.155v-.022l-.18-.08.015-.207-.238-.063.044-.269.004-.027-.024-.012-.018-.016-.145-.122-.024-.021-.003-.005-.123-.138-.042-.047-.014-.037-.126-.35-.029-.079.01-.056.03-.153-.034-.063-.098-.116-.03-.035-.008-.018-.066-.163-.086-.128-.054-.083.02-.072.028-.108-.08-.053-.046-.03-.014-.036a3.302 3.302 0 01-.063-.174l-.02-.053.012-.025zm18.304 1.829l.13.119.037.035-.006.053-.021.168.086.11.117.136.005.005.003.005.096.15.006.01.005.01.058.17.06.15.109.12.027.03v.041l-.003.17.102.091.017.015.01.02.06.138.136.088.03.02.01.035.05.164.084.124.125.113.022.021.006.032.036.155.118.087.003.003.003.003.131.118.005.005.004.005.113.132.014.016.006.02.036.117.054-.008.096-.071c.082-.073.162-.147.241-.22l.1-.135.02-.027.031-.008.13-.032-.011-.16-.002-.032.016-.027.087-.153.026-.045.05-.002.165-.007.047-.001.028.038.067.087.004.007.003.006.086.155.095.148.018.03-.003.035-.01.148.127.076.028.016.013.029.072.166.01.02v.023l-.004.164.101.102.012.013.008.016.065.143.13.105.013.01.009.014.095.151.01.017.003.019.03.161.1.116.022.026.002.035.01.189.062.143c.063.095.127.19.188.287.079.084.156.169.23.256l.076.064.071-.054.089-.149.01-.017.017-.012.15-.103.013-.01.015-.003.13-.033-.004-.182v-.046l.03-.03.13-.127.012-.013.017-.007.17-.072.1-.095.041-.17.012-.048.044-.02.133-.057.001-.164v-.05l.038-.03.146-.11.1-.099.004-.182.001-.06.052-.027.152-.079.024-.063.047-.12.096.08.089.076.033.029.002.045.007.185.03.155.089.117.15.102.032.023.01.04v.01l.013-.013.016-.008.126-.058.064-.145.02-.044.044-.011.164-.042.108-.092.096-.135.013-.018.018-.01.13-.072.058-.142.077-.17.006-.015.01-.011.21-.24.02-.17.005-.048.04-.024.137-.087.069-.134.006-.013.009-.01.108-.112.049-.147.04-.175.005-.016.009-.015.09-.15c.065-.053.194-.024.157.108l-.07.134-.03.172-.003.012-.048.177-.006.023-.024.027-.1.116c-.022.05-.044.1-.069.148l-.016.032-.035.024-.092.063-.012.13-.004.047-.035.044a10.29 10.29 0 01-.203.248l-.062.15a5.293 5.293 0 01-.065.17l-.022.06-.058.032-.123.07-.08.112-.012.017-.018.016-.133.114-.03.026-.04.011-.098.026-.043.096-.027.065-.063.03-.122.06-.093.105-.241.269-.073-.364-.022-.123a3.33 3.33 0 01-.086-.074l-.04-.037-.093-.166-.027-.046-.001-.017-.012-.191-.002-.02a.96.96 0 00.006-.077l-.108.061c0 .053.001.108.003.161l.001.042-.036.042-.123.142-.013.011-.08.073.011.169.008.093-.104.058-.09.05-.02.129-.006.044-.051.057-.124.14-.013.015-.049.026-.125.066-.018.02c.006.057.01.114.014.17l.009.208-.207.064-.144.045c-.021.017-.042.031-.063.047l-.068.12-.026.044-.047.036c-.046.037-.093.076-.141.111l-.175.13-.16-.14-.133-.117-.02-.018-.01-.013-.114-.134c-.039-.043-.078-.085-.116-.13l-.025-.032-.005-.008a10.006 10.006 0 00-.18-.306l-.019-.031-.006-.014a3.198 3.198 0 01-.061-.173l-.023-.064v-.028l.002-.141-.047-.065-.047-.064-.004-.045-.018-.166-.049-.092-.105-.1-.042-.039-.01-.029-.056-.154-.094-.11-.051-.06.006-.056.018-.187a6.226 6.226 0 00-.036-.098l-.137-.09-.063-.042.007-.07.02-.176-.076-.121-.084-.157-.03-.041-.062.004-.032.068.02.097.029.12.022.099-.138.07-.101.05c-.021.047-.042.094-.066.14l-.03.031c-.035.047-.069.097-.108.139-.039.043-.075.09-.116.13l-.02.018a2.121 2.121 0 01-.117.092l-.05.039-.067.01c-.051.009-.103.015-.152.023l-.234.034-.07-.235-.041-.139-.06-.072-.107-.098-.133-.1-.084-.063-.025-.105c-.009-.035-.015-.072-.022-.11l-.062-.057-.028-.028-.014-.02-.096-.15-.028-.044-.009-.035-.025-.094-.07-.05-.072-.051-.024-.061-.05-.128-.084-.082-.09-.087.006-.108.007-.13-.046-.058-.034-.042-.009-.026-.06-.177-.05-.17c-.022-.04-.046-.08-.067-.121l.015.019-.11-.153-.104-.158-.045-.07.012-.054.03-.147L43 54.46l-.029-.034-.003-.014-.046-.187c-.02-.137.144-.153.173-.073l.053.157z" fill="#ABA000"/><path d="M40.113 47.039c-.893-.956-.893-2.505 0-3.46a2.185 2.185 0 013.236 0c.893.955.893 2.504 0 3.46a2.185 2.185 0 01-3.236 0z" fill="#31332A"/><path d="M40.81 43.783c0 .38.447.688 1 .688.552 0 1-.307 1-.688 0-.38-.448-.687-1-.687-.553-.002-1 .307-1 .688z" fill="#636A78"/><path d="M51.812 42.133l.033.176.282.017.023.202.311.011-.238.364.574-.137.014.208-.029.229.148.128.217.096.066.174-.087.246-.256.314.188.111.357.049.022.19.106.157-.357.321.387.061-.253.27.464.054.07.174-.371.287.415.088-.227.239-.143.212.221.07a2.502 2.502 0 00.883-1.93c0-1.352-1.024-2.449-2.29-2.449-.182 0-.36.025-.53.068z" fill="#31332A"/><path d="M52.872 42.5c-.089.15.05.414.31.592.26.177.544.2.633.05.089-.15-.05-.414-.31-.592-.261-.177-.544-.2-.633-.05z" fill="#636A78"/><path d="M46.96 46.786c.003.022.008.058.017.101.068.348.342 1.28.997 1.392.675.113 3.09-.995 3.508-1.437.04-.04.062-.077.062-.106 0-.026-.02-.061-.057-.103-.351-.413-2.243-1.53-2.868-1.896a.447.447 0 00-.445-.011c-.873.457-1.169 1.586-1.21 1.96a.657.657 0 00-.004.1z" fill="#FC8B2D"/><path d="M46.96 46.786c.003.023.008.058.017.102.376.043.753.058 1.13.07a34.28 34.28 0 002.293-.039c.36-.019.722-.04 1.082-.077.04-.04.062-.077.062-.106 0-.026-.02-.061-.057-.103a19.11 19.11 0 00-1.09-.055 36.555 36.555 0 00-2.292.01c-.38.02-.76.045-1.142.096-.003.047-.004.081-.003.102zm1.984-1.39c-.03.09.061.214.203.279.142.064.28.043.309-.047.028-.09-.062-.214-.204-.279-.141-.063-.28-.043-.309.047z" fill="#D13301"/><path d="M31.903 70.902h1.995l-.134-6.374V64.5c.01-.248.204-.44.434-.431.232.01.411.217.404.463l-.223 6.34 5.367-.568a.238.238 0 01.255.222c.012.137-.082.26-.21.273l-3.978.422 4.648.902c.127.024.211.154.187.29a.238.238 0 01-.229.204l-.042-.003-5.07-.984 3.326 2.195a.26.26 0 01.075.344.224.224 0 01-.32.08l-4.32-2.851-2.167.002c-.128 0-.232-.112-.232-.249 0-.136.104-.25.234-.25zm8.857-.522c0 .137.104.248.232.248l2.166-.001 4.32 2.85c.11.072.254.036.321-.081a.261.261 0 00-.075-.343l-3.327-2.196 5.071.984a.153.153 0 00.042.004.24.24 0 00.23-.205.25.25 0 00-.189-.29l-4.648-.902 3.978-.422a.244.244 0 00.208-.272.237.237 0 00-.255-.223l-5.367.569.133-3.77-.226-.215-.191-.049-.095.3-.134.17-.044-.04.077 3.631H40.99a.247.247 0 00-.23.253z" fill="#FC8B2D"/></g><g clip-path="url(#clip2)" fill="#F42403"><path d="M36.531 22.587a.056.056 0 00-.027.006c-.041.006-.083.012-.123.023a4.025 4.025 0 00-.431.125.974.974 0 00-.126.054 1.92 1.92 0 00-.59.404c-.047.042-.087.092-.13.144a2.612 2.612 0 00-.373.649c-.074.172-.14.366-.2.576-.38-.433-.736-.742-1.131-.913a1.974 1.974 0 00-.925-.15 3.69 3.69 0 00-.45.063c-1.204.264-1.985 1.358-1.746 2.443.047.209.115.409.207.605.053.112.11.218.172.326.01.016.016.029.027.044.022.031.041.068.063.099.098.149.208.293.328.438.084.1.176.198.27.3.58.61 1.35 1.176 2.207 1.723.718.459 1.49.906 2.272 1.354.02.012.038.02.061.03.02.012.037.02.053.034.025-.035.05-.074.076-.104.08-.11.155-.218.234-.328.93-1.301 1.814-2.594 2.337-3.81l.044-.1a7.27 7.27 0 00.27-.772c.169-.608.216-1.189.096-1.733-.236-1.052-1.32-1.707-2.465-1.53zM19.78 27.72c-.654-.843-1.909-.973-2.869-.31a.06.06 0 00-.022.018 2.978 2.978 0 00-.432.371.888.888 0 00-.091.105 1.96 1.96 0 00-.414.808c-.048.201-.065.42-.061.655.001.029-.001.06.002.093a5.8 5.8 0 00.061.607c-.53-.227-.981-.356-1.41-.34-.3.009-.597.09-.897.262a2.951 2.951 0 00-.376.25c-.97.76-1.206 2.085-.528 2.968.13.167.278.32.444.458.094.076.192.151.298.223a.1.1 0 01.045.027 4.262 4.262 0 00.579.316c.12.056.242.107.37.156.782.3 1.72.48 2.725.609a56.468 56.468 0 002.696.246l.06.006c.009-.043.015-.09.024-.128.022-.132.044-.264.07-.397.278-1.578.525-3.134.478-4.457l-.005-.111a6.22 6.22 0 00-.088-.814c-.11-.632-.317-1.183-.66-1.62zm1.747-19.458c.03-.322.04-.632.026-.932l-.001-.004c-.027-.72-.173-1.367-.49-1.914-.607-1.049-2.003-1.39-3.182-.8a.077.077 0 00-.028.016c-.041.021-.082.042-.121.067-.156.09-.3.186-.423.284-.04.035-.081.066-.121.102a2.08 2.08 0 00-.497.643 1.606 1.606 0 00-.09.198c-.085.22-.14.464-.17.727-.001.035-.008.067-.009.102a6.527 6.527 0 00-.022.694c-.563-.337-1.048-.55-1.538-.6a2.234 2.234 0 00-1.05.154 3.468 3.468 0 00-.465.227c-1.213.702-1.681 2.157-1.05 3.256a3.47 3.47 0 00.732.882l.045.04c.035.027.067.059.101.085a5.877 5.877 0 00.898.59c.84.46 1.863.808 2.976 1.112.93.252 1.926.469 2.92.681l.075.015.07.017c.015-.05.03-.096.047-.142l.137-.438-.002-.004c.56-1.733 1.075-3.443 1.223-4.94a2.09 2.09 0 01.009-.118z"/></g><defs><clipPath id="clip0"><path fill="#fff" transform="matrix(-1 0 0 1 88 0)" d="M0 0h88v88H0z"/></clipPath><clipPath id="clip1"><path fill="#fff" transform="matrix(-1 0 0 1 55 37)" d="M0 0h33v39H0z"/></clipPath><clipPath id="clip2"><path fill="#fff" transform="rotate(-21.383 28.772 -4.57)" d="M0 0h27.854v31.131H0z"/></clipPath></defs></svg>