<svg xmlns="http://www.w3.org/2000/svg" width="153" height="110" fill="none"><path d="M151.828 65.927l-81.169-25.39a3.267 3.267 0 00-3.246.776L35.92 71.619c-.926.89-.563 2.472.653 2.85l80.482 25.077a4.804 4.804 0 004.77-1.143l30.656-29.63c.923-.89.559-2.465-.653-2.846z" fill="#CCC"/><path d="M113.955 90.004L31.661 64.263c.09-.378.28-.728.566-1.004L64.882 31.71a2.816 2.816 0 012.805-.67l80.59 25.208a5.502 5.502 0 012.792 1.973l-31.501 30.44a5.64 5.64 0 01-5.613 1.343z" fill="#757575"/><path d="M113.955 90.004a5.638 5.638 0 005.612-1.343l31.502-30.44c1.636 2.189 1.614 5.483-.594 7.614l-30.136 29.118a4.36 4.36 0 01-4.341 1.036L37.145 71.222c-2.748-.864-4.841-3.15-5.494-6.01a2.054 2.054 0 01.01-.953l82.294 25.745z" fill="#4A4A4A"/><path d="M39.515 64.469l11.75 3.634 57.127 17.651L139.11 56.07l-7.186-2.3-61.1-19.553-31.309 30.252z" fill="#4A4A4A"/><path d="M51.266 68.103l57.123 17.654 30.721-29.683-7.186-2.3C119.229 59.29 87.82 70.77 51.265 68.103zm-1.058-18.436c.01.003.022.006.031.01l.625.165c.22.06.46-.01.635-.175l4.527-4.406a.54.54 0 00.065-.083c.109-.193.025-.447-.19-.505l-.432-.114a.838.838 0 00-.802.223l-4.534 4.38c-.168.155-.12.429.075.505z" fill="#3D3D3D"/><path d="M50.208 49.667c.01.003.022.006.03.01l.626.165c.22.06.46-.01.634-.175l4.528-4.406a.535.535 0 00.065-.082.62.62 0 00-.081-.035l-.432-.115a.838.838 0 00-.803.223l-4.533 4.38a.09.09 0 00-.034.035z" fill="#4A4A4A"/><path d="M39.745 69.898l.103.448a.353.353 0 00.245.266l4.882 1.54.215.07 5.336 1.684c.133.042.267 0 .357-.085a.126.126 0 00.031-.039.17.17 0 00.019-.025c.006-.01.015-.022.019-.035a.146.146 0 00.015-.032c.006-.016.013-.031.016-.054a.34.34 0 000-.168l-.11-.48a.364.364 0 00-.245-.27l-5.734-1.791-.214-.067-4.475-1.397a.352.352 0 00-.28.028.372.372 0 00-.18.407z" fill="#A6A6A6"/><path d="M123.579 75.453c.131.184.32.334.563.41l3.33 1.045c.376.12.78.022 1.07-.25l7.621-7.329c.186-.178.292-.4.329-.629a1.145 1.145 0 00-.186-.829 1.044 1.044 0 00-.572-.416l-3.321-1.039a1.077 1.077 0 00-1.067.254l-7.633 7.319c-.19.18-.299.406-.333.638-.04.286.031.588.199.826z" fill="#3D3D3D"/><path d="M123.383 74.624a1.079 1.079 0 00.569.422l3.33 1.046c.376.12.78.022 1.069-.251l7.622-7.328c.186-.178.292-.4.329-.63 0-.002.003-.009 0-.012a1.04 1.04 0 00-.572-.416l-3.321-1.039a1.075 1.075 0 00-1.066.254l-7.634 7.319a1.11 1.11 0 00-.326.635z" fill="#A6A6A6"/><path d="M39.926 69.49a.352.352 0 01.28-.028l4.474 1.398.215.067 5.733 1.791c.125.038.218.14.246.27l.109.48a.383.383 0 01-.1.352l.417-.266v-.004a.365.365 0 00.171-.403l-.109-.48a.364.364 0 00-.245-.27l-5.859-1.83-.211-.066-4.353-1.36a.357.357 0 00-.293.039v-.004l-.475.315z" fill="#7A7A7A"/><path d="M44.68 70.857l.295 1.296.215.066-.299-1.296.364-.355-.212-.067-.363.356z" fill="#3D3D3D"/><path d="M145.288 66.178l.423 1.845 3.035-2.94-.417-1.824-.314.302-1.023.981-1.704 1.636z" fill="#A6A6A6"/><path d="M145.288 66.178l.311 1.36 2.724-2.637-.308-1.34-1.023.981-1.704 1.636zm-78.215-9.774c-.18-3.119 9.407-6.238 21.415-6.967 12.008-.728 21.889 1.21 22.07 4.328.182 3.119-9.406 6.238-21.414 6.967-12.008.728-21.89-1.21-22.07-4.328z" fill="#3D3D3D"/><path d="M74.323.55l.364-.048.112.464.519-.36.146.395.541-.375.152.371.069.525.389-.077.226.226.48-.229.382-.05.202.272-.165.909.669-.546.19.285.127.394.38-.038-.01.62.19.282.634-.47.364-.01-.088.747.302.099.572-.369-.068.721.54-.314.225.222.295.099.081.476.286.114v.626l.721-.657-.03.686.127.406.64-.533.252.178.27.136.234.21-.012.702.255.184.367-.048.254.181.268.156.619-.6-.11.975.607-.604.23.232.408-.18.093.565.04.717.47-.349.376-.12.401-.21-.068 1.086.376-.133.482-.467.037.86.345-.057.34-.054.198.413.405-.289.351-.114.302.044.195.467.234.34.37-.216.255.27.488-.781.19.562.354-.207.22.467.361-.27.305.372.196-.365.495.197.223-.207.131-.371.314-.067.264-.156-.071-.787.619.527.28-.118.183-.327.109-.505.283-.133.292-.118.61.718-.035-.969.386.159.46.413.112-.651.18-.486.355.105.373.197.19-.534.37.213.258-.299.329.057.299-.098.367.352.289-.168.351.39.271-.34.336.401.264-.657.329.59.293-.447.304-.483.311.362.29.546.295.099.354-.807.252.699.349-.416.245.533.398-.68.321-.019.23.496.395-.423.264.26.214.465.187.492.485-.658.18.5.386-.223.118.635.55-.68.33.007.112.587.463-.33.33.029-.065.914.401-.143.332.016.315.064-.004.664.467-.22.497-.238-.189.918.559-.32.003.562.178.276.27.137.656-.382-.183.756.242.181.697-.368.05.426.127.324-.134.6.921-.537-.423.88.569-.137-.146.566.892-.407-.444.814.653-.156-.383.715.762-.216.025.371.348.13-.047.417.526.015-.473.69.37.124.072.317.535.042-.324.54.575.038-.186.447.818-.06-.787.724.672.029-.445.53.482.13.625.09-.504.524.432.178.243.25-.435.464.55.162-.445.448.405.213-.38.41.349.235.724.171-.087.34.078.312.043.314-.765.422.594.239.218.295.14.308-.066.324-.087.324-.267.324-.202.311.326.312.203.32-.57.293.737.352-1.044.242.988.397-1.038.206.824.413-.274.28-.619.216.666.432-.753.171-.183.27.326.388-.214.267.373.416-.724.117.864.585-.227.26-.305.229.028.343.156.394-.125.292-.401.175-.687.038.1.378.379.518-.196.25-.056.325-.818-.086.404.572-.634-.01.51.664-.121.295-.796-.142.404.641-.563-.016-.429.067.311.613-.04.365-.529-.028-.479-.007.255.626-.491-.032.165.578-.803-.355.504.943-.936-.537-.071.362.202.687-.227.212-.647-.302.196.734-.187.273-.765-.524.016.54-.174.296-.715-.404.018.521-.242.194.236.62-.317.13-.317.13.096.511-.5-.047-.069.365-.186.25-.678-.25-.047.39.184.645-.517-.104-.084.368-.413-.006-.386.022.265.791-.703-.372-.336.067.065.575-.376.013-.025.476-.258.172-.329.063-.206.242-.186.276-.442-.114-.186.276-.283.12-.081.458-.435-.13-.218.232-.146.374-.268.15-.463-.226-.047.591-.307.08-.221.254-.358-.042-.535-.457.059.918-.342-.016-.208.318-.544-.572-.056.746-.302.073-.597-.82-.168.458-.357-.143-.243.245-.267.156-.28.136-.323-.047-.125.803-.301.092-.314.013-.454-.753-.212.543-.276.207-.358-.315-.37-.48-.243.477-.335-.314-.274.282-.302-.003-.255.724-.31-.025-.33-.483-.296.19-.304.102-.305.067-.302-.816-.314.886-.286-.708-.339.911-.301-.13-.302-.13-.24-.886-.388.984-.24-.67-.254-.432-.346.369-.33.162-.292-.096-.23-.483-.342.223-.224-.442-.422.6-.29-.104-.211-.46-.24-.29-.497.778-.143-.683-.345.13-.215-.368-.354.153-.432.384-.265-.184-.348.08-.065-.785-.293-.07-.373.14-.373.136-.211-.311-.075-.642-.277-.117-.5.425-.031-.705-.308-.047-.445.26-.36.057-.2-.302-.373.074-.24-.207.029-.734-.575.454-.025-.603-.177-.302-.473.226-.364.028-.031-.556-.59.404-.082-.46-.255-.172-.432.114-.19-.273-.009-.543-.323-.064-.635.384-.028-.498-.258-.165.016-.543-.37-.013-.33-.073-.522.174-.053-.432.159-.692-.498.127-.143-.305-.158-.283-.06-.4-.481.092-.492.09-.155-.29.155-.62-.556.144-.311-.121-.25-.19.287-.718-.09-.337-.865.406-.015-.41v-.416l.04-.45-.149-.274-.684.197-.022-.387-.45-.026-.361-.104.152-.521.18-.534-.38-.089-.568.048.106-.464-.541.01-.178-.255.044-.41-.532-.012.535-.73-.905.222.236-.521.007-.369.046-.387-.91.184-.013-.356.193-.467.115-.413-.203-.238.103-.4-.13-.273-1.07.187.581-.626-.802.032-.112-.292.743-.667-.258-.223.1-.368-.507-.127.093-.365.075-.353-.635-.099-.099-.292.295-.422-.743-.09.507-.476-.73-.11.416-.44.277-.39-.712-.14.208-.365.258-.371-.233-.264-.526-.213.625-.426-.096-.292.04-.314-.338-.26-.79-.214.855-.41-.725-.24.056-.322.218-.327-.196-.302.196-.317.196-.315-.15-.308.408-.305-.656-.317.426-.299.137-.299-.33-.327.535-.267-.75-.374-.226-.34 1.013-.197-.47-.369-.183-.343.047-.31.47-.233-.607-.435.808-.15-.366-.4.391-.225.044-.305-.32-.407.765-.108-.53-.476.492-.172-.224-.4-.164-.387.811-.038-.491-.515.79-.022-.265-.439-.015-.343.45-.136-.13-.397.034-.328-.025-.362.722.02.196-.239-.06-.378-.251-.492.046-.334.13-.286.296-.187.613.02.143-.27.165-.258.03-.35.377-.11.286-.17-.264-.568.578.048-.062-.429-.299-.622.663.13.022-.378.59.095-.133-.514.391-.067.007-.404.478.023.234-.197-.504-.896.784.324.18-.251.385-.048.265-.467-.526-.393.14-.356-.69-.2.662-.42-.084-.301-.364-.308.2-.318.158-.302-.031-.318L73.552 0l.677.673.094-.123z" fill="#FCEE21"/><path d="M75.675 5.044l.317-.175-.025.02.258-.204c.196-.111.305.156.224.248l-.24.225-.009.01-.012.006-.252.172-.069.19.094.334.034.12-.106.067-.248.16-.029.237-.003.02-.006.015-.087.27v.322l-.003.018-.062.302-.013.063-.05.039-.267.2-.199.508.003.276.044.296.14.324.053.124-.106.079-.208.159.133.216.075.12-.106.096-.208.187.093.216.047.111-.087.08-.243.225.016.19.177.287.065.105-.08.095-.197.232.069.219.109.305.006.013.003.015.056.305.006.029-.003.029-.043.304-.022.267.106.26.034.083-.047.073-.162.251.122.194.025.041v.048l-.004.251.196.22.053.06-.012.079-.047.292.062.239.159.25.037.06-.015.07-.056.264.158.194.007.01.006.01.168.266.009.013.006.015.109.286.019.048-.013.05-.053.24.237.123.053.025.021.054c.063.143.13.283.184.432.056.143.102.283.15.423l.145.248.038.06-.02.07-.064.241.286.045.059.01.04.047.196.235.06.07-.029.089-.109.34.18.098.026.013.018.022.202.222.224.204.053.047v.073l.003.251.264.035.066.01.04.054.187.241.028.038.006.048.031.283.218.089.034.015.025.03.168.19.289.063.034.007.028.019.243.18.034.026.018.038.115.251.228.105.068.032.022.073.1.327.173.19c.162.105.324.213.482.325l.277.11.274.128.289.082.018.007.016.01.233.13.29.015.052.003.04.032.243.197.028.023.016.034.096.204.28-.169.08-.047.082.047.264.15.034.019.022.031.19.286.18.108.277-.07.109-.028.065.092.143.2.236-.14.097-.057.087.07.251.2.187.099.264-.162.115-.073.09.101.262.296c.09.101-.084.352-.243.225l-.158-.155-.212.152-.09.067-.13-.057c-.097-.045-.196-.086-.293-.13l-.006-.004-.028-.019-.118-.083-.218.147-.205.136-.174-.219-.103-.133-.155.047-.112.035-.137-.073-.277-.15-.05-.028-.059-.076-.158-.213-.252.172-.355.241-.223-.416-.137-.257-.06-.045-.204-.003h-.085l-.108-.054-.209-.105-.27-.067-.019-.003-.053-.022-.273-.114-.28-.099-.04-.012-.06-.038c-.168-.112-.339-.22-.51-.325l-.04-.025-.056-.057-.22-.226-.075-.076-.044-.133-.037-.108-.078-.032-.174-.073-.1-.2-.077-.156-.031-.022-.246-.048-.168-.032-.137-.149-.106-.117-.195-.077-.318-.123-.046-.366-.016-.12-.115-.013-.51-.06-.015-.547-.003-.108-.038-.032-.015-.012-.028-.029-.13-.137-.222-.114-.466-.241.14-.467-.697-.105.184-.712.037-.146-.015-.025-.035-.057-.024-.07-.072-.21c-.025-.073-.05-.133-.075-.197-.021-.057-.043-.117-.071-.174l-.153-.08-.45-.232.112-.511.034-.162-.013-.035-.112-.178-.18-.222-.208-.258.068-.314.019-.08-.022-.034-.06-.092-.024-.096-.078-.298-.037-.14.022-.133.003-.02-.028-.031-.171-.194.003-.251.003-.133-.075-.127-.211-.36.22-.333.044-.067-.05-.127.013-.14.031-.333.04-.242-.024-.152-.087-.26-.097-.328-.096-.336.196-.223-.044-.073-.006-.124-.016-.314-.015-.302.196-.168.028-.026-.128-.33.261-.222-.217-.381.37-.26.037-.026-.016-.045-.003-.041-.03-.33-.007-.054v-.01l.012-.324.004-.111.028-.06.258-.575.059-.127.078-.051.217-.143.031-.118.016-.263.006-.08.013-.032.111-.276.047-.26.031-.166.109-.06.165-.089-.034-.168-.02-.095.026-.06c.04-.096.084-.191.127-.287l.04-.089.085-.041zM96.001 30.9l.019.305.006.092-.072.054-.223.169-.025.238-.02.314v.013l-.002.01-.06.301-.002.02-.01.018-.127.277-.103.254-.01.282-.002.07-.05.048-.202.194.019.241.003.038-.013.035-.09.242.062.28.013.06-.028.053-.134.258-.044.254.02.295.002.054-.028.045-.137.228.04.255v.012l.023.308v.02l-.02.301-.002.035-.016.032-.093.181.075.06.205.042c.186.019.373.038.56.05l.28-.028.055-.006.047.031.199.13.177-.2.034-.04.05-.014.29-.066.087-.02.065.064.211.207.06.057-.01.082-.022.188v.013l-.003.012-.078.293-.059.298-.012.057-.044.038-.19.162.069.255.016.053-.02.051-.108.286-.012.035-.028.026-.2.19.004.251v.032l-.01.028-.09.251.038.293.003.028-.007.029-.062.302-.006.031-.019.029-.155.229-.016.266-.003.06-.04.045-.209.235-.093.248c-.034.194-.071.388-.109.581-.003.2-.009.397-.021.597l.015.175.153.029.286-.06.034-.007.034.01.305.073.028.006.025.016.199.13.211-.216.053-.054.075.003.307.02.031.003.029.012.295.137.236.019.252-.146.072-.041.074.034.233.105.2-.19.058-.058.081.016.311.058.24.012.22-.206.075-.07.093.035.28.105.103-.042.202-.082.022.219.021.203.01.077-.053.057-.211.225-.15.22-.031.254.065.314.013.067-.037.057-.01.012h.031l.028.013.224.092.252-.085.075-.026.065.045.252.165.242.032.28-.032.038-.003.034.012.245.086.237-.092.298-.102.025-.01h.025c.18 0 .361-.005.541-.009l.224-.171.065-.051.078.022.27.076.243-.066.022-.007h.025l.267.007.233-.111.258-.153.025-.013.028-.006.289-.057c.143.022.268.225.063.33l-.243.067-.239.162-.016.01-.267.145-.035.02-.062.003-.261.006c-.087.029-.174.06-.261.086l-.059.016-.072-.02-.186-.044-.168.137-.059.047-.097.007c-.18.013-.363.022-.544.028l-.252.096c-.093.041-.186.08-.283.117l-.099.041-.109-.034-.233-.08-.233.029-.035.003-.04-.006-.299-.035-.065-.01-.062-.041-.152-.099-.168.06-.109.039-.115-.048-.22-.089h-.24l-.616.003.342-.52c.037-.058.078-.115.118-.175-.006-.067-.015-.13-.019-.197l-.003-.092.081-.315.022-.089.019-.019.211-.241.019-.026c.034-.025.065-.054.096-.082l-.205-.067c-.062.064-.128.127-.187.194l-.046.05-.094.004-.32.006-.028-.003-.186-.022-.187.216-.103.12-.196-.066-.17-.057-.178.127-.059.041-.133.003-.318.003h-.034l-.09-.031-.233-.083h-.047a6.32 6.32 0 01-.183.216l-.234.254-.33-.19-.23-.134c-.043-.01-.086-.016-.13-.025l-.224.05-.087.02-.1-.02c-.102-.018-.205-.034-.304-.053l-.37-.074-.031-.371-.025-.311-.003-.045.003-.029.019-.304c.006-.102.006-.204.012-.305l.006-.07.003-.016c.05-.197.097-.397.14-.594l.013-.06.01-.023c.04-.095.083-.19.13-.282l.05-.105.034-.032.17-.162.02-.137.018-.136.047-.06.174-.22.05-.171-.013-.254-.006-.099.022-.047.111-.255.016-.25.01-.137.074-.06.243-.197.074-.162-.062-.283-.028-.13.09-.073.233-.181.053-.239.081-.292.013-.089-.081-.076a1.29 1.29 0 00-.118.041 2.127 2.127 0 00-.09.14l-.11.178-.087.146-.251-.095-.184-.07c-.08.025-.165.054-.245.076h-.075c-.1.01-.2.022-.299.022-.1 0-.199.007-.298 0l-.047-.006a3.438 3.438 0 01-.252-.041l-.105-.02-.097-.076-.214-.171-.327-.26.193-.37.112-.215.012-.162-.015-.254-.044-.29-.028-.183.094-.156c.03-.054.065-.105.1-.159l-.007-.15-.003-.07.01-.044.058-.301.016-.086.03-.054.079-.143c-.01-.05-.02-.102-.028-.153l-.025-.152.043-.102.09-.212-.006-.207-.006-.22.137-.117.165-.143c.003-.04.006-.085.012-.127l.01-.092.018-.041.137-.286.14-.264a5.33 5.33 0 01.062-.232l-.006.042.046-.321.06-.32.024-.14.081-.051.212-.134.006-.2.006-.076.012-.022.165-.28c.14-.184.358.006.299.14L96 30.9z" fill="#ABA000"/><path d="M101.73 21.015c-1.362-1.807-1.032-4.4.737-5.791a3.986 3.986 0 015.669.753c1.362 1.807 1.031 4.4-.738 5.791a3.985 3.985 0 01-5.668-.753z" fill="#31332A"/><path d="M105.606 15.51c-.451.448-.264 1.389.413 2.106.678.715 1.596.934 2.046.49.451-.448.265-1.389-.413-2.106-.678-.718-1.595-.934-2.046-.49z" fill="#636A78"/><path d="M121.091 27.829l-.168.248.327.387-.212.264.37.416-.724.117.867.582-.227.26-.304.229.028.343.155.39-.124.293-.401.178-.688.038.1.375.379.517-.196.255-.056.32-.817-.085.404.571-.631-.01.506.665-.121.295-.796-.143.404.642-.562-.016-.43.063.187.369a3.985 3.985 0 003.374-1.125c1.604-1.588 1.642-4.202.09-5.838a4.402 4.402 0 00-.734-.6z" fill="#31332A"/><path d="M121.641 30.732c-.109-.545.033-1.036.319-1.096.286-.06.607.332.716.877.11.544-.033 1.035-.319 1.095-.285.06-.606-.332-.716-.876z" fill="#636A78"/><path d="M109.608 27.006a1.316 1.316 0 00-.1.14c-.329.495-1.1 1.947-.426 2.925.694 1.007 4.979 2.834 6.017 2.856.097.003.168-.013.202-.044.031-.032.047-.099.053-.194.056-.94-.942-4.701-1.278-5.94a.863.863 0 00-.532-.591c-1.616-.594-3.317.35-3.812.734-.059.05-.102.089-.124.114z" fill="#FC8B2D"/><path d="M109.608 27.006a1.19 1.19 0 00-.099.14c.41.537.855 1.045 1.306 1.547.46.505.929 1 1.408 1.486a58.255 58.255 0 002.879 2.751c.097.003.168-.013.203-.044.031-.032.046-.099.052-.194a38.077 38.077 0 00-1.274-1.477 73.864 73.864 0 00-1.393-1.5c-.47-.495-.949-.981-1.437-1.454a26.18 26.18 0 00-1.517-1.366.903.903 0 00-.128.111zm4.117 1.029c-.143.067-.177.33-.081.591.097.26.292.413.435.346.144-.066.178-.33.081-.59-.099-.258-.292-.414-.435-.347z" fill="#D13301"/><path d="M74.098 52.367h3.532l-.236-10.778v-.044a.747.747 0 01.768-.728.75.75 0 01.712.785l-.395 10.72 9.496-.962a.415.415 0 01.451.378.419.419 0 01-.37.46l-7.043.715 8.228 1.525a.42.42 0 01.332.489.415.415 0 01-.404.346.599.599 0 01-.074-.006l-8.974-1.665 5.886 3.71a.425.425 0 01.134.579.405.405 0 01-.566.136l-7.646-4.819-3.834.004a.415.415 0 01-.41-.42.42.42 0 01.413-.425zm16.056.368c0 .197.156.356.349.356l3.246-.003 6.474 4.081a.343.343 0 00.479-.117.36.36 0 00-.115-.49l-4.985-3.14 7.597 1.407c.021.003.043.003.062.003a.346.346 0 00.342-.293.354.354 0 00-.28-.413l-6.968-1.292 5.96-.604a.359.359 0 00.314-.39.355.355 0 00-.382-.321l-8.038.816.115-3.084-.102.28-.305-.131-.302-.13-.211-.791.084 3.897H90.5a.356.356 0 00-.346.36z" fill="#FC8B2D"/></svg>