<svg xmlns="http://www.w3.org/2000/svg" width="271" height="76" fill="none"><path d="M271 53c0-9.94-8.059-18-18-18H97v18c0 9.942 8.059 18 18 18h138c9.941 0 18-8.058 18-18z" fill="#414141"/><path d="M108.12 60.992a1.765 1.765 0 00-.192-.072.98.98 0 00-.312-.047.872.872 0 01-.48-.313.939.939 0 01-.168-.552c0-.111.008-.2.024-.264.048-.047.088-.175.12-.383.048-.192.072-.368.072-.528a2.2 2.2 0 00.12-.288c.032-.113.072-.264.12-.456.128-.704.424-1.889.888-3.553.464-1.663.752-2.552.864-2.663v-.264c0-.049.016-.145.048-.288.032-.145.104-.296.216-.456a4.03 4.03 0 00.144-.553c.048-.191.08-.335.096-.431.064-.08.168-.32.312-.72.16-.4.264-.665.312-.793.112-.303.248-.656.408-1.056a18.5 18.5 0 01.36-.816v-.12c.032-.032.112-.191.24-.48.144-.303.264-.56.36-.767.112-.256.408-.92.888-1.992.048-.112.12-.248.216-.409.112-.175.168-.296.168-.36.064-.111.176-.168.336-.168.144 0 .288.056.432.168.16.096.28.224.36.384l.24.384-.864 1.728c-.24.417-.448.817-.624 1.2-.176.385-.264.608-.264.672-.064.16-.192.489-.384.985-.176.496-.32.92-.432 1.272-.08.24-.176.495-.288.767l-.24.553c-.128.287-.192.447-.192.48 0-.065.96-.096 2.88-.096.304 0 .84-.009 1.608-.025.784-.015 1.272-.04 1.464-.072l1.248-.12.816-2.471c.16-.56.512-1.648 1.056-3.264.24-.688.432-1.128.576-1.32.144-.208.32-.313.528-.313.08 0 .192.04.336.12.16.065.264.153.312.264.176.176.264.36.264.552 0 .224-.128.536-.384.936-.192.337-.464.968-.816 1.896-.144.432-.232.68-.264.744 0 .337-.08.584-.24.744-.064.064-.176.296-.336.697-.16.384-.24.608-.24.672 0 .127-.024.271-.072.431a.8.8 0 01-.168.313l-.168.575c-.56 2.033-1 3.44-1.32 4.225 0 .08-.04.224-.12.431-.08.208-.12.352-.12.432-.032.113-.104.337-.216.672-.112.337-.168.536-.168.6-.032.177-.096.457-.192.84-.24 1.088-.36 1.68-.36 1.776-.032.033-.08.049-.144.049-.064 0-.168-.025-.312-.073a3.216 3.216 0 01-.288-.12c-.384-.207-.576-.447-.576-.72 0-.175.072-.407.216-.696.048-.08.2-.6.456-1.56l.216-.887c.096-.256.312-1.017.648-2.28.272-.976.424-1.48.456-1.512v-.24c-.048-.08-.632-.12-1.752-.12-1.264 0-2.424.064-3.48.192h-1.752c-.08.175-.328.92-.744 2.232-.4 1.296-.624 2.111-.672 2.448a60.664 60.664 0 01-.528 2.208c-.24.927-.424 1.607-.552 2.04zm18.563-2.04c-.384-.367-.672-.911-.864-1.631-.032-.096-.048-.264-.048-.505v-.504c-.096.24-.272.457-.528.649-.368.367-.736.64-1.104.816-.56.367-1.016.551-1.368.551-.32 0-.624-.175-.912-.528a2.392 2.392 0 01-.48-.527 1.338 1.338 0 01-.144-.649c0-.175.024-.367.072-.576.032-.592.112-1.16.24-1.704.144-.544.408-1.24.792-2.087.512-1.008.88-1.68 1.104-2.017a.852.852 0 01.312-.047c.16 0 .288.047.384.144a.558.558 0 01.192.383.431.431 0 01.072.264c0 .4-.24 1.056-.72 1.968-.624 1.505-.936 2.544-.936 3.12 0 .336.096.536.288.6.08.049.168.073.264.073.4 0 .88-.273 1.44-.816.56-.544 1.096-1.416 1.608-2.617.224-.543.36-1.103.408-1.68a.728.728 0 01-.024-.215c0-.288.144-.52.432-.697a.587.587 0 01.264-.215c.112-.065.184-.065.216 0l.384-.025c.048-.015.096.033.144.145.048.096.096.16.144.191.112.096.168.273.168.528 0 .529-.232 1.337-.696 2.425-.304.64-.512 1.136-.624 1.488a4.373 4.373 0 00-.168.983c0 .608.232 1.112.696 1.512.16.112.256.232.288.36.032.128.04.304.024.529-.032.144-.128.264-.288.36a.972.972 0 01-.48.12.939.939 0 01-.552-.169zm12.343-9.143l.144.072a.233.233 0 01.144.096c.16.16.24.344.24.552 0 .111-.04.247-.12.407a7.438 7.438 0 01-.36.6c-.208.352-.384.672-.528.96-.128.288-.28.697-.456 1.224.416-.096.688-.175.816-.24.128-.08.344-.287.648-.623.288-.288.56-.544.816-.768.976-.944 1.496-1.456 1.56-1.536a2.92 2.92 0 01.336-.432.79.79 0 01.384-.24c.224.032.376.072.456.12.096.047.296.192.6.431.064.064.096.176.096.337 0 .303-.088.52-.264.648-.048.032-.36.28-.936.743-1.168.977-2.16 1.745-2.976 2.305.352.56.696 1.183 1.032 1.871.032.385.168.648.408.793.24.144.576.215 1.008.215.128.064.208.145.24.24.048.096.072.2.072.313.016.111.032.2.048.264a2.86 2.86 0 00-.432.36c-.144.127-.264.191-.36.191-.112 0-.288-.048-.528-.144a2.354 2.354 0 01-.624-.335 5.293 5.293 0 01-.6-.6c-.192-.225-.568-.793-1.128-1.705-.56-.911-.872-1.423-.936-1.535a4.568 4.568 0 01-.192.431 2.51 2.51 0 00-.144.409 1.724 1.724 0 00-.048.456c-.16.224-.288.511-.384.864-.08.336-.144.576-.192.72-.096.351-.304.64-.624.863-.288-.016-.568-.192-.84-.528a.972.972 0 01-.12-.48c0-.175.04-.367.12-.575.032-.145.144-.48.336-1.008.192-.529.344-.953.456-1.273.08-.207.208-.56.384-1.055.192-.512.296-.816.312-.913.048-.208.192-.504.432-.888.32-.56.52-1.023.6-1.391a.613.613 0 01.24-.313.703.703 0 01.432-.168c.176 0 .32.089.432.265zm15.848 6.6a2.247 2.247 0 00-.072.6c0 .127.016.215.048.264a.62.62 0 00.192-.025.789.789 0 01.192-.023c.096 0 .16.04.192.12.08.272.12.44.12.504 0 .16-.112.36-.336.6-.176.175-.344.264-.504.264a.94.94 0 01-.312-.072c-.368-.16-.616-.352-.744-.576-.144-.209-.216-.529-.216-.96 0-.304.008-.544.024-.72.016-.096.104-.408.264-.936a32.8 32.8 0 01.383-1.105 1.3 1.3 0 00-.407.169l-.336.24c-.16.16-.376.32-.648.48-.272.16-.52.28-.744.36a.476.476 0 01-.216.047c-.176 0-.376-.056-.6-.168a1.188 1.188 0 01-.456-.48 2.56 2.56 0 01-.168-.648 2.603 2.603 0 01.264-1.536l.6-1.224c.144-.272.344-.68.6-1.224.048-.096.12-.215.216-.36.096-.144.16-.272.192-.383a.505.505 0 01.144-.216c.096-.097.184-.145.264-.145.416.032.712.184.888.456a.544.544 0 01.144.36c0 .16-.064.313-.192.456-.496.672-1.008 1.577-1.536 2.712a1.555 1.555 0 00-.216.768c0 .08.008.145.024.192.256 0 .624-.175 1.104-.528.48-.351 1.096-.84 1.848-1.463l.576-.48c.368-.304.688-.672.96-1.105.144-.272.392-.416.744-.431.24.111.392.184.456.215.064.128.128.264.192.408.08.128.12.232.12.313 0 .144-.112.336-.336.576-.112.016-.336.264-.672.744-.32.464-.568.864-.744 1.2-.048.08-.112.167-.192.264-.064.08-.128.176-.192.288l-.912 2.207zm7.375 1.752c-.4.352-.88.527-1.44.527-.4 0-.784-.096-1.152-.288a2.627 2.627 0 01-.888-.791 2.492 2.492 0 01-.456-.864c-.096-.32-.144-.712-.144-1.176 0-.16.016-.48.048-.96.048-.593.24-1.209.576-1.849a7.161 7.161 0 011.296-1.703c.512-.513 1.016-.864 1.512-1.056.256-.16.488-.24.696-.24.112 0 .224.008.336.023.112.017.232.032.36.049.352.047.616.12.792.215.192.08.352.209.48.384.4.4.6.864.6 1.392-.064.385-.312.825-.744 1.32a5.024 5.024 0 01-1.56 1.2 3.106 3.106 0 01-.984.145c-.496 0-.896-.104-1.2-.313a1.151 1.151 0 00-.336-.072c-.144 0-.256.096-.336.288-.064.192-.128.544-.192 1.056a3.629 3.629 0 00-.024.48c0 .817.272 1.265.816 1.345.368.08.632.12.792.12.192 0 .408-.065.648-.193l.456-.264a.987.987 0 00.264-.191l.216-.216.144-.145a.43.43 0 01.168-.144.387.387 0 01.168-.047c.064 0 .136.04.216.12.08.063.144.111.192.143.144 0 .176.104.096.313-.08.192-.256.424-.528.696a4.884 4.884 0 01-.888.695zm-.024-5.089c.272-.111.544-.312.816-.6.288-.288.432-.528.432-.72a.616.616 0 00-.216-.48c-.144-.127-.344-.191-.6-.191-.192 0-.336.015-.432.047-.224.065-.488.24-.792.529a6.43 6.43 0 00-.792.84c-.224.288-.312.456-.264.504.08.144.392.216.936.216.368 0 .672-.048.912-.145zm10.037 2.664a14.9 14.9 0 01-.36.505 2.31 2.31 0 00-.384.696.817.817 0 01-.24.336c-.096.08-.152.127-.168.143a3.02 3.02 0 00-.288-.095.84.84 0 01-.24-.12l-.24-.24c-.32-.304-.448-.593-.384-.864a4.821 4.821 0 01-.024-.48c.016-.16.024-.304.024-.432.016-.193.024-.48.024-.864 0-.736-.04-1.192-.12-1.368-.176.015-.296.04-.36.072-.064.032-.144.128-.24.288a6.191 6.191 0 01-.288.456c-.144.224-.336.504-.576.84-.24.367-.552.84-.936 1.416-.368.575-.544.855-.528.84a2.769 2.769 0 00-.48.863c-.176.4-.352.512-.528.337a4.87 4.87 0 01-.744-.456 1.787 1.787 0 01-.24-.769c.048-.016.104-.04.168-.072.064-.047.112-.087.144-.12a.301.301 0 00.072-.12l1.824-2.663.312-.457c.08-.16.296-.464.648-.912.032-.08.184-.296.456-.648.288-.352.48-.551.576-.6a.494.494 0 00.192-.24l.12-.24c.048-.255.216-.383.504-.383a.77.77 0 01.216.023l.936.72a1.43 1.43 0 00-.024.313c0 .223.064.56.192 1.008a.728.728 0 00-.024.215c0 .128.008.256.024.384.032.112.048.233.048.36a.728.728 0 01-.024.216c0 .304.08.456.24.456.112 0 .248-.08.408-.24.448-.56 1.296-1.464 2.544-2.712.464-.464.712-.72.744-.767.048-.08.128-.12.24-.12a.35.35 0 01.192.047c.224.113.392.209.504.289.128.08.28.208.456.384a.544.544 0 01.144.36c0 .08-.024.16-.072.24-.144.336-.336 1-.576 1.992-.24.976-.368 1.664-.384 2.064 0 .111-.016.288-.048.528a8.514 8.514 0 00-.024.6c0 .352.032.663.096.936.08.303.12.56.12.768 0 .16-.04.272-.12.336-.064.064-.192.112-.384.144a2.309 2.309 0 01-.36-.24 3.089 3.089 0 00-.408-.313 7.485 7.485 0 00-.192-.6 2.291 2.291 0 01-.096-.768c0-.08-.024-.208-.072-.384-.032-.192-.024-.336.024-.431l-.024-.288c0-.577.136-1.473.408-2.688a.32.32 0 00-.144-.12c-.032-.017-.08.008-.144.072-.208.192-.512.52-.912.984a3.407 3.407 0 01-.192.168.301.301 0 00-.144.264l-.864 1.151zm13.115-5.591c.256.255.384.52.384.791 0 .288-.192.792-.576 1.513a8.688 8.688 0 01-.432 1.032c-.144.32-.256.527-.336.623l-.552 1.273c-.24.527-.536 1.143-.888 1.847a39.01 39.01 0 00-.912 1.993l-.312.504c-.8 1.28-1.416 2.176-1.848 2.688-.88.784-1.56 1.24-2.04 1.367a2.546 2.546 0 01-.744.096c-.528 0-1.024-.12-1.488-.36-.48-.224-.752-.487-.816-.791-.016-.112.024-.232.12-.36.096-.128.2-.192.312-.192.08 0 .144.032.192.096.128.096.312.184.552.264a2.327 2.327 0 001.272.096c.32-.065.656-.257 1.008-.577.352-.32.672-.672.96-1.056.544-.8 1.128-1.8 1.752-3-.224-.063-.44-.215-.648-.456a3.873 3.873 0 01-.504-.791c-.112-.273-.152-.472-.12-.6v-.265c-.144 0-.264-.272-.36-.816a13.184 13.184 0 01-.072-2.928c.064-.256.096-.568.096-.936.016-.384.024-.632.024-.744v-.096c0-.191.016-.328.048-.407a.694.694 0 01.216-.217.852.852 0 01.384-.095c.448 0 .672.592.672 1.776 0 .175-.016.52-.048 1.032-.016.224-.024.56-.024 1.008 0 .831.072 1.568.216 2.207.144.64.36 1.08.648 1.32l.144-.336c.176-.464.312-.76.408-.888.224-.463.352-.76.384-.887.032-.112.12-.296.264-.552l.312-.648.312-.913a7.88 7.88 0 01.528-1.271c.064-.128.16-.313.288-.552.128-.256.232-.44.312-.552a.548.548 0 01.264-.216c.128-.112.232-.168.312-.168.064 0 .176.047.336.144zm9.192-.049c.4-.08.728-.12.984-.12.384 0 .776.08 1.176.24.176.048.392.184.648.408.256.209.416.4.48.576.256.208.48.784.672 1.728-.176 1.217-.432 2.184-.768 2.905-.176.4-.336.696-.48.888a6.865 6.865 0 01-.624.696l-1.176.743c-.48.305-.808.497-.984.577-.176.08-.424.12-.744.12-.224.096-.48.144-.768.144-.288-.017-.48-.024-.576-.024-.464.016-.816-.08-1.056-.288-.224-.224-.312-.529-.264-.913.144-.144.296-.216.456-.216.096 0 .216.024.36.072.176.065.36.096.552.096.192 0 .36-.032.504-.096a.669.669 0 01.288-.047c.144-.017.248-.032.312-.049.432-.16.904-.383 1.416-.672.528-.287.936-.6 1.224-.935.032-.032.08-.129.144-.288.064-.176.088-.297.072-.36a5.65 5.65 0 00-.72.072c-.32.047-.584.096-.792.143a1.14 1.14 0 01-.264.024c-.24 0-.432-.064-.576-.192-.144-.128-.272-.328-.384-.6a.267.267 0 01-.024-.12c0-.08.04-.167.12-.264.08-.111.144-.215.192-.312.08-.015.184-.023.312-.023.144 0 .248.023.312.072a.421.421 0 00.12.047.387.387 0 00.168-.047c.08-.049.152-.056.216-.025.064.033.12.056.168.073.048 0 .16-.008.336-.024.192-.032.496-.064.912-.096.208 0 .336-.072.384-.217.064-.175.096-.392.096-.648 0-.096-.016-.367-.048-.816-.08-.24-.16-.4-.24-.48a1.295 1.295 0 00-.336-.312 3.39 3.39 0 00-.456-.023c-.656 0-1.088.144-1.296.431-.304.224-.608.337-.912.337-.192 0-.296-.056-.312-.169a2.55 2.55 0 00-.072-.336 3.117 3.117 0 01-.048-.504c0-.175.04-.264.12-.264a2.99 2.99 0 00.312-.431c.112-.16.224-.273.336-.337.128-.08.304-.128.528-.144zm16.191 6.817c.064.048.096.12.096.216 0 .111-.04.224-.12.336-.064.095-.128.143-.192.143-.304 0-.6-.08-.888-.24-.272-.175-.408-.448-.408-.816v-1.487c0-.752-.056-1.176-.168-1.273-.24-.128-.656.136-1.248.792a16.508 16.508 0 00-1.68 2.328c-.176.288-.32.513-.432.672-.112.16-.2.24-.264.24-.048 0-.128-.04-.24-.12-.496-.144-.744-.423-.744-.84 0-.047.016-.151.048-.311A37.1 37.1 0 00205 54.8c.16-.657.288-1.209.384-1.657a.248.248 0 00-.24-.143c-.16 0-.344.08-.552.24-.4.272-.912.92-1.536 1.944-.784 1.2-1.328 1.927-1.632 2.183a3.156 3.156 0 01-.312.456c-.08.096-.16.145-.24.145-.064 0-.184-.049-.36-.145-.464-.271-.696-.655-.696-1.151 0-.24.072-.72.216-1.44.144-.72.304-1.392.48-2.016a7.96 7.96 0 00.384-.84c.128-.305.192-.489.192-.553.064-.335.144-.695.24-1.08.096-.383.168-.6.216-.648a.529.529 0 01.384-.167c.24 0 .416.127.528.383a.91.91 0 01.264.672c0 .304-.088.697-.264 1.176-.272.593-.568 1.457-.888 2.593.336-.368.576-.657.72-.864a19.7 19.7 0 011.488-1.825c.496-.544 1.056-.816 1.68-.816.736.129 1.16.745 1.272 1.849 0 .191-.016.431-.048.72a8.697 8.697 0 01-.072.527c.064-.096.224-.303.48-.623a9.5 9.5 0 01.984-.984c.352-.273.68-.409.984-.409.256 0 .48.104.672.313.336.192.576.464.72.816.144.335.216.767.216 1.295 0 .273-.008.488-.024.648-.032.32-.048.52-.048.6 0 .304.056.608.168.913zm3.319 1.728a.92.92 0 01-.456-.096 3.635 3.635 0 01-.48-.36c-.528-.56-.792-1.073-.792-1.537 0-.112.008-.192.024-.24a.618.618 0 00.048-.336v-.216c-.064-.064-.096-.104-.096-.12 0-.031.016-.055.048-.072a.376.376 0 00.072-.096c.096 0 .128-.087.096-.264-.032-.128.032-.407.192-.84.16-.447.36-.855.6-1.224.176-.288.432-.648.768-1.08.352-.431.664-.76.936-.983.384-.337.728-.584 1.032-.745.304-.16.64-.28 1.008-.36.32-.08.536-.12.648-.12.112 0 .208.032.288.096.096.048.216.145.36.288.432.193.728.44.888.745.176.287.264.743.264 1.367 0 1.04-.424 2.169-1.272 3.385-.368.528-.712.936-1.032 1.224-.32.271-.744.567-1.272.887-.336.24-.648.416-.936.528a3.255 3.255 0 01-.936.169zm2.304-2.544a7.78 7.78 0 00.912-1.224c.24-.384.464-.872.672-1.465.08-.272.12-.6.12-.983 0-.48-.064-.752-.192-.816-.16-.08-.32-.12-.48-.12-.352 0-.72.16-1.104.48-.464.4-.88.895-1.248 1.487-.368.576-.744 1.296-1.128 2.16a2.28 2.28 0 00-.24.984c0 .24.056.432.168.576a.642.642 0 00.504.216c.528 0 1.2-.431 2.016-1.296zm12.402 2.831c-.048 0-.208.009-.48.025a1.74 1.74 0 01-.744-.169c-.24-.127-.44-.32-.6-.575a3.75 3.75 0 01-.288-.72 2.536 2.536 0 01-.12-.697.84.84 0 01.048-.264c.304-1.76.552-2.871.744-3.335l.384-.936a2.16 2.16 0 00.072-.864v-.096c0-.208.08-.384.24-.528.272-.209.488-.48.648-.816.112-.273.288-.64.528-1.105.24-.463.416-.767.528-.911.176-.24.336-.472.48-.697l.336-.504c.208-.303.44-.56.696-.767.304-.513.904-1.129 1.8-1.849.384-.32.624-.527.72-.623.048-.048.192-.096.432-.145l.456-.12c.128-.032.344-.087.648-.167.096-.048.272-.008.528.12.272.111.472.24.6.383.256.449.384.8.384 1.056 0 .209-.048.44-.144.697-.096.256-.28.672-.552 1.248-.576 1.151-1.624 2.247-3.144 3.287a9.98 9.98 0 01-1.944 1.344c-.528.272-.96.464-1.296.576-.256.08-.44.264-.552.552-.064.144-.12.32-.168.528-.032.209-.08.344-.144.408-.096.096-.256.633-.48 1.608-.224.977-.336 1.64-.336 1.992 0 .129.016.24.048.337a.36.36 0 00.216.215c.224-.047.4-.12.528-.215a4.04 4.04 0 00.528-.529c.448-.56.768-1.095.96-1.607a5.32 5.32 0 00.144-.552c.048-.24.104-.424.168-.552 0-.56-.008-.92-.024-1.08a2.287 2.287 0 00-.168-.624.997.997 0 00.192-.145.26.26 0 01.24-.072c.368.08.744.304 1.128.672a.382.382 0 01.096.408c-.064.513-.096.88-.096 1.105-.048.111-.128.36-.24.743a1.936 1.936 0 01-.144.6c-.288.593-.496.992-.624 1.2a5.17 5.17 0 01-1.44 1.68l-.792.48zm6.648-14.903a6.72 6.72 0 00-1.104.6c-.256.175-.584.464-.984.864-.384.384-.912 1.04-1.584 1.968-.656.911-1.096 1.648-1.32 2.207.08.017.176.024.288.024.16 0 .296-.08.408-.24 1.136-.784 2.024-1.464 2.664-2.04.64-.592 1.056-1.144 1.248-1.656.064-.128.152-.288.264-.48.112-.207.184-.4.216-.575l-.096-.672zm1.427 14.712a3.912 3.912 0 01-.504.047c-.592 0-1.08-.184-1.464-.551-.384-.368-.576-.88-.576-1.536-.064-.705.088-1.577.456-2.617.384-1.04.864-1.911 1.44-2.615.4-.465.744-.84 1.032-1.129.288-.288.552-.48.792-.575a2.836 2.836 0 011.128-.217c.288.065.568.184.84.36.288.176.432.352.432.528l.12.12c.096 0 .184.12.264.36.08.224.12.473.12.745 0 .224-.04.416-.12.576a2.083 2.083 0 01-.336.792c-.144.224-.288.336-.432.336-.176 0-.264.047-.264.144 0 .063-.032.095-.096.095-.08 0-.176-.047-.288-.144a.817.817 0 01-.24-.336c0-.047.032-.183.096-.407.064-.224.128-.473.192-.745.048-.192.072-.36.072-.504 0-.32-.12-.48-.36-.48a.852.852 0 00-.384.096c-.64.352-1.208.913-1.704 1.68-.496.769-.912 1.825-1.248 3.169-.08.352-.12.631-.12.84 0 .16.008.288.024.384.032.096.064.151.096.168.08.032.248.047.504.047.592 0 1.008-.072 1.248-.215.512-.273 1.08-.64 1.704-1.105.064-.047.16-.128.288-.24.128-.127.248-.215.36-.264.112-.175.216-.28.312-.311.096-.048.248-.072.456-.072.208.063.376.151.504.264.128.096.128.175 0 .24-.048 0-.08.016-.096.047a.184.184 0 00-.024.072c.032.08-.096.28-.384.6a8.8 8.8 0 01-.96.913c-.352.272-.592.408-.72.408a.532.532 0 00-.168.023c-.048.017-.072.056-.072.12 0 .065-.248.217-.744.456-.48.224-.872.368-1.176.432zm10.139-.577c-.4.353-.88.529-1.44.529-.4 0-.784-.096-1.152-.288a2.627 2.627 0 01-.888-.793 2.492 2.492 0 01-.456-.863c-.096-.32-.144-.712-.144-1.176 0-.16.016-.48.048-.96.048-.593.24-1.209.576-1.849a7.161 7.161 0 011.296-1.703c.512-.513 1.016-.864 1.512-1.056.256-.16.488-.24.696-.24.112 0 .224.008.336.023.112.017.232.032.36.049.352.047.616.12.792.215.192.08.352.209.48.384.4.4.6.864.6 1.392-.064.385-.312.825-.744 1.32a5.024 5.024 0 01-1.56 1.2 3.106 3.106 0 01-.984.145c-.496 0-.896-.104-1.2-.313a1.151 1.151 0 00-.336-.072c-.144 0-.256.096-.336.288-.064.192-.128.544-.192 1.056a3.629 3.629 0 00-.024.48c0 .817.272 1.265.816 1.345.368.08.632.12.792.12.192 0 .408-.065.648-.193l.456-.264a.987.987 0 00.264-.191l.216-.216.144-.145a.43.43 0 01.168-.144.387.387 0 01.168-.047c.064 0 .136.04.216.12.08.063.144.111.192.143.144 0 .176.104.096.313-.08.192-.256.424-.528.696a4.884 4.884 0 01-.888.695zm-.024-5.087c.272-.112.544-.313.816-.6.288-.288.432-.529.432-.72a.616.616 0 00-.216-.48c-.144-.129-.344-.193-.6-.193a1.45 1.45 0 00-.432.049c-.224.064-.488.24-.792.528a6.43 6.43 0 00-.792.84c-.224.288-.312.456-.264.504.08.144.392.216.936.216.368 0 .672-.048.912-.145zm4.877 4.68c-.304.111-.536.167-.696.167-.224 0-.464-.096-.72-.288-.224-.224-.336-.447-.336-.671 0-.352.272-.712.816-1.08.32-.193.552-.288.696-.288.08 0 .272.055.576.167.432.257.648.553.648.889 0 .191-.088.383-.264.575-.16.193-.4.369-.72.529zm4.758 0c-.304.111-.536.167-.696.167-.224 0-.464-.096-.72-.288-.224-.224-.336-.447-.336-.671 0-.352.272-.712.816-1.08.32-.193.552-.288.696-.288.08 0 .272.055.576.167.432.257.648.553.648.889 0 .191-.088.383-.264.575-.16.193-.4.369-.72.529zm4.757 0c-.304.111-.536.167-.696.167-.224 0-.464-.096-.72-.288-.224-.224-.336-.447-.336-.671 0-.352.272-.712.816-1.08.32-.193.552-.288.696-.288.08 0 .272.055.576.167.432.257.648.553.648.889 0 .191-.088.383-.264.575-.16.193-.4.369-.72.529z" fill="#fff"/><g clip-path="url(#clip0)"><path d="M12.058 70.045c-.184-3.96 11.966-7.771 27.137-8.512 15.171-.74 27.618 1.87 27.802 5.83.183 3.961-11.966 7.772-27.137 8.512-15.171.74-27.619-1.87-27.802-5.83z" fill="#383838"/><path d="M1.065 27.7l.254-.346.461.277.129-.729.431.195.132-.763.422.17.48.367.247-.396.364-.009.2-.59.262-.367.383.05.602.87.095-1.002.382.066.419.21.272-.351.496.505.379.063.128-.914.282-.317.538.675.318-.176.159-.778.53.634.176-.71.361-.012.315-.17.45.314.324-.15.505.505.046-1.143.529.581.43.217.08-.97.343-.072.33-.12.358-.028.557.575.351-.066.257-.349.349-.072.34-.104.008-1.004.7.873v-.995l.37-.01.181-.493.53.377.614.543.095-.678.202-.414.153-.512.822.932.193-.424.01-.788.724.663.23-.34.226-.332.492.166.092-.577.186-.39.282-.216.532.207.462.079.122-.49h.422l-.245-1.042.609.292.116-.468.557.192.07-.525.544.041-.14-.458.556-.26.013-.359-.196-.408.196-.32.085-.348-.694-.572.924-.103.125-.333-.116-.414-.318-.502.116-.349.137-.339 1.07.06-.81-.747.435-.201.703-.057-.437-.618-.248-.543.37-.217.456-.157-.278-.593.464-.141-.033-.456.312-.235.159-.333.578-.028.095-.38.596.019-.058-.505.593.037-.321-.753.743.195-.128-.606-.147-.647.538.028.679.195.315-.17-.37-.95.768.345-.059-.625.627.22-.229-.882.239-.29.584.205-.025-.675.422-.016.545.192.55.238-.144-.941.548.248.128-.503.606.412-.107-1.018.269-.273.563.38.107-.659.284-.257.688.79.205-.451.278-.27.306-.217.532.537.196-.571.205-.613.59.895.19-.731.456.449.363.075.33-.123.215-.863.465.766.34-.063.26-.882.384.298.364.154.377.594.305-1.212.37 1.067.346-.59.34.578L44.96 0l.303 1.033.394-.678.275.898.431-.816.325.276.382-.191.3.373.43-.43.181.951.395-.21.315.195.462-.421.177.706.49-.458.213.521.603-.74-.043 1.248.563-.549.073.804.49-.305.571-.455.022.848.49-.223.394-.003.03.74.569-.335.006.734.496-.17.027.65.471-.103.716-.48.208.351.312.182.29.217-.272.985.67-.31.413.053.36.132.208.317.19.333.049.483.092.424.514-.025.419.084-.22.72.874-.343-.64 1.08 1.114-.518-.667 1.045.994-.367.01.458-.322.697.881-.216-.465.775.074.374.572.034.045.396.633.018-.483.71 1.162-.267.03.405-.057.443.296.254.444.182.134.339-.177.48-.52.615.386.217.721.097.05.368.213.307-.722.625.787.12-.514.527.942.1.14.342-.752.559.844.173-.465.464-.287.415.743.232.26.33-.447.423-.382.402.707.286-.42.392.6.323-.93.396 1.165.33-1.183.36.238.352.716.383-.012.361-.759.305.75.427.07.376-1.037.226.45.424.1.38-.901.285.437.402-.037.361.688.298-.146.374-.147.373.489.333-.44.383.241.352.055.36-.746.371.278.355.667.36-.498.356.232.367-.336.348-.29.343.85.41-.863.299-.214.336.517.408-.29.33.363.404-.067.355-.214.333.03.367.077.38-.447.282.074.377-.129.34.306.439-.453.26.013.374.186.42-.095.352-.553.21.443.515-.183.32.027.396-.318.27-.798.084.789.688-.287.276.091.433-.899.004.56.646-.184.314-1.137-.157.235.512-.404.188.004.402-.09.355-.112.345-.294.235.547.754-.168.326-.241.276-.973-.216.272.615-.055.402-.541.047-.682-.072.19.59-.523.031.012.459-.245.254.383.797-.27.242-.654-.107-.086.402-.159.34-.192.313-.9-.402.465.98-.8-.33.464 1.023-.346.151-.348.15-.906-.511.484 1.12-.734-.332-.55-.132.02.59-.13.408-.313.17-.575-.192-.095.468-.535-.163.147.838-.315.163-.544-.195-.425-.028.232 1.049-.667-.43-.171.401-.468-.119-.162.427-.034.675-.36.075-.215.361-.688-.58-.29.194-.184.424-.19.43-.421-.072-.578-.452-.315.138-.059.769-.593-.54-.284.22-.147.587-.245.351-.397-.075-.242.377-.358.038-.569-.616-.094.854-.508-.465-.388-.094-.193.584-.27.333-.473-.424-.15.829-.434-.301-.34.075-.257.458-.373-.056-.443-.43-.312.222-.196.845-.428-.377-.34.088-.428-.452-.302.301-.322.226-.278.581-.394-.301-.431-.69-.294.52-.361-.122-.358-.094-.367-.27-.315.48-.32.486-.359-.097-.376-.634-.327.59-.349.167-.352.056-.351-.816-.346-.195-.36 1.058-.346-.317-.337-.336-.33-.395-.34-.094-.39.737-.331-.292-.38.361-.372.223-.3-.546-.285-.584-.379.248-.416.521-.29-.461-.425.468-.349-.057-.294-.367-.437.44-.162-1.037-.544.942-.233-.618-.29-.302-.276-.348-.584.917-.296-.274-.224-.54-.241-.43-.355-.018-.238-.408-.325-.113-.706 1.057-.04-.995-.615.706-.33-.138.058-1.167-.385.04-.22-.383-.508.33-.22-.373-.223-.349-.588.462-.318-.151-.104-.59-.666.558.018-.816-.673.53-.021-.705-.092-.547-.682.49-.131-.47-.095-.519-.398-.01-.593.274.156-.873-.312-.154-.223-.285-.48.075-.808.5.355-1.055-.774.42-.214-.304-.092-.45-.4-.075-.101-.423-.095-.421-.367-.12.076-.59-.78.302.099-.6-.132-.358-.53.016.212-.668-.902.336-.456-.082.655-1.017-.676.1L8.3 48l-.214-.289.186-.584-.835.164.526-.807-.618-.01.132-.511-.214-.286-.584-.056.526-.732-.808.063.251-.552-.498-.132-.447-.173.621-.719-.807.003.608-.687-.563-.129-.29-.26.25-.496-.424-.208-.239-.291-.312-.267.593-.597-.036-.36-.352-.252-.602-.182-.23-.308L3.796 39l.082-.398.505-.506-.1-.339-.077-.348-.257-.305.21-.408.09-.38-.67-.232.501-.452-.394-.292-.743-.248.636-.455-.29-.323.55-.424-.523-.301.263-.383-.321-.33.397-.39.03-.354-1.128-.295.89-.405-.061-.352.272-.364-.168-.602-.737.131-.177-.408-.713.427.19-.9-.31-.17-.538.06-.1-.424-.117-.377-.281-.23-.706-.313 1.088-.031-.024-.18z" fill="#FDEE21"/><path d="M5.777 30.167l.113-.408-.003.038.043-.383c.067-.255.37-.135.38.01l-.01.382v.016l-.003.015-.064.352.1.21.343.189.126.069-.031.141-.07.339.17.213.013.016.01.019.146.289.245.242.015.015.012.016.193.298.04.06-.01.072-.051.386.25.578.227.222.272.201.373.142.14.053-.018.154-.036.304.28.06.157.035-.006.163L9.11 35l.247.098.126.05-.003.138-.013.386.169.141.373.079.137.028.012.144.031.352.232.122.334.151.015.006.012.01.29.2.025.02.019.025.21.282.2.232.293.12.092.037.021.1.074.34.254.06.052.012.04.038.201.204.333.01.092.002.055.076.199.273.245.138.33.066.076.015.043.07.168.26.285.022h.012l.012.003.349.072.018.003.019.007.318.138.055.022.03.05.15.239.288-.1.064-.023.061.022c.165.063.33.116.495.192.16.066.31.14.462.213l.318.075.08.02.043.072.143.247.267-.207.055-.044.07.004.346.021.103.007.05.094.189.364.223-.075.03-.01h.035l.342.01.342-.025.083-.007.061.06.205.2.242-.194.06-.047.077.01.346.034.052.006.043.035.257.2.247-.112.04-.019.043.003.287.013.285-.195.034-.022.04-.006.339-.063.049-.01.046.016.293.104.266-.11.08-.031.076.04.343.18.293.006c.214-.054.431-.104.649-.148l.312-.144.32-.129.297-.179.019-.012.021-.007.29-.094.245-.232.043-.041.061-.01.352-.046.043-.007.04.013.241.078.089-.373.024-.107.104-.031.33-.104.043-.013.046.01.383.069.232-.066.165-.292.064-.113.126.019.275.04.076-.313.031-.126.125-.019.364-.053.23-.078.08-.355.033-.157.156.006.45.016c.152.006.216.355-.013.39l-.25.008-.047.302-.018.129-.15.062c-.113.047-.226.098-.34.142l-.008.003-.04.01-.162.03-.058.302-.052.282-.315-.031-.19-.019-.086.17-.06.122-.169.057-.343.116-.064.022-.11-.013-.3-.034-.064.351-.088.496-.517-.147-.315-.091-.083.015-.168.173-.067.069-.132.047-.25.091-.27.176-.018.013-.061.028-.312.138-.303.157-.043.022-.08.019c-.223.053-.446.11-.669.172l-.052.016h-.092l-.358.003-.122.003-.144-.069-.116-.056-.085.037-.2.088-.24-.078-.187-.06-.043.01-.233.17-.162.115-.232-.003-.18-.003-.218.103-.354.17-.334-.254-.11-.085-.104.085-.459.383-.455-.427-.092-.085-.055.006-.021.004h-.261l-.269.094-.565.2-.263-.492-.643.505-.428-.728-.088-.15-.034-.007-.074-.016-.076-.037-.226-.107c-.077-.038-.147-.066-.22-.097-.068-.029-.129-.057-.2-.082l-.183.066-.55.197-.324-.505-.101-.16-.04-.016-.232-.05-.325-.025-.373-.031-.199-.314-.049-.079-.045-.01-.12-.024-.098-.057-.302-.176-.144-.081-.092-.126-.012-.019-.046-.003-.293-.012-.202-.208-.107-.11-.162-.037-.462-.11-.092-.458-.018-.091-.141-.06-.1-.122-.242-.295-.166-.226-.143-.104-.282-.135-.34-.182-.348-.188-.024-.346-.095-.022-.107-.094-.27-.242-.253-.229.018-.301.003-.044-.367-.157.03-.402-.482-.122.088-.524.01-.054-.05-.022-.036-.031-.294-.239-.049-.04-.006-.01-.25-.27-.086-.09-.028-.073-.257-.681-.058-.154.022-.11.058-.298-.067-.123-.2-.226-.06-.069-.016-.034-.134-.317-.175-.251-.11-.16.04-.142.058-.21-.162-.104-.095-.06-.027-.068a6.399 6.399 0 01-.129-.34l-.04-.103.025-.047zm37.161 3.563l.263.232.077.07-.013.103-.042.326.174.214.238.267.01.01.006.009.195.291.013.02.009.021.12.33.121.292.22.235.056.057v.081l-.006.33.208.179.033.028.019.038.125.27.275.172.058.038.022.07.1.32.172.241.254.22.046.04.012.063.073.302.239.17.006.006.006.006.266.229.01.01.008.009.23.257.027.032.013.04.073.226.11-.015.196-.139c.165-.14.327-.285.489-.43l.202-.26.04-.053.064-.016.263-.063-.022-.31-.003-.063.031-.054.177-.298.052-.088.101-.003.337-.013.094-.003.059.076.134.17.01.012.005.012.175.302.193.288.036.057-.006.069-.021.289.26.147.055.032.027.056.147.323.018.041v.044l-.006.32.205.198.024.025.016.032.131.279.266.204.025.019.018.028.193.295.021.032.006.037.062.314.201.226.046.05.003.07.022.367.125.28c.129.184.257.37.382.558.16.163.315.33.465.499l.156.126.144-.107.18-.289.022-.035.033-.021.303-.201.028-.02.03-.005.263-.066-.006-.355v-.088l.061-.06.263-.248.025-.025.033-.012.346-.142.205-.185.083-.33.024-.093.089-.038.269-.113.003-.32v-.098l.076-.056.297-.217.202-.191.009-.355.003-.12.104-.05.309-.153.049-.123.095-.235.195.157.18.147.068.057.003.088.016.36.06.302.181.23.306.197.064.044.018.078.004.02.024-.026.034-.016.254-.113.131-.282.04-.085.088-.022.334-.081.22-.18.196-.263.024-.035.037-.018.266-.142.116-.276.156-.333.012-.028.022-.022c.143-.154.284-.31.425-.468l.04-.33.012-.093.08-.047.278-.17.14-.26.013-.026.018-.018.22-.22.098-.286.083-.342.009-.031.018-.029.184-.292c.131-.103.394-.047.318.21l-.141.261-.061.336-.006.022-.098.345-.012.044-.05.054-.201.226c-.046.097-.092.194-.14.289l-.034.062-.07.047-.187.123-.025.254-.009.091-.07.085c-.135.163-.273.323-.413.483l-.126.292a8.855 8.855 0 01-.131.333l-.046.116-.116.063-.251.135-.162.22-.025.031-.036.031-.27.223-.06.05-.083.023-.199.05-.086.188-.055.126-.128.06-.248.115-.19.204-.489.525-.146-.71-.046-.238a6.97 6.97 0 01-.175-.145L56.1 41l-.189-.323-.055-.091-.003-.032-.024-.373-.003-.038c.006-.05.009-.1.012-.15l-.22.119c0 .103.003.21.006.314l.003.081-.074.082-.25.276-.025.022-.165.141.025.33.015.182-.211.113-.184.097-.04.251-.012.085-.104.113-.25.273-.028.029-.098.05-.254.128-.036.041c.012.11.021.22.027.33l.018.405-.419.125-.293.088c-.043.032-.086.06-.129.091l-.137.233-.052.088-.095.069c-.095.072-.19.147-.288.216l-.354.254-.324-.273-.273-.229-.04-.034-.02-.026-.23-.26c-.08-.085-.16-.166-.236-.254l-.052-.063-.009-.016c-.119-.2-.241-.402-.367-.596l-.036-.06-.013-.028a6.326 6.326 0 01-.125-.336l-.046-.126v-.053l.003-.276-.095-.126-.094-.125-.01-.088-.036-.323-.098-.18-.214-.194-.086-.075-.021-.057-.114-.301-.19-.214-.103-.116.012-.11.037-.364-.073-.191-.279-.176-.128-.082.015-.135c.012-.116.027-.229.04-.345l-.153-.235-.171-.305-.062-.081-.125.009-.064.132c.012.063.024.125.04.188l.058.236.046.191-.282.135-.205.1a4.407 4.407 0 01-.134.27l-.058.063c-.074.091-.141.188-.22.27-.08.085-.154.176-.236.254l-.043.035a4.234 4.234 0 01-.235.179l-.101.075-.138.022c-.104.016-.208.028-.309.044l-.474.066-.144-.458-.082-.27-.123-.142-.217-.191-.269-.195-.171-.122-.049-.204c-.018-.07-.03-.141-.046-.214l-.125-.113-.058-.053-.028-.04-.196-.293-.055-.084-.018-.07-.052-.181a5.991 5.991 0 01-.144-.098l-.143-.1-.05-.12-.1-.248-.172-.16-.183-.17.012-.21.016-.254c-.031-.037-.065-.075-.095-.113l-.068-.081-.018-.05-.122-.346-.101-.33c-.046-.078-.095-.156-.138-.238l.03.038-.223-.299-.21-.307-.092-.135.024-.107.061-.286-.156-.166-.058-.066-.006-.028-.095-.364c-.04-.267.294-.298.352-.142l.107.305z" fill="#ABA000"/><path d="M36.776 19.563c-1.814-1.863-1.814-4.882 0-6.744a4.561 4.561 0 016.57 0c1.814 1.862 1.814 4.881 0 6.743a4.561 4.561 0 01-6.57 0z" fill="#31332A"/><path d="M38.189 13.22c0 .74.908 1.34 2.03 1.34 1.123 0 2.031-.6 2.031-1.34 0-.742-.908-1.341-2.03-1.341-1.123-.003-2.031.6-2.031 1.34z" fill="#636A78"/><path d="M60.529 10.002l.067.342.572.034.046.393.633.021-.483.71 1.165-.267.027.405-.058.446.3.25.44.186.135.34-.177.48-.52.612.382.216.725.094.046.37.214.308-.725.625.786.12-.514.527.942.103.14.34-.752.558.844.173-.461.464-.29.415.449.135a4.798 4.798 0 001.792-3.761c0-2.634-2.08-4.771-4.649-4.771-.37 0-.73.047-1.076.132z" fill="#31332A"/><path d="M62.681 10.717c-.18.292.101.807.63 1.152.53.345 1.104.39 1.285.098.18-.292-.101-.807-.63-1.152-.53-.346-1.104-.39-1.285-.098z" fill="#636A78"/><path d="M50.678 19.07c.006.044.015.113.034.198.137.678.694 2.495 2.024 2.712 1.37.22 6.276-1.94 7.123-2.8.08-.078.125-.15.125-.207 0-.05-.04-.12-.116-.201-.712-.804-4.554-2.982-5.823-3.695a.94.94 0 00-.902-.022c-1.774.892-2.373 3.092-2.456 3.82a1.23 1.23 0 00-.009.195z" fill="#FC8B2D"/><path d="M50.678 19.07c.006.044.015.113.034.198.764.085 1.529.113 2.293.138.777.019 1.554.016 2.328 0 .777-.012 1.55-.038 2.327-.075a46.765 46.765 0 002.199-.151c.08-.078.125-.15.125-.207 0-.05-.04-.12-.116-.201a40.35 40.35 0 00-2.214-.107 82.088 82.088 0 00-2.327-.028c-.777 0-1.55.016-2.325.047a28.93 28.93 0 00-2.318.188 1.65 1.65 0 00-.006.198zm4.024-2.709c-.058.176.126.418.413.543.288.126.57.085.627-.09.058-.177-.125-.418-.413-.544-.287-.122-.569-.084-.627.091z" fill="#D13301"/><path d="M20.108 66.065h4.053l-.273-12.42v-.054a.862.862 0 01.881-.842.866.866 0 01.82.905l-.453 12.355L36.033 64.9c.26-.025.492.17.517.433a.483.483 0 01-.425.53l-8.077.823 9.438 1.758a.482.482 0 01.379.565.477.477 0 01-.465.398c-.028 0-.055-.003-.086-.006L27.02 67.484l6.753 4.279c.223.141.29.44.153.668a.465.465 0 01-.652.157l-8.77-5.556-4.399.003a.478.478 0 01-.47-.483.48.48 0 01.473-.487zm17.982-1.016c0 .266.211.483.471.483l4.398-.003 8.771 5.556a.47.47 0 00.652-.16.496.496 0 00-.153-.669l-6.756-4.278 10.297 1.918c.028.006.058.006.086.006a.48.48 0 00.465-.399.488.488 0 00-.383-.565l-9.437-1.758 8.077-.822a.48.48 0 00.421-.53.475.475 0 00-.516-.434l-10.897 1.108.27-7.345-.46-.42-.388-.095-.193.584-.272.333-.088-.079.156 7.076h-4.053a.49.49 0 00-.468.493z" fill="#FC8B2D"/></g><defs><clipPath id="clip0"><path fill="#fff" transform="matrix(-1 0 0 1 67 0)" d="M0 0h67v76H0z"/></clipPath></defs></svg>