<svg xmlns="http://www.w3.org/2000/svg" width="97" height="74" fill="none"><path d="M2.688 57.584c-.168-3.48 13.433-6.946 30.378-7.742 16.946-.795 30.818 1.382 30.986 4.862.168 3.48-13.433 6.947-30.379 7.742-16.945.796-30.817-1.381-30.985-4.861z" fill="#E3E3E3"/><g clip-path="url(#clip0)"><path d="M3.938 12.142h15.75v46.5l-15.75-3.875V12.142z" fill="#EDBC7C"/><path d="M57.094 12.142H19.687v46.5l37.407-1.937V12.142z" fill="#D4A263"/><path d="M63 27.642H23.625l-3.938-15.5h37.407L63 27.642z" fill="#F4D0A1"/><path d="M49.22 12.142H10.347c.586-2.861 3.161-5.02 6.248-5.02 1.49 0 2.855.528 3.939 1.381.548-2.924 3.137-5.145 6.26-5.145a6.337 6.337 0 016.068 4.454c2.7-1.329 5.636-.648 7.524 1.33 3.377-1.804 7.369-.251 8.834 3z" fill="#fff"/><path d="M45.509 31.136l-3.816 4.491 1.923.037v11.031l3.762-.085V35.736l1.842.037-3.711-4.637zm-11.802-.434l-4.176 4.69 2.104.04V46.97l4.112-.094V35.512l2.01.039-4.05-4.849zm13.67 19.531l-15.742.582v-1.922l15.742-.47v1.81z" fill="#A97A45"/><path d="M3.938 12.142h15.75l-3.938 15.5L0 26.673l3.938-14.53z" fill="#F8E1C2"/></g><g clip-path="url(#clip1)"><path d="M46.157 68.75c-.17-3.492 11.074-6.851 25.112-7.504 14.04-.653 25.557 1.649 25.727 5.14.17 3.492-11.073 6.851-25.112 7.504-14.039.653-25.557-1.648-25.727-5.14z" fill="#E3E3E3"/><path d="M35.984 31.419l.234-.304.428.243.119-.642.399.172.121-.673.391.15.444.323.23-.348.336-.009.184-.52.244-.324.353.045.558.766.088-.883.353.059.388.185.252-.31.458.446.351.055.12-.805.26-.28.498.595.294-.155.147-.686.49.559.164-.626.334-.01.291-.15.416.277.3-.133.467.445.043-1.007.49.512.398.19.074-.854.317-.064.306-.105.33-.025.516.507.325-.059.238-.307.323-.063.314-.092.008-.885.648.769v-.877l.343-.009.167-.434.49.332.568.479.088-.598.186-.365.142-.451.761.822.179-.374.008-.694.67.583.213-.299.21-.293.455.147.085-.51.173-.342.26-.192.492.183.428.07.113-.432h.39l-.226-.92.563.258.108-.412.515.169.065-.462.504.036-.13-.404.515-.23.01-.316-.18-.36.18-.282.08-.307-.642-.504.854-.09.116-.294-.107-.365-.294-.443.107-.307.127-.3.991.053-.75-.658.402-.177.65-.05-.404-.545-.23-.48.343-.19.422-.138-.258-.523.43-.125-.03-.401.288-.208.147-.293.535-.025.088-.335.552.017-.054-.446.549.033-.297-.664.688.172-.12-.534-.135-.57.498.025.628.171.292-.15-.343-.838.71.305-.053-.551.58.194-.212-.778.22-.255.541.18-.023-.595.39-.014.505.17.509.21-.133-.83.507.218.118-.443.56.363-.098-.897.249-.24.52.334.1-.581.263-.227.636.697.19-.398.258-.238.283-.19.492.472.181-.503.19-.54.546.789.175-.645.422.396.337.066.306-.108.198-.76.43.674.314-.055.24-.778.357.263.337.136.348.523.283-1.068.342.94.32-.52.314.51.357-.958.28.91.365-.597.255.791.399-.72.3.244.354-.169.277.33.399-.38.167.84.365-.186.291.171.428-.37.164.622.453-.404.198.46.557-.654-.04 1.102.522-.485.067.709.453-.269.53-.4.02.746.452-.196.365-.003.028.653.527-.296.005.648.459-.15.025.573.436-.091.662-.424.193.31.288.16.27.192-.252.869.62-.274.381.047.334.116.193.28.175.293.046.426.084.374.476-.023.387.075-.203.634.81-.302-.592.952 1.03-.456-.617.921.92-.324.008.404-.297.615.815-.191-.43.683.068.33.529.03.042.349.586.016-.447.626 1.076-.236.028.358-.054.39.275.224.41.16.124.3-.164.423-.48.542.356.191.668.086.045.324.198.27-.668.552.727.105-.475.465.872.088.13.302-.696.492.78.153-.43.41-.265.364.687.205.24.29-.412.374-.354.354.654.252-.388.346.555.285-.86.349 1.078.29-1.096.319.221.31.662.337-.011.319-.702.268.693.376.066.332-.96.2.416.373.094.335-.835.252.404.354-.034.319.637.262-.136.33-.135.329.452.293-.407.338.223.31.051.318-.69.327.257.312.617.319-.461.312.215.324-.311.307-.27.302.788.362-.799.263-.198.296.479.36-.27.29.338.358-.063.313-.198.293.028.324.071.334-.413.25.068.332-.119.298.283.388-.419.23.012.329.172.37-.087.31-.513.186.41.454-.17.282.026.349-.294.238-.739.075.73.606-.266.243.085.382-.832.003.518.57-.17.277-1.052-.139.218.451-.374.166.003.355-.082.312-.105.305-.272.207.507.664-.156.288-.223.244-.9-.191.252.542-.051.354-.501.042-.631-.064.175.52-.484.028.012.404-.227.224.354.703-.25.213-.605-.094-.079.355-.147.298-.178.277-.832-.354.43.863-.742-.29.43.902-.32.133-.322.133-.838-.452.448.988-.68-.293-.51-.116.02.52-.121.36-.289.15-.532-.17-.087.413-.496-.144.136.739-.291.144-.504-.172-.394-.025.216.925-.617-.38-.159.355-.433-.106-.15.377-.03.595-.335.066-.198.318-.637-.512-.269.172-.17.374-.175.379-.39-.064-.535-.398-.292.121-.053.678-.55-.476-.263.194-.136.518-.226.31-.368-.067-.223.332-.332.033-.526-.542-.088.753-.47-.41-.359-.083-.178.515-.25.293-.438-.373-.138.73-.402-.265-.315.066-.237.404-.346-.05-.41-.379-.288.197-.182.744-.396-.332-.314.077-.396-.398-.28.266-.297.199-.258.512-.365-.266-.4-.609-.27.46-.335-.108-.33-.083-.34-.238-.292.423-.297.429-.331-.086-.348-.559-.303.52-.323.147-.325.05-.326-.72-.32-.171-.333.932-.32-.279-.312-.296-.305-.349-.314-.083-.362.65-.306-.257-.351.318-.345.197-.278-.482-.263-.514-.35.218-.386.46-.269-.407-.393.412-.323-.05-.271-.324-.405.388-.15-.913-.504.83-.215-.545-.269-.266-.254-.307-.54.808-.275-.24-.207-.477-.223-.379-.329-.017-.22-.36-.3-.099-.654.933-.037-.877-.569.622-.305-.122.053-1.03-.356.037-.204-.338-.47.29-.204-.328-.206-.308-.543.407-.295-.133-.096-.52-.617.493.017-.72-.623.468-.02-.623-.084-.481-.631.431-.122-.415-.088-.456-.368-.009-.549.241.145-.77-.29-.135-.206-.252-.444.067-.747.44.328-.93-.716.37-.198-.268-.085-.395-.37-.067-.094-.373-.088-.371-.34-.105.072-.52-.722.265.09-.529-.121-.315-.49.014.195-.59-.834.297-.422-.072.605-.897-.625.088-.39-.105-.199-.254.173-.515-.773.144.487-.711-.572-.009.122-.45-.198-.253-.54-.05.486-.644-.747.055.232-.487-.461-.116-.413-.152.574-.634-.747.003.563-.606-.52-.114-.27-.23.233-.437-.394-.182-.22-.258-.289-.235.55-.526-.035-.318-.325-.221-.558-.16-.212-.272-.116-.302.076-.351.467-.446-.093-.299-.07-.307-.239-.268.196-.36.082-.335-.62-.205.464-.398-.365-.257-.688-.219.589-.401-.269-.285.51-.374-.485-.265.244-.338-.297-.29.368-.344.028-.313-1.044-.26.823-.357-.056-.31.252-.32-.156-.532-.682.116-.164-.36-.66.377.176-.794-.286-.15-.498.053-.094-.374-.107-.332-.26-.202-.654-.277 1.007-.027-.022-.158z" fill="#FCEE21"/><path d="M40.344 33.594l.105-.36-.003.033.04-.337c.062-.224.342-.12.35.008l-.008.338v.013l-.003.014-.06.31.094.186.317.166.116.06-.028.125-.065.299.158.188.011.014.009.017.136.254.226.213.014.014.012.014.178.263.037.052-.009.064-.048.34.232.51.21.196.252.177.345.125.13.047-.017.136-.034.268.26.053.145.03-.006.144-.011.288.229.085.116.045-.003.121-.011.34.155.125.346.07.127.024.011.128.029.31.215.108.308.132.014.006.012.008.269.177.022.017.017.022.195.25.184.204.272.105.085.033.02.089.068.299.235.052.048.011.036.034.187.18.309.008.085.003.05.066.184.24.227.122.306.059.07.014.04.06.156.23.263.02h.011l.011.002.323.064.017.003.017.005.294.122.051.02.029.044.138.21.266-.089.06-.02.056.02c.153.056.306.103.459.17.147.057.286.124.427.187l.294.067.074.016.04.064.133.219.246-.183.05-.039.066.003.32.02.096.005.045.083.176.32.206-.066.029-.008h.03l.318.008.317-.022.076-.005.057.052.19.178.223-.172.056-.042.071.009.32.03.048.006.04.03.237.177.23-.1.036-.016.04.003.266.01.263-.17.031-.02.037-.006.314-.055.045-.008.043.013.272.092.246-.097.073-.028.071.036.317.158.272.006c.198-.048.399-.092.6-.13l.288-.128.298-.113.274-.158.017-.011.02-.006.269-.083.226-.204.04-.036.056-.009.326-.041.04-.006.036.011.224.07.082-.33.023-.094.096-.028.305-.09.04-.012.043.008.353.061.215-.058.153-.257.06-.1.116.017.254.036.071-.277.028-.11.116-.017.337-.047.212-.07.074-.312.031-.139.144.006.416.014c.142.005.201.313-.01.343l-.233.008-.042.266-.017.113-.139.056c-.105.041-.21.086-.314.124l-.009.003-.036.008-.15.028-.054.266-.048.249-.292-.028-.175-.017-.08.15-.056.108-.156.05-.317.102-.06.02-.101-.012-.277-.03-.06.31-.082.437-.478-.13-.292-.08-.076.014-.156.152-.062.06-.122.042-.232.08-.249.155-.017.011-.056.025-.289.122-.28.139-.04.019-.073.017a16.64 16.64 0 00-.62.152l-.048.013h-.085l-.331.003-.114.003-.133-.06-.107-.05-.08.032-.183.078-.224-.07-.172-.052-.04.009-.215.149-.15.102-.215-.002-.167-.003-.201.091-.328.15-.309-.224-.102-.075-.096.075-.424.337-.422-.376-.085-.075-.05.005-.02.003h-.241l-.25.083-.523.177-.243-.434-.595.446-.396-.642-.082-.133-.031-.006-.068-.014-.07-.033-.21-.094c-.07-.033-.136-.058-.204-.086-.062-.025-.119-.05-.184-.072l-.17.058-.509.175-.3-.446-.093-.141-.037-.014-.215-.044-.3-.022-.346-.028-.183-.277-.046-.069-.042-.008-.11-.022-.091-.05-.28-.155-.133-.072-.085-.11-.011-.017-.043-.003-.272-.011-.186-.183-.1-.097-.15-.033-.427-.097-.085-.404-.017-.08-.13-.053-.093-.108-.224-.26-.153-.199-.133-.091-.26-.12-.314-.16-.323-.166-.022-.304-.088-.02-.1-.082-.248-.214-.235-.202.017-.265.003-.039-.34-.138.028-.355-.447-.107.082-.463.009-.047-.045-.02-.034-.027-.272-.21-.045-.036-.006-.008-.232-.238-.08-.08-.025-.064-.238-.6-.053-.136.02-.097.053-.263-.062-.108-.184-.2-.056-.06-.015-.03-.124-.28-.161-.221-.102-.142.036-.124.054-.186-.15-.09-.088-.053-.025-.061a5.446 5.446 0 01-.119-.3l-.037-.09.023-.042zm34.388 3.141l.244.205.07.06-.01.092-.04.288.16.188.222.235.008.008.006.009.18.257.012.017.009.02.11.29.113.257.204.208.051.05v.071l-.006.29.193.159.03.025.018.033.116.238.255.152.053.033.02.061.094.282.158.213.235.194.042.036.012.055.068.266.22.15.006.005.006.006.246.202.008.008.009.008.212.227.026.028.01.036.069.199.102-.014.18-.122c.154-.124.304-.251.454-.379l.186-.23.037-.046.06-.014.243-.056-.02-.274-.003-.055.029-.047.164-.263.048-.077.093-.003.312-.011.087-.003.054.066.125.15.008.011.006.011.161.266.178.254.034.05-.005.061-.02.255.24.13.051.027.026.05.136.285.017.036v.039l-.006.282.19.175.022.022.014.027.122.247.246.18.023.016.017.025.178.26.02.028.006.033.056.277.187.199.043.044.002.061.02.324.116.246c.12.163.238.327.354.493.147.144.291.29.43.44l.144.11.134-.094.166-.254.02-.03.031-.02.28-.177.026-.017.028-.005.244-.058-.006-.313v-.078l.057-.052.243-.219.023-.022.03-.011.32-.124.19-.164.077-.29.022-.083.082-.034.25-.1.002-.282v-.085l.07-.05.276-.191.186-.169.009-.313.003-.105.096-.044.286-.136.045-.108.088-.207.18.138.168.13.062.05.003.078.014.318.057.266.166.202.283.174.06.039.017.069.003.017.022-.023.032-.013.234-.1.122-.25.037-.074.082-.02.308-.071.204-.158.181-.232.023-.03.034-.017.246-.125.108-.243.144-.294.011-.025.02-.02c.133-.135.263-.273.394-.411l.036-.291.012-.083.073-.042.258-.149.13-.23.011-.022.017-.016.204-.194.09-.252.077-.302.008-.027.017-.025.17-.258c.122-.09.365-.041.295.186l-.13.23-.057.296-.006.019-.09.304-.012.04-.045.046-.187.2a7.578 7.578 0 01-.13.254l-.031.055-.065.042-.173.108-.022.224-.009.08-.065.075c-.125.144-.252.285-.382.426l-.116.258c-.04.1-.08.196-.122.293l-.042.102-.108.056-.232.119-.15.193-.023.028-.033.028-.25.196-.056.044-.077.02-.183.044-.08.166-.05.11-.12.053-.229.103-.175.18-.453.462-.136-.626-.042-.21a5.983 5.983 0 01-.162-.127l-.073-.064-.176-.285-.05-.08-.004-.028-.022-.33-.003-.032a2.13 2.13 0 00.011-.133l-.203.105c0 .091.003.185.005.277l.003.072-.068.072-.232.243-.023.02-.152.124.022.29.014.161-.195.1-.17.086-.036.22-.012.076-.096.1-.232.24-.025.025-.091.044-.235.114-.034.036c.011.096.02.193.026.29l.017.357-.388.11-.272.078-.119.08-.127.205-.048.078-.088.06c-.088.064-.175.13-.266.192l-.328.224-.3-.24-.252-.203-.037-.03-.02-.023-.212-.23c-.074-.074-.147-.146-.218-.223l-.048-.056-.008-.014c-.11-.177-.224-.354-.34-.525l-.034-.053-.011-.025a4.427 4.427 0 01-.116-.296l-.043-.11v-.048l.003-.243-.088-.11-.087-.112-.009-.077-.034-.285-.09-.158-.198-.171-.08-.067-.02-.05-.104-.265-.176-.188-.096-.103.011-.097.034-.32a10.027 10.027 0 00-.068-.17l-.257-.155-.119-.072.014-.118c.011-.103.026-.203.037-.305l-.141-.207-.159-.269-.057-.072-.116.008-.06.117a5.6 5.6 0 00.038.166l.053.207.043.17-.26.118-.19.089c-.04.08-.08.16-.125.238l-.053.055c-.068.08-.13.166-.204.238-.074.075-.142.155-.218.224l-.04.03c-.07.056-.144.108-.218.158l-.093.067-.127.02c-.097.013-.193.024-.286.038l-.439.058-.133-.404-.076-.238-.113-.125-.201-.168-.25-.172-.158-.108-.045-.18c-.017-.06-.028-.124-.043-.188l-.116-.1-.053-.047-.026-.036-.181-.257-.05-.075-.018-.06-.048-.161-.133-.086-.133-.088-.045-.106-.094-.218-.158-.141-.17-.15.011-.185.014-.224-.087-.1-.063-.072-.016-.044-.114-.305-.093-.29c-.042-.07-.088-.139-.127-.21l.028.033-.207-.263-.195-.271-.085-.12.023-.093.056-.252-.144-.147-.054-.058-.005-.025-.088-.321c-.037-.235.272-.263.325-.124l.1.268z" fill="#ABA000"/><path d="M69.031 24.246a4.138 4.138 0 010-5.945c1.68-1.641 4.4-1.641 6.08 0a4.138 4.138 0 010 5.945c-1.68 1.641-4.4 1.641-6.08 0z" fill="#31332A"/><path d="M70.338 18.653c0 .653.84 1.182 1.88 1.182 1.038 0 1.879-.529 1.879-1.182 0-.653-.84-1.181-1.88-1.181-1.038-.003-1.879.528-1.879 1.181z" fill="#636A78"/><path d="M91.01 15.817l.063.302.53.03.042.346.586.02-.448.625 1.079-.236.025.358-.054.392.278.222.407.163.125.299-.164.423-.481.54.353.19.67.084.043.326.199.272-.671.55.727.106-.475.465.871.09.13.3-.696.492.781.152-.427.41-.269.365.416.12a4.158 4.158 0 001.659-3.316c0-2.322-1.925-4.206-4.302-4.206-.343 0-.676.041-.996.116z" fill="#31332A"/><path d="M93.003 16.448c-.167.257.094.71.583 1.015.49.305 1.022.343 1.189.086.167-.257-.094-.711-.583-1.015-.49-.305-1.022-.344-1.189-.086z" fill="#636A78"/><path d="M81.895 23.811c.006.04.014.1.031.175.128.598.643 2.2 1.874 2.39 1.267.194 5.807-1.71 6.59-2.468.074-.069.117-.133.117-.182 0-.045-.037-.106-.108-.177-.66-.709-4.214-2.63-5.388-3.258a.908.908 0 00-.835-.019c-1.641.786-2.196 2.726-2.272 3.368a1.032 1.032 0 00-.009.171z" fill="#FC8B2D"/><path d="M81.895 23.811c.006.04.014.1.031.175a28.7 28.7 0 002.123.122 51.51 51.51 0 002.153 0 69.743 69.743 0 002.154-.067 44.54 44.54 0 002.035-.133c.073-.069.116-.133.116-.182 0-.044-.037-.105-.108-.177a39.145 39.145 0 00-2.049-.095 80.135 80.135 0 00-2.153-.024c-.72 0-1.435.014-2.151.041-.713.033-1.43.078-2.145.166-.006.08-.009.139-.006.174zm3.725-2.388c-.054.155.116.368.382.479.266.11.526.075.58-.08.054-.155-.116-.369-.382-.48-.266-.107-.527-.074-.58.081z" fill="#D13301"/><path d="M53.607 65.241h3.75l-.252-10.95v-.047a.782.782 0 01.815-.742.779.779 0 01.758.797l-.418 10.893 10.083-.977c.24-.022.456.15.478.382a.431.431 0 01-.393.467l-7.474.725 8.733 1.55a.426.426 0 01.351.498.436.436 0 01-.43.352c-.026 0-.05-.003-.08-.006l-9.525-1.69 6.249 3.771a.422.422 0 01.141.59.443.443 0 01-.603.138l-8.116-4.898-4.07.003a.431.431 0 01-.436-.427c0-.235.196-.429.44-.429zm16.639-.897c0 .236.196.427.436.427l4.07-.003 8.116 4.898a.446.446 0 00.603-.141.425.425 0 00-.141-.59l-6.252-3.771 9.529 1.69a.439.439 0 00.51-.346.432.432 0 00-.355-.498l-8.733-1.55 7.474-.724a.429.429 0 00.39-.468.434.434 0 00-.478-.382l-10.083.977.249-6.476-.425-.37-.359-.083-.178.514-.252.294-.082-.07.144 6.238h-3.75a.441.441 0 00-.433.434z" fill="#FC8B2D"/></g><defs><clipPath id="clip0"><path fill="#fff" d="M0 0h63v62H0z"/></clipPath><clipPath id="clip1"><path fill="#fff" transform="matrix(-1 0 0 1 97 7)" d="M0 0h62v67H0z"/></clipPath></defs></svg>