<svg xmlns="http://www.w3.org/2000/svg" width="122" height="122" fill="none"><g clip-path="url(#clip0)"><path d="M86.97 92.47c-4.945 1.213-9.152 4.852-10.888 9.926a.983.983 0 00.673 1.269l5.17 1.385 10.855-.658 4.051-3.48 3.714-3.85a.983.983 0 00-.079-1.436 15.24 15.24 0 00-5.638-3.002l-7.858-.154z" fill="#FED402"/><path d="M69.094 91.88l4.9 1.312L60.45 99.98l-36.504-9.781-7.104-12.32L69.095 91.88z" fill="#E5E1E5"/><path d="M97 27.715l-.085 4.036L94.82 75.09l-1.375 7.123-3.76.118-1.009-7.538 2.16-44.671.66-3.533L97 27.715z" fill="#EFEDEF"/><path d="M10.086 83.046l-5.39-1.444a.776.776 0 01-.475-1.126c3.316-6.065 10.467-9.33 17.434-7.462 7.296 1.955 11.954 8.884 11.312 16.163l-22.88-6.13z" fill="#FEE97D"/><path d="M90.636 34.226l.199-4.104.66-3.533L97 27.715l-.084 4.036-.199 4.104-6.08-1.629z" fill="#E5E1E5"/><path d="M101.887 33.083l-12.766-3.421a1.386 1.386 0 01-.98-1.698l.482-1.797a3.83 3.83 0 014.081-2.82l11.025 1.105a2.818 2.818 0 012.441 3.534l-.832 3.104a2.818 2.818 0 01-3.451 1.993z" fill="#FEE45A"/><path d="M95.124 28.723a5.496 5.496 0 006.732-3.886l.139-.518.008-.04 1.726.173a2.818 2.818 0 012.441 3.533l-.832 3.105a2.818 2.818 0 01-3.451 1.992l-12.766-3.42a1.386 1.386 0 01-.98-1.698l.278-1.038 6.706 1.797z" fill="#FEDF30"/><path d="M59.053 96.167l28.46-11.974 4.29-1.928.163 8.401-4.997 1.804-16.624 6.723-12.512 4.482-2.872-6.715 4.092-.793z" fill="#FEE97D"/><path d="M88.216 116.259a9.12 9.12 0 114.721-17.616 9.12 9.12 0 01-4.721 17.616z" fill="#736572"/><path d="M88.347 81.55l5.52.419 1.35 2.61-1.026 21.222a2.254 2.254 0 01-2.36 2.141l-3.347-.161a2.252 2.252 0 01-2.141-2.36l1.027-21.235.977-2.637z" fill="#FEE45A"/><path d="M15.423 96.619A9.068 9.068 0 1120.117 79.1a9.068 9.068 0 01-4.694 17.519z" fill="#736572"/><path d="M69.709 100.876l-6.835 3.946c-.48.277-1.05.352-1.586.209L22.434 94.62l-5.739-4.252a2.264 2.264 0 01-.839-2.405l.257-.958a2.264 2.264 0 012.773-1.6l51.459 13.787-.349 1.308a.617.617 0 01-.287.376z" fill="#EFEDEF"/><path d="M52.94 100.275c2.2.589 4.545.28 6.518-.859l3.716-2.145 7.17 1.921-.348 1.308a.617.617 0 01-.287.376l-6.835 3.946c-.48.277-1.05.352-1.586.209L22.435 94.62l-5.328-3.947 35.833 9.601v.001zM94.82 75.09l-1.374 7.123-3.76.118-1.01-7.538.18-3.733 6.145.297-.18 3.733z" fill="#E5E1E5"/><path d="M87.95 104.837a2.253 2.253 0 002.359-2.141l1.01-20.92 2.547.193 1.35 2.61-1.025 21.221a2.253 2.253 0 01-2.36 2.141l-3.347-.161a2.251 2.251 0 01-2.141-2.359l.032-.66 1.574.076z" fill="#FEDF30"/><path d="M88.384 75.058a.574.574 0 00-.6.547l-.415 8.58.143.007 7.703.387.415-8.595a.576.576 0 00-.545-.602l-6.701-.324z" fill="#D7D0D6"/><path d="M91.333 81.475l.302-6.26 3.45.167c.316.016.56.285.545.602l-.415 8.595-4.023-.202.14-2.902z" fill="#B8B2B8"/></g><path fill-rule="evenodd" clip-rule="evenodd" d="M22.075 51.327l.263-.248.35.297.215-.583.337.225.22-.61.334.204.35.373.269-.29.308.048.254-.458.277-.264.315.098.382.809.226-.815.314.112.324.235.281-.25.344.493.312.109.241-.738.285-.218.354.637.294-.099.25-.62.354.603.254-.559.305.043.293-.094.333.326.295-.076.353.494.205-.937.363.557.332.245.21-.791.3-.008.296-.05.306.03.386.559.307-.004.268-.25.306-.008.302-.034.155-.829.464.826.143-.824.316.049.222-.38.394.389.44.54.178-.547.232-.313.203-.398.558.893.225-.323.123-.648.517.653.243-.244.24-.24.392.209.161-.463.214-.294.27-.14.418.252.38.134.175-.386.355.063-.053-.898.47.33.167-.368.441.241.138-.422.453.114-.052-.4.507-.132.063-.295-.104-.367.212-.235.123-.274-.504-.577.795.053.156-.256-.038-.361-.198-.462.15-.27.167-.26.895.208-.576-.74.396-.1.602.06-.279-.579-.13-.487.344-.123.408-.062-.15-.531.416-.047.038-.383.296-.147.185-.252.492.063.134-.3.503.104.024-.426.494.119-.16-.67.599.272-.02-.52-.03-.557.452.103.543.262.291-.094-.173-.841.597.402.042-.527.498.275-.065-.764.244-.202.465.256.077-.56.36.047.431.241.43.277.017-.797.424.285.183-.397.453.43.057-.855.268-.186.42.397.184-.528.28-.172.466.758.238-.344.276-.182.288-.134.372.524.25-.443.261-.475.369.828.265-.578.32.44.298.116.295-.052.309-.68.281.702.295-.002.348-.692.281.305.285.18.233.548.433-.956.16.939.377-.438.202.528.485-.84.104.898.433-.503.1.785.485-.612.232.277.352-.101.198.354.429-.292.011.815.366-.117.236.207.452-.277.047.61.481-.306.104.461.619-.522-.22 1.026.555-.37-.054.676.458-.178.549-.291-.104.703.444-.113.334.057-.082.618.53-.194-.102.61.443-.066-.07.541.41-.017.677-.29.123.321.238.198.214.222-.374.775.611-.157.34.107.286.16.13.293.113.304-.03.408.016.364.437.055.341.133-.289.56.788-.15-.698.795 1.017-.262-.716.767.892-.156-.059.38-.372.528.776-.049-.505.573.006.32.48.114-.02.332.532.112-.512.513 1.022-.046-.034.338-.115.358.216.254.347.218.065.3-.22.371-.53.43.294.238.598.185-.014.313.137.286-.703.41.648.213-.512.361.782.224.07.303-.718.349.688.269-.46.316-.305.3.596.302.171.31-.438.285-.384.274.556.343-.41.262.459.356-.843.188.936.446-1.052.123.149.326.55.422-.064.3-.685.137.57.465.005.321-.907.033.317.417.03.33-.803.1.311.398-.086.294.54.348-.18.288-.178.285.365.348-.428.252.153.326-.008.306-.682.197.183.333.51.4-.473.218.144.338-.336.237-.295.24.657.467-.77.118-.23.247.375.414-.293.228.25.39-.11.283-.228.243-.027.31.007.323-.416.168.005.324-.158.26.195.408-.421.148-.044.31.095.378-.129.275-.498.092.298.49-.202.24-.033.329-.31.177-.685-.05.566.687-.282.186.013.37-.758-.13.378.617-.201.234-.94-.3.125.459-.368.096-.055.332-.127.28-.146.267-.284.151.353.706-.188.244-.245.193-.79-.326.14.55-.105.324-.465-.04-.566-.162.076.515-.447-.05-.058.381-.243.173.207.715-.263.162-.537-.188-.13.321-.185.257-.208.229-.701-.466.25.88-.63-.392.245.914-.316.074-.315.072-.69-.557.245.999-.572-.386-.446-.19-.07.49-.17.318-.288.095-.457-.246-.147.374-.43-.216.002.717-.29.086-.43-.24-.357-.087.044.901-.501-.454-.202.305-.379-.166-.199.326-.127.553-.316.01-.234.265-.494-.581-.276.116-.217.325-.223.327-.344-.123-.424-.46-.287.067-.159.629-.424-.536-.271.14-.21.462-.258.256-.327-.122-.257.275-.31-.023-.39-.593-.203.692-.362-.46-.314-.135-.248.454-.277.234-.338-.42-.246.661-.324-.313-.3.011-.282.341-.306-.102-.314-.42-.294.137-.29.668-.306-.374-.3.02-.295-.436-.302.205-.304.137-.32.44-.288-.31-.263-.634-.324.388-.288-.155-.288-.13-.271-.28-.336.352-.343.355-.287-.136-.225-.579-.364.438-.318.085-.305-.004-.18-.729-.261-.211-.46.82-.246-.312-.237-.328-.22-.377-.273-.128-.438.552-.236-.292-.373.244-.348.127-.173-.497-.157-.525-.355.15-.43.37-.177-.427-.425.324-.287-.097-.196-.349-.433.299.014-.882-.598.699-.105-.548-.203-.29-.182-.332-.625.673-.211-.272-.11-.478-.142-.391-.297-.07-.142-.373-.259-.14-.75.769.111-.83-.622.492-.258-.163.219-.956-.332-.023-.13-.35-.477.197-.131-.341-.139-.322-.563.293-.247-.172-.002-.503-.644.363.135-.67-.646.336.085-.586.002-.466-.649.304-.042-.408-.003-.442-.336-.07-.54.138.258-.698-.241-.174-.145-.269-.418-.009-.754.292.453-.819-.715.232-.137-.283-.012-.384-.327-.123-.023-.365-.021-.36-.292-.155.151-.476-.704.131.172-.48-.06-.316-.448-.064.275-.521-.81.141-.375-.134.702-.743-.585-.019-.34-.161-.138-.271.242-.456-.73.013.562-.59-.52-.098.186-.407-.139-.265-.485-.134.55-.527-.691-.07.294-.418-.404-.184-.352-.208.63-.502-.684-.119.617-.476-.458-.19-.207-.26.283-.372-.329-.236-.158-.276-.225-.268.589-.404.02-.303-.26-.262-.481-.24-.15-.289-.057-.3.128-.319.501-.342-.036-.295-.015-.298-.17-.291.236-.306.131-.3-.533-.292.491-.298-.29-.3-.594-.317.604-.282-.197-.309.527-.27-.399-.326.277-.279-.222-.32.393-.261.077-.29-.91-.412.81-.201.002-.301.281-.26-.054-.523-.641-.001-.09-.363-.666.245.292-.715-.237-.189-.464-.029-.022-.364-.044-.33-.203-.233-.551-.362.923.134.007-.151z" fill="#FDEE21"/><path fill-rule="evenodd" clip-rule="evenodd" d="M26.009 54.442l.154-.318-.009.03.09-.307c.095-.2.332-.056.318.064l-.063.313-.003.013-.004.012-.106.279.054.188.262.206.096.075-.046.112-.109.269.114.202.008.014.005.016.082.26.17.234.01.014.008.016.12.272.025.057-.019.058-.099.31.129.512.158.215.2.205.295.171.112.065-.038.123-.075.244.228.09.128.052-.03.134-.059.266.196.115.099.06-.023.113-.066.315.121.14.303.12.112.044-.01.12-.024.292.178.132.26.174.01.007.011.01.216.207.02.018.011.024.137.262.135.22.231.142.073.045.004.085.014.29.207.086.042.018.027.037.14.196.278.059.076.015.036.07.129.254.185.15.268.103.063.024.027.062.104.24.236.058.01.003.01.003.284.111.015.006.014.009.248.16.042.027.02.046.092.217.258-.04.056-.009.048.028c.131.075.263.145.39.23.124.079.24.163.358.245l.257.108.063.027.025.065.086.225.253-.129.054-.027.058.014.288.07.088.02.028.087.107.327.199-.029.027-.003.027.005.287.057.293.03.07.008.042.057.145.194.23-.124.058-.03.063.017.285.08.045.013.03.034.187.203.224-.056.037-.01.037.009.241.052.267-.116.032-.014h.369l.037.02.233.129.24-.05.072-.016.059.044.262.198.246.047c.189-.012.378-.02.567-.024l.282-.072.29-.056.276-.102.017-.007.019-.002.259-.033.24-.156.044-.028.051.003.304.013.036.002.032.017.193.1.127-.291.037-.085.091-.011.295-.036.038-.005.036.013.313.112.204-.018.181-.215.071-.084.104.035.227.075.154-.345.109.004.314.01.205-.03.118-.28.053-.122.13.028.376.08c.129.027.132.323-.067.316l-.213-.03-.081.241-.035.103-.136.029c-.102.022-.204.046-.307.066l-.008.002h-.034l-.14.004-.092.24-.086.224-.262-.072-.157-.043-.096.127-.069.092-.149.022-.304.045-.057.008-.09-.027-.247-.074-.104.279-.147.393-.413-.197-.253-.121h-.072l-.166.116-.067.048-.117.02-.225.038-.27.112-.056.013-.282.068-.317.095-.069.003c-.197.01-.393.024-.589.043l-.046.004-.079-.013-.302-.05-.105-.016-.11-.079-.09-.063-.079.019-.18.043-.34-.177-.038.002-.222.104-.152.072-.195-.038-.15-.03-.198.054-.323.087-.245-.257-.08-.086-.1.056-.441.247-.322-.417-.064-.083-.047-.004-.018-.002-.04-.007-.18-.033-.24.038-.507.081-.15-.444-.616.319-.255-.66-.053-.137-.026-.01-.06-.026-.06-.04-.174-.122c-.06-.043-.114-.076-.17-.112-.052-.032-.101-.065-.157-.096l-.165.027-.491.08-.2-.465-.063-.146-.03-.02-.19-.074-.268-.07-.31-.08L31 63.55l-.03-.07-.038-.016-.098-.038-.075-.061-.23-.19-.108-.089-.059-.117-.008-.017-.04-.009-.246-.053-.139-.2-.074-.105-.13-.055-.372-.159-.013-.389-.002-.077-.11-.07-.068-.117-.162-.278-.106-.21-.105-.106-.217-.152-.26-.2-.268-.206.03-.285-.077-.034-.075-.093-.19-.238-.183-.226.06-.245.009-.037-.287-.183.083-.325-.389-.17.15-.417.015-.043-.038-.024-.027-.031-.213-.24-.035-.04-.005-.007-.172-.26-.058-.087-.132-.659-.026-.133.034-.086.093-.236-.04-.11-.136-.215-.041-.065-.008-.032-.068-.28-.11-.23-.07-.147.054-.11.08-.164-.123-.11-.07-.064-.014-.062a9.96 9.96 0 01-.06-.296l-.018-.092.024-.048zm30.873 8.002l.19.237.056.07-.028.087-.085.272.116.208.164.264.006.01.13.288.009.018.003.02.054.3.061.266.154.235.038.058-.014.067-.054.28.153.183.023.029.01.036.065.25.21.19.045.04.008.061.038.29.11.232.184.226.034.04.004.055.018.267.178.18.006.006.005.006.193.236.007.009.006.009.158.254.018.03.005.035.028.204.097.002.19-.088c.162-.096.323-.194.484-.294l.212-.19.043-.04.056-.003.235-.015.029-.268.005-.053.035-.04.197-.228.058-.068.088.012.29.04.081.01.04.073.091.165.006.011.005.012.104.283.12.276.024.053-.014.057-.062.243.243.199.014.053.076.297.01.037-.008.039-.054.272.145.2.019.025.008.03.07.257.197.213.019.021.011.025.122.28.014.03v.035l.006.277.139.224.03.05-.006.059-.036.315.065.257c.083.177.164.355.242.534.112.163.22.328.324.495l.114.131.14-.069.198-.219.025-.027.033-.015.289-.124.026-.011.028-.002.235-.016.049-.303.012-.074.323-.212.026-.016.03-.007.316-.068.203-.128.12-.269.035-.077.08-.018.249-.055.052-.274.016-.083.075-.037.286-.14.2-.134.06-.3.02-.1.097-.029.289-.084.06-.096.117-.186.144.164.133.152.05.057-.01.077-.042.31.006.266.12.222.233.215.05.047.003.068v.017l.025-.018.031-.008.236-.059.155-.22.046-.065.078-.005.298-.019.215-.119.208-.194.027-.025.035-.012.25-.078.14-.218.183-.26.015-.023.02-.015c.147-.11.292-.222.436-.335l.084-.274.025-.079.075-.029.264-.102.16-.2.016-.018.02-.014.22-.155.127-.23.134-.305.019-.02.202-.22c.128-.069.345.02.24.227l-.16.2-.103.276-.008.017-.135.279-.017.037-.05.039-.209.162c-.054.076-.108.152-.164.226l-.037.049-.069.028-.177.076-.079.288-.074.062c-.14.118-.282.235-.426.35l-.15.23c-.052.088-.108.175-.162.262l-.058.093-.109.035-.236.078-.172.163-.025.025-.037.02-.262.15-.06.034-.073.005-.179.013-.169.246-.12.031-.23.06-.692.518-.02-.626-.003-.21a2.763 2.763 0 01-.128-.15l-.056-.072v-.002l-.115-.303-.033-.086.037-.35.002-.032a2.15 2.15 0 00.032-.126l-.206.069c-.015.09-.03.178-.042.268l-.01.07-.076.058-.256.197-.025.014-.164.095-.028.285-.015.158-.197.064-.174.056-.071.208-.024.07-.107.081-.283.215-.092.028-.236.073-.037.029a5.192 5.192 0 01-.027.286l-.045.347-.379.044-.265.03-.122.058-.154.177-.06.067-.09.046c-.094.047-.186.096-.28.141l-.343.163-.237-.281-.2-.237-.029-.034-.015-.025-.157-.257c-.054-.085-.111-.167-.163-.254l-.036-.06-.005-.014c-.072-.19-.148-.378-.225-.565l-.023-.056-.006-.024a7.216 7.216 0 01-.057-.307l-.02-.114.01-.045.044-.234-.063-.121-.062-.12.02-.357-.058-.167-.155-.198-.061-.077-.01-.05-.052-.273-.131-.212-.07-.115.025-.092.085-.304a5.095 5.095 0 00-.033-.175l-.213-.191-.099-.089.033-.113.086-.288-.094-.224-.1-.285-.041-.078-.109-.013a3.32 3.32 0 00-.073.105c0 .055 0 .11.005.166l.015.209.012.169-.261.074-.19.053c-.051.071-.102.143-.156.211l-.06.044c-.075.067-.15.138-.23.198-.08.06-.157.126-.24.18l-.044.023c-.075.042-.152.08-.229.118l-.098.048-.122-.002c-.091-.002-.182-.007-.272-.01l-.416-.014-.054-.413-.031-.242-.084-.137-.157-.195-.202-.208-.127-.131-.013-.18c-.004-.063-.006-.126-.008-.189l-.09-.116-.041-.055-.018-.04-.124-.277-.035-.08-.006-.062-.017-.162-.11-.106-.108-.108-.023-.109-.049-.226-.255-.337.043-.177.052-.214-.064-.11-.045-.08-.008-.045-.053-.312-.036-.297a8.537 8.537 0 01-.082-.224l.02.037-.147-.288-.134-.294-.058-.127.133-.323c-.037-.055-.074-.11-.108-.165l-.04-.064-.001-.025-.027-.324c.007-.232.296-.21.323-.068l.054.275z" fill="#ABA000"/><path fill-rule="evenodd" clip-rule="evenodd" d="M52.81 47.008c-.374 2.124 1.026 4.146 3.128 4.516 2.102.37 4.11-1.05 4.484-3.173.374-2.124-1.026-4.145-3.128-4.516-2.102-.37-4.11 1.05-4.484 3.173z" fill="#31332A"/><path fill-rule="evenodd" clip-rule="evenodd" d="M55.613 45.025c-.094.53.575 1.093 1.495 1.255.92.162 1.741-.137 1.835-.668.093-.53-.576-1.093-1.496-1.255-.92-.162-1.74.137-1.834.668z" fill="#636A78"/><path fill-rule="evenodd" clip-rule="evenodd" d="M75.13 45.607l.005.298.47.113-.02.338.523.11-.508.528 1.007-.054-.037.345-.114.367.212.257.338.22.063.307-.22.38-.523.442.287.24.587.186-.016.32.133.291-.694.422.636.215-.506.37.768.226.067.307-.708.362.675.27-.454.325-.304.308.35.182a4.148 4.148 0 002.05-2.916c.392-2.226-1.02-4.335-3.152-4.711a3.74 3.74 0 00-.914-.048z" fill="#31332A"/><path fill-rule="evenodd" clip-rule="evenodd" d="M76.501 46.406c-.172.235-.054.725.265 1.095.32.37.718.479.891.244.173-.234.054-.724-.265-1.094-.32-.37-.718-.48-.89-.245z" fill="#636A78"/><path fill-rule="evenodd" clip-rule="evenodd" d="M65.707 51.768a1.788 1.788 0 000 .167c.014.576.206 2.144 1.263 2.512 1.088.379 5.411-.683 6.228-1.266.078-.053.125-.106.133-.15.007-.042-.017-.103-.065-.182-.468-.76-3.293-3.098-4.23-3.864a.787.787 0 00-.734-.149c-1.579.473-2.387 2.19-2.56 2.773a.804.804 0 00-.035.16z" fill="#FA7100"/><path fill-rule="evenodd" clip-rule="evenodd" d="M65.7 51.813a3.81 3.81 0 00-.015.248c.606.213 1.226.362 1.846.5.63.134 1.265.243 1.903.336.636.098 1.276.176 1.918.242a24.3 24.3 0 001.831.131.507.507 0 00.147-.235.56.56 0 00-.05-.265 23.22 23.22 0 00-1.788-.45 42.313 42.313 0 00-1.896-.369 30.165 30.165 0 00-1.91-.275 16.182 16.182 0 00-1.937-.103 1.817 1.817 0 00-.05.24zm3.344-2.23c-.09.207.021.536.252.735.23.2.49.195.581-.012.092-.206-.02-.536-.25-.735-.23-.2-.491-.195-.582.012z" fill="#D13301"/><path fill-rule="evenodd" clip-rule="evenodd" d="M32.632 85.936l3.489.615 1.562-10.236a.738.738 0 01.89-.598.735.735 0 01.572.867l-2.177 10.072 9.538.743a.41.41 0 01.382.435.406.406 0 01-.441.371l-7.072-.55 7.87 2.875a.405.405 0 01.246.52.411.411 0 01-.53.237l-8.584-3.136 5.194 4.535a.4.4 0 01.036.571.418.418 0 01-.582.031l-6.747-5.89-3.786-.666a.409.409 0 01-.337-.47.408.408 0 01.477-.326zm15.399 2.087a.41.41 0 00.336.473l3.786.666 6.739 5.932c.171.15.432.136.583-.033a.405.405 0 00-.035-.576l-5.19-4.567 8.584 3.151a.414.414 0 00.53-.24.41.41 0 00-.246-.525l-7.868-2.888 7.073.545a.409.409 0 00.442-.376.412.412 0 00-.38-.438l-9.541-.734 1.305-6.043-.334-.419-.32-.135-.25.454-.283.233-.065-.08-.9 5.885-3.488-.615a.41.41 0 00-.478.33z" fill="#FA7100"/><defs><clipPath id="clip0"><path fill="#fff" transform="scale(-1 1) rotate(-15 36.887 475.865)" d="M0 0h99.536v99.536H0z"/></clipPath></defs></svg>