<svg xmlns="http://www.w3.org/2000/svg" width="114" height="53" fill="none"><rect width="114" height="53" rx="7" fill="#F6F6F6"/><path d="M11.1 25.74l1.204-10.604h11.693v3.453H15.7l-.516 4.485a6.566 6.566 0 013.139-.788c1.987 0 3.544.616 4.671 1.849 1.128 1.232 1.691 2.956 1.691 5.173 0 1.347-.287 2.555-.86 3.625a6.029 6.029 0 01-2.436 2.48c-1.06.582-2.312.874-3.754.874-1.261 0-2.432-.254-3.511-.76-1.08-.516-1.935-1.237-2.565-2.164-.621-.926-.95-1.982-.989-3.167h4.098c.086.87.387 1.548.903 2.035.526.478 1.209.717 2.05.717.936 0 1.657-.335 2.163-1.003.507-.679.76-1.634.76-2.866 0-1.185-.292-2.093-.874-2.723-.583-.63-1.41-.946-2.48-.946-.984 0-1.781.258-2.393.774l-.4.372-3.297-.816zm17.483 15.49l-2.164-1.132.516-.931c.64-1.166.97-2.326.989-3.482v-3.21h3.496l-.014 2.866c-.01 1.06-.277 2.13-.803 3.21-.525 1.08-1.199 1.972-2.02 2.68zm19.962-13.857c0 2.885-.598 5.092-1.792 6.62-1.194 1.53-2.942 2.294-5.245 2.294-2.273 0-4.012-.75-5.216-2.25-1.203-1.5-1.82-3.65-1.848-6.449v-3.84c0-2.914.602-5.126 1.805-6.635 1.214-1.51 2.957-2.264 5.23-2.264 2.275 0 4.013.75 5.217 2.25 1.204 1.49 1.82 3.635 1.849 6.434v3.84zm-4.142-4.213c0-1.729-.239-2.985-.716-3.768-.468-.793-1.204-1.19-2.207-1.19-.975 0-1.696.377-2.164 1.132-.459.745-.702 1.916-.73 3.511v5.073c0 1.7.229 2.966.687 3.797.468.822 1.213 1.233 2.235 1.233 1.013 0 1.744-.397 2.193-1.19.449-.793.683-2.006.702-3.64V23.16zM65.973 34h-.872v-4.214l-1.287.44v-.74l2.048-.753h.111V34zm5.354 0h-3.53v-.602l1.749-1.907a4.35 4.35 0 00.537-.703c.108-.19.162-.38.162-.57 0-.25-.07-.451-.212-.605-.14-.154-.328-.231-.566-.231-.284 0-.504.086-.66.26-.156.173-.234.41-.234.71h-.876c0-.32.072-.607.216-.862.147-.257.354-.456.624-.598.271-.142.584-.213.937-.213.51 0 .91.129 1.204.386.296.255.443.608.443 1.06a1.8 1.8 0 01-.223.825c-.147.286-.388.612-.725.977l-1.283 1.374h2.437V34zm3.973-3.865c0 .258-.066.487-.199.689a1.38 1.38 0 01-.54.472c.274.128.484.302.63.523.15.221.224.471.224.75 0 .461-.156.828-.469 1.1-.312.269-.728.403-1.247.403-.522 0-.94-.136-1.254-.407-.313-.272-.47-.637-.47-1.096 0-.281.075-.534.224-.757.15-.224.358-.396.628-.516a1.386 1.386 0 01-.537-.472 1.246 1.246 0 01-.195-.689c0-.447.144-.801.432-1.063.289-.262.678-.393 1.168-.393.493 0 .884.131 1.172.393.288.262.433.616.433 1.063zm-.761 2.39c0-.259-.078-.468-.234-.627-.154-.16-.358-.241-.613-.241s-.46.079-.613.238c-.151.158-.227.369-.227.63 0 .258.074.463.223.617.152.154.36.23.624.23s.47-.074.617-.223c.148-.149.223-.357.223-.623zm-.112-2.357a.808.808 0 00-.198-.563.678.678 0 00-.534-.223c-.223 0-.4.07-.53.213-.13.139-.194.33-.194.573 0 .24.065.431.194.573.133.142.31.213.534.213.224 0 .4-.071.53-.213.132-.142.198-.333.198-.573zm3.493 1.846c0-.383.076-.726.228-1.031.151-.308.364-.544.638-.707.274-.166.588-.249.944-.249.527 0 .953.17 1.28.509.33.338.507.788.534 1.348l.003.205a2.3 2.3 0 01-.223 1.031 1.624 1.624 0 01-.635.703 1.802 1.802 0 01-.952.25c-.55 0-.99-.184-1.323-.549-.329-.368-.493-.857-.493-1.467v-.043zm.876.075c0 .402.083.717.25.945a.81.81 0 00.691.339.795.795 0 00.689-.346c.166-.231.249-.569.249-1.013 0-.395-.086-.707-.256-.938a.807.807 0 00-.689-.346.803.803 0 00-.681.343c-.168.226-.253.564-.253 1.016zm3.526-1.99h.876v3.202h1.522v-3.202h.876v3.202h.53l-.073 1.856h-.796V34h-2.935v-3.9zm6.14 3.973c-.556 0-1.006-.174-1.352-.523-.344-.35-.516-.817-.516-1.398v-.109c0-.389.075-.736.224-1.041a1.681 1.681 0 011.543-.974c.53 0 .94.17 1.229.509.29.338.436.818.436 1.438v.353h-2.549c.027.322.134.577.321.765.19.187.428.28.714.28.401 0 .728-.161.98-.486l.473.45a1.587 1.587 0 01-.627.545 1.97 1.97 0 01-.876.191zm-.105-3.342a.743.743 0 00-.584.253c-.147.168-.24.402-.281.703h1.669v-.065c-.02-.293-.097-.515-.234-.664-.137-.151-.327-.227-.57-.227zM94.013 34h-.876v-1.575H91.62V34h-.876v-3.9h.876v1.625h1.517V30.1h.876V34zm.772-1.986c0-.383.076-.726.227-1.031.151-.308.364-.544.638-.707.274-.166.589-.249.945-.249.526 0 .953.17 1.28.509.329.338.507.788.533 1.348l.004.205c0 .385-.075.729-.224 1.031a1.624 1.624 0 01-.635.703 1.802 1.802 0 01-.951.25c-.55 0-.992-.184-1.323-.549-.33-.368-.494-.857-.494-1.467v-.043zm.876.075c0 .402.083.717.249.945a.81.81 0 00.692.339.795.795 0 00.688-.346c.166-.231.25-.569.25-1.013 0-.395-.086-.707-.257-.938a.807.807 0 00-.688-.346.803.803 0 00-.682.343c-.168.226-.252.564-.252 1.016zm4.877.368h-.443V34h-.876v-3.9h.876v1.557h.386l1.078-1.558h1.081l-1.409 1.868L102.759 34h-1.139l-1.082-1.543z" fill="#4D4D4D"/><path d="M66.5 17l.786 2.418h2.543l-2.058 1.495.786 2.419-2.057-1.495-2.057 1.495.786-2.419-2.058-1.495h2.543L66.5 17zm8 0l.786 2.418h2.543l-2.058 1.495.786 2.419-2.057-1.495-2.057 1.495.786-2.419-2.058-1.495h2.543L74.5 17zm8 0l.786 2.418h2.543l-2.058 1.495.786 2.419-2.057-1.495-2.057 1.495.786-2.419-2.058-1.495h2.543L82.5 17zm8 0l.786 2.418h2.543l-2.058 1.495.786 2.419-2.057-1.495-2.057 1.495.786-2.419-2.058-1.495h2.543L90.5 17zm8 0l.786 2.418h2.543l-2.058 1.495.786 2.419-2.057-1.495-2.057 1.495.786-2.419-2.058-1.495h2.543L98.5 17z" fill="#F8CD46"/></svg>