<svg xmlns="http://www.w3.org/2000/svg" width="107" height="44" fill="none"><rect width="107" height="44" rx="7" fill="#fff"/><path d="M12.428 25.522c1.894 0 3.429-1.508 3.429-3.369 0-1.86-1.535-3.37-3.429-3.37-1.893 0-3.428 1.51-3.428 3.37s1.535 3.37 3.428 3.37zm13.895 0c1.893 0 3.428-1.508 3.428-3.369 0-1.86-1.535-3.37-3.428-3.37-1.894 0-3.428 1.51-3.428 3.37s1.534 3.37 3.428 3.37z" fill="#FCEE21"/><path d="M25.147 23.446H13.76c-1.061 0-1.973-.636-2.325-1.624-.352-.987-.041-2.04.787-2.692l.042-.03 11.118-7.62a2.743 2.743 0 012.802-.178 2.647 2.647 0 011.455 2.356v7.335c0 1.359-1.118 2.453-2.49 2.453zm-11.999-3.14c-.47.381-.336.88-.284 1.028a.917.917 0 00.895.626h11.388a.964.964 0 00.974-.957v-7.34c0-.442-.238-.834-.642-1.038a1.194 1.194 0 00-1.233.077l-11.098 7.603zM39.23 32.694a3.7 3.7 0 01-1.518-1.394c-.363-.596-.544-1.268-.544-2.021 0-.753.181-1.425.544-2.015.362-.59.87-1.049 1.517-1.38.653-.33 1.388-.494 2.217-.494.844 0 1.574.184 2.185.55a3.005 3.005 0 011.305 1.527l-2.02 1.049c-.336-.677-.833-1.018-1.486-1.018-.466 0-.855.157-1.16.473-.306.316-.46.753-.46 1.313 0 .565.154 1.013.46 1.334.305.32.694.483 1.16.483.653 0 1.145-.34 1.486-1.018l2.02 1.044a3.054 3.054 0 01-1.305 1.526c-.616.367-1.341.55-2.185.55-.829-.01-1.564-.178-2.217-.509zm12.665-6.454c.652.57.979 1.45.979 2.631v4.2H50.44v-.978c-.378.733-1.109 1.1-2.201 1.1-.58 0-1.078-.102-1.497-.306a2.274 2.274 0 01-.958-.83 2.2 2.2 0 01-.321-1.19c0-.718.27-1.273.813-1.665.538-.397 1.377-.59 2.501-.59h1.486c-.046-.8-.574-1.201-1.579-1.201-.357 0-.72.055-1.087.173a2.843 2.843 0 00-.938.483l-.88-1.797c.414-.28.916-.493 1.507-.646a7.098 7.098 0 011.781-.229c1.233-.01 2.175.275 2.828.845zm-2.134 5.059a1.25 1.25 0 00.497-.657v-.656H49.13c-.76 0-1.139.254-1.139.768a.69.69 0 00.259.56c.176.138.414.209.715.209.305-.005.57-.076.797-.224zm11.913 1.771v-3.975l-1.91 3.303H58.65l-1.86-3.359v4.031h-2.35v-7.563h2.75l2.076 3.95 2.284-3.95h2.46l.015 7.558h-2.35v.005zm5.625-.376a3.765 3.765 0 01-1.507-1.395c-.363-.595-.544-1.267-.544-2.02 0-.744.181-1.415.544-2.01a3.724 3.724 0 011.496-1.39c.637-.331 1.357-.494 2.165-.494s1.533.163 2.175.494c.642.33 1.14.788 1.497 1.379.357.59.538 1.262.538 2.015 0 .754-.18 1.425-.538 2.021a3.736 3.736 0 01-1.497 1.395c-.642.336-1.367.504-2.175.504-.792 0-1.512-.168-2.154-.5zm3.288-2.087c.295-.32.44-.764.44-1.334 0-.56-.145-.992-.44-1.313-.295-.315-.668-.473-1.129-.473-.46 0-.834.158-1.129.473-.295.316-.44.754-.44 1.313 0 .565.145 1.013.44 1.334.296.32.668.483 1.13.483.46-.005.833-.162 1.128-.483zm7.797-.229h-.88v2.692h-2.615v-7.563h2.615v2.79h.937l1.828-2.79h2.766l-2.502 3.624 2.668 3.934h-3.082l-1.735-2.687zM89.8 26.24c.652.57.978 1.45.978 2.631v4.2h-2.434v-.978c-.378.733-1.108 1.1-2.201 1.1-.58 0-1.077-.102-1.497-.306a2.274 2.274 0 01-.958-.83 2.2 2.2 0 01-.32-1.19c0-.718.269-1.273.812-1.665.539-.397 1.378-.59 2.501-.59h1.487c-.047-.8-.575-1.201-1.58-1.201-.357 0-.72.055-1.087.173a2.843 2.843 0 00-.938.483l-.88-1.797c.414-.28.917-.493 1.507-.646a7.098 7.098 0 011.782-.229c1.232-.01 2.175.275 2.827.845zm-2.135 5.059c.228-.148.394-.366.498-.657v-.656h-1.13c-.76 0-1.139.254-1.139.768 0 .235.088.418.26.56.175.138.414.209.714.209.306-.005.57-.076.797-.224zm11.337-3.685h-2.393v5.451h-2.6v-5.45h-2.407v-2.108h7.4v2.107zm-53.689-5.11v-4.937l-2.476 4.159h-.74l-2.434-4.169v4.952h-1.57v-7.451h1.803l2.615 4.657 2.74-4.657h1.61l.016 7.446h-1.564zm5.133-.392a3.559 3.559 0 01-1.399-1.359c-.336-.58-.502-1.236-.502-1.974 0-.733.166-1.39.502-1.965a3.547 3.547 0 011.399-1.354c.595-.326 1.263-.488 2.009-.488.75 0 1.424.162 2.02.488a3.58 3.58 0 011.398 1.354c.336.575.502 1.232.502 1.965 0 .733-.166 1.394-.502 1.974a3.526 3.526 0 01-1.398 1.36c-.596.325-1.27.488-2.02.488-.746 0-1.414-.163-2.01-.489zm3.573-1.644c.414-.427.621-.992.621-1.69 0-.697-.207-1.262-.621-1.69-.414-.427-.938-.64-1.57-.64-.631 0-1.154.213-1.558.64-.41.428-.611.993-.611 1.69 0 .698.202 1.263.61 1.69.41.428.928.642 1.56.642.637 0 1.16-.214 1.569-.642zm5.525 2.036h-1.481v-7.461h1.724v4.88l4.138-4.88h1.48v7.461h-1.724v-4.88l-4.137 4.88zm4.541-9.136c-.642.428-1.429.636-2.35.636-.923 0-1.71-.213-2.352-.636v-1.354c.72.438 1.502.652 2.351.652a4.48 4.48 0 002.351-.652v1.354z" fill="#000"/></svg>