<svg xmlns="http://www.w3.org/2000/svg" width="47" height="47" fill="none"><g clip-path="url(#clip0)"><path d="M23.5 47.001c12.979 0 23.5-10.521 23.5-23.5S36.479.001 23.5.001 0 10.522 0 23.501s10.521 23.5 23.5 23.5z" fill="#039BE5"/><path d="M10.753 22.992l22.658-8.736c1.052-.38 1.97.257 1.63 1.847l.001-.002-3.858 18.175c-.286 1.289-1.051 1.602-2.122.995l-5.875-4.33-2.834 2.73c-.314.314-.578.578-1.185.578l.417-5.979 10.889-9.837c.473-.417-.106-.652-.73-.236l-13.457 8.471-5.8-1.81c-1.26-.399-1.287-1.259.266-1.866z" fill="#fff"/></g><defs><clipPath id="clip0"><path fill="#fff" transform="translate(0 .001)" d="M0 0h47v47H0z"/></clipPath></defs></svg>