<svg xmlns="http://www.w3.org/2000/svg" width="33" height="34" fill="none"><path fill-rule="evenodd" clip-rule="evenodd" d="M20.535 19.933c-.17.492-.987.94-1.38 1.001a2.733 2.733 0 01-1.287-.082 11.683 11.683 0 01-1.165-.445c-2.05-.911-3.39-3.037-3.491-3.178-.102-.14-.835-1.14-.835-2.177 0-1.036.528-1.546.716-1.756a.741.741 0 01.545-.263c.136 0 .272 0 .392.007.125.006.293-.049.46.361.17.422.578 1.458.63 1.563.05.105.084.229.016.369-.068.14-.102.228-.204.351-.102.123-.215.275-.306.37-.103.103-.21.218-.09.429.12.21.529.9 1.136 1.457.78.717 1.44.94 1.644 1.046.204.105.324.087.443-.053.12-.14.511-.614.647-.826.136-.21.272-.175.46-.105.187.07 1.192.579 1.396.685.204.105.34.157.392.246.05.088.05.509-.12 1zm-3.999-10.01c-3.75 0-6.8 3.14-6.8 7 0 1.323.358 2.612 1.039 3.727l.162.264-.687 2.584 2.573-.695.247.151a6.628 6.628 0 003.46.977h.003c3.747 0 6.796-3.141 6.798-7.002a7.07 7.07 0 00-1.989-4.954c-1.284-1.322-2.99-2.052-4.806-2.052z" fill="#5D5D5D"/><path fill-rule="evenodd" clip-rule="evenodd" d="M16.534 25.353h-.003a7.972 7.972 0 01-3.908-1.025L8.286 25.5l1.161-4.366a8.598 8.598 0 01-1.092-4.212c.002-4.644 3.67-8.422 8.179-8.422 2.187 0 4.242.878 5.785 2.47a8.501 8.501 0 012.394 5.96c-.002 4.644-3.671 8.423-8.179 8.423zM16.5 0C7.387 0 0 7.61 0 17c0 9.388 7.387 17 16.5 17C25.612 34 33 26.388 33 17c0-9.39-7.388-17-16.5-17z" fill="#5D5D5D"/></svg>