<svg xmlns="http://www.w3.org/2000/svg" width="47" height="47" fill="none"><g clip-path="url(#clip0)" fill-rule="evenodd" clip-rule="evenodd" fill="#67D449"><path d="M29.247 27.556c-.242.68-1.406 1.3-1.965 1.384-.501.075-1.136.106-1.833-.115a16.96 16.96 0 01-1.659-.614c-2.92-1.26-4.827-4.199-4.973-4.393-.145-.194-1.188-1.577-1.188-3.01 0-1.431.752-2.136 1.02-2.427a1.07 1.07 0 01.775-.364c.194 0 .388.001.558.01.18.009.419-.068.655.5.242.583.824 2.015.898 2.16.072.145.12.316.023.51s-.145.315-.29.486c-.146.169-.306.379-.437.51-.145.143-.298.302-.128.593.17.29.754 1.244 1.619 2.015 1.112.991 2.05 1.298 2.341 1.445.29.146.461.12.63-.073.17-.194.729-.85.922-1.141.194-.291.388-.243.655-.146.266.097 1.698.8 1.99.948.29.145.484.217.557.339.072.122.072.703-.17 1.383zm-5.694-13.838c-5.34 0-9.685 4.341-9.687 9.677 0 1.829.511 3.61 1.48 5.151l.231.366-.978 3.572 3.665-.96.352.208a9.654 9.654 0 004.928 1.35h.004c5.336 0 9.68-4.342 9.682-9.68a9.62 9.62 0 00-2.833-6.847 9.618 9.618 0 00-6.844-2.837z"/><path d="M23.549 35.048h-.005a11.63 11.63 0 01-5.567-1.417l-6.176 1.62 1.654-6.035a11.614 11.614 0 01-1.555-5.822c.003-6.42 5.227-11.643 11.649-11.643 3.115 0 6.04 1.213 8.24 3.415a11.571 11.571 0 013.408 8.238c-.003 6.42-5.229 11.644-11.649 11.644zM23.5.001C10.52.001 0 10.521 0 23.501c0 12.978 10.52 23.5 23.5 23.5 12.978 0 23.5-10.522 23.5-23.5 0-12.98-10.522-23.5-23.5-23.5z"/></g><defs><clipPath id="clip0"><path fill="#fff" transform="translate(0 .001)" d="M0 0h47v47H0z"/></clipPath></defs></svg>