<svg xmlns="http://www.w3.org/2000/svg" width="799" height="208" fill="none"><path fill-rule="evenodd" clip-rule="evenodd" d="M323.333 0c-3.088 6.444-5.726 12.123-8.519 17.729-12.851 25.745-25.587 51.542-38.708 77.147-3.223 6.289-3.326 11.554-.067 17.936 14.835 29.014 29.241 58.245 43.77 87.403 1.104 2.224 2.052 4.541 3.446 7.613H0V0h323.333zm-36.77 22.632H22.634V184.89h263.629c-1.571-3.434-2.747-6.19-4.084-8.864-10.519-21.22-20.882-42.523-31.712-63.582-3.135-6.103-3.109-11.243.052-17.232 6.772-12.837 13.058-25.932 19.504-38.944 5.389-10.892 10.716-21.794 16.54-33.637z" fill="#9D9F9F"/><path fill-rule="evenodd" clip-rule="evenodd" d="M106.962 158.713l-26.147-35.8h-5.099v35.8H46.87V46.071h45.118c12.436 0 22.453 3.02 30.054 9.066 7.597 6.051 11.556 15.386 11.872 28.005 0 19.948-7.389 32.241-22.163 36.911l30.77 38.665h-35.547l-.011-.005zM75.716 98.41h16.737c5.628 0 9.613-2.142 11.949-6.44 2.332-4.292 2.332-8.595 0-12.887-2.331-4.293-6.321-6.44-11.954-6.44H75.711V98.42v-.01h.005zm158.19-17.988c-.104 3.082-1.13 6.434-3.109 10.033a19.838 19.838 0 01-8.524 8.275c6.907 3.496 11.524 8.172 13.85 14.011 2.348 5.839 3.037 11.46 2.078 16.86-3.083 19.42-16.473 29.117-40.174 29.117h-46.076V46.066h45.283c11.048 0 20.002 3.103 26.857 9.31 6.861 6.195 10.141 14.542 9.82 25.056l-.005-.01zm-53.248 9.713h16.581c4.363 0 7.472-1.676 9.343-5.017 1.85-3.346 1.881-6.671.073-10.023-1.793-3.356-4.928-5.016-9.4-5.016h-16.582v20.056h-.015zm0 43.598h16.581c5.42 0 9.224-1.929 11.411-5.813 2.176-3.858 2.16-7.717-.068-11.533-2.254-3.827-6.026-5.731-11.332-5.731h-16.582v23.082l-.01-.005z" fill="#9D9F9F"/><path d="M363.945 140.606l-19.069-26.117h-3.721v26.117h-21.038V58.458h32.905c9.068 0 16.374 2.203 21.918 6.609 5.545 4.412 8.426 11.223 8.654 20.429 0 14.543-5.389 23.516-16.167 26.919l22.447 28.196h-25.929v-.005zm-22.8-43.98h12.213c4.109 0 7.016-1.573 8.716-4.697 1.71-3.134 1.71-6.268 0-9.402-1.71-3.134-4.612-4.696-8.716-4.696H341.15v18.794h-.005zm72.788-38.169v54.651c0 2.482.819 4.577 2.451 6.325 1.622 1.738 3.576 2.793 5.871 3.191 2.28.388 4.597.388 6.918 0 2.332-.393 4.301-1.448 5.933-3.191 1.622-1.748 2.446-3.848 2.446-6.325V58.452h21.038v54.656c0 4.179-.751 7.99-2.264 11.429a23.773 23.773 0 01-6.105 8.534 38.368 38.368 0 01-8.783 5.741 29.335 29.335 0 01-10.348 2.844c-3.601.31-7.228.31-10.871 0a29.645 29.645 0 01-10.405-2.844 37.124 37.124 0 01-8.716-5.741c-2.523-2.234-4.518-5.089-5.99-8.534-1.477-3.434-2.207-7.25-2.207-11.429V58.452h21.038l-.006.006zm51.756 68.459l13.136-12.308c1.554 1.939 3.503 3.568 5.871 4.877 2.368 1.308 4.715 2.172 7.037 2.549 2.332.388 4.539.481 6.622.285 2.093-.192 3.835-.828 5.234-1.914 1.388-1.076 2.124-2.482 2.207-4.179.078-2.172-1.285-3.941-4.073-5.337-2.782-1.396-6.114-2.363-10.001-2.896-7.202-1.169-13.234-3.967-18.074-8.42-4.84-4.448-7.265-10.343-7.265-17.698 0-7.654 2.923-13.669 8.773-18.05 5.856-4.37 12.851-6.547 20.986-6.547 11.556 0 20.935 4.37 28.148 13.106L510.683 80.83a21.19 21.19 0 00-9.768-5.979c-3.721-1.045-6.959-.967-9.716.233-2.746 1.2-4.166 3.351-4.249 6.444.238 3.548 3.886 6.103 10.933 7.654 3.338.61 6.245 1.272 8.716 1.965 2.488.704 5.078 1.759 7.788 3.197 2.711 1.432 4.902 3.092 6.581 4.985 1.659 1.898 3.006 4.375 4.006 7.432 1.005 3.051 1.425 6.516 1.28 10.38a21.263 21.263 0 01-5.41 13.343 30.104 30.104 0 01-12.203 8.533 41.538 41.538 0 01-14.939 2.741c-5.042 0-10.053-1.293-15.007-3.842-4.953-2.555-9.275-6.222-12.996-11.016l-.01.015zM593.7 83.51c-.083 2.25-.829 4.69-2.27 7.318a14.436 14.436 0 01-6.218 6.035c5.037 2.55 8.405 5.958 10.105 10.214 1.71 4.257 2.212 8.358 1.513 12.299-2.249 14.16-12.012 21.235-29.298 21.235h-33.604V58.458h33.024c8.057 0 14.591 2.265 19.587 6.785 5.005 4.52 7.394 10.612 7.161 18.277v-.01zm-38.838 7.085h12.095c3.181 0 5.451-1.226 6.814-3.656 1.347-2.442 1.368-4.872.052-7.313-1.306-2.447-3.597-3.657-6.856-3.657h-12.094v14.626h-.011zm0 31.796h12.095c3.953 0 6.726-1.407 8.322-4.241 1.585-2.813 1.575-5.627-.052-8.409-1.643-2.793-4.394-4.179-8.265-4.179h-12.089v16.829h-.011zm89.184-63.939l29.417 82.159H651.14l-5.353-16.477h-21.971l-5.119 16.482h-22.334l28.728-82.153h18.955v-.01zm-15.582 47.219h12.333l-5.7-24.013h-.585l-6.042 24.018-.006-.005zm43.952 21.245l13.136-12.308c1.555 1.939 3.503 3.568 5.871 4.877 2.373 1.308 4.716 2.172 7.047 2.549 2.322.388 4.534.481 6.618.285 2.093-.192 3.834-.828 5.233-1.914 1.389-1.076 2.125-2.482 2.208-4.179.077-2.172-1.286-3.941-4.073-5.337-2.783-1.396-6.115-2.363-10.001-2.896-7.203-1.169-13.234-3.967-18.074-8.42-4.845-4.448-7.27-10.343-7.27-17.698 0-7.654 2.922-13.669 8.772-18.05 5.856-4.37 12.851-6.547 20.987-6.547 11.555 0 20.934 4.37 28.147 13.106L717.41 80.83a21.233 21.233 0 00-9.773-5.979c-3.721-1.045-6.959-.967-9.716.233-2.746 1.2-4.166 3.351-4.249 6.444.238 3.548 3.886 6.103 10.934 7.654 3.337.61 6.244 1.272 8.715 1.965 2.488.704 5.079 1.759 7.789 3.197 2.71 1.432 4.902 3.092 6.58 4.985 1.659 1.898 3.006 4.375 4.006 7.432 1.005 3.051 1.425 6.516 1.28 10.38a21.263 21.263 0 01-5.41 13.343c-3.368 3.879-7.446 6.723-12.208 8.533a41.538 41.538 0 01-14.939 2.741c-5.042 0-10.053-1.293-15.007-3.842-4.948-2.555-9.265-6.222-12.99-11.016l-.006.015zm89.308-48.976v12.774h33.371v17.982h-33.371v12.299h36.283v19.616h-57.331V58.458h57.321v19.497l-36.288-.01.015-.005z" fill="#9D9F9F"/></svg>