<svg xmlns="http://www.w3.org/2000/svg" width="1591" height="131" fill="none"><path fill-rule="evenodd" clip-rule="evenodd" d="M574.435 70.263v-13.25c0-11.936-3.219-15.414-10.07-15.414-5.56 0-9.914 3.226-13.759 7.737v32.918c4.187 2.803 6.908 4.618 12.002 4.618 7.323 0 11.827-4.916 11.827-16.609zm-23.829 41.187h6.442l-4.074 14.846h-37.47l4.07-14.846h4.98V41.36h-5.732V24.63h28.934l2.036 11.839c6.167-6.913 12.873-13.638 25.581-13.638 17.091 0 25.461 9.039 25.461 30.39v19.163c0 21.89-13.055 31.05-29.094 31.05-8.815 0-16.361-4.856-21.134-9.004v17.02zM61.448 16.64v71.418H55.63v14.769h41.372v-14.77h-7.143v-71.65h7.143V.03H0v16.378h7.144v71.65H0v14.769h41.371v-14.77h-5.819V16.642h25.896zm89.089 56.798V56.104c0-11.093-3.922-16.071-11.998-16.071-8.083 0-12.179 4.977-12.179 16.07v17.335c0 11.273 4.096 15.113 12.179 15.113 8.076 0 11.998-4.38 11.998-15.113zm26.229-15.531v12.29c0 24.534-15.457 34.426-38.227 34.426-21.72 0-38.402-9.892-38.402-32.986V58.086c0-24.289 16.682-34.066 38.402-34.066 22.77 0 38.227 9.653 38.227 33.887zM737.61 84.53V66.744l-7.141 1.253c-11.298 1.984-13.112 4.493-13.112 11.616 0 5.82 1.814 9.267 9.075 9.267 4.742 0 8.722-2.13 11.178-4.35zm26.166-33.94v37.467h6.146v14.77H740.46l-2.036-7.932c-4.473 5.056-11.707 9.728-22.119 9.728-14.868 0-23.709-8.503-23.709-22.177V80.53c0-15.776 10.536-20.514 36.764-25.11l8.25-1.446v-3.509c0-7.553-3.099-10.493-12.054-10.493-4.457 0-6.732.66-8.847 1.442v8.148h-19.962V31.097c8.261-4.021 19.382-7.078 32.96-7.078 25.171 0 34.069 9.357 34.069 26.571zm-80.52 37.271V25.035h-32.023v16.729h5.971v14.39h-18.512v-31.12H606.67v16.729h5.965V87.86h-5.094v14.771h36.593v-14.77h-5.442V69.767h18.512V87.86h-5.095v14.771h36.599v-14.77h-5.452zm-426.136.165v-62.99h-77.058v15.71h7.145v47.28h-7.145v14.768h38.529V88.026h-5.822V40.983h18.787v47.043h-5.818v14.768h38.526V88.026h-7.144zm73.794-63.224l-17.43 45.929-.831 6.857-.716-6.876-18.712-45.674h-28.121v16.73h7.76l24.628 60.386 8.235-.178-4.919 1.964-.945 3.032c-1.188 3.989-2.845 7.556-8.806 5.222v-8.828H272.1v17.115c4.054 6.664 14.582 9.523 20.651 9.523 7.957 0 22.282-2.143 26.076-12.858l28.986-75.565h5.864v-16.78h-22.763zm489.74 35.85c-11.054.09-15.957-4.49-15.957-11.616 0-5.817 2.115-9.538 5.789-10.967 3.68-1.432 6.934-.533 11.619-.533V60.48l-1.451.172zm27.933 27.412l-.316-43.524v-3.943h6.147v-14.77h-51.576c-14.873 0-22.911 8.13-22.911 21.804v1.921c0 11.08 7.473 17.56 20.408 20.44l-6.742 1.695-8.727 16.377h-7.862v14.77H801.8v-.197l.804-.006 16.578-30.835c.12 0 .239.007.358.007l2.565.023v16.238h-4.659v14.77h37.93v-14.77h-6.789zM477.235 59.697c-11.056.088-15.961-4.492-15.961-11.614 0-5.822 2.118-9.543 5.79-10.97 3.684-1.434 6.934-.535 11.624-.535v22.945l-1.453.174zm27.932 28.365l-.311-43.299v-5.122h6.14V24.873H459.42c-14.868 0-22.905 8.134-22.905 21.803v1.918c0 10.698 6.954 17.11 19.065 20.135l.76 1.05-7.588 1.906-8.723 16.377h-7.869v14.77h24.802v-.197l.799-.006 17.098-31.8c.424.006.831.02 1.264.02l2.565.022v17.192h-4.666v14.769h37.936v-14.77h-6.791zm-86.233-.197l-21.333-63.226H361.52v16.729h7.177l-18.19 46.698h-7.177v14.769h31.326v-14.77h-3.955l11.782-30.898 10.403 30.698h-6.518v14.771h38.014V87.865h-5.448zm797.446-3.371V66.713l-7.14 1.25c-11.29 1.98-13.11 4.492-13.11 11.62 0 5.815 1.82 9.13 9.08 9.13 4.74 0 8.72-1.998 11.17-4.219zm26.17-33.943v37.474h6.15v14.768h-29.46l-2.04-7.937c-4.47 5.058-11.71 9.733-22.12 9.733-14.87 0-23.71-8.501-23.71-22.177v-1.918c0-15.772 10.54-20.512 36.76-25.11l8.25-1.446v-3.505c0-7.555-3.1-10.495-12.05-10.495-4.46 0-6.74.66-8.85 1.442v8.144h-19.95V31.063c8.25-4.016 19.37-7.196 32.95-7.196 25.17 0 34.07 9.473 34.07 26.684zm315.61 33.943V66.713l-7.14 1.25c-11.3 1.98-13.12 4.492-13.12 11.62 0 5.815 1.82 9.13 9.08 9.13 4.74 0 8.72-1.998 11.18-4.219zm26.17-33.943v37.474h6.14v14.768h-29.46l-2.03-7.937c-4.48 5.058-11.71 9.733-22.12 9.733-14.88 0-23.72-8.501-23.72-22.177v-1.918c0-15.772 10.54-20.512 36.77-25.11l8.25-1.446v-3.505c0-7.555-3.1-10.495-12.06-10.495-4.45 0-6.73.66-8.84 1.442v8.144h-19.96V31.063c8.26-4.016 17.41-7.196 30.99-7.196 25.18 0 36.04 9.473 36.04 26.684zM1007.22 0v16.371h-7.2v71.657h7.2v14.768h-41.97V88.028h7.841V33.106l-17.506 49.355h-14.106l-18.325-49.355v54.922h7.493v14.768h-34.711V88.028h7.203V16.37h-7.203V0h38.774l16.667 46.5L968.406 0h38.814zm29.49 56.31h22.77v-3.293c0-10.675-3.23-13.457-10.95-13.457-7.26 0-11.82 3.495-11.82 14.116v2.635zm46.24-1.37v14.984h-46.24v2.277c0 12.48 4.91 16.261 15.22 16.261 4.68 0 8.89-.653 11.35-1.73v-8.28h19.67v17.81c-6.13 4.061-16.1 8.326-31.73 8.326-25.82 0-40.51-10.497-40.51-33.881V57.75c0-20.15 11.71-33.883 37.35-33.883 24.71 0 34.89 9.773 34.89 31.072zm335.89 33.017V42.456h5.09v-16.68H1386v16.68h6.79V77.37c-3.75 3.82-8.73 7.662-14.7 7.662-5.07 0-7.37-2.696-7.37-9.537V42.456h6.79v-16.68h-37.59v16.68h4.74v37.14c0 17.989 8.2 25.109 22.72 25.109 10.89 0 19.32-6.049 25.78-13.528l2.07 11.61h29.58v-14.83h-5.97zm-86.74.071V25.787h-32.02v16.736h5.97v13.793h-18.52v-30.53h-32.01v16.737h5.97v45.505h-5.1v14.768h36.59V88.028h-5.45V69.93h18.52v18.1h-5.09v14.767h36.59V88.028h-5.45zm174.71 0l-.16.113-25.74-29.468 15.81-15.924 9.32.01v-16.73h-30.42v12.668l-11.45 13.013-.16.792V25.787h-32.02v16.736h5.97v45.505h-5.09v14.768h36.59V88.028h-5.45V72.811l12.6 15.453h.18v14.771h32.34V88.028h-2.32zm-341.5-45.264V26.03h-22.91l-12.64 20.712-15.79-20.711h-24.37v16.733h5.77l14.27 18.616 6.18.713-5.17 2.127L1097 88.269h-6.41v14.74h19.64l13.26-23.264 17.76 23.264h24.06v-14.74h-3.11l-19.14-24.597-4.49-1.646 3.9-1.177 11.63-18.064 11.21-.02z" fill="#9D9F9F"/></svg>